<svg width="329" height="184" viewBox="0 0 329 184" fill="none" xmlns="http://www.w3.org/2000/svg">
<path d="M53.28 181H51.78V182.5H53.28V181ZM53.28 137.22H54.78V135.72H53.28V137.22ZM0.0400004 137.22H-1.46V138.72H0.0400004V137.22ZM0.0400004 111.26L-1.33901 110.67L-1.46 110.952V111.26H0.0400004ZM46.46 2.79999V1.29999H45.4704L45.081 2.20978L46.46 2.79999ZM81.88 2.79999H83.38V1.29999H81.88V2.79999ZM81.88 113.02H80.38V114.52H81.88V113.02ZM100.14 113.02H101.64V111.52H100.14V113.02ZM100.14 137.22V138.72H101.64V137.22H100.14ZM81.88 137.22V135.72H80.38V137.22H81.88ZM81.88 181V182.5H83.38V181H81.88ZM25.56 113.02L24.1478 112.514L23.4299 114.52H25.56V113.02ZM53.28 113.02V114.52H54.78V113.02H53.28ZM53.28 35.58H54.78L51.8678 35.0745L53.28 35.58ZM54.78 181V137.22H51.78V181H54.78ZM53.28 135.72H0.0400004V138.72H53.28V135.72ZM1.54 137.22V111.26H-1.46V137.22H1.54ZM1.41901 111.85L47.839 3.39019L45.081 2.20978L-1.33901 110.67L1.41901 111.85ZM46.46 4.29999H81.88V1.29999H46.46V4.29999ZM80.38 2.79999V113.02H83.38V2.79999H80.38ZM81.88 114.52H100.14V111.52H81.88V114.52ZM98.64 113.02V137.22H101.64V113.02H98.64ZM100.14 135.72H81.88V138.72H100.14V135.72ZM80.38 137.22V181H83.38V137.22H80.38ZM81.88 179.5H53.28V182.5H81.88V179.5ZM25.56 114.52H53.28V111.52H25.56V114.52ZM54.78 113.02V35.58H51.78V113.02H54.78ZM51.8678 35.0745L24.1478 112.514L26.9722 113.526L54.6923 36.0855L51.8678 35.0745ZM136.639 177.04L135.82 178.296L135.826 178.3L135.832 178.304L136.639 177.04ZM121.239 158.78L119.863 159.377L119.868 159.388L119.873 159.399L121.239 158.78ZM121.019 25.68L119.639 25.0922L119.634 25.1049L121.019 25.68ZM136.199 7.2L135.392 5.93561L135.386 5.93956L135.38 5.94358L136.199 7.2ZM188.779 7.2L187.96 8.45641L187.966 8.46043L187.972 8.46438L188.779 7.2ZM203.959 25.68L202.57 26.2459L202.577 26.2616L202.583 26.2771L203.959 25.68ZM203.739 158.78L202.373 158.161L202.368 158.172L202.363 158.183L203.739 158.78ZM188.339 177.04L187.532 175.776L187.526 175.78L187.52 175.784L188.339 177.04ZM172.719 153.28L173.897 154.209L172.719 153.28ZM177.119 143.16L175.644 142.887V142.887L177.119 143.16ZM177.119 41.3L175.634 41.5121L175.639 41.5427L175.644 41.5731L177.119 41.3ZM172.939 30.96L171.762 31.8895L172.939 30.96ZM147.859 41.3L146.383 41.0363L146.379 41.0582L146.376 41.0802L147.859 41.3ZM148.079 143.16L146.604 143.433L146.609 143.459L146.615 143.485L148.079 143.16ZM152.699 153.28L151.522 154.209L152.699 153.28ZM162.599 182.14C152.395 182.14 144.041 179.985 137.446 175.776L135.832 178.304C143.025 182.895 151.978 185.14 162.599 185.14V182.14ZM137.459 175.784C130.966 171.549 126.015 165.69 122.606 158.161L119.873 159.399C123.503 167.416 128.819 173.731 135.82 178.296L137.459 175.784ZM122.615 158.183C119.338 150.631 117.679 141.894 117.679 131.94H114.679C114.679 142.226 116.394 151.382 119.863 159.377L122.615 158.183ZM117.679 131.94V52.96H114.679V131.94H117.679ZM117.679 52.96C117.679 42.6986 119.269 33.8084 122.405 26.2551L119.634 25.1049C116.316 33.0982 114.679 42.3947 114.679 52.96H117.679ZM122.399 26.2678C125.665 18.6015 130.539 12.6827 137.019 8.45641L135.38 5.94358C128.367 10.5173 123.121 16.9184 119.639 25.0922L122.399 26.2678ZM137.006 8.46438C143.595 4.2591 152.092 2.09999 162.599 2.09999V-0.900013C151.694 -0.900013 142.591 1.34088 135.392 5.93561L137.006 8.46438ZM162.599 2.09999C173.109 2.09999 181.525 4.25983 187.96 8.45641L189.599 5.94358C182.54 1.34015 173.503 -0.900013 162.599 -0.900013V2.09999ZM187.972 8.46438C194.592 12.6894 199.455 18.5994 202.57 26.2459L205.349 25.1141C202.01 16.9206 196.754 10.5105 189.586 5.93561L187.972 8.46438ZM202.583 26.2771C205.858 33.8241 207.519 42.7063 207.519 52.96H210.519C210.519 42.387 208.807 33.0825 205.335 25.0829L202.583 26.2771ZM207.519 52.96V131.94H210.519V52.96H207.519ZM207.519 131.94C207.519 141.886 205.79 150.615 202.373 158.161L205.106 159.399C208.729 151.398 210.519 142.234 210.519 131.94H207.519ZM202.363 158.183C199.104 165.693 194.164 171.542 187.532 175.776L189.146 178.304C196.301 173.738 201.628 167.414 205.115 159.377L202.363 158.183ZM187.52 175.784C181.079 179.984 172.806 182.14 162.599 182.14V185.14C173.219 185.14 182.106 182.896 189.159 178.296L187.52 175.784ZM162.599 158.96C167.465 158.96 171.335 157.454 173.897 154.209L171.542 152.351C169.703 154.679 166.827 155.96 162.599 155.96V158.96ZM173.897 154.209C176.267 151.207 177.823 147.6 178.594 143.433L175.644 142.887C174.949 146.64 173.572 149.78 171.542 152.351L173.897 154.209ZM178.594 143.433C179.343 139.388 179.719 135.41 179.719 131.5H176.719C176.719 135.217 176.362 139.012 175.644 142.887L178.594 143.433ZM179.719 131.5V53.4H176.719V131.5H179.719ZM179.719 53.4C179.719 49.2035 179.345 45.0787 178.594 41.0269L175.644 41.5731C176.361 45.4413 176.719 49.3831 176.719 53.4H179.719ZM178.604 41.0879C177.987 36.7637 176.507 33.0577 174.117 30.0305L171.762 31.8895C173.772 34.4357 175.079 37.623 175.634 41.5121L178.604 41.0879ZM174.117 30.0305C171.546 26.7747 167.592 25.28 162.599 25.28V28.28C166.993 28.28 169.932 29.5719 171.762 31.8895L174.117 30.0305ZM162.599 25.28C157.606 25.28 153.652 26.7747 151.082 30.0305L153.437 31.8895C155.266 29.5719 158.206 28.28 162.599 28.28V25.28ZM151.082 30.0305C148.704 33.0424 147.152 36.729 146.383 41.0363L149.336 41.5637C150.034 37.6576 151.415 34.4509 153.437 31.8895L151.082 30.0305ZM146.376 41.0802C145.778 45.1148 145.479 49.2216 145.479 53.4H148.479C148.479 49.365 148.768 45.4052 149.343 41.5198L146.376 41.0802ZM145.479 53.4V131.5H148.479V53.4H145.479ZM145.479 131.5C145.479 135.41 145.855 139.388 146.604 143.433L149.554 142.887C148.837 139.012 148.479 135.217 148.479 131.5H145.479ZM146.615 143.485C147.537 147.634 149.163 151.222 151.522 154.209L153.877 152.351C151.835 149.765 150.382 146.606 149.544 142.835L146.615 143.485ZM151.522 154.209C154.074 157.442 157.861 158.96 162.599 158.96V155.96C158.537 155.96 155.725 154.691 153.877 152.351L151.522 154.209ZM281.659 181H280.159V182.5H281.659V181ZM281.659 137.22H283.159V135.72H281.659V137.22ZM228.419 137.22H226.919V138.72H228.419V137.22ZM228.419 111.26L227.04 110.67L226.919 110.952V111.26H228.419ZM274.839 2.79999V1.29999H273.849L273.46 2.20978L274.839 2.79999ZM310.259 2.79999H311.759V1.29999H310.259V2.79999ZM310.259 113.02H308.759V114.52H310.259V113.02ZM328.519 113.02H330.019V111.52H328.519V113.02ZM328.519 137.22V138.72H330.019V137.22H328.519ZM310.259 137.22V135.72H308.759V137.22H310.259ZM310.259 181V182.5H311.759V181H310.259ZM253.939 113.02L252.527 112.514L251.809 114.52H253.939V113.02ZM281.659 113.02V114.52H283.159V113.02H281.659ZM281.659 35.58H283.159L280.247 35.0745L281.659 35.58ZM283.159 181V137.22H280.159V181H283.159ZM281.659 135.72H228.419V138.72H281.659V135.72ZM229.919 137.22V111.26H226.919V137.22H229.919ZM229.798 111.85L276.218 3.39019L273.46 2.20978L227.04 110.67L229.798 111.85ZM274.839 4.29999H310.259V1.29999H274.839V4.29999ZM308.759 2.79999V113.02H311.759V2.79999H308.759ZM310.259 114.52H328.519V111.52H310.259V114.52ZM327.019 113.02V137.22H330.019V113.02H327.019ZM328.519 135.72H310.259V138.72H328.519V135.72ZM308.759 137.22V181H311.759V137.22H308.759ZM310.259 179.5H281.659V182.5H310.259V179.5ZM253.939 114.52H281.659V111.52H253.939V114.52ZM283.159 113.02V35.58H280.159V113.02H283.159ZM280.247 35.0745L252.527 112.514L255.351 113.526L283.071 36.0855L280.247 35.0745Z" fill="#575656"/>
</svg>
