<svg width="288" height="144" viewBox="0 0 288 144" fill="none" xmlns="http://www.w3.org/2000/svg">
<path d="M84.3605 126H82.8605V127.5H84.3605V126ZM84.3605 102.12H85.8605V100.62H84.3605V102.12ZM55.3205 102.12H53.8205V103.62H55.3205V102.12ZM55.3205 87.96L53.9415 87.3698L53.8205 87.6525V87.96H55.3205ZM80.6405 28.8V27.3H79.6508L79.2615 28.2098L80.6405 28.8ZM99.9605 28.8H101.46V27.3H99.9605V28.8ZM99.9605 88.92H98.4605V90.42H99.9605V88.92ZM109.92 88.92H111.42V87.42H109.92V88.92ZM109.92 102.12V103.62H111.42V102.12H109.92ZM99.9605 102.12V100.62H98.4605V102.12H99.9605ZM99.9605 126V127.5H101.46V126H99.9605ZM69.2405 88.92L67.8282 88.4145L67.1103 90.42H69.2405V88.92ZM84.3605 88.92V90.42H85.8605V88.92H84.3605ZM84.3605 46.68H85.8605L82.9482 46.1745L84.3605 46.68ZM85.8605 126V102.12H82.8605V126H85.8605ZM84.3605 100.62H55.3205V103.62H84.3605V100.62ZM56.8205 102.12V87.96H53.8205V102.12H56.8205ZM56.6995 88.5502L82.0195 29.3902L79.2615 28.2098L53.9415 87.3698L56.6995 88.5502ZM80.6405 30.3H99.9605V27.3H80.6405V30.3ZM98.4605 28.8V88.92H101.46V28.8H98.4605ZM99.9605 90.42H109.92V87.42H99.9605V90.42ZM108.42 88.92V102.12H111.42V88.92H108.42ZM109.92 100.62H99.9605V103.62H109.92V100.62ZM98.4605 102.12V126H101.46V102.12H98.4605ZM99.9605 124.5H84.3605V127.5H99.9605V124.5ZM69.2405 90.42H84.3605V87.42H69.2405V90.42ZM85.8605 88.92V46.68H82.8605V88.92H85.8605ZM82.9482 46.1745L67.8282 88.4145L70.6527 89.4255L85.7727 47.1855L82.9482 46.1745ZM129.829 123.84L129.01 125.096L129.016 125.1L129.022 125.104L129.829 123.84ZM121.429 113.88L120.053 114.477L120.058 114.488L120.063 114.499L121.429 113.88ZM121.309 41.28L119.929 40.6922L119.924 40.7049L121.309 41.28ZM129.589 31.2L128.782 29.9356L128.776 29.9396L128.77 29.9436L129.589 31.2ZM158.269 31.2L157.45 32.4564L157.456 32.4604L157.462 32.4644L158.269 31.2ZM166.549 41.28L165.16 41.8459L165.166 41.8616L165.173 41.8771L166.549 41.28ZM166.429 113.88L165.063 113.261L165.058 113.272L165.053 113.283L166.429 113.88ZM158.029 123.84L157.222 122.576L157.216 122.58L157.21 122.584L158.029 123.84ZM149.509 110.88L150.687 111.809H150.687L149.509 110.88ZM151.909 105.36L150.434 105.087V105.087L151.909 105.36ZM151.909 49.8L150.424 50.0121L150.429 50.0427L150.434 50.0731L151.909 49.8ZM149.629 44.16L148.452 45.0895L149.629 44.16ZM135.949 49.8L134.473 49.5363L134.469 49.5582L134.465 49.5802L135.949 49.8ZM136.069 105.36L134.594 105.633L134.599 105.659L134.605 105.685L136.069 105.36ZM138.589 110.88L137.412 111.809L138.589 110.88ZM143.989 125.94C138.518 125.94 134.097 124.785 130.636 122.576L129.022 125.104C133.081 127.695 138.101 128.94 143.989 128.94V125.94ZM130.649 122.584C127.222 120.349 124.605 117.257 122.796 113.261L120.063 114.499C122.093 118.983 125.076 122.531 129.01 125.096L130.649 122.584ZM122.805 113.283C121.061 109.264 120.169 104.594 120.169 99.24H117.169C117.169 104.926 118.117 110.016 120.053 114.477L122.805 113.283ZM120.169 99.24V56.16H117.169V99.24H120.169ZM120.169 56.16C120.169 50.632 121.026 45.8751 122.695 41.8551L119.924 40.7049C118.073 45.1649 117.169 50.328 117.169 56.16H120.169ZM122.689 41.8678C124.421 37.8015 126.995 34.6827 130.409 32.4564L128.77 29.9436C124.823 32.5173 121.877 36.1185 119.929 40.6922L122.689 41.8678ZM130.396 32.4644C133.851 30.2591 138.348 29.1 143.989 29.1V26.1C137.95 26.1 132.847 27.3409 128.782 29.9356L130.396 32.4644ZM143.989 29.1C149.632 29.1 154.082 30.2598 157.45 32.4564L159.089 29.9436C155.097 27.3402 150.026 26.1 143.989 26.1V29.1ZM157.462 32.4644C160.948 34.6894 163.511 37.7994 165.16 41.8459L167.938 40.7141C166.067 36.1206 163.11 32.5105 159.076 29.9356L157.462 32.4644ZM165.173 41.8771C166.915 45.8908 167.809 50.6397 167.809 56.16H170.809C170.809 50.3203 169.863 45.1492 167.925 40.6829L165.173 41.8771ZM167.809 56.16V99.24H170.809V56.16H167.809ZM167.809 99.24C167.809 104.586 166.88 109.248 165.063 113.261L167.796 114.499C169.819 110.032 170.809 104.934 170.809 99.24H167.809ZM165.053 113.283C163.328 117.259 160.721 120.342 157.222 122.576L158.836 125.104C162.858 122.538 165.851 118.981 167.805 114.477L165.053 113.283ZM157.21 122.584C153.836 124.784 149.462 125.94 143.989 125.94V128.94C149.876 128.94 154.863 127.696 158.849 125.096L157.21 122.584ZM143.989 114.66C146.788 114.66 149.125 113.787 150.687 111.809L148.332 109.951C147.493 111.013 146.151 111.66 143.989 111.66V114.66ZM150.687 111.809C152.057 110.074 152.946 108 153.384 105.633L150.434 105.087C150.073 107.04 149.362 108.646 148.332 109.951L150.687 111.809ZM153.384 105.633C153.8 103.388 154.009 101.177 154.009 99H151.009C151.009 100.983 150.819 103.012 150.434 105.087L153.384 105.633ZM154.009 99V56.4H151.009V99H154.009ZM154.009 56.4C154.009 54.0702 153.801 51.7787 153.384 49.5269L150.434 50.0731C150.817 52.1413 151.009 54.2498 151.009 56.4H154.009ZM153.394 49.5879C153.043 47.1304 152.196 44.991 150.807 43.2305L148.452 45.0895C149.462 46.369 150.135 47.9896 150.424 50.0121L153.394 49.5879ZM150.807 43.2305C149.236 41.2414 146.849 40.38 143.989 40.38V43.38C146.249 43.38 147.622 44.0386 148.452 45.0895L150.807 43.2305ZM143.989 40.38C141.129 40.38 138.742 41.2414 137.172 43.2305L139.527 45.0895C140.356 44.0386 141.729 43.38 143.989 43.38V40.38ZM137.172 43.2305C135.794 44.9758 134.908 47.0957 134.473 49.5363L137.426 50.0637C137.79 48.0243 138.504 46.3842 139.527 45.0895L137.172 43.2305ZM134.465 49.5802C134.134 51.8148 133.969 54.0883 133.969 56.4H136.969C136.969 54.2317 137.124 52.1052 137.433 50.0198L134.465 49.5802ZM133.969 56.4V99H136.969V56.4H133.969ZM133.969 99C133.969 101.177 134.179 103.388 134.594 105.633L137.544 105.087C137.16 103.012 136.969 100.983 136.969 99H133.969ZM134.605 105.685C135.127 108.034 136.053 110.089 137.412 111.809L139.767 109.951C138.725 108.631 137.972 107.006 137.533 105.035L134.605 105.685ZM137.412 111.809C138.964 113.775 141.251 114.66 143.989 114.66V111.66C141.927 111.66 140.615 111.025 139.767 109.951L137.412 111.809ZM208.931 126H207.431V127.5H208.931V126ZM208.931 102.12H210.431V100.62H208.931V102.12ZM179.891 102.12H178.391V103.62H179.891V102.12ZM179.891 87.96L178.512 87.3698L178.391 87.6525V87.96H179.891ZM205.211 28.8V27.3H204.221L203.832 28.2098L205.211 28.8ZM224.531 28.8H226.031V27.3H224.531V28.8ZM224.531 88.92H223.031V90.42H224.531V88.92ZM234.491 88.92H235.991V87.42H234.491V88.92ZM234.491 102.12V103.62H235.991V102.12H234.491ZM224.531 102.12V100.62H223.031V102.12H224.531ZM224.531 126V127.5H226.031V126H224.531ZM193.811 88.92L192.399 88.4145L191.681 90.42H193.811V88.92ZM208.931 88.92V90.42H210.431V88.92H208.931ZM208.931 46.68H210.431L207.519 46.1745L208.931 46.68ZM210.431 126V102.12H207.431V126H210.431ZM208.931 100.62H179.891V103.62H208.931V100.62ZM181.391 102.12V87.96H178.391V102.12H181.391ZM181.27 88.5502L206.59 29.3902L203.832 28.2098L178.512 87.3698L181.27 88.5502ZM205.211 30.3H224.531V27.3H205.211V30.3ZM223.031 28.8V88.92H226.031V28.8H223.031ZM224.531 90.42H234.491V87.42H224.531V90.42ZM232.991 88.92V102.12H235.991V88.92H232.991ZM234.491 100.62H224.531V103.62H234.491V100.62ZM223.031 102.12V126H226.031V102.12H223.031ZM224.531 124.5H208.931V127.5H224.531V124.5ZM193.811 90.42H208.931V87.42H193.811V90.42ZM210.431 88.92V46.68H207.431V88.92H210.431ZM207.519 46.1745L192.399 88.4145L195.223 89.4255L210.343 47.1855L207.519 46.1745Z" fill="#575656"/>
<rect x="222.617" y="39.2598" width="4.38459" height="16.4422" fill="white"/>
<rect x="168.359" y="82.5576" width="4.38459" height="16.4422" fill="white"/>
<rect x="64.0078" y="60.0869" width="4.38459" height="16.4422" transform="rotate(25.2206 64.0078 60.0869)" fill="white"/>
</svg>
