<svg width="49" height="48" viewBox="0 0 49 48" fill="none" xmlns="http://www.w3.org/2000/svg">
<g clip-path="url(#clip0_456_23270)">
<path d="M36.7837 23.9208C37.173 24.0622 37.6033 23.8613 37.7447 23.472C37.8862 23.0827 37.6852 22.6524 37.2959 22.511L36.7837 23.9208ZM28.8268 21.0456L29.083 20.3406L28.8268 21.0456ZM21.9694 23.2159L21.5285 22.6092L21.9694 23.2159ZM36.0746 33.1001L35.7157 33.7587L36.0746 33.1001ZM38.8335 35.3759C39.1972 35.5741 39.6527 35.44 39.851 35.0763C40.0492 34.7126 39.915 34.257 39.5513 34.0588L38.8335 35.3759ZM22.3816 29.8382L22.1319 29.1309L22.3816 29.8382ZM17.5159 26.4522L17.075 25.8455L17.5159 26.4522ZM17.3696 26.5856L17.9424 27.0698L17.3696 26.5856ZM37.2959 22.511C36.4913 22.2186 34.6866 21.774 32.9982 21.361C31.2514 20.9338 29.6373 20.5421 29.083 20.3406L28.5707 21.7505C29.2254 21.9883 30.9621 22.4072 32.6418 22.8181C34.3798 23.2431 36.077 23.664 36.7837 23.9208L37.2959 22.511ZM29.083 20.3406C27.2044 19.6581 24.6017 20.3758 21.5285 22.6092L22.4103 23.8226C25.3822 21.6629 27.4267 21.3348 28.5707 21.7505L29.083 20.3406ZM21.5285 22.6092C19.2268 24.2818 17.6554 25.4237 17.075 25.8455L17.9568 27.0589C18.5372 26.6372 20.1086 25.4952 22.4103 23.8226L21.5285 22.6092ZM16.7969 26.1014C16.4864 26.4687 16.1208 27.0589 15.9448 27.7641C15.765 28.4844 15.7782 29.3567 16.292 30.1967L17.5716 29.4141C17.3137 28.9924 17.294 28.5526 17.4001 28.1274C17.51 27.687 17.7492 27.2982 17.9424 27.0698L16.7969 26.1014ZM16.292 30.1967C16.6289 30.7476 17.1808 31.0264 17.7181 31.1601C18.2547 31.2936 18.856 31.3044 19.4326 31.2586C20.589 31.1667 21.8206 30.8316 22.6313 30.5454L22.1319 29.1309C21.3964 29.3906 20.2982 29.6851 19.3138 29.7633C18.8199 29.8025 18.398 29.7835 18.0803 29.7045C17.7633 29.6256 17.6297 29.5091 17.5716 29.4141L16.292 30.1967ZM22.936 30.4025C23.6516 29.9824 24.8394 29.4646 26.1081 29.256C27.3821 29.0466 28.6275 29.1645 29.5886 29.863L30.4704 28.6495C29.0568 27.6222 27.3444 27.5327 25.8648 27.7759C24.38 28.0199 23.0186 28.6147 22.1766 29.109L22.936 30.4025ZM29.5886 29.863C32.0389 31.6436 34.6872 33.1981 35.7157 33.7587L36.4335 32.4416C35.447 31.9039 32.8562 30.3833 30.4704 28.6495L29.5886 29.863ZM35.7157 33.7587C36.0414 33.9362 36.5612 34.1983 37.1177 34.4814C37.682 34.7685 38.296 35.083 38.8335 35.3759L39.5513 34.0588C38.9929 33.7545 38.3615 33.4312 37.7977 33.1444C37.226 32.8536 36.7348 32.6058 36.4335 32.4416L35.7157 33.7587ZM22.6313 30.5454C22.7456 30.505 22.8458 30.4555 22.936 30.4025L22.1766 29.109C22.1541 29.1222 22.1409 29.1278 22.1319 29.1309L22.6313 30.5454ZM17.075 25.8455C16.9848 25.9111 16.8876 25.994 16.7969 26.1014L17.9424 27.0698C17.9378 27.0752 17.9391 27.0718 17.9568 27.0589L17.075 25.8455Z" fill="#242424"/>
<path d="M37.8845 34.1797C38.0596 34.7296 38.3047 36.0495 37.8845 36.9294C37.3592 38.0293 36.3087 39.1292 34.7329 38.0293C33.4722 37.1494 30.0055 35.0963 28.4297 34.1797" stroke="#242424" stroke-width="1.5" stroke-linecap="round"/>
<path d="M34.6722 38.4844C34.8348 38.9468 35.0625 39.6655 34.6722 40.4054C34.1843 41.3302 33.2085 42.2551 31.7447 41.3302C30.5737 40.5903 28.8173 39.7888 27.3535 39.0181" stroke="#242424" stroke-width="1.5" stroke-linecap="round"/>
<path d="M31.398 41.5434C31.5719 42.0666 31.8608 42.7899 31.4437 43.627C30.9222 44.6734 30.072 45.3448 28.3151 44.6734C24.5921 43.2507 22.8906 42.6816 21.0151 42.0575C19.6247 41.7087 16.1137 40.5925 13.1938 38.9183C10.2738 37.2441 8.50092 34.7029 7.97949 34.1797" stroke="#242424" stroke-width="1.5" stroke-linecap="round"/>
<path d="M24.1237 43.8688L23.1853 45.413C23.1565 45.4604 23.1239 45.5051 23.088 45.5474C22.5773 46.1498 21.5659 47.4483 20.4164 47.0047C19.2248 46.5449 18.9269 45.6636 18.9269 45.2804M18.9269 45.2804L19.7059 42.0747M18.9269 45.2804C18.5959 46.0467 16.8258 46.6639 15.6342 45.7443C14.4426 44.8247 14.624 44.5141 14.4585 44.1309M14.4585 44.1309L16.2698 40.37M14.4585 44.1309C13.631 44.3225 13.6125 45.1191 12.2956 43.8688C11.6372 43.2436 10.7886 42.5858 11.0771 41.8319M12.8338 38.6653C12.0924 39.6461 11.5898 40.4919 11.0771 41.8319M11.0771 41.8319C9.55632 41.6403 7.71833 41.0162 7.97906 37.9466C8.04843 37.1299 7.97906 36.8703 8.51716 35.7939" stroke="#242424" stroke-width="1.5" stroke-linecap="round"/>
<path d="M36.5487 21.4252C36.37 20.7584 36.7658 20.073 37.4326 19.8943L42.1322 18.6351C42.799 18.4564 43.4844 18.8521 43.6631 19.5189L47.136 32.48C47.3147 33.1469 46.919 33.8323 46.2522 34.011L41.5526 35.2702C40.8857 35.4489 40.2003 35.0532 40.0216 34.3863L36.5487 21.4252Z" stroke="#242424" stroke-width="1.5"/>
<rect x="4.91998" y="17.2262" width="7.35347" height="15.9183" rx="1.25" transform="rotate(15 4.91998 17.2262)" stroke="#242424" stroke-width="1.5"/>
<path d="M7.69225 20.8259C7.69225 21.2351 7.36055 21.5668 6.95138 21.5668C6.54222 21.5668 6.21052 21.2351 6.21052 20.8259C6.21052 20.4168 6.54222 20.0851 6.95139 20.0851C7.36055 20.0851 7.69225 20.4168 7.69225 20.8259Z" stroke="#242424" stroke-width="1.5"/>
<path d="M41.6923 21.8259C41.6923 22.2351 41.3606 22.5668 40.9514 22.5668C40.5422 22.5668 40.2105 22.2351 40.2105 21.8259C40.2105 21.4168 40.5422 21.0851 40.9514 21.0851C41.3606 21.0851 41.6923 21.4168 41.6923 21.8259Z" stroke="#242424" stroke-width="1.5"/>
<path d="M12.2842 21.2637C12.2842 21.2637 14.975 22.34 16.5894 22.34C18.2039 22.34 21.7557 21.4789 23.0473 22.34" stroke="#242424" stroke-width="1.5" stroke-linecap="round"/>
<circle cx="24.125" cy="9" r="7.25" stroke="#FF1E26" stroke-width="1.5"/>
<path d="M25.2197 10.0967H20.8447V9.02344H25.2197C25.6117 9.02344 25.9329 8.94368 26.1836 8.78418C26.4342 8.62467 26.6188 8.39909 26.7373 8.10742C26.8604 7.81576 26.9219 7.47168 26.9219 7.0752C26.9219 6.75163 26.8649 6.44173 26.751 6.14551C26.637 5.84928 26.4548 5.60547 26.2041 5.41406C25.958 5.22266 25.6299 5.12695 25.2197 5.12695H23.292V14H22.041V4.04688H25.2197C25.8577 4.04688 26.3955 4.17676 26.833 4.43652C27.2705 4.69173 27.6032 5.0472 27.8311 5.50293C28.0589 5.9541 28.1729 6.47363 28.1729 7.06152C28.1729 7.69954 28.0589 8.24642 27.8311 8.70215C27.6032 9.15332 27.2705 9.49967 26.833 9.74121C26.3955 9.97819 25.8577 10.0967 25.2197 10.0967ZM25.1377 11.0332V12.1133H20.8447V11.0332H25.1377Z" fill="#FF1E26"/>
</g>
<defs>
<clipPath id="clip0_456_23270">
<rect width="48" height="48" fill="white" transform="translate(0.125)"/>
</clipPath>
</defs>
</svg>
