<svg width="72" height="64" viewBox="0 0 72 64" fill="none" xmlns="http://www.w3.org/2000/svg">
<circle cx="32" cy="32" r="32" fill="white"/>
<mask id="path-2-inside-1_65_2450" fill="white">
<path d="M40.1583 28.7302C40.6515 27.6746 41.7112 27 42.8763 27H60.4436C61.6087 27 62.6685 27.6746 63.1616 28.7302L64.343 31.2589C65.5819 33.911 63.6461 36.952 60.7189 36.952H51.66H42.601C39.6738 36.952 37.738 33.911 38.977 31.2589L40.1583 28.7302Z"/>
</mask>
<path d="M63.1616 28.7302L61.8026 29.3651L63.1616 28.7302ZM42.8763 28.5H60.4436V25.5H42.8763V28.5ZM61.8026 29.3651L62.984 31.8938L65.702 30.624L64.5206 28.0953L61.8026 29.3651ZM40.336 31.8938L41.5173 29.3651L38.7993 28.0953L37.6179 30.624L40.336 31.8938ZM60.7189 35.452H51.66V38.452H60.7189V35.452ZM51.66 35.452H42.601V38.452H51.66V35.452ZM37.6179 30.624C35.9144 34.2706 38.5761 38.452 42.601 38.452V35.452C40.7715 35.452 39.5616 33.5514 40.336 31.8938L37.6179 30.624ZM62.984 31.8938C63.7583 33.5514 62.5484 35.452 60.7189 35.452V38.452C64.7438 38.452 67.4056 34.2706 65.702 30.624L62.984 31.8938ZM60.4436 28.5C61.0262 28.5 61.556 28.8373 61.8026 29.3651L64.5206 28.0953C63.7809 26.5119 62.1913 25.5 60.4436 25.5V28.5ZM42.8763 25.5C41.1286 25.5 39.539 26.5119 38.7993 28.0953L41.5173 29.3651C41.7639 28.8373 42.2938 28.5 42.8763 28.5V25.5Z" fill="#242424" mask="url(#path-2-inside-1_65_2450)"/>
<path d="M36.732 36.9518L37.3832 37.3239L38.0244 36.2018L36.732 36.2018L36.732 36.9518ZM36.3173 49.3918L37.0288 49.629L37.1754 49.1892L36.8477 48.8615L36.3173 49.3918ZM40.464 54.7824V54.0324V54.7824ZM37.0105 32.9381C36.4799 32.7259 35.9544 32.5367 35.4635 32.4086C34.9802 32.2826 34.4816 32.2023 34.0196 32.245C33.5407 32.2892 33.0541 32.4724 32.705 32.9106C32.3707 33.3302 32.25 33.8757 32.25 34.4638H33.75C33.75 34.0568 33.8367 33.8974 33.8782 33.8453C33.9048 33.8118 33.9624 33.7566 34.1574 33.7386C34.3692 33.7191 34.674 33.7529 35.0849 33.8601C35.4881 33.9652 35.9474 34.1285 36.4535 34.3309L37.0105 32.9381ZM32.25 34.4638C32.25 35.813 33.0326 36.659 33.9592 37.1244C34.8478 37.5708 35.9119 37.7018 36.732 37.7018L36.732 36.2018C36.0316 36.2018 35.2298 36.0841 34.6325 35.784C34.0732 35.5031 33.75 35.105 33.75 34.4638H32.25ZM36.0808 36.5797C35.4711 37.6467 34.3233 40.5382 34.3233 44.0011H35.8233C35.8233 40.8294 36.8871 38.192 37.3832 37.3239L36.0808 36.5797ZM34.3233 44.0011C34.3233 45.7212 34.5382 47.0375 34.8203 47.9966C35.0945 48.9289 35.451 49.5861 35.787 49.9221L36.8477 48.8615C36.769 48.7828 36.5035 48.4034 36.2594 47.5733C36.0231 46.7701 35.8233 45.5984 35.8233 44.0011H34.3233ZM35.6058 49.1546C35.4528 49.6136 35.1527 50.7759 35.1527 51.8798H36.6527C36.6527 50.9932 36.9054 49.9993 37.0288 49.629L35.6058 49.1546ZM35.1527 51.8798C35.1527 52.5658 35.2644 53.4076 35.5827 54.108C35.9028 54.8122 36.5223 55.5324 37.5613 55.5324V54.0324C37.3564 54.0324 37.1465 53.9233 36.9483 53.4873C36.7483 53.0473 36.6527 52.4378 36.6527 51.8798H35.1527ZM37.5613 55.5324C39.6142 55.5324 38.8258 55.5324 40.464 55.5324V54.0324C38.8258 54.0324 39.6142 54.0324 37.5613 54.0324V55.5324ZM40.464 55.5324H42.5373V54.0324H40.464V55.5324ZM42.5373 55.5324C43.8676 55.5324 44.946 54.4541 44.946 53.1238H43.446C43.446 53.6256 43.0392 54.0324 42.5373 54.0324V55.5324Z" fill="#242424"/>
<path d="M43.3667 42.7573L37.5614 41.0986" stroke="#242424" stroke-width="1.5"/>
<circle cx="39.6346" cy="46.0744" r="0.829332" fill="#242424"/>
<path d="M42.952 45.6597H52.0746" stroke="#242424" stroke-width="1.5"/>
<path d="M42.952 50.2212H52.0746" stroke="#242424" stroke-width="1.5"/>
<path d="M67.4173 36.9518L66.7661 37.3239L66.1249 36.2018L67.4173 36.2018L67.4173 36.9518ZM67.832 49.3918L67.1205 49.629L66.9739 49.1892L67.3016 48.8615L67.832 49.3918ZM63.6853 54.7824V54.0324V54.7824ZM67.1388 32.9381C67.6694 32.7259 68.1949 32.5367 68.6858 32.4086C69.1691 32.2826 69.6677 32.2023 70.1297 32.245C70.6086 32.2892 71.0952 32.4724 71.4443 32.9106C71.7786 33.3302 71.8993 33.8757 71.8993 34.4638H70.3993C70.3993 34.0568 70.3126 33.8974 70.2711 33.8453C70.2445 33.8118 70.1868 33.7566 69.9919 33.7386C69.7801 33.7191 69.4753 33.7529 69.0644 33.8601C68.6612 33.9652 68.2019 34.1285 67.6958 34.3309L67.1388 32.9381ZM71.8993 34.4638C71.8993 35.813 71.1167 36.659 70.1901 37.1244C69.3015 37.5708 68.2374 37.7018 67.4173 37.7018L67.4173 36.2018C68.1176 36.2018 68.9195 36.0841 69.5168 35.784C70.0761 35.5031 70.3993 35.105 70.3993 34.4638H71.8993ZM68.0685 36.5797C68.6782 37.6467 69.826 40.5382 69.826 44.0011H68.326C68.326 40.8294 67.2622 38.192 66.7661 37.3239L68.0685 36.5797ZM69.826 44.0011C69.826 45.7212 69.6111 47.0375 69.329 47.9966C69.0548 48.9289 68.6983 49.5861 68.3623 49.9221L67.3016 48.8615C67.3803 48.7828 67.6458 48.4034 67.8899 47.5733C68.1262 46.7701 68.326 45.5984 68.326 44.0011H69.826ZM68.5435 49.1546C68.6965 49.6136 68.9966 50.7759 68.9966 51.8798H67.4966C67.4966 50.9932 67.2439 49.9993 67.1205 49.629L68.5435 49.1546ZM68.9966 51.8798C68.9966 52.5658 68.8849 53.4076 68.5666 54.108C68.2464 54.8122 67.627 55.5324 66.588 55.5324V54.0324C66.7929 54.0324 67.0028 53.9233 67.201 53.4873C67.401 53.0473 67.4966 52.4378 67.4966 51.8798H68.9966ZM66.588 55.5324C64.5351 55.5324 65.3235 55.5324 63.6853 55.5324V54.0324C65.3235 54.0324 64.5351 54.0324 66.588 54.0324V55.5324ZM63.6853 55.5324H61.612V54.0324H63.6853V55.5324ZM61.612 55.5324C60.2817 55.5324 59.2033 54.4541 59.2033 53.1238H60.7033C60.7033 53.6256 61.1101 54.0324 61.612 54.0324V55.5324Z" fill="#242424"/>
<path d="M60.7826 42.7573L66.5879 41.0986" stroke="#242424" stroke-width="1.5"/>
<circle r="0.829332" transform="matrix(-1 0 0 1 64.5147 46.0744)" fill="#242424"/>
<path d="M61.1973 45.6597H52.0747" stroke="#242424" stroke-width="1.5"/>
<path d="M61.1973 50.2212H52.0747" stroke="#242424" stroke-width="1.5"/>
<path d="M9.14929 26.5L8.91212 25.7885L8.39929 25.9594V26.5H9.14929ZM9.38646 27.2115C9.93026 27.0302 10.7603 26.6824 11.5191 26.2127C12.2371 25.7682 13.0708 25.1071 13.3608 24.2372L11.9378 23.7628C11.8277 24.0929 11.4115 24.5151 10.7295 24.9373C10.0883 25.3343 9.36832 25.6364 8.91212 25.7885L9.38646 27.2115ZM13.3608 24.2372C13.4885 23.8542 13.8001 23.5145 14.2165 23.2357C14.6293 22.9594 15.0731 22.7921 15.3312 22.7276L14.9674 21.2724C14.5588 21.3745 13.9526 21.6073 13.382 21.9893C12.8151 22.3688 12.2101 22.9458 11.9378 23.7628L13.3608 24.2372ZM8.39929 26.5V33H9.89929V26.5H8.39929ZM8.39929 33C8.39929 33.568 8.59657 34.3755 9.18178 35.0528C9.79043 35.7573 10.7574 36.25 12.1493 36.25V34.75C11.1412 34.75 10.6081 34.4094 10.3168 34.0722C10.002 33.7078 9.89929 33.2653 9.89929 33H8.39929ZM12.1493 36.25C13.8095 36.25 15.4307 35.6992 16.8098 34.9769C18.1918 34.253 19.3778 33.3321 20.1796 32.5303L19.119 31.4697C18.4208 32.1679 17.3568 32.997 16.1138 33.6481C14.8678 34.3008 13.4891 34.75 12.1493 34.75V36.25ZM20.1796 32.5303C20.9495 31.7605 21.9658 30.6165 22.8992 29.5587C23.8487 28.4826 24.7012 27.5088 25.1796 27.0303L24.119 25.9697C23.5974 26.4912 22.6999 27.5174 21.7744 28.5663C20.8328 29.6335 19.8491 30.7395 19.119 31.4697L20.1796 32.5303ZM25.1796 27.0303C25.8076 26.4024 26.1246 25.6189 26.206 24.968C26.2459 24.6491 26.2364 24.3044 26.1306 24.0022C26.0305 23.7163 25.7427 23.25 25.1493 23.25V24.75C25.0055 24.75 24.8808 24.6898 24.7998 24.6139C24.7642 24.5806 24.7428 24.5499 24.7312 24.5305C24.7196 24.5111 24.7152 24.4989 24.7148 24.4978C24.7147 24.4973 24.7225 24.5213 24.7261 24.5759C24.7295 24.6284 24.7281 24.6979 24.7176 24.782C24.6739 25.1311 24.491 25.5976 24.119 25.9697L25.1796 27.0303ZM25.1493 23.25C25.2017 23.25 25.2295 23.263 25.1583 23.2429C25.1081 23.2288 24.9856 23.1913 24.8481 23.1673C24.5334 23.1126 24.1665 23.1275 23.7055 23.2952C22.8504 23.6061 21.6257 24.4629 19.619 26.4697L20.6796 27.5303C22.6729 25.5371 23.6981 24.8939 24.2181 24.7048C24.4446 24.6225 24.5464 24.6374 24.5911 24.6452C24.6333 24.6525 24.6631 24.6618 24.7516 24.6867C24.8191 24.7058 24.9719 24.75 25.1493 24.75V23.25ZM19.619 26.4697C18.8438 27.2449 18.3202 27.5814 17.9925 27.6983C17.8398 27.7528 17.7577 27.7494 17.7242 27.7442C17.6958 27.7398 17.667 27.7293 17.626 27.694C17.5146 27.5982 17.3832 27.3819 17.2412 26.986C17.1749 26.801 17.1149 26.603 17.0528 26.3926C16.9929 26.1897 16.9286 25.9662 16.8608 25.7628L15.4378 26.2372C15.495 26.4088 15.5494 26.5978 15.6141 26.8172C15.6767 27.029 15.7471 27.2631 15.8292 27.4922C15.9842 27.9244 16.2215 28.4643 16.6476 28.831C16.8754 29.027 17.1575 29.1743 17.4943 29.2265C17.8261 29.2779 18.1635 29.23 18.4967 29.111C19.1408 28.8811 19.8548 28.3551 20.6796 27.5303L19.619 26.4697Z" fill="#242424"/>
<path d="M25.1493 24.5L39.6493 19L36.1493 9L13.6493 17.5L16.6493 27.5" stroke="#242424" stroke-width="1.5"/>
<path d="M39.1493 19.5L40.1493 22.5L23.6493 27.5" stroke="#242424" stroke-width="1.5"/>
<circle cx="26.6493" cy="18" r="2.75" stroke="#242424" stroke-width="1.5"/>
<path d="M29.5707 47.2783C29.9849 47.2783 30.3207 46.9425 30.3207 46.5283C30.3207 46.1141 29.9849 45.7783 29.5707 45.7783L29.5707 47.2783ZM20.2921 36.4997C20.2921 36.0855 19.9563 35.7498 19.5421 35.7498C19.1279 35.7498 18.7921 36.0855 18.7921 36.4998L20.2921 36.4997ZM29.5707 45.7783C24.4463 45.7783 20.2921 41.6242 20.2921 36.4997L18.7921 36.4998C18.7921 42.4526 23.6178 47.2783 29.5707 47.2783L29.5707 45.7783Z" fill="#FF1E26"/>
<path d="M17.3107 39.2046C17.1475 39.5853 17.3239 40.0262 17.7046 40.1894C18.0853 40.3525 18.5263 40.1762 18.6894 39.7954L17.3107 39.2046ZM21.4239 39.4801C21.6891 39.7983 22.162 39.8413 22.4802 39.5762C22.7984 39.311 22.8414 38.8381 22.5762 38.5199L21.4239 39.4801ZM19.709 36.2507L19.1328 36.7308L19.709 36.2507ZM18.6894 39.7954L20.0609 36.5954L18.6821 36.0045L17.3107 39.2046L18.6894 39.7954ZM19.1328 36.7308L21.4239 39.4801L22.5762 38.5199L20.2851 35.7706L19.1328 36.7308ZM20.0609 36.5954C19.8991 36.9729 19.3957 37.0463 19.1328 36.7308L20.2851 35.7706C19.831 35.2256 18.9616 35.3525 18.6821 36.0045L20.0609 36.5954Z" fill="#FF1E26"/>
<path d="M44 13.25C43.5858 13.25 43.25 13.5858 43.25 14C43.25 14.4142 43.5858 14.75 44 14.75L44 13.25ZM53.2786 24.0286C53.2786 24.4428 53.6144 24.7786 54.0286 24.7786C54.4428 24.7786 54.7786 24.4428 54.7786 24.0286L53.2786 24.0286ZM44 14.75C49.1244 14.75 53.2786 18.9042 53.2786 24.0286L54.7786 24.0286C54.7786 18.0757 49.9528 13.25 44 13.25L44 14.75Z" fill="#FF1E26"/>
<path d="M56.26 21.3238C56.4231 20.943 56.2468 20.5021 55.8661 20.339C55.4853 20.1758 55.0444 20.3522 54.8813 20.7329L56.26 21.3238ZM52.1468 21.0482C51.8816 20.73 51.4087 20.687 51.0905 20.9522C50.7723 21.2173 50.7293 21.6902 50.9945 22.0085L52.1468 21.0482ZM53.8617 24.2776L54.4379 23.7975L53.8617 24.2776ZM54.8813 20.7329L53.5098 23.9329L54.8885 24.5238L56.26 21.3238L54.8813 20.7329ZM54.4379 23.7975L52.1468 21.0482L50.9945 22.0085L53.2855 24.7578L54.4379 23.7975ZM53.5098 23.9329C53.6716 23.5555 54.175 23.482 54.4379 23.7975L53.2855 24.7578C53.7396 25.3027 54.6091 25.1758 54.8885 24.5238L53.5098 23.9329Z" fill="#FF1E26"/>
</svg>
