<svg width="64" height="48" viewBox="0 0 64 48" fill="none" xmlns="http://www.w3.org/2000/svg">
<mask id="path-1-inside-1_29_2280" fill="white">
<path d="M32.1582 20.7302C32.6514 19.6746 33.7111 19 34.8763 19H52.4435C53.6087 19 54.6684 19.6746 55.1616 20.7302L56.3429 23.2589C57.5819 25.911 55.6461 28.952 52.7189 28.952H43.6599H34.6009C31.6737 28.952 29.7379 25.911 30.9769 23.2589L32.1582 20.7302Z"/>
</mask>
<path d="M55.1616 20.7302L53.8026 21.3651L55.1616 20.7302ZM34.8763 20.5H52.4435V17.5H34.8763V20.5ZM53.8026 21.3651L54.9839 23.8938L57.7019 22.624L56.5206 20.0953L53.8026 21.3651ZM32.3359 23.8938L33.5172 21.3651L30.7992 20.0953L29.6179 22.624L32.3359 23.8938ZM52.7189 27.452H43.6599V30.452H52.7189V27.452ZM43.6599 27.452H34.6009V30.452H43.6599V27.452ZM29.6179 22.624C27.9143 26.2706 30.576 30.452 34.6009 30.452V27.452C32.7714 27.452 31.5615 25.5514 32.3359 23.8938L29.6179 22.624ZM54.9839 23.8938C55.7583 25.5514 54.5484 27.452 52.7189 27.452V30.452C56.7438 30.452 59.4055 26.2706 57.7019 22.624L54.9839 23.8938ZM52.4435 20.5C53.0261 20.5 53.556 20.8373 53.8026 21.3651L56.5206 20.0953C55.7808 18.5119 54.1912 17.5 52.4435 17.5V20.5ZM34.8763 17.5C33.1286 17.5 31.539 18.5119 30.7992 20.0953L33.5172 21.3651C33.7638 20.8373 34.2937 20.5 34.8763 20.5V17.5Z" fill="#242424" mask="url(#path-1-inside-1_29_2280)"/>
<path d="M28.732 28.9521L29.3832 29.3242L30.0244 28.202L28.732 28.2021L28.732 28.9521ZM28.3173 41.392L29.0288 41.6292L29.1754 41.1895L28.8477 40.8617L28.3173 41.392ZM32.464 46.7827V46.0327V46.7827ZM29.0105 24.9384C28.4799 24.7261 27.9544 24.5369 27.4635 24.4089C26.9802 24.2828 26.4816 24.2026 26.0196 24.2452C25.5407 24.2894 25.0541 24.4726 24.705 24.9108C24.3707 25.3304 24.25 25.8759 24.25 26.4641H25.75C25.75 26.057 25.8367 25.8976 25.8782 25.8455C25.9048 25.8121 25.9624 25.7569 26.1574 25.7389C26.3692 25.7193 26.674 25.7531 27.0849 25.8603C27.4881 25.9655 27.9474 26.1287 28.4535 26.3311L29.0105 24.9384ZM24.25 26.4641C24.25 27.8133 25.0326 28.6592 25.9592 29.1247C26.8478 29.571 27.9119 29.7021 28.732 29.7021L28.732 28.2021C28.0316 28.2021 27.2298 28.0843 26.6325 27.7843C26.0732 27.5033 25.75 27.1053 25.75 26.4641H24.25ZM28.0808 28.58C27.4711 29.647 26.3233 32.5384 26.3233 36.0014H27.8233C27.8233 32.8297 28.8871 30.1922 29.3832 29.3242L28.0808 28.58ZM26.3233 36.0014C26.3233 37.7214 26.5382 39.0378 26.8203 39.9968C27.0945 40.9291 27.451 41.5864 27.787 41.9224L28.8477 40.8617C28.769 40.783 28.5035 40.4036 28.2594 39.5736C28.0231 38.7703 27.8233 37.5986 27.8233 36.0014H26.3233ZM27.6058 41.1549C27.4528 41.6139 27.1527 42.7762 27.1527 43.88H28.6527C28.6527 42.9935 28.9054 41.9995 29.0288 41.6292L27.6058 41.1549ZM27.1527 43.88C27.1527 44.566 27.2644 45.4078 27.5827 46.1082C27.9028 46.8125 28.5223 47.5327 29.5613 47.5327V46.0327C29.3564 46.0327 29.1465 45.9236 28.9483 45.4875C28.7483 45.0476 28.6527 44.438 28.6527 43.88H27.1527ZM29.5613 47.5327C31.6142 47.5327 30.8258 47.5327 32.464 47.5327V46.0327C30.8258 46.0327 31.6142 46.0327 29.5613 46.0327V47.5327ZM32.464 47.5327H34.5373V46.0327H32.464V47.5327ZM34.5373 47.5327C35.8676 47.5327 36.946 46.4543 36.946 45.124H35.446C35.446 45.6259 35.0392 46.0327 34.5373 46.0327V47.5327Z" fill="#242424"/>
<path d="M35.3667 34.7573L29.5614 33.0986" stroke="#242424" stroke-width="1.5"/>
<circle cx="31.6346" cy="38.0746" r="0.829332" fill="#242424"/>
<path d="M34.9519 37.6599H44.0746" stroke="#242424" stroke-width="1.5"/>
<path d="M34.9519 42.2213H44.0746" stroke="#242424" stroke-width="1.5"/>
<path d="M59.4173 28.9519L58.7661 29.324L58.1249 28.2019L59.4173 28.2019L59.4173 28.9519ZM59.832 41.3919L59.1205 41.6291L58.9739 41.1893L59.3016 40.8616L59.832 41.3919ZM55.6853 46.7826V46.0326V46.7826ZM59.1388 24.9383C59.6694 24.726 60.1949 24.5368 60.6858 24.4087C61.1691 24.2827 61.6677 24.2024 62.1297 24.2451C62.6086 24.2893 63.0952 24.4725 63.4443 24.9107C63.7786 25.3303 63.8993 25.8758 63.8993 26.464H62.3993C62.3993 26.0569 62.3126 25.8975 62.2711 25.8454C62.2445 25.8119 62.1868 25.7567 61.9919 25.7387C61.7801 25.7192 61.4753 25.753 61.0644 25.8602C60.6612 25.9654 60.2019 26.1286 59.6958 26.331L59.1388 24.9383ZM63.8993 26.464C63.8993 27.8132 63.1167 28.6591 62.1901 29.1245C61.3015 29.5709 60.2374 29.7019 59.4173 29.7019L59.4173 28.2019C60.1176 28.2019 60.9195 28.0842 61.5168 27.7842C62.0761 27.5032 62.3993 27.1052 62.3993 26.464H63.8993ZM60.0685 28.5798C60.6782 29.6468 61.826 32.5383 61.826 36.0013H60.326C60.326 32.8295 59.2622 30.1921 58.7661 29.324L60.0685 28.5798ZM61.826 36.0013C61.826 37.7213 61.6111 39.0376 61.329 39.9967C61.0548 40.929 60.6983 41.5863 60.3623 41.9222L59.3016 40.8616C59.3803 40.7829 59.6458 40.4035 59.8899 39.5735C60.1262 38.7702 60.326 37.5985 60.326 36.0013H61.826ZM60.5435 41.1547C60.6965 41.6138 60.9966 42.7761 60.9966 43.8799H59.4966C59.4966 42.9934 59.2439 41.9994 59.1205 41.6291L60.5435 41.1547ZM60.9966 43.8799C60.9966 44.5659 60.8849 45.4077 60.5666 46.1081C60.2464 46.8124 59.627 47.5326 58.588 47.5326V46.0326C58.7929 46.0326 59.0028 45.9234 59.201 45.4874C59.401 45.0475 59.4966 44.4379 59.4966 43.8799H60.9966ZM58.588 47.5326C56.5351 47.5326 57.3235 47.5326 55.6853 47.5326V46.0326C57.3235 46.0326 56.5351 46.0326 58.588 46.0326V47.5326ZM55.6853 47.5326H53.612V46.0326H55.6853V47.5326ZM53.612 47.5326C52.2817 47.5326 51.2033 46.4542 51.2033 45.1239H52.7033C52.7033 45.6257 53.1101 46.0326 53.612 46.0326V47.5326Z" fill="#242424"/>
<path d="M52.7826 34.7572L58.5879 33.0985" stroke="#242424" stroke-width="1.5"/>
<circle r="0.829332" transform="matrix(-1 0 0 1 56.5147 38.0746)" fill="#242424"/>
<path d="M53.1974 37.6599H44.0747" stroke="#242424" stroke-width="1.5"/>
<path d="M53.1974 42.2212H44.0747" stroke="#242424" stroke-width="1.5"/>
<path d="M1.14929 18.5L0.912121 17.7885L0.399292 17.9594V18.5H1.14929ZM1.38646 19.2115C1.93026 19.0302 2.76028 18.6824 3.51906 18.2127C4.23711 17.7682 5.07084 17.1071 5.3608 16.2372L3.93778 15.7628C3.82775 16.0929 3.41147 16.5151 2.72953 16.9373C2.0883 17.3343 1.36832 17.6364 0.912121 17.7885L1.38646 19.2115ZM5.3608 16.2372C5.48845 15.8542 5.8001 15.5145 6.21654 15.2357C6.62932 14.9594 7.0731 14.7921 7.33119 14.7276L6.96739 13.2724C6.55882 13.3745 5.9526 13.6073 5.38205 13.9893C4.81515 14.3688 4.21013 14.9458 3.93778 15.7628L5.3608 16.2372ZM0.399292 18.5V25H1.89929V18.5H0.399292ZM0.399292 25C0.399292 25.568 0.596572 26.3755 1.18178 27.0528C1.79043 27.7573 2.75743 28.25 4.14929 28.25V26.75C3.14115 26.75 2.60815 26.4094 2.31681 26.0722C2.00201 25.7078 1.89929 25.2653 1.89929 25H0.399292ZM4.14929 28.25C5.80946 28.25 7.43074 27.6992 8.8098 26.9769C10.1918 26.253 11.3778 25.3321 12.1796 24.5303L11.119 23.4697C10.4208 24.1679 9.35681 24.997 8.11379 25.6481C6.86784 26.3008 5.48913 26.75 4.14929 26.75V28.25ZM12.1796 24.5303C12.9495 23.7605 13.9658 22.6165 14.8992 21.5587C15.8487 20.4826 16.7012 19.5088 17.1796 19.0303L16.119 17.9697C15.5974 18.4912 14.6999 19.5174 13.7744 20.5663C12.8328 21.6335 11.8491 22.7395 11.119 23.4697L12.1796 24.5303ZM17.1796 19.0303C17.8076 18.4024 18.1246 17.6189 18.206 16.968C18.2459 16.6491 18.2364 16.3044 18.1306 16.0022C18.0305 15.7163 17.7427 15.25 17.1493 15.25V16.75C17.0055 16.75 16.8808 16.6898 16.7998 16.6139C16.7642 16.5806 16.7428 16.5499 16.7312 16.5305C16.7196 16.5111 16.7152 16.4989 16.7148 16.4978C16.7147 16.4973 16.7225 16.5213 16.7261 16.5759C16.7295 16.6284 16.7281 16.6979 16.7176 16.782C16.6739 17.1311 16.491 17.5976 16.119 17.9697L17.1796 19.0303ZM17.1493 15.25C17.2017 15.25 17.2295 15.263 17.1583 15.2429C17.1081 15.2288 16.9856 15.1913 16.8481 15.1673C16.5334 15.1126 16.1665 15.1275 15.7055 15.2952C14.8504 15.6061 13.6257 16.4629 11.619 18.4697L12.6796 19.5303C14.6729 17.5371 15.6981 16.8939 16.2181 16.7048C16.4446 16.6225 16.5464 16.6374 16.5911 16.6452C16.6333 16.6525 16.6631 16.6618 16.7516 16.6867C16.8191 16.7058 16.9719 16.75 17.1493 16.75V15.25ZM11.619 18.4697C10.8438 19.2449 10.3202 19.5814 9.9925 19.6983C9.83976 19.7528 9.75767 19.7494 9.72419 19.7442C9.69576 19.7398 9.66695 19.7293 9.62597 19.694C9.5146 19.5982 9.38316 19.3819 9.24123 18.986C9.17491 18.801 9.11489 18.603 9.0528 18.3926C8.99292 18.1897 8.9286 17.9662 8.8608 17.7628L7.43778 18.2372C7.49498 18.4088 7.54941 18.5978 7.61414 18.8172C7.67666 19.029 7.74711 19.2631 7.82923 19.4922C7.98417 19.9244 8.22148 20.4643 8.64761 20.831C8.87538 21.027 9.15751 21.1743 9.49432 21.2265C9.82607 21.2779 10.1635 21.23 10.4967 21.111C11.1408 20.8811 11.8548 20.3551 12.6796 19.5303L11.619 18.4697Z" fill="#242424"/>
<path d="M17.1493 16.5L31.6493 11L28.1493 1L5.64929 9.5L8.64929 19.5" stroke="#242424" stroke-width="1.5"/>
<path d="M31.1493 11.5L32.1493 14.5L15.6493 19.5" stroke="#242424" stroke-width="1.5"/>
<circle cx="18.6493" cy="10" r="2.75" stroke="#242424" stroke-width="1.5"/>
<path d="M21.5707 39.2786C21.9849 39.2786 22.3207 38.9428 22.3207 38.5286C22.3207 38.1144 21.9849 37.7786 21.5707 37.7786L21.5707 39.2786ZM12.2921 28.5C12.2921 28.0858 11.9563 27.75 11.5421 27.75C11.1279 27.75 10.7921 28.0858 10.7921 28.5L12.2921 28.5ZM21.5707 37.7786C16.4463 37.7786 12.2921 33.6244 12.2921 28.5L10.7921 28.5C10.7921 34.4528 15.6178 39.2786 21.5707 39.2786L21.5707 37.7786Z" fill="#FF1E26"/>
<path d="M9.31064 31.2046C9.14747 31.5853 9.32384 32.0262 9.70456 32.1894C10.0853 32.3525 10.5262 32.1762 10.6894 31.7954L9.31064 31.2046ZM13.4238 31.4801C13.689 31.7983 14.1619 31.8413 14.4801 31.5762C14.7983 31.311 14.8413 30.8381 14.5762 30.5199L13.4238 31.4801ZM11.7089 28.2507L11.1328 28.7308L11.7089 28.2507ZM10.6894 31.7954L12.0608 28.5954L10.6821 28.0045L9.31064 31.2046L10.6894 31.7954ZM11.1328 28.7308L13.4238 31.4801L14.5762 30.5199L12.2851 27.7706L11.1328 28.7308ZM12.0608 28.5954C11.899 28.9729 11.3957 29.0463 11.1328 28.7308L12.2851 27.7706C11.831 27.2256 10.9615 27.3525 10.6821 28.0045L12.0608 28.5954Z" fill="#FF1E26"/>
<path d="M36 5.25C35.5858 5.25 35.25 5.58579 35.25 6C35.25 6.41421 35.5858 6.75 36 6.75L36 5.25ZM45.2786 16.0286C45.2786 16.4428 45.6144 16.7786 46.0286 16.7786C46.4428 16.7786 46.7786 16.4428 46.7786 16.0286L45.2786 16.0286ZM36 6.75C41.1244 6.75 45.2786 10.9042 45.2786 16.0286L46.7786 16.0286C46.7786 10.0757 41.9528 5.25 36 5.25L36 6.75Z" fill="#FF1E26"/>
<path d="M48.26 13.324C48.4232 12.9433 48.2468 12.5024 47.8661 12.3392C47.4854 12.176 47.0445 12.3524 46.8813 12.7331L48.26 13.324ZM44.1468 13.0484C43.8817 12.7302 43.4087 12.6872 43.0905 12.9524C42.7723 13.2176 42.7293 13.6905 42.9945 14.0087L44.1468 13.0484ZM45.8618 16.2779L46.4379 15.7977L45.8618 16.2779ZM46.8813 12.7331L45.5099 15.9332L46.8886 16.524L48.26 13.324L46.8813 12.7331ZM46.4379 15.7977L44.1468 13.0484L42.9945 14.0087L45.2856 16.758L46.4379 15.7977ZM45.5099 15.9332C45.6716 15.5557 46.175 15.4822 46.4379 15.7977L45.2856 16.758C45.7397 17.3029 46.6092 17.176 46.8886 16.524L45.5099 15.9332Z" fill="#FF1E26"/>
</svg>
