<svg width="65" height="64" viewBox="0 0 65 64" fill="none" xmlns="http://www.w3.org/2000/svg">
<circle cx="32.75" cy="32" r="32" fill="white"/>
<g clip-path="url(#clip0_199_14360)">
<mask id="path-2-inside-1_199_14360" fill="white">
<path d="M18.5478 20.7302C19.0409 19.6746 20.1007 19 21.2658 19H43.2342C44.3993 19 45.4591 19.6746 45.9522 20.7302L48.0904 25.307C49.3293 27.959 47.3935 31 44.4663 31H32.25H20.0337C17.1065 31 15.1707 27.959 16.4096 25.307L18.5478 20.7302Z"/>
</mask>
<path d="M45.9522 20.7302L44.5932 21.3651L45.9522 20.7302ZM21.2658 20.5H43.2342V17.5H21.2658V20.5ZM44.5932 21.3651L46.7314 25.9419L49.4494 24.6721L47.3113 20.0953L44.5932 21.3651ZM17.7686 25.9418L19.9068 21.3651L17.1887 20.0953L15.0506 24.6721L17.7686 25.9418ZM44.4663 29.5H32.25V32.5H44.4663V29.5ZM32.25 29.5H20.0337V32.5H32.25V29.5ZM15.0506 24.6721C13.347 28.3187 16.0088 32.5 20.0337 32.5V29.5C18.2042 29.5 16.9943 27.5994 17.7686 25.9418L15.0506 24.6721ZM46.7314 25.9419C47.5057 27.5994 46.2958 29.5 44.4663 29.5V32.5C48.4912 32.5 51.153 28.3187 49.4494 24.6721L46.7314 25.9419ZM43.2342 20.5C43.8168 20.5 44.3467 20.8373 44.5932 21.3651L47.3113 20.0953C46.5715 18.5119 44.9819 17.5 43.2342 17.5V20.5ZM21.2658 17.5C19.5181 17.5 17.9285 18.5119 17.1887 20.0953L19.9068 21.3651C20.1533 20.8373 20.6832 20.5 21.2658 20.5V17.5Z" fill="#242424" mask="url(#path-2-inside-1_199_14360)"/>
<path d="M14.25 30.9999L14.9012 31.372L15.5424 30.2499L14.25 30.2499L14.25 30.9999ZM13.75 45.9999L14.4615 46.2371L14.6081 45.7973L14.2803 45.4696L13.75 45.9999ZM18.75 52.4999V51.7499V52.4999ZM14.5285 26.3036C13.8912 26.0487 13.2644 25.8232 12.6815 25.6711C12.1062 25.5211 11.525 25.4291 10.9936 25.4781C10.4454 25.5287 9.90276 25.7365 9.51497 26.2232C9.14201 26.6914 9 27.3094 9 27.9999H10.5C10.5 27.4905 10.608 27.2585 10.6882 27.1579C10.7535 27.0759 10.8671 26.9962 11.1314 26.9718C11.4125 26.9458 11.8 26.9914 12.3029 27.1226C12.7981 27.2517 13.3588 27.4512 13.9715 27.6963L14.5285 26.3036ZM9 27.9999C9 29.5539 9.89633 30.5279 10.9758 31.0701C12.0173 31.5933 13.2735 31.7499 14.25 31.7499L14.25 30.2499C13.3932 30.2499 12.3993 30.1066 11.6492 29.7297C10.937 29.372 10.5 28.846 10.5 27.9999H9ZM13.5988 30.6278C12.8753 31.8939 11.5 35.3543 11.5 39.4999H13C13 35.6455 14.2914 32.4392 14.9012 31.372L13.5988 30.6278ZM11.5 39.4999C11.5 41.5613 11.7576 43.1336 12.093 44.274C12.4205 45.3877 12.841 46.1516 13.2197 46.5302L14.2803 45.4696C14.159 45.3482 13.8295 44.8622 13.532 43.8508C13.2424 42.8662 13 41.4385 13 39.4999H11.5ZM13.0385 45.7627C12.857 46.3071 12.5 47.6913 12.5 48.9999H14C14 47.9086 14.3096 46.6927 14.4615 46.2371L13.0385 45.7627ZM12.5 48.9999C12.5 49.8139 12.633 50.805 13.0047 51.6228C13.3782 52.4444 14.0829 53.2499 15.25 53.2499V51.7499C14.9171 51.7499 14.6218 51.5554 14.3703 51.0021C14.117 50.4448 14 49.6859 14 48.9999H12.5ZM15.25 53.2499C17.75 53.2499 16.75 53.2499 18.75 53.2499V51.7499C16.75 51.7499 17.75 51.7499 15.25 51.7499V53.2499ZM18.75 53.2499H21.25V51.7499H18.75V53.2499ZM21.25 53.2499C22.7688 53.2499 24 52.0187 24 50.4999H22.5C22.5 51.1903 21.9404 51.7499 21.25 51.7499V53.2499Z" fill="#242424"/>
<path d="M22.25 38L15.25 36" stroke="#242424" stroke-width="1.5"/>
<circle cx="17.75" cy="42" r="1" fill="#242424"/>
<path d="M21.75 41.5H32.75" stroke="#242424" stroke-width="1.5"/>
<path d="M21.75 47H32.75" stroke="#242424" stroke-width="1.5"/>
<path d="M51.25 30.9999L50.5988 31.372L49.9576 30.2499L51.25 30.2499L51.25 30.9999ZM51.75 45.9999L51.0385 46.2371L50.8919 45.7973L51.2197 45.4696L51.75 45.9999ZM46.75 52.4999V51.7499V52.4999ZM50.9715 26.3036C51.6088 26.0487 52.2356 25.8232 52.8185 25.6711C53.3938 25.5211 53.975 25.4291 54.5064 25.4781C55.0546 25.5287 55.5972 25.7365 55.985 26.2232C56.358 26.6914 56.5 27.3094 56.5 27.9999H55C55 27.4905 54.892 27.2585 54.8118 27.1579C54.7465 27.0759 54.6329 26.9962 54.3686 26.9718C54.0875 26.9458 53.7 26.9914 53.1971 27.1226C52.7019 27.2517 52.1412 27.4512 51.5285 27.6963L50.9715 26.3036ZM56.5 27.9999C56.5 29.5539 55.6037 30.5279 54.5242 31.0701C53.4827 31.5933 52.2265 31.7499 51.25 31.7499L51.25 30.2499C52.1068 30.2499 53.1007 30.1066 53.8508 29.7297C54.563 29.372 55 28.846 55 27.9999H56.5ZM51.9012 30.6278C52.6247 31.8939 54 35.3543 54 39.4999H52.5C52.5 35.6455 51.2086 32.4392 50.5988 31.372L51.9012 30.6278ZM54 39.4999C54 41.5613 53.7424 43.1336 53.407 44.274C53.0795 45.3877 52.659 46.1516 52.2803 46.5302L51.2197 45.4696C51.341 45.3482 51.6705 44.8622 51.968 43.8508C52.2576 42.8662 52.5 41.4385 52.5 39.4999H54ZM52.4615 45.7627C52.643 46.3071 53 47.6913 53 48.9999H51.5C51.5 47.9086 51.1904 46.6927 51.0385 46.2371L52.4615 45.7627ZM53 48.9999C53 49.8139 52.867 50.805 52.4953 51.6228C52.1218 52.4444 51.4171 53.2499 50.25 53.2499V51.7499C50.5829 51.7499 50.8782 51.5554 51.1297 51.0021C51.383 50.4448 51.5 49.6859 51.5 48.9999H53ZM50.25 53.2499C47.75 53.2499 48.75 53.2499 46.75 53.2499V51.7499C48.75 51.7499 47.75 51.7499 50.25 51.7499V53.2499ZM46.75 53.2499H44.25V51.7499H46.75V53.2499ZM44.25 53.2499C42.7312 53.2499 41.5 52.0187 41.5 50.4999H43C43 51.1903 43.5596 51.7499 44.25 51.7499V53.2499Z" fill="#242424"/>
<path d="M43.25 38L50.25 36" stroke="#242424" stroke-width="1.5"/>
<circle r="1" transform="matrix(-1 0 0 1 47.75 42)" fill="#242424"/>
<path d="M43.75 41.5H32.75" stroke="#242424" stroke-width="1.5"/>
<path d="M43.75 47H32.75" stroke="#242424" stroke-width="1.5"/>
<path d="M23.75 17L27.25 10" stroke="#FF1E26" stroke-width="1.5" stroke-linecap="round"/>
<path d="M41.25 17L37.75 10" stroke="#FF1E26" stroke-width="1.5" stroke-linecap="round"/>
<path d="M32.75 16.9999V14.8999" stroke="#FF1E26" stroke-width="1.5" stroke-linecap="round"/>
<path d="M32.75 12.1V10" stroke="#FF1E26" stroke-width="1.5" stroke-linecap="round"/>
</g>
<defs>
<clipPath id="clip0_199_14360">
<rect width="48" height="48" fill="white" transform="translate(8.75 8)"/>
</clipPath>
</defs>
</svg>
