<svg width="49" height="48" viewBox="0 0 49 48" fill="none" xmlns="http://www.w3.org/2000/svg">
<mask id="path-1-inside-1_456_23265" fill="white">
<path d="M9.31232 15.7302C9.80547 14.6746 10.8652 14 12.0303 14H31.6894C32.8546 14 33.9143 14.6746 34.4075 15.7302L36.0435 19.2323C37.2825 21.8844 35.3467 24.9254 32.4195 24.9254H21.8599H11.3003C8.37306 24.9254 6.43726 21.8844 7.67623 19.2323L9.31232 15.7302Z"/>
</mask>
<path d="M36.0435 19.2323L34.6845 19.8672L36.0435 19.2323ZM12.0303 15.5H31.6894V12.5H12.0303V15.5ZM33.0484 16.3651L34.6845 19.8672L37.4025 18.5974L35.7665 15.0953L33.0484 16.3651ZM9.03524 19.8672L10.6713 16.3651L7.95331 15.0953L6.31722 18.5974L9.03524 19.8672ZM32.4195 23.4254H21.8599V26.4254H32.4195V23.4254ZM21.8599 23.4254H11.3003V26.4254H21.8599V23.4254ZM6.31722 18.5974C4.61364 22.244 7.27536 26.4254 11.3003 26.4254V23.4254C9.47076 23.4254 8.26089 21.5248 9.03524 19.8672L6.31722 18.5974ZM34.6845 19.8672C35.4589 21.5248 34.249 23.4254 32.4195 23.4254V26.4254C36.4444 26.4254 39.1061 22.244 37.4025 18.5974L34.6845 19.8672ZM31.6894 15.5C32.272 15.5 32.8019 15.8373 33.0484 16.3651L35.7665 15.0953C35.0267 13.5119 33.4371 12.5 31.6894 12.5V15.5ZM12.0303 12.5C10.2827 12.5 8.69303 13.5119 7.95331 15.0953L10.6713 16.3651C10.9179 15.8373 11.4478 15.5 12.0303 15.5V12.5Z" fill="#242424" mask="url(#path-1-inside-1_456_23265)"/>
<path d="M5.47202 24.9259L6.1232 25.298L6.7644 24.1759L5.47201 24.1759L5.47202 24.9259ZM5.01679 38.5826L5.7283 38.8198L5.87488 38.38L5.54712 38.0523L5.01679 38.5826ZM9.56903 44.5005V43.7505V44.5005ZM5.75054 20.5878C5.16922 20.3552 4.59559 20.1488 4.06093 20.0093C3.53395 19.8719 2.99606 19.786 2.50103 19.8317C1.98923 19.879 1.47599 20.0739 1.10849 20.5351C0.755815 20.9778 0.625 21.5578 0.625 22.1946H2.125C2.125 21.7388 2.2218 21.545 2.28167 21.4698C2.32672 21.4133 2.41096 21.3464 2.63889 21.3254C2.88361 21.3028 3.22771 21.3422 3.68231 21.4608C4.12923 21.5773 4.63675 21.7578 5.19349 21.9805L5.75054 20.5878ZM0.625 22.1946C0.625 23.6411 1.46163 24.5479 2.46092 25.0498C3.42219 25.5327 4.57756 25.6759 5.47202 25.6759L5.47201 24.1759C4.69731 24.1759 3.80417 24.046 3.13423 23.7094C2.5023 23.392 2.125 22.9331 2.125 22.1946H0.625ZM4.82083 24.5538C4.15703 25.7154 2.90112 28.8773 2.90112 32.6647H4.40112C4.40112 29.1685 5.57307 26.2607 6.1232 25.298L4.82083 24.5538ZM2.90112 32.6647C2.90112 34.547 3.1363 35.985 3.44372 37.0302C3.74328 38.0487 4.1302 38.7567 4.48646 39.1129L5.54712 38.0523C5.44816 37.9533 5.15225 37.5232 4.88277 36.607C4.62117 35.7175 4.40112 34.4242 4.40112 32.6647H2.90112ZM4.30528 38.3454C4.13875 38.845 3.81157 40.1128 3.81157 41.314H5.31157C5.31157 40.3301 5.59135 39.2306 5.7283 38.8198L4.30528 38.3454ZM3.81157 41.314C3.81157 42.0608 3.9334 42.9735 4.27711 43.7297C4.62259 44.4898 5.28256 45.2505 6.38246 45.2505V43.7505C6.1167 43.7505 5.86622 43.6008 5.64266 43.109C5.41735 42.6133 5.31157 41.9328 5.31157 41.314H3.81157ZM6.38246 45.2505C8.67951 45.2505 7.7272 45.2505 9.56903 45.2505V43.7505C7.7272 43.7505 8.67951 43.7505 6.38246 43.7505V45.2505ZM9.56903 45.2505H11.8451V43.7505H9.56903V45.2505ZM11.8451 45.2505C13.265 45.2505 14.416 44.0995 14.416 42.6796H12.916C12.916 43.2711 12.4366 43.7505 11.8451 43.7505V45.2505Z" fill="#242424"/>
<path d="M12.7559 31.2994L6.38281 29.4785" stroke="#242424" stroke-width="1.5"/>
<circle cx="8.65849" cy="34.9407" r="0.910448" fill="#242424"/>
<path d="M12.3008 34.4854H22.3157" stroke="#242424" stroke-width="1.5"/>
<path d="M12.3008 39.4932H22.3157" stroke="#242424" stroke-width="1.5"/>
<path d="M39.1588 24.9249L38.5077 25.297L37.8665 24.1749L39.1588 24.1749L39.1588 24.9249ZM39.6141 38.5816L38.9026 38.8188L38.756 38.3791L39.0837 38.0513L39.6141 38.5816ZM35.0618 44.4995V43.7495V44.4995ZM38.8803 20.5868C39.4616 20.3543 40.0353 20.1478 40.5699 20.0083C41.0969 19.8709 41.6348 19.7851 42.1298 19.8307C42.6416 19.878 43.1549 20.0729 43.5224 20.5341C43.875 20.9768 44.0059 21.5568 44.0059 22.1936H42.5059C42.5059 21.7379 42.4091 21.544 42.3492 21.4688C42.3041 21.4123 42.2199 21.3454 41.992 21.3244C41.7473 21.3018 41.4031 21.3412 40.9486 21.4598C40.5016 21.5764 39.9941 21.7568 39.4374 21.9795L38.8803 20.5868ZM44.0059 22.1936C44.0059 23.6401 43.1692 24.5469 42.1699 25.0489C41.2087 25.5317 40.0533 25.6749 39.1588 25.6749L39.1588 24.1749C39.9335 24.1749 40.8267 24.045 41.4966 23.7085C42.1286 23.391 42.5059 22.9321 42.5059 22.1936H44.0059ZM39.81 24.5528C40.4738 25.7145 41.7297 28.8763 41.7297 32.6637H40.2297C40.2297 29.1675 39.0578 26.2597 38.5077 25.297L39.81 24.5528ZM41.7297 32.6637C41.7297 34.546 41.4946 35.984 41.1871 37.0293C40.8876 38.0477 40.5007 38.7557 40.1444 39.112L39.0837 38.0513C39.1827 37.9523 39.4786 37.5222 39.7481 36.606C40.0097 35.7166 40.2297 34.4232 40.2297 32.6637H41.7297ZM40.3256 38.3445C40.4921 38.844 40.8193 40.1118 40.8193 41.313H39.3193C39.3193 40.3291 39.0395 39.2297 38.9026 38.8188L40.3256 38.3445ZM40.8193 41.313C40.8193 42.0598 40.6975 42.9726 40.3537 43.7287C40.0083 44.4888 39.3483 45.2495 38.2484 45.2495V43.7495C38.5142 43.7495 38.7646 43.5999 38.9882 43.108C39.2135 42.6123 39.3193 41.9318 39.3193 41.313H40.8193ZM38.2484 45.2495C35.9513 45.2495 36.9037 45.2495 35.0618 45.2495V43.7495C36.9037 43.7495 35.9513 43.7495 38.2484 43.7495V45.2495ZM35.0618 45.2495H32.7857V43.7495H35.0618V45.2495ZM32.7857 45.2495C31.3658 45.2495 30.2148 44.0985 30.2148 42.6786H31.7148C31.7148 43.2701 32.1943 43.7495 32.7857 43.7495V45.2495Z" fill="#242424"/>
<path d="M31.8749 31.2984L38.248 29.4775" stroke="#242424" stroke-width="1.5"/>
<circle r="0.910448" transform="matrix(-1 0 0 1 35.9724 34.9397)" fill="#242424"/>
<path d="M32.3301 34.4844H22.3152" stroke="#242424" stroke-width="1.5"/>
<path d="M32.3301 39.4922H22.3152" stroke="#242424" stroke-width="1.5"/>
<path fill-rule="evenodd" clip-rule="evenodd" d="M36.0298 11.8209C35.237 11.0114 34.6993 9.98698 34.4834 8.87472C34.2657 7.75934 34.3775 6.60469 34.8051 5.5518C35.2292 4.50482 35.9531 3.60646 36.886 2.96955C38.7788 1.67682 41.2705 1.67682 43.1633 2.96955C44.0962 3.60646 44.8201 4.50482 45.2441 5.5518C45.6718 6.60469 45.7836 7.75934 45.5659 8.87472C45.3499 9.98698 44.8122 11.0114 44.0195 11.8209C42.9696 12.8983 41.529 13.5059 40.0246 13.5059C38.5203 13.5059 37.0797 12.8983 36.0298 11.8209V11.8209Z" stroke="#FF1E26" stroke-width="1.5" stroke-linecap="round" stroke-linejoin="round"/>
<path d="M40.0245 3.95692C39.6126 4.00057 39.314 4.36987 39.3577 4.78178C39.4013 5.19369 39.7706 5.49222 40.1825 5.44857L40.0245 3.95692ZM41.6706 6.32522C41.8321 6.70666 42.2722 6.88497 42.6537 6.72349C43.0351 6.56201 43.2134 6.12189 43.0519 5.74045L41.6706 6.32522ZM44.6328 11.2019C44.3396 10.9092 43.8648 10.9097 43.5721 11.2028C43.2795 11.496 43.2799 11.9708 43.5731 12.2635L44.6328 11.2019ZM46.6787 15.3636C46.9719 15.6563 47.4468 15.6558 47.7394 15.3627C48.032 15.0695 48.0316 14.5947 47.7385 14.302L46.6787 15.3636ZM40.1825 5.44857C40.8175 5.3813 41.4217 5.73725 41.6706 6.32522L43.0519 5.74045C42.5455 4.54424 41.3162 3.82005 40.0245 3.95692L40.1825 5.44857ZM43.5731 12.2635L46.6787 15.3636L47.7385 14.302L44.6328 11.2019L43.5731 12.2635Z" fill="#FF1E26"/>
</svg>
