<svg width="49" height="48" viewBox="0 0 49 48" fill="none" xmlns="http://www.w3.org/2000/svg">
<g clip-path="url(#clip0_456_23280)">
<mask id="path-1-inside-1_456_23280" fill="white">
<path d="M9.56232 15.7302C10.0555 14.6746 11.1152 14 12.2803 14H31.9394C33.1046 14 34.1643 14.6746 34.6575 15.7302L36.2935 19.2323C37.5325 21.8844 35.5967 24.9254 32.6695 24.9254H22.1099H11.5503C8.62306 24.9254 6.68726 21.8844 7.92623 19.2323L9.56232 15.7302Z"/>
</mask>
<path d="M36.2935 19.2323L34.9345 19.8672L36.2935 19.2323ZM12.2803 15.5H31.9394V12.5H12.2803V15.5ZM33.2984 16.3651L34.9345 19.8672L37.6525 18.5974L36.0165 15.0953L33.2984 16.3651ZM9.28524 19.8672L10.9213 16.3651L8.20331 15.0953L6.56722 18.5974L9.28524 19.8672ZM32.6695 23.4254H22.1099V26.4254H32.6695V23.4254ZM22.1099 23.4254H11.5503V26.4254H22.1099V23.4254ZM6.56722 18.5974C4.86364 22.244 7.52536 26.4254 11.5503 26.4254V23.4254C9.72076 23.4254 8.51089 21.5248 9.28524 19.8672L6.56722 18.5974ZM34.9345 19.8672C35.7089 21.5248 34.499 23.4254 32.6695 23.4254V26.4254C36.6944 26.4254 39.3561 22.244 37.6525 18.5974L34.9345 19.8672ZM31.9394 15.5C32.522 15.5 33.0519 15.8373 33.2984 16.3651L36.0165 15.0953C35.2767 13.5119 33.6871 12.5 31.9394 12.5V15.5ZM12.2803 12.5C10.5327 12.5 8.94303 13.5119 8.20331 15.0953L10.9213 16.3651C11.1679 15.8373 11.6978 15.5 12.2803 15.5V12.5Z" fill="#242424" mask="url(#path-1-inside-1_456_23280)"/>
<path d="M5.72202 24.9259L6.3732 25.298L7.0144 24.1759L5.72201 24.1759L5.72202 24.9259ZM5.26679 38.5826L5.9783 38.8198L6.12488 38.38L5.79712 38.0523L5.26679 38.5826ZM9.81903 44.5005V43.7505V44.5005ZM6.00054 20.5878C5.41922 20.3552 4.84559 20.1488 4.31093 20.0093C3.78395 19.8719 3.24606 19.786 2.75103 19.8317C2.23923 19.879 1.72599 20.0739 1.35849 20.5351C1.00582 20.9778 0.875 21.5578 0.875 22.1946H2.375C2.375 21.7388 2.4718 21.545 2.53167 21.4698C2.57672 21.4133 2.66096 21.3464 2.88889 21.3254C3.13361 21.3028 3.47771 21.3422 3.93231 21.4608C4.37923 21.5773 4.88675 21.7578 5.44349 21.9805L6.00054 20.5878ZM0.875 22.1946C0.875 23.6411 1.71163 24.5479 2.71092 25.0498C3.67219 25.5327 4.82756 25.6759 5.72202 25.6759L5.72201 24.1759C4.94731 24.1759 4.05417 24.046 3.38423 23.7094C2.7523 23.392 2.375 22.9331 2.375 22.1946H0.875ZM5.07083 24.5538C4.40703 25.7154 3.15112 28.8773 3.15112 32.6647H4.65112C4.65112 29.1685 5.82307 26.2607 6.3732 25.298L5.07083 24.5538ZM3.15112 32.6647C3.15112 34.547 3.3863 35.985 3.69372 37.0302C3.99328 38.0487 4.3802 38.7567 4.73646 39.1129L5.79712 38.0523C5.69816 37.9533 5.40225 37.5232 5.13277 36.607C4.87117 35.7175 4.65112 34.4242 4.65112 32.6647H3.15112ZM4.55528 38.3454C4.38875 38.845 4.06157 40.1128 4.06157 41.314H5.56157C5.56157 40.3301 5.84135 39.2306 5.9783 38.8198L4.55528 38.3454ZM4.06157 41.314C4.06157 42.0608 4.1834 42.9735 4.52711 43.7297C4.87259 44.4898 5.53256 45.2505 6.63246 45.2505V43.7505C6.3667 43.7505 6.11622 43.6008 5.89266 43.109C5.66735 42.6133 5.56157 41.9328 5.56157 41.314H4.06157ZM6.63246 45.2505C8.92951 45.2505 7.9772 45.2505 9.81903 45.2505V43.7505C7.9772 43.7505 8.92951 43.7505 6.63246 43.7505V45.2505ZM9.81903 45.2505H12.0951V43.7505H9.81903V45.2505ZM12.0951 45.2505C13.515 45.2505 14.666 44.0995 14.666 42.6796H13.166C13.166 43.2711 12.6866 43.7505 12.0951 43.7505V45.2505Z" fill="#242424"/>
<path d="M13.0059 31.2994L6.63281 29.4785" stroke="#242424" stroke-width="1.5"/>
<circle cx="8.90849" cy="34.9407" r="0.910448" fill="#242424"/>
<path d="M12.5508 34.4854H22.5657" stroke="#242424" stroke-width="1.5"/>
<path d="M12.5508 39.4932H22.5657" stroke="#242424" stroke-width="1.5"/>
<path d="M39.4088 24.9249L38.7577 25.297L38.1165 24.1749L39.4088 24.1749L39.4088 24.9249ZM39.8641 38.5816L39.1526 38.8188L39.006 38.3791L39.3337 38.0513L39.8641 38.5816ZM35.3118 44.4995V43.7495V44.4995ZM39.1303 20.5868C39.7116 20.3543 40.2853 20.1478 40.8199 20.0083C41.3469 19.8709 41.8848 19.7851 42.3798 19.8307C42.8916 19.878 43.4049 20.0729 43.7724 20.5341C44.125 20.9768 44.2559 21.5568 44.2559 22.1936H42.7559C42.7559 21.7379 42.6591 21.544 42.5992 21.4688C42.5541 21.4123 42.4699 21.3454 42.242 21.3244C41.9973 21.3018 41.6531 21.3412 41.1986 21.4598C40.7516 21.5764 40.2441 21.7568 39.6874 21.9795L39.1303 20.5868ZM44.2559 22.1936C44.2559 23.6401 43.4192 24.5469 42.4199 25.0489C41.4587 25.5317 40.3033 25.6749 39.4088 25.6749L39.4088 24.1749C40.1835 24.1749 41.0767 24.045 41.7466 23.7085C42.3786 23.391 42.7559 22.9321 42.7559 22.1936H44.2559ZM40.06 24.5528C40.7238 25.7145 41.9797 28.8763 41.9797 32.6637H40.4797C40.4797 29.1675 39.3078 26.2597 38.7577 25.297L40.06 24.5528ZM41.9797 32.6637C41.9797 34.546 41.7446 35.984 41.4371 37.0293C41.1376 38.0477 40.7507 38.7557 40.3944 39.112L39.3337 38.0513C39.4327 37.9523 39.7286 37.5222 39.9981 36.606C40.2597 35.7166 40.4797 34.4232 40.4797 32.6637H41.9797ZM40.5756 38.3445C40.7421 38.844 41.0693 40.1118 41.0693 41.313H39.5693C39.5693 40.3291 39.2895 39.2297 39.1526 38.8188L40.5756 38.3445ZM41.0693 41.313C41.0693 42.0598 40.9475 42.9726 40.6037 43.7287C40.2583 44.4888 39.5983 45.2495 38.4984 45.2495V43.7495C38.7642 43.7495 39.0146 43.5999 39.2382 43.108C39.4635 42.6123 39.5693 41.9318 39.5693 41.313H41.0693ZM38.4984 45.2495C36.2013 45.2495 37.1537 45.2495 35.3118 45.2495V43.7495C37.1537 43.7495 36.2013 43.7495 38.4984 43.7495V45.2495ZM35.3118 45.2495H33.0357V43.7495H35.3118V45.2495ZM33.0357 45.2495C31.6158 45.2495 30.4648 44.0985 30.4648 42.6786H31.9648C31.9648 43.2701 32.4443 43.7495 33.0357 43.7495V45.2495Z" fill="#242424"/>
<path d="M32.1249 31.2984L38.498 29.4775" stroke="#242424" stroke-width="1.5"/>
<circle r="0.910448" transform="matrix(-1 0 0 1 36.2224 34.9397)" fill="#242424"/>
<path d="M32.5801 34.4844H22.5652" stroke="#242424" stroke-width="1.5"/>
<path d="M32.5801 39.4922H22.5652" stroke="#242424" stroke-width="1.5"/>
<path d="M40.6247 14.6663C44.3066 14.6663 47.2913 11.6816 47.2913 7.99967C47.2913 4.31778 44.3066 1.33301 40.6247 1.33301C36.9428 1.33301 33.958 4.31778 33.958 7.99967C33.958 11.6816 36.9428 14.6663 40.6247 14.6663Z" stroke="#FF1E26" stroke-width="1.5" stroke-linecap="round" stroke-linejoin="round"/>
<path d="M43.125 8L37.125 8" stroke="#FF1E26" stroke-width="1.5" stroke-linecap="round" stroke-linejoin="round"/>
<path d="M40.9658 5.5L43.4658 8L40.9658 10.5" stroke="#FF1E26" stroke-width="1.5" stroke-linecap="round" stroke-linejoin="round"/>
</g>
<defs>
<clipPath id="clip0_456_23280">
<rect width="48" height="48" fill="white" transform="translate(0.625)"/>
</clipPath>
</defs>
</svg>
