<svg width="48" height="48" viewBox="0 0 48 48" fill="none" xmlns="http://www.w3.org/2000/svg">
<mask id="path-1-inside-1_136_972" fill="white">
<path d="M9.79775 12.7302C10.2909 11.6746 11.3507 11 12.5158 11H34.4842C35.6493 11 36.7091 11.6746 37.2022 12.7302L39.3404 17.307C40.5793 19.959 38.6435 23 35.7163 23H23.5H11.2837C8.35646 23 6.42066 19.959 7.65963 17.307L9.79775 12.7302Z"/>
</mask>
<path d="M37.2022 12.7302L35.8432 13.3651L37.2022 12.7302ZM12.5158 12.5H34.4842V9.5H12.5158V12.5ZM35.8432 13.3651L37.9814 17.9419L40.6994 16.6721L38.5613 12.0953L35.8432 13.3651ZM9.01864 17.9418L11.1568 13.3651L8.43874 12.0953L6.30062 16.6721L9.01864 17.9418ZM35.7163 21.5H23.5V24.5H35.7163V21.5ZM23.5 21.5H11.2837V24.5H23.5V21.5ZM6.30062 16.6721C4.59703 20.3187 7.25876 24.5 11.2837 24.5V21.5C9.45416 21.5 8.24429 19.5994 9.01864 17.9418L6.30062 16.6721ZM37.9814 17.9419C38.7557 19.5994 37.5458 21.5 35.7163 21.5V24.5C39.7412 24.5 42.403 20.3187 40.6994 16.6721L37.9814 17.9419ZM34.4842 12.5C35.0668 12.5 35.5967 12.8373 35.8432 13.3651L38.5613 12.0953C37.8215 10.5119 36.2319 9.5 34.4842 9.5V12.5ZM12.5158 9.5C10.7681 9.5 9.17847 10.5119 8.43874 12.0953L11.1568 13.3651C11.4033 12.8373 11.9332 12.5 12.5158 12.5V9.5Z" fill="#242424" mask="url(#path-1-inside-1_136_972)"/>
<path d="M5.5 23L6.15118 23.3721L6.79239 22.25L5.5 22.25L5.5 23ZM5 38L5.71151 38.2372L5.85809 37.7975L5.53033 37.4697L5 38ZM10 44.5V43.75V44.5ZM5.77853 18.3037C5.14123 18.0488 4.51443 17.8233 3.9315 17.6713C3.35624 17.5212 2.77498 17.4292 2.24357 17.4783C1.69539 17.5289 1.15276 17.7366 0.764972 18.2234C0.392009 18.6915 0.25 19.3095 0.25 20.0001H1.75C1.75 19.4906 1.85799 19.2587 1.93815 19.158C2.00349 19.076 2.11711 18.9963 2.38143 18.9719C2.66252 18.946 3.05001 18.9915 3.55287 19.1227C4.04807 19.2519 4.60877 19.4514 5.22147 19.6964L5.77853 18.3037ZM0.25 20.0001C0.25 21.5541 1.14633 22.528 2.22585 23.0703C3.26734 23.5934 4.52346 23.75 5.5 23.75L5.5 22.25C4.64321 22.25 3.64932 22.1067 2.89915 21.7299C2.187 21.3721 1.75 20.8461 1.75 20.0001H0.25ZM4.84882 22.6279C4.12531 23.8941 2.75 27.3544 2.75 31.5H4.25C4.25 27.6456 5.54135 24.4393 6.15118 23.3721L4.84882 22.6279ZM2.75 31.5C2.75 33.5614 3.00756 35.1338 3.34298 36.2742C3.67051 37.3878 4.09102 38.1517 4.46967 38.5304L5.53033 37.4697C5.40898 37.3484 5.07949 36.8623 4.78202 35.8509C4.49244 34.8663 4.25 33.4386 4.25 31.5H2.75ZM4.28849 37.7629C4.10704 38.3072 3.75 39.6914 3.75 41H5.25C5.25 39.9087 5.55963 38.6929 5.71151 38.2372L4.28849 37.7629ZM3.75 41C3.75 41.814 3.88302 42.8051 4.25473 43.6229C4.62819 44.4445 5.33293 45.25 6.5 45.25V43.75C6.16707 43.75 5.87182 43.5556 5.62028 43.0022C5.36698 42.4449 5.25 41.686 5.25 41H3.75ZM6.5 45.25C9 45.25 8 45.25 10 45.25V43.75C8 43.75 9 43.75 6.5 43.75V45.25ZM10 45.25H12.5V43.75H10V45.25ZM12.5 45.25C14.0188 45.25 15.25 44.0188 15.25 42.5H13.75C13.75 43.1904 13.1904 43.75 12.5 43.75V45.25Z" fill="#242424"/>
<path d="M13.5 30L6.5 28" stroke="#242424" stroke-width="1.5"/>
<circle cx="9" cy="34" r="1" fill="#242424"/>
<path d="M13 33.5H24" stroke="#242424" stroke-width="1.5"/>
<path d="M13 39H24" stroke="#242424" stroke-width="1.5"/>
<path d="M42.5 22.9999L41.8488 23.372L41.2076 22.2499L42.5 22.2499L42.5 22.9999ZM43 37.9999L42.2885 38.2371L42.1419 37.7973L42.4697 37.4696L43 37.9999ZM38 44.4999V43.7499V44.4999ZM42.2215 18.3036C42.8588 18.0487 43.4856 17.8232 44.0685 17.6711C44.6438 17.5211 45.225 17.4291 45.7564 17.4781C46.3046 17.5287 46.8472 17.7365 47.235 18.2232C47.608 18.6914 47.75 19.3094 47.75 19.9999H46.25C46.25 19.4905 46.142 19.2585 46.0618 19.1579C45.9965 19.0759 45.8829 18.9962 45.6186 18.9718C45.3375 18.9458 44.95 18.9914 44.4471 19.1226C43.9519 19.2517 43.3912 19.4512 42.7785 19.6963L42.2215 18.3036ZM47.75 19.9999C47.75 21.5539 46.8537 22.5279 45.7742 23.0701C44.7327 23.5933 43.4765 23.7499 42.5 23.7499L42.5 22.2499C43.3568 22.2499 44.3507 22.1066 45.1008 21.7297C45.813 21.372 46.25 20.846 46.25 19.9999H47.75ZM43.1512 22.6278C43.8747 23.8939 45.25 27.3543 45.25 31.4999H43.75C43.75 27.6455 42.4586 24.4392 41.8488 23.372L43.1512 22.6278ZM45.25 31.4999C45.25 33.5613 44.9924 35.1336 44.657 36.274C44.3295 37.3877 43.909 38.1516 43.5303 38.5302L42.4697 37.4696C42.591 37.3482 42.9205 36.8622 43.218 35.8508C43.5076 34.8662 43.75 33.4385 43.75 31.4999H45.25ZM43.7115 37.7627C43.893 38.3071 44.25 39.6913 44.25 40.9999H42.75C42.75 39.9086 42.4404 38.6927 42.2885 38.2371L43.7115 37.7627ZM44.25 40.9999C44.25 41.8139 44.117 42.805 43.7453 43.6228C43.3718 44.4444 42.6671 45.2499 41.5 45.2499V43.7499C41.8329 43.7499 42.1282 43.5554 42.3797 43.0021C42.633 42.4448 42.75 41.6859 42.75 40.9999H44.25ZM41.5 45.2499C39 45.2499 40 45.2499 38 45.2499V43.7499C40 43.7499 39 43.7499 41.5 43.7499V45.2499ZM38 45.2499H35.5V43.7499H38V45.2499ZM35.5 45.2499C33.9812 45.2499 32.75 44.0187 32.75 42.4999H34.25C34.25 43.1903 34.8096 43.7499 35.5 43.7499V45.2499Z" fill="#242424"/>
<path d="M34.5 29.9999L41.5 27.9999" stroke="#242424" stroke-width="1.5"/>
<circle r="1" transform="matrix(-1 0 0 1 39 33.9999)" fill="#242424"/>
<path d="M35 33.4999H24" stroke="#242424" stroke-width="1.5"/>
<path d="M35 38.9999H24" stroke="#242424" stroke-width="1.5"/>
<path d="M15 8.99996L18.5 2" stroke="#FF1E26" stroke-width="1.5" stroke-linecap="round"/>
<path d="M32.5 8.99996L29 2" stroke="#FF1E26" stroke-width="1.5" stroke-linecap="round"/>
<path d="M24 9.00001V6.90002" stroke="#FF1E26" stroke-width="1.5" stroke-linecap="round"/>
<path d="M24 4.09999V2" stroke="#FF1E26" stroke-width="1.5" stroke-linecap="round"/>
</svg>
