<svg width="65" height="64" viewBox="0 0 65 64" fill="none" xmlns="http://www.w3.org/2000/svg">
<circle cx="32.25" cy="32" r="32" fill="white"/>
<g clip-path="url(#clip0_199_14308)">
<path d="M33.62 7.87891C33.62 7.46469 33.2842 7.12891 32.87 7.12891C32.4558 7.12891 32.12 7.46469 32.12 7.87891H33.62ZM28.8143 11.1846C28.4001 11.1846 28.0643 11.5204 28.0643 11.9346C28.0643 12.3488 28.4001 12.6846 28.8143 12.6846V11.1846ZM32.12 7.87891C32.12 9.70458 30.64 11.1846 28.8143 11.1846V12.6846C31.4684 12.6846 33.62 10.533 33.62 7.87891H32.12Z" fill="#FF1E26"/>
<path d="M36.9257 12.6846C37.3399 12.6846 37.6757 12.3488 37.6757 11.9346C37.6757 11.5204 37.3399 11.1846 36.9257 11.1846L36.9257 12.6846ZM33.62 7.87891C33.62 7.46469 33.2842 7.12891 32.87 7.12891C32.4558 7.12891 32.12 7.46469 32.12 7.87891L33.62 7.87891ZM36.9257 11.1846C35.1 11.1846 33.62 9.70458 33.62 7.87891L32.12 7.87891C32.12 10.533 34.2716 12.6846 36.9257 12.6846L36.9257 11.1846Z" fill="#FF1E26"/>
<path d="M36.9257 11.1846C37.3399 11.1846 37.6757 11.5203 37.6757 11.9346C37.6757 12.3488 37.3399 12.6846 36.9257 12.6846L36.9257 11.1846ZM33.62 15.9902C33.62 16.4044 33.2842 16.7402 32.87 16.7402C32.4558 16.7402 32.12 16.4044 32.12 15.9902L33.62 15.9902ZM36.9257 12.6846C35.1 12.6846 33.62 14.1646 33.62 15.9902L32.12 15.9902C32.12 13.3361 34.2716 11.1846 36.9257 11.1846L36.9257 12.6846Z" fill="#FF1E26"/>
<path d="M33.62 15.9902C33.62 16.4044 33.2842 16.7402 32.87 16.7402C32.4558 16.7402 32.12 16.4044 32.12 15.9902H33.62ZM28.8143 12.6846C28.4001 12.6846 28.0643 12.3488 28.0643 11.9346C28.0643 11.5203 28.4001 11.1846 28.8143 11.1846V12.6846ZM32.12 15.9902C32.12 14.1646 30.64 12.6846 28.8143 12.6846V11.1846C31.4684 11.1846 33.62 13.3361 33.62 15.9902H32.12Z" fill="#FF1E26"/>
<path d="M52.319 16.3076C52.319 15.8934 51.9832 15.5576 51.569 15.5576C51.1548 15.5576 50.819 15.8934 50.819 16.3076H52.319ZM48.6721 18.4545C48.2579 18.4545 47.9221 18.7903 47.9221 19.2045C47.9221 19.6187 48.2579 19.9545 48.6721 19.9545V18.4545ZM50.819 16.3076C50.819 17.4933 49.8578 18.4545 48.6721 18.4545V19.9545C50.6863 19.9545 52.319 18.3217 52.319 16.3076H50.819Z" fill="#FF1E26"/>
<path d="M54.4659 19.9545C54.8802 19.9545 55.2159 19.6187 55.2159 19.2045C55.2159 18.7903 54.8802 18.4545 54.4659 18.4545L54.4659 19.9545ZM52.319 16.3076C52.319 15.8934 51.9832 15.5576 51.569 15.5576C51.1548 15.5576 50.819 15.8934 50.819 16.3076L52.319 16.3076ZM54.4659 18.4545C53.2802 18.4545 52.319 17.4933 52.319 16.3076L50.819 16.3076C50.819 18.3217 52.4518 19.9545 54.4659 19.9545L54.4659 18.4545Z" fill="#FF1E26"/>
<path d="M54.4659 18.4547C54.8802 18.4547 55.2159 18.7904 55.2159 19.2047C55.2159 19.6189 54.8802 19.9547 54.4659 19.9547L54.4659 18.4547ZM52.319 22.1016C52.319 22.5158 51.9832 22.8516 51.569 22.8516C51.1548 22.8516 50.819 22.5158 50.819 22.1016L52.319 22.1016ZM54.4659 19.9547C53.2802 19.9547 52.319 20.9159 52.319 22.1016L50.819 22.1016C50.819 20.0874 52.4518 18.4547 54.4659 18.4547L54.4659 19.9547Z" fill="#FF1E26"/>
<path d="M52.319 22.1016C52.319 22.5158 51.9832 22.8516 51.569 22.8516C51.1548 22.8516 50.819 22.5158 50.819 22.1016H52.319ZM48.6721 19.9547C48.2578 19.9547 47.9221 19.6189 47.9221 19.2047C47.9221 18.7904 48.2578 18.4547 48.6721 18.4547V19.9547ZM50.819 22.1016C50.819 20.9159 49.8578 19.9547 48.6721 19.9547V18.4547C50.6862 18.4547 52.319 20.0874 52.319 22.1016H50.819Z" fill="#FF1E26"/>
<mask id="path-10-inside-1_199_14308" fill="white">
<path d="M18.0478 20.7302C18.5409 19.6746 19.6007 19 20.7658 19H42.7342C43.8993 19 44.9591 19.6746 45.4522 20.7302L47.5904 25.307C48.8293 27.959 46.8935 31 43.9663 31H31.75H19.5337C16.6065 31 14.6707 27.959 15.9096 25.307L18.0478 20.7302Z"/>
</mask>
<path d="M45.4522 20.7302L44.0932 21.3651L45.4522 20.7302ZM20.7658 20.5H42.7342V17.5H20.7658V20.5ZM44.0932 21.3651L46.2314 25.9419L48.9494 24.6721L46.8113 20.0953L44.0932 21.3651ZM17.2686 25.9418L19.4068 21.3651L16.6887 20.0953L14.5506 24.6721L17.2686 25.9418ZM43.9663 29.5H31.75V32.5H43.9663V29.5ZM31.75 29.5H19.5337V32.5H31.75V29.5ZM14.5506 24.6721C12.847 28.3187 15.5088 32.5 19.5337 32.5V29.5C17.7042 29.5 16.4943 27.5994 17.2686 25.9418L14.5506 24.6721ZM46.2314 25.9419C47.0057 27.5994 45.7958 29.5 43.9663 29.5V32.5C47.9912 32.5 50.653 28.3187 48.9494 24.6721L46.2314 25.9419ZM42.7342 20.5C43.3168 20.5 43.8467 20.8373 44.0932 21.3651L46.8113 20.0953C46.0715 18.5119 44.4819 17.5 42.7342 17.5V20.5ZM20.7658 17.5C19.0181 17.5 17.4285 18.5119 16.6887 20.0953L19.4068 21.3651C19.6533 20.8373 20.1832 20.5 20.7658 20.5V17.5Z" fill="#242424" mask="url(#path-10-inside-1_199_14308)"/>
<path d="M13.75 30.9999L14.4012 31.372L15.0424 30.2499L13.75 30.2499L13.75 30.9999ZM13.25 45.9999L13.9615 46.2371L14.1081 45.7973L13.7803 45.4696L13.25 45.9999ZM18.25 52.4999V51.7499V52.4999ZM14.0285 26.3036C13.3912 26.0487 12.7644 25.8232 12.1815 25.6711C11.6062 25.5211 11.025 25.4291 10.4936 25.4781C9.94539 25.5287 9.40276 25.7365 9.01497 26.2232C8.64201 26.6914 8.5 27.3094 8.5 27.9999H10C10 27.4905 10.108 27.2585 10.1882 27.1579C10.2535 27.0759 10.3671 26.9962 10.6314 26.9718C10.9125 26.9458 11.3 26.9914 11.8029 27.1226C12.2981 27.2517 12.8588 27.4512 13.4715 27.6963L14.0285 26.3036ZM8.5 27.9999C8.5 29.5539 9.39633 30.5279 10.4758 31.0701C11.5173 31.5933 12.7735 31.7499 13.75 31.7499L13.75 30.2499C12.8932 30.2499 11.8993 30.1066 11.1492 29.7297C10.437 29.372 10 28.846 10 27.9999H8.5ZM13.0988 30.6278C12.3753 31.8939 11 35.3543 11 39.4999H12.5C12.5 35.6455 13.7914 32.4392 14.4012 31.372L13.0988 30.6278ZM11 39.4999C11 41.5613 11.2576 43.1336 11.593 44.274C11.9205 45.3877 12.341 46.1516 12.7197 46.5302L13.7803 45.4696C13.659 45.3482 13.3295 44.8622 13.032 43.8508C12.7424 42.8662 12.5 41.4385 12.5 39.4999H11ZM12.5385 45.7627C12.357 46.3071 12 47.6913 12 48.9999H13.5C13.5 47.9086 13.8096 46.6927 13.9615 46.2371L12.5385 45.7627ZM12 48.9999C12 49.8139 12.133 50.805 12.5047 51.6228C12.8782 52.4444 13.5829 53.2499 14.75 53.2499V51.7499C14.4171 51.7499 14.1218 51.5554 13.8703 51.0021C13.617 50.4448 13.5 49.6859 13.5 48.9999H12ZM14.75 53.2499C17.25 53.2499 16.25 53.2499 18.25 53.2499V51.7499C16.25 51.7499 17.25 51.7499 14.75 51.7499V53.2499ZM18.25 53.2499H20.75V51.7499H18.25V53.2499ZM20.75 53.2499C22.2688 53.2499 23.5 52.0187 23.5 50.4999H22C22 51.1903 21.4404 51.7499 20.75 51.7499V53.2499Z" fill="#242424"/>
<path d="M21.75 38L14.75 36" stroke="#242424" stroke-width="1.5"/>
<circle cx="17.25" cy="42" r="1" fill="#242424"/>
<path d="M21.25 41.5H32.25" stroke="#242424" stroke-width="1.5"/>
<path d="M21.25 47H32.25" stroke="#242424" stroke-width="1.5"/>
<path d="M50.75 30.9999L50.0988 31.372L49.4576 30.2499L50.75 30.2499L50.75 30.9999ZM51.25 45.9999L50.5385 46.2371L50.3919 45.7973L50.7197 45.4696L51.25 45.9999ZM46.25 52.4999V51.7499V52.4999ZM50.4715 26.3036C51.1088 26.0487 51.7356 25.8232 52.3185 25.6711C52.8938 25.5211 53.475 25.4291 54.0064 25.4781C54.5546 25.5287 55.0972 25.7365 55.485 26.2232C55.858 26.6914 56 27.3094 56 27.9999H54.5C54.5 27.4905 54.392 27.2585 54.3118 27.1579C54.2465 27.0759 54.1329 26.9962 53.8686 26.9718C53.5875 26.9458 53.2 26.9914 52.6971 27.1226C52.2019 27.2517 51.6412 27.4512 51.0285 27.6963L50.4715 26.3036ZM56 27.9999C56 29.5539 55.1037 30.5279 54.0242 31.0701C52.9827 31.5933 51.7265 31.7499 50.75 31.7499L50.75 30.2499C51.6068 30.2499 52.6007 30.1066 53.3508 29.7297C54.063 29.372 54.5 28.846 54.5 27.9999H56ZM51.4012 30.6278C52.1247 31.8939 53.5 35.3543 53.5 39.4999H52C52 35.6455 50.7086 32.4392 50.0988 31.372L51.4012 30.6278ZM53.5 39.4999C53.5 41.5613 53.2424 43.1336 52.907 44.274C52.5795 45.3877 52.159 46.1516 51.7803 46.5302L50.7197 45.4696C50.841 45.3482 51.1705 44.8622 51.468 43.8508C51.7576 42.8662 52 41.4385 52 39.4999H53.5ZM51.9615 45.7627C52.143 46.3071 52.5 47.6913 52.5 48.9999H51C51 47.9086 50.6904 46.6927 50.5385 46.2371L51.9615 45.7627ZM52.5 48.9999C52.5 49.8139 52.367 50.805 51.9953 51.6228C51.6218 52.4444 50.9171 53.2499 49.75 53.2499V51.7499C50.0829 51.7499 50.3782 51.5554 50.6297 51.0021C50.883 50.4448 51 49.6859 51 48.9999H52.5ZM49.75 53.2499C47.25 53.2499 48.25 53.2499 46.25 53.2499V51.7499C48.25 51.7499 47.25 51.7499 49.75 51.7499V53.2499ZM46.25 53.2499H43.75V51.7499H46.25V53.2499ZM43.75 53.2499C42.2312 53.2499 41 52.0187 41 50.4999H42.5C42.5 51.1903 43.0596 51.7499 43.75 51.7499V53.2499Z" fill="#242424"/>
<path d="M42.75 38L49.75 36" stroke="#242424" stroke-width="1.5"/>
<circle r="1" transform="matrix(-1 0 0 1 47.25 42)" fill="#242424"/>
<path d="M43.25 41.5H32.25" stroke="#242424" stroke-width="1.5"/>
<path d="M43.25 47H32.25" stroke="#242424" stroke-width="1.5"/>
</g>
<defs>
<clipPath id="clip0_199_14308">
<rect width="48" height="48" fill="white" transform="translate(8.25 8)"/>
</clipPath>
</defs>
</svg>
