<svg width="48" height="46" viewBox="0 0 48 46" fill="none" xmlns="http://www.w3.org/2000/svg">
<mask id="path-1-inside-1_786_2495" fill="white">
<path d="M9.06256 15.7302C9.55571 14.6746 10.6155 14 11.7806 14H31.4397C32.6048 14 33.6645 14.6746 34.1577 15.7302L35.7938 19.2323C37.0328 21.8844 35.097 24.9254 32.1698 24.9254H21.6101H11.0505C8.12331 24.9254 6.18751 21.8844 7.42647 19.2323L9.06256 15.7302Z"/>
</mask>
<path d="M35.7938 19.2323L34.4348 19.8672L35.7938 19.2323ZM11.7806 15.5H31.4397V12.5H11.7806V15.5ZM32.7987 16.3651L34.4348 19.8672L37.1528 18.5974L35.5167 15.0953L32.7987 16.3651ZM8.78549 19.8672L10.4216 16.3651L7.70355 15.0953L6.06746 18.5974L8.78549 19.8672ZM32.1698 23.4254H21.6101V26.4254H32.1698V23.4254ZM21.6101 23.4254H11.0505V26.4254H21.6101V23.4254ZM6.06746 18.5974C4.36388 22.244 7.02561 26.4254 11.0505 26.4254V23.4254C9.22101 23.4254 8.01113 21.5248 8.78549 19.8672L6.06746 18.5974ZM34.4348 19.8672C35.2091 21.5248 33.9993 23.4254 32.1698 23.4254V26.4254C36.1946 26.4254 38.8564 22.244 37.1528 18.5974L34.4348 19.8672ZM31.4397 15.5C32.0222 15.5 32.5521 15.8373 32.7987 16.3651L35.5167 15.0953C34.777 13.5119 33.1874 12.5 31.4397 12.5V15.5ZM11.7806 12.5C10.0329 12.5 8.44328 13.5119 7.70355 15.0953L10.4216 16.3651C10.6681 15.8373 11.198 15.5 11.7806 15.5V12.5Z" fill="#242424" mask="url(#path-1-inside-1_786_2495)"/>
<path d="M5.22202 24.9259L5.8732 25.298L6.5144 24.1759L5.22201 24.1759L5.22202 24.9259ZM4.76679 38.5826L5.4783 38.8198L5.62488 38.38L5.29712 38.0523L4.76679 38.5826ZM9.31903 44.5005V43.7505V44.5005ZM5.50054 20.5878C4.91922 20.3552 4.34559 20.1488 3.81093 20.0093C3.28395 19.8719 2.74606 19.786 2.25103 19.8317C1.73923 19.879 1.22599 20.0739 0.858489 20.5351C0.505815 20.9778 0.375 21.5578 0.375 22.1946H1.875C1.875 21.7388 1.9718 21.545 2.03167 21.4698C2.07672 21.4133 2.16096 21.3464 2.38889 21.3254C2.63361 21.3028 2.97771 21.3422 3.43231 21.4608C3.87923 21.5773 4.38675 21.7578 4.94349 21.9805L5.50054 20.5878ZM0.375 22.1946C0.375 23.6411 1.21163 24.5479 2.21092 25.0498C3.17219 25.5327 4.32756 25.6759 5.22202 25.6759L5.22201 24.1759C4.44731 24.1759 3.55417 24.046 2.88423 23.7094C2.2523 23.392 1.875 22.9331 1.875 22.1946H0.375ZM4.57083 24.5538C3.90703 25.7154 2.65112 28.8773 2.65112 32.6647H4.15112C4.15112 29.1685 5.32307 26.2607 5.8732 25.298L4.57083 24.5538ZM2.65112 32.6647C2.65112 34.547 2.8863 35.985 3.19372 37.0302C3.49328 38.0487 3.8802 38.7567 4.23646 39.1129L5.29712 38.0523C5.19816 37.9533 4.90225 37.5232 4.63277 36.607C4.37117 35.7175 4.15112 34.4242 4.15112 32.6647H2.65112ZM4.05528 38.3454C3.88875 38.845 3.56157 40.1128 3.56157 41.314H5.06157C5.06157 40.3301 5.34135 39.2306 5.4783 38.8198L4.05528 38.3454ZM3.56157 41.314C3.56157 42.0608 3.6834 42.9735 4.02711 43.7297C4.37259 44.4898 5.03256 45.2505 6.13246 45.2505V43.7505C5.8667 43.7505 5.61622 43.6008 5.39266 43.109C5.16735 42.6133 5.06157 41.9328 5.06157 41.314H3.56157ZM6.13246 45.2505C8.42951 45.2505 7.4772 45.2505 9.31903 45.2505V43.7505C7.4772 43.7505 8.42951 43.7505 6.13246 43.7505V45.2505ZM9.31903 45.2505H11.5951V43.7505H9.31903V45.2505ZM11.5951 45.2505C13.015 45.2505 14.166 44.0995 14.166 42.6796H12.666C12.666 43.2711 12.1866 43.7505 11.5951 43.7505V45.2505Z" fill="#242424"/>
<path d="M12.5057 31.2994L6.13257 29.4785" stroke="#242424" stroke-width="1.5"/>
<circle cx="8.40849" cy="34.9407" r="0.910448" fill="#242424"/>
<path d="M12.0503 34.4854H22.0652" stroke="#242424" stroke-width="1.5"/>
<path d="M12.0503 39.4932H22.0652" stroke="#242424" stroke-width="1.5"/>
<path d="M38.9086 24.9249L38.2574 25.297L37.6162 24.1749L38.9086 24.1749L38.9086 24.9249ZM39.3638 38.5816L38.6523 38.8188L38.5057 38.3791L38.8335 38.0513L39.3638 38.5816ZM34.8116 44.4995V43.7495V44.4995ZM38.6301 20.5868C39.2114 20.3543 39.785 20.1478 40.3197 20.0083C40.8467 19.8709 41.3846 19.7851 41.8796 19.8307C42.3914 19.878 42.9046 20.0729 43.2721 20.5341C43.6248 20.9768 43.7556 21.5568 43.7556 22.1936H42.2556C42.2556 21.7379 42.1588 21.544 42.0989 21.4688C42.0539 21.4123 41.9697 21.3454 41.7417 21.3244C41.497 21.3018 41.1529 21.3412 40.6983 21.4598C40.2514 21.5764 39.7439 21.7568 39.1871 21.9795L38.6301 20.5868ZM43.7556 22.1936C43.7556 23.6401 42.919 24.5469 41.9197 25.0489C40.9584 25.5317 39.8031 25.6749 38.9086 25.6749L38.9086 24.1749C39.6833 24.1749 40.5764 24.045 41.2464 23.7085C41.8783 23.391 42.2556 22.9321 42.2556 22.1936H43.7556ZM39.5598 24.5528C40.2236 25.7145 41.4795 28.8763 41.4795 32.6637H39.9795C39.9795 29.1675 38.8075 26.2597 38.2574 25.297L39.5598 24.5528ZM41.4795 32.6637C41.4795 34.546 41.2443 35.984 40.9369 37.0293C40.6373 38.0477 40.2504 38.7557 39.8942 39.112L38.8335 38.0513C38.9325 37.9523 39.2284 37.5222 39.4978 36.606C39.7594 35.7166 39.9795 34.4232 39.9795 32.6637H41.4795ZM40.0753 38.3445C40.2419 38.844 40.569 40.1118 40.569 41.313H39.069C39.069 40.3291 38.7893 39.2297 38.6523 38.8188L40.0753 38.3445ZM40.569 41.313C40.569 42.0598 40.4472 42.9726 40.1035 43.7287C39.758 44.4888 39.0981 45.2495 37.9982 45.2495V43.7495C38.2639 43.7495 38.5144 43.5999 38.738 43.108C38.9633 42.6123 39.069 41.9318 39.069 41.313H40.569ZM37.9982 45.2495C35.7011 45.2495 36.6534 45.2495 34.8116 45.2495V43.7495C36.6534 43.7495 35.7011 43.7495 37.9982 43.7495V45.2495ZM34.8116 45.2495H32.5355V43.7495H34.8116V45.2495ZM32.5355 45.2495C31.1156 45.2495 29.9646 44.0985 29.9646 42.6786H31.4646C31.4646 43.2701 31.944 43.7495 32.5355 43.7495V45.2495Z" fill="#242424"/>
<path d="M31.6249 31.2984L37.998 29.4775" stroke="#242424" stroke-width="1.5"/>
<circle r="0.910448" transform="matrix(-1 0 0 1 35.7221 34.9397)" fill="#242424"/>
<path d="M32.0803 34.4844H22.0654" stroke="#242424" stroke-width="1.5"/>
<path d="M32.0803 39.4922H22.0654" stroke="#242424" stroke-width="1.5"/>
<path d="M40.1249 14.6663C43.8068 14.6663 46.7916 11.6816 46.7916 7.99967C46.7916 4.31778 43.8068 1.33301 40.1249 1.33301C36.443 1.33301 33.4583 4.31778 33.4583 7.99967C33.4583 11.6816 36.443 14.6663 40.1249 14.6663Z" stroke="#FF1E26" stroke-width="1.5" stroke-linecap="round" stroke-linejoin="round"/>
<path d="M40.125 10.666H40.1317" stroke="#FF1E26" stroke-width="1.5" stroke-linecap="round" stroke-linejoin="round"/>
<path d="M40.125 5.33301V7.99967" stroke="#FF1E26" stroke-width="1.5" stroke-linecap="round" stroke-linejoin="round"/>
</svg>
