<svg width="49" height="48" viewBox="0 0 49 48" fill="none" xmlns="http://www.w3.org/2000/svg">
<path d="M4.625 20H44.625" stroke="#242424" stroke-width="1.5" stroke-miterlimit="10" stroke-linecap="round" stroke-linejoin="round"/>
<path d="M23.7216 40.9995H13.5016C6.40159 40.9995 4.60156 39.2395 4.60156 32.2195V15.7795C4.60156 9.41954 6.08162 7.37954 11.6616 7.05954C12.2216 7.03954 12.8416 7.01953 13.5016 7.01953H35.7216C42.8216 7.01953 44.6216 8.77953 44.6216 15.7995V24.6195" stroke="#242424" stroke-width="1.5" stroke-linecap="round" stroke-linejoin="round"/>
<path d="M12.625 32H20.625" stroke="#242424" stroke-width="1.5" stroke-miterlimit="10" stroke-linecap="round" stroke-linejoin="round"/>
<path d="M44.625 36C44.625 37.5 44.205 38.92 43.465 40.12C42.085 42.44 39.545 44 36.625 44C33.705 44 31.165 42.44 29.785 40.12C29.045 38.92 28.625 37.5 28.625 36C28.625 31.58 32.205 28 36.625 28C41.045 28 44.625 31.58 44.625 36Z" stroke="#FF1E26" stroke-width="1.5" stroke-miterlimit="10" stroke-linecap="round" stroke-linejoin="round"/>
<path d="M33.5078 35.9991L35.4878 37.9791L39.7478 34.0391" stroke="#FF1E26" stroke-width="1.5" stroke-linecap="round" stroke-linejoin="round"/>
</svg>
