<svg width="49" height="48" viewBox="0 0 49 48" fill="none" xmlns="http://www.w3.org/2000/svg">
<path d="M11.2689 37.308C9.77557 37.308 8.62757 37 7.82491 36.384C7.04091 35.768 6.49957 34.9467 6.20091 33.92C5.90224 32.8747 5.75291 31.7267 5.75291 30.476V20.844C5.75291 19.5373 5.91157 18.38 6.22891 17.372C6.54624 16.3453 7.10624 15.5427 7.90891 14.964C8.71157 14.3667 9.83157 14.068 11.2689 14.068C12.5942 14.068 13.6302 14.3293 14.3769 14.852C15.1236 15.3747 15.6556 16.1213 15.9729 17.092C16.2902 18.044 16.4489 19.164 16.4489 20.452V21.6H14.9929V20.452C14.9929 19.3693 14.8902 18.4547 14.6849 17.708C14.4796 16.9427 14.1062 16.3547 13.5649 15.944C13.0236 15.5333 12.2582 15.328 11.2689 15.328C10.1862 15.328 9.35557 15.552 8.77691 16C8.19824 16.448 7.80624 17.0733 7.60091 17.876C7.39557 18.6787 7.29291 19.612 7.29291 20.676V30.7C7.29291 31.82 7.40491 32.7813 7.62891 33.584C7.85291 34.368 8.25424 34.9747 8.83291 35.404C9.41157 35.8333 10.2236 36.048 11.2689 36.048C12.2769 36.048 13.0516 35.8333 13.5929 35.404C14.1342 34.9747 14.4982 34.3773 14.6849 33.612C14.8902 32.828 14.9929 31.9227 14.9929 30.896V29.524H16.4489V30.644C16.4489 31.932 16.2996 33.08 16.0009 34.088C15.7022 35.096 15.1796 35.8893 14.4329 36.468C13.6862 37.028 12.6316 37.308 11.2689 37.308ZM22.9241 37V15.552H18.3881V14.32H28.8601V15.552H24.4361V37H22.9241ZM36.5619 37.308C35.0685 37.308 33.9205 37 33.1179 36.384C32.3339 35.768 31.7925 34.9467 31.4939 33.92C31.1952 32.8747 31.0459 31.7267 31.0459 30.476V20.844C31.0459 19.5373 31.2045 18.38 31.5219 17.372C31.8392 16.3453 32.3992 15.5427 33.2019 14.964C34.0045 14.3667 35.1245 14.068 36.5619 14.068C37.8872 14.068 38.9232 14.3293 39.6699 14.852C40.4165 15.3747 40.9485 16.1213 41.2659 17.092C41.5832 18.044 41.7419 19.164 41.7419 20.452V21.6H40.2859V20.452C40.2859 19.3693 40.1832 18.4547 39.9779 17.708C39.7725 16.9427 39.3992 16.3547 38.8579 15.944C38.3165 15.5333 37.5512 15.328 36.5619 15.328C35.4792 15.328 34.6485 15.552 34.0699 16C33.4912 16.448 33.0992 17.0733 32.8939 17.876C32.6885 18.6787 32.5859 19.612 32.5859 20.676V30.7C32.5859 31.82 32.6979 32.7813 32.9219 33.584C33.1459 34.368 33.5472 34.9747 34.1259 35.404C34.7045 35.8333 35.5165 36.048 36.5619 36.048C37.5699 36.048 38.3445 35.8333 38.8859 35.404C39.4272 34.9747 39.7912 34.3773 39.9779 33.612C40.1832 32.828 40.2859 31.9227 40.2859 30.896V29.524H41.7419V30.644C41.7419 31.932 41.5925 33.08 41.2939 34.088C40.9952 35.096 40.4725 35.8893 39.7259 36.468C38.9792 37.028 37.9245 37.308 36.5619 37.308Z" fill="#242424"/>
</svg>
