<svg width="49" height="48" viewBox="0 0 49 48" fill="none" xmlns="http://www.w3.org/2000/svg">
<path d="M31.3036 7.92773H37.7321C38.9156 7.92773 39.875 8.88711 39.875 10.0706V11.7791V41.142C39.875 42.3255 38.9156 43.2849 37.7321 43.2849H12.0179C10.8344 43.2849 9.875 42.3255 9.875 41.142V11.7791V10.0706C9.875 8.88711 10.8344 7.92773 12.0179 7.92773H18.4464" stroke="#242424" stroke-width="1.5" stroke-linecap="round"/>
<path d="M18.4463 10.9282V4.92815C18.4463 4.8098 18.5422 4.71387 18.6606 4.71387H31.0891C31.2074 4.71387 31.3034 4.8098 31.3034 4.92815V10.9282C31.3034 11.0465 31.2074 11.1424 31.0891 11.1424H18.6606C18.5422 11.1424 18.4463 11.0465 18.4463 10.9282Z" stroke="#242424" stroke-width="1.5" stroke-linecap="round"/>
<path d="M16.3037 19.7852H33.4466" stroke="#242424" stroke-width="1.5" stroke-linecap="round"/>
<path d="M16.3037 30.3564H24.8751" stroke="#242424" stroke-width="1.5" stroke-linecap="round"/>
<path d="M16.3037 25.0713H33.4466" stroke="#242424" stroke-width="1.5" stroke-linecap="round"/>
<circle cx="31.7681" cy="35.1777" r="3" stroke="#FF1E26" stroke-width="1.5"/>
</svg>
