<svg width="20" height="20" viewBox="0 0 20 20" fill="none" xmlns="http://www.w3.org/2000/svg">
<path d="M0.833984 7.90484V14.1906V7.90484ZM10.0007 2.66675V5.80961V2.66675ZM7.96361 2.66675H12.0377H7.96361ZM2.87102 11.0477H0.833984H2.87102ZM3.88954 7.90484H5.92658L7.96361 5.80961H11.4082C11.5973 5.80971 11.7827 5.86396 11.9435 5.96628C12.1043 6.0686 12.2343 6.21495 12.3188 6.38894L13.7936 9.42075C13.8781 9.59474 14.0081 9.74109 14.1689 9.84341C14.3297 9.94573 14.5151 9.99998 14.7042 10.0001H16.1118V7.90484H18.1488C18.4189 7.90484 18.678 8.01522 18.869 8.21168C19.06 8.40815 19.1673 8.67462 19.1673 8.95246V15.2382C19.1673 15.516 19.06 15.7825 18.869 15.979C18.678 16.1754 18.4189 16.2858 18.1488 16.2858H16.1118V14.1906H13.0562V16.2858C13.0562 16.5636 12.9489 16.8301 12.7579 17.0266C12.5669 17.223 12.3078 17.3334 12.0377 17.3334H8.50852C8.34088 17.3334 8.17583 17.2909 8.028 17.2096C7.88018 17.1283 7.75415 17.0107 7.66111 16.8672L5.92658 14.1906H3.88954V7.90484Z" stroke="#9B9B9B" stroke-width="1.5" stroke-linecap="round" stroke-linejoin="round"/>
</svg>
