<svg width="24" height="24" viewBox="0 0 24 24" fill="none" xmlns="http://www.w3.org/2000/svg">
<path d="M6.73914 17.8479H12" stroke="#242424" stroke-width="1.5"/>
<path d="M18.7004 5.71477L19.3395 5.32222V5.32222L18.7004 5.71477ZM20.36 8.41654L19.7209 8.80909L20.0517 9.34761L20.6385 9.1129L20.36 8.41654ZM3.63043 8.41655L3.3519 9.11291L3.99401 9.36974L4.30197 8.75052L3.63043 8.41655ZM4.86795 5.92824L5.53949 6.26222L5.54051 6.26015L4.86795 5.92824ZM2.91304 17.3696L3.62455 17.6068L3.77113 17.167L3.44337 16.8393L2.91304 17.3696ZM21.0869 17.3695L20.5566 16.8392L20.2289 17.167L20.3754 17.6067L21.0869 17.3695ZM21.0201 11.192L21.0517 11.9413L21.0201 11.192ZM20.9375 11.3426L21.5693 10.9386L20.9375 11.3426ZM2.97994 11.192L2.94825 11.9414L2.97994 11.192ZM7.23537 5.20654H16.4509V3.70654H7.23537V5.20654ZM18.0614 6.10732L19.7209 8.80909L20.9991 8.02399L19.3395 5.32222L18.0614 6.10732ZM4.30197 8.75052L5.53948 6.26222L4.19641 5.59427L2.9589 8.08257L4.30197 8.75052ZM16.4509 5.20654C17.1078 5.20654 17.7175 5.5476 18.0614 6.10732L19.3395 5.32222C18.7228 4.31829 17.6291 3.70654 16.4509 3.70654V5.20654ZM7.23537 3.70654C5.94495 3.70654 4.76644 4.43916 4.19539 5.59634L5.54051 6.26015C5.85889 5.61499 6.51593 5.20654 7.23537 5.20654V3.70654ZM3.90896 7.72018C3.10703 7.39943 2.2269 7.46271 1.53322 7.80725C0.835525 8.15379 0.25 8.83574 0.25 9.76092H1.75C1.75 9.53827 1.88187 9.30892 2.20048 9.15067C2.5231 8.99042 2.95818 8.95543 3.3519 9.11291L3.90896 7.72018ZM0.25 9.76092C0.25 10.6228 0.726308 11.1957 1.29759 11.5187C1.82999 11.8196 2.45861 11.9207 2.94825 11.9414L3.01162 10.4427C2.63916 10.427 2.2778 10.3497 2.03576 10.2129C1.83261 10.098 1.75 9.97363 1.75 9.76092H0.25ZM2.43067 10.9386C2.28724 11.163 2.01424 11.5365 1.80522 12.0693C1.59131 12.6146 1.44565 13.308 1.44565 14.2609H2.94565C2.94565 13.4669 3.06587 12.9632 3.20162 12.6171C3.34225 12.2586 3.5027 12.0465 3.6944 11.7467L2.43067 10.9386ZM1.44565 14.2609C1.44565 15.2788 1.57278 16.0685 1.74515 16.6546C1.90964 17.2139 2.13449 17.6517 2.38271 17.8999L3.44337 16.8393C3.45246 16.8483 3.31861 16.6884 3.1842 16.2313C3.05765 15.8011 2.94565 15.156 2.94565 14.2609H1.44565ZM2.20153 17.1324C2.10704 17.4159 1.92391 18.1218 1.92391 18.8044H3.42391C3.42391 18.3391 3.55963 17.8015 3.62455 17.6068L2.20153 17.1324ZM1.92391 18.8044C1.92391 19.2271 1.99172 19.7617 2.20038 20.2207C2.41079 20.6836 2.85467 21.2283 3.63043 21.2283V19.7283C3.62583 19.7283 3.63121 19.7278 3.64143 19.7316C3.65118 19.7352 3.65541 19.7389 3.65326 19.7372C3.64517 19.7305 3.6093 19.6954 3.56593 19.6C3.47567 19.4014 3.42391 19.0991 3.42391 18.8044H1.92391ZM6.5 21.2283C7.44248 21.2283 8.20652 20.4642 8.20652 19.5218H6.70652C6.70652 19.6358 6.61405 19.7283 6.5 19.7283V21.2283ZM20.6385 9.1129C21.0319 8.95556 21.4699 8.99008 21.796 9.15126C22.1185 9.31069 22.25 9.5407 22.25 9.76086H23.75C23.75 8.83319 23.1593 8.15193 22.4607 7.80659C21.7657 7.46302 20.8837 7.39929 20.0815 7.72018L20.6385 9.1129ZM22.25 9.76086C22.25 9.97357 22.1674 10.098 21.9642 10.2128C21.7222 10.3496 21.3608 10.4269 20.9884 10.4426L21.0517 11.9413C21.5414 11.9206 22.17 11.8196 22.7024 11.5186C23.2737 11.1957 23.75 10.6227 23.75 9.76086H22.25ZM20.3056 11.7467C20.4973 12.0465 20.6577 12.2586 20.7984 12.6171C20.9341 12.9631 21.0543 13.4668 21.0543 14.2608H22.5543C22.5543 13.3079 22.4087 12.6146 22.1948 12.0693C21.9857 11.5364 21.7127 11.1629 21.5693 10.9386L20.3056 11.7467ZM21.0543 14.2608C21.0543 15.156 20.9423 15.801 20.8158 16.2313C20.6814 16.6883 20.5475 16.8483 20.5566 16.8392L21.6173 17.8999C21.8655 17.6516 22.0903 17.2138 22.2548 16.6545C22.4272 16.0685 22.5543 15.2788 22.5543 14.2608H21.0543ZM20.3754 17.6067C20.4404 17.8015 20.5761 18.339 20.5761 18.8043H22.0761C22.0761 18.1218 21.893 17.4158 21.7985 17.1324L20.3754 17.6067ZM20.5761 18.8043C20.5761 19.099 20.5243 19.4014 20.4341 19.5999C20.3907 19.6954 20.3548 19.7305 20.3467 19.7371C20.3446 19.7389 20.3488 19.7351 20.3586 19.7315C20.3688 19.7278 20.3742 19.7282 20.3696 19.7282V21.2282C21.1453 21.2282 21.5892 20.6836 21.7996 20.2206C22.0083 19.7616 22.0761 19.227 22.0761 18.8043H20.5761ZM17.5 19.7282C17.3859 19.7282 17.2935 19.6358 17.2935 19.5217H15.7935C15.7935 20.4642 16.5575 21.2282 17.5 21.2282V19.7282ZM3.63043 21.2283H6.5V19.7283H3.63043V21.2283ZM20.3696 19.7282H17.5V21.2282H20.3696V19.7282ZM20.9884 10.4426C20.3902 10.4679 19.9227 11.1479 20.3056 11.7467L21.5693 10.9386C21.8694 11.4079 21.4965 11.9225 21.0517 11.9413L20.9884 10.4426ZM2.94825 11.9414C2.50348 11.9226 2.13055 11.408 2.43067 10.9386L3.6944 11.7467C4.07725 11.148 3.60982 10.468 3.01162 10.4427L2.94825 11.9414Z" fill="#242424"/>
<path d="M17.2609 17.8478H12" stroke="#242424" stroke-width="1.5"/>
<path d="M9.74268 9.1305C9.74268 9.54472 10.0785 9.8805 10.4927 9.8805C10.9069 9.8805 11.2427 9.54472 11.2427 9.1305H9.74268ZM10.8732 12.1452C10.8732 12.5594 11.209 12.8952 11.6232 12.8952C12.0374 12.8952 12.3732 12.5594 12.3732 12.1452H10.8732ZM11.2427 9.1305C11.2427 9.0446 11.27 8.97984 11.3797 8.90666C11.5117 8.81867 11.7344 8.75 12 8.75V7.25C11.5119 7.25 10.9809 7.36975 10.5477 7.65859C10.0922 7.96224 9.74268 8.46274 9.74268 9.1305H11.2427ZM12 8.75C12.2656 8.75 12.4883 8.81867 12.6203 8.90666C12.7301 8.97984 12.7574 9.0446 12.7574 9.1305H14.2574C14.2574 8.46274 13.9078 7.96224 13.4523 7.65859C13.0191 7.36975 12.4881 7.25 12 7.25V8.75ZM12.7574 9.1305C12.7574 9.55441 12.5923 9.73856 12.2234 10.1075L13.284 11.1682C13.6687 10.7835 14.2574 10.2139 14.2574 9.1305H12.7574ZM12.2234 10.1075C12.1634 10.1675 12.0818 10.2337 11.9462 10.3434C11.8244 10.442 11.666 10.5707 11.5168 10.7199C11.2139 11.0227 10.8732 11.4854 10.8732 12.1452H12.3732C12.3732 12.0513 12.4093 11.9487 12.5774 11.7805C12.6638 11.6942 12.7645 11.6109 12.89 11.5093C13.0017 11.4189 13.1555 11.2966 13.284 11.1682L12.2234 10.1075Z" fill="#242424"/>
<circle cx="11.6034" cy="13.8555" r="0.75" fill="#242424"/>
</svg>
