<svg width="64" height="64" viewBox="0 0 64 64" fill="none" xmlns="http://www.w3.org/2000/svg">
<circle cx="32" cy="32" r="32" fill="white"/>
<path d="M40.8057 14C40.8057 13.5858 40.4699 13.25 40.0557 13.25C39.6415 13.25 39.3057 13.5858 39.3057 14H40.8057ZM36 17.3057C35.5858 17.3057 35.25 17.6415 35.25 18.0557C35.25 18.4699 35.5858 18.8057 36 18.8057V17.3057ZM39.3057 14C39.3057 15.8257 37.8257 17.3057 36 17.3057V18.8057C38.6541 18.8057 40.8057 16.6541 40.8057 14H39.3057Z" fill="#FF1E26"/>
<path d="M44.1133 18.8057C44.5275 18.8057 44.8633 18.4699 44.8633 18.0557C44.8633 17.6415 44.5275 17.3057 44.1133 17.3057L44.1133 18.8057ZM40.8076 14C40.8076 13.5858 40.4718 13.25 40.0576 13.25C39.6434 13.25 39.3076 13.5858 39.3076 14L40.8076 14ZM44.1133 17.3057C42.2876 17.3057 40.8076 15.8257 40.8076 14L39.3076 14C39.3076 16.6541 41.4592 18.8057 44.1133 18.8057L44.1133 17.3057Z" fill="#FF1E26"/>
<path d="M44.1133 17.3057C44.5275 17.3057 44.8633 17.6414 44.8633 18.0557C44.8633 18.4699 44.5275 18.8057 44.1133 18.8057L44.1133 17.3057ZM40.8076 22.1113C40.8076 22.5255 40.4718 22.8613 40.0576 22.8613C39.6434 22.8613 39.3076 22.5255 39.3076 22.1113L40.8076 22.1113ZM44.1133 18.8057C42.2876 18.8057 40.8076 20.2857 40.8076 22.1113L39.3076 22.1113C39.3076 19.4572 41.4592 17.3057 44.1133 17.3057L44.1133 18.8057Z" fill="#FF1E26"/>
<path d="M40.8057 22.1113C40.8057 22.5255 40.4699 22.8613 40.0557 22.8613C39.6415 22.8613 39.3057 22.5255 39.3057 22.1113H40.8057ZM36 18.8057C35.5858 18.8057 35.25 18.4699 35.25 18.0557C35.25 17.6414 35.5858 17.3057 36 17.3057V18.8057ZM39.3057 22.1113C39.3057 20.2857 37.8257 18.8057 36 18.8057V17.3057C38.6541 17.3057 40.8057 19.4572 40.8057 22.1113H39.3057Z" fill="#FF1E26"/>
<path d="M32.6469 19C32.6469 18.5858 32.3111 18.25 31.8969 18.25C31.4827 18.25 31.1469 18.5858 31.1469 19H32.6469ZM29 21.1469C28.5858 21.1469 28.25 21.4827 28.25 21.8969C28.25 22.3111 28.5858 22.6469 29 22.6469V21.1469ZM31.1469 19C31.1469 20.1857 30.1857 21.1469 29 21.1469V22.6469C31.0141 22.6469 32.6469 21.0141 32.6469 19H31.1469Z" fill="#FF1E26"/>
<path d="M34.793 22.6469C35.2072 22.6469 35.543 22.3111 35.543 21.8969C35.543 21.4827 35.2072 21.1469 34.793 21.1469L34.793 22.6469ZM32.6461 19C32.6461 18.5858 32.3103 18.25 31.8961 18.25C31.4818 18.25 31.1461 18.5858 31.1461 19L32.6461 19ZM34.793 21.1469C33.6073 21.1469 32.6461 20.1857 32.6461 19L31.1461 19C31.1461 21.0141 32.7788 22.6469 34.793 22.6469L34.793 21.1469Z" fill="#FF1E26"/>
<path d="M34.793 21.147C35.2072 21.147 35.543 21.4828 35.543 21.897C35.543 22.3113 35.2072 22.647 34.793 22.647L34.793 21.147ZM32.6461 24.7939C32.6461 25.2082 32.3103 25.5439 31.8961 25.5439C31.4818 25.5439 31.1461 25.2082 31.1461 24.7939L32.6461 24.7939ZM34.793 22.647C33.6073 22.647 32.6461 23.6082 32.6461 24.7939L31.1461 24.7939C31.1461 22.7798 32.7788 21.147 34.793 21.147L34.793 22.647Z" fill="#FF1E26"/>
<path d="M32.6469 24.7939C32.6469 25.2082 32.3111 25.5439 31.8969 25.5439C31.4827 25.5439 31.1469 25.2082 31.1469 24.7939H32.6469ZM29 22.647C28.5858 22.647 28.25 22.3113 28.25 21.897C28.25 21.4828 28.5858 21.147 29 21.147V22.647ZM31.1469 24.7939C31.1469 23.6082 30.1857 22.647 29 22.647V21.147C31.0141 21.147 32.6469 22.7798 32.6469 24.7939H31.1469Z" fill="#FF1E26"/>
<path d="M15.6596 25.307L16.3391 25.6244L15.6596 25.307ZM17.7978 20.7302L18.4773 21.0477L17.7978 20.7302ZM26.5 19.75C26.9142 19.75 27.25 19.4142 27.25 19C27.25 18.5858 26.9142 18.25 26.5 18.25V19.75ZM47.197 25L46.5175 25.3174V25.3174L47.197 25ZM47.3404 25.307L48.0199 24.9895V24.9895L47.3404 25.307ZM46.475 21.6826C46.2996 21.3073 45.8533 21.1452 45.478 21.3205C45.1027 21.4958 44.9406 21.9422 45.1159 22.3174L46.475 21.6826ZM16.3391 25.6244L18.4773 21.0477L17.1182 20.4128L14.9801 24.9895L16.3391 25.6244ZM43.7163 30.25H31.5V31.75H43.7163V30.25ZM31.5 30.25H19.2837V31.75H31.5V30.25ZM20.5158 19.75H26.5V18.25H20.5158V19.75ZM46.5175 25.3174L46.6609 25.6244L48.0199 24.9895L47.8765 24.6826L46.5175 25.3174ZM45.1159 22.3174L46.5175 25.3174L47.8765 24.6826L46.475 21.6826L45.1159 22.3174ZM14.9801 24.9895C13.5088 28.1388 15.8076 31.75 19.2837 31.75V30.25C16.9053 30.25 15.3325 27.7792 16.3391 25.6244L14.9801 24.9895ZM43.7163 31.75C47.1924 31.75 49.4911 28.1388 48.0199 24.9895L46.6609 25.6244C47.6675 27.7792 46.0947 30.25 43.7163 30.25V31.75ZM18.4773 21.0477C18.8471 20.256 19.6419 19.75 20.5158 19.75V18.25C19.0594 18.25 17.7347 19.0933 17.1182 20.4128L18.4773 21.0477Z" fill="#242424"/>
<path d="M13.5 30.9999L14.1512 31.372L14.7924 30.2499L13.5 30.2499L13.5 30.9999ZM13 45.9999L13.7115 46.2371L13.8581 45.7973L13.5303 45.4696L13 45.9999ZM18 52.4999V51.7499V52.4999ZM13.7785 26.3036C13.1412 26.0487 12.5144 25.8232 11.9315 25.6711C11.3562 25.5211 10.775 25.4291 10.2436 25.4781C9.69539 25.5287 9.15276 25.7365 8.76497 26.2232C8.39201 26.6914 8.25 27.3094 8.25 27.9999H9.75C9.75 27.4905 9.85799 27.2585 9.93815 27.1579C10.0035 27.0759 10.1171 26.9962 10.3814 26.9718C10.6625 26.9458 11.05 26.9914 11.5529 27.1226C12.0481 27.2517 12.6088 27.4512 13.2215 27.6963L13.7785 26.3036ZM8.25 27.9999C8.25 29.5539 9.14633 30.5279 10.2258 31.0701C11.2673 31.5933 12.5235 31.7499 13.5 31.7499L13.5 30.2499C12.6432 30.2499 11.6493 30.1066 10.8992 29.7297C10.187 29.372 9.75 28.846 9.75 27.9999H8.25ZM12.8488 30.6278C12.1253 31.8939 10.75 35.3543 10.75 39.4999H12.25C12.25 35.6455 13.5414 32.4392 14.1512 31.372L12.8488 30.6278ZM10.75 39.4999C10.75 41.5613 11.0076 43.1336 11.343 44.274C11.6705 45.3877 12.091 46.1516 12.4697 46.5302L13.5303 45.4696C13.409 45.3482 13.0795 44.8622 12.782 43.8508C12.4924 42.8662 12.25 41.4385 12.25 39.4999H10.75ZM12.2885 45.7627C12.107 46.3071 11.75 47.6913 11.75 48.9999H13.25C13.25 47.9086 13.5596 46.6927 13.7115 46.2371L12.2885 45.7627ZM11.75 48.9999C11.75 49.8139 11.883 50.805 12.2547 51.6228C12.6282 52.4444 13.3329 53.2499 14.5 53.2499V51.7499C14.1671 51.7499 13.8718 51.5554 13.6203 51.0021C13.367 50.4448 13.25 49.6859 13.25 48.9999H11.75ZM14.5 53.2499C17 53.2499 16 53.2499 18 53.2499V51.7499C16 51.7499 17 51.7499 14.5 51.7499V53.2499ZM18 53.2499H20.5V51.7499H18V53.2499ZM20.5 53.2499C22.0188 53.2499 23.25 52.0187 23.25 50.4999H21.75C21.75 51.1903 21.1904 51.7499 20.5 51.7499V53.2499Z" fill="#242424"/>
<path d="M21.5 38L14.5 36" stroke="#242424" stroke-width="1.5"/>
<circle cx="17" cy="42" r="1" fill="#242424"/>
<path d="M21 41.5H32" stroke="#242424" stroke-width="1.5"/>
<path d="M21 47H32" stroke="#242424" stroke-width="1.5"/>
<path d="M50.5 30.9999L49.8488 31.372L49.2076 30.2499L50.5 30.2499L50.5 30.9999ZM51 45.9999L50.2885 46.2371L50.1419 45.7973L50.4697 45.4696L51 45.9999ZM46 52.4999V51.7499V52.4999ZM50.2215 26.3036C50.8588 26.0487 51.4856 25.8232 52.0685 25.6711C52.6438 25.5211 53.225 25.4291 53.7564 25.4781C54.3046 25.5287 54.8472 25.7365 55.235 26.2232C55.608 26.6914 55.75 27.3094 55.75 27.9999H54.25C54.25 27.4905 54.142 27.2585 54.0618 27.1579C53.9965 27.0759 53.8829 26.9962 53.6186 26.9718C53.3375 26.9458 52.95 26.9914 52.4471 27.1226C51.9519 27.2517 51.3912 27.4512 50.7785 27.6963L50.2215 26.3036ZM55.75 27.9999C55.75 29.5539 54.8537 30.5279 53.7742 31.0701C52.7327 31.5933 51.4765 31.7499 50.5 31.7499L50.5 30.2499C51.3568 30.2499 52.3507 30.1066 53.1008 29.7297C53.813 29.372 54.25 28.846 54.25 27.9999H55.75ZM51.1512 30.6278C51.8747 31.8939 53.25 35.3543 53.25 39.4999H51.75C51.75 35.6455 50.4586 32.4392 49.8488 31.372L51.1512 30.6278ZM53.25 39.4999C53.25 41.5613 52.9924 43.1336 52.657 44.274C52.3295 45.3877 51.909 46.1516 51.5303 46.5302L50.4697 45.4696C50.591 45.3482 50.9205 44.8622 51.218 43.8508C51.5076 42.8662 51.75 41.4385 51.75 39.4999H53.25ZM51.7115 45.7627C51.893 46.3071 52.25 47.6913 52.25 48.9999H50.75C50.75 47.9086 50.4404 46.6927 50.2885 46.2371L51.7115 45.7627ZM52.25 48.9999C52.25 49.8139 52.117 50.805 51.7453 51.6228C51.3718 52.4444 50.6671 53.2499 49.5 53.2499V51.7499C49.8329 51.7499 50.1282 51.5554 50.3797 51.0021C50.633 50.4448 50.75 49.6859 50.75 48.9999H52.25ZM49.5 53.2499C47 53.2499 48 53.2499 46 53.2499V51.7499C48 51.7499 47 51.7499 49.5 51.7499V53.2499ZM46 53.2499H43.5V51.7499H46V53.2499ZM43.5 53.2499C41.9812 53.2499 40.75 52.0187 40.75 50.4999H42.25C42.25 51.1903 42.8096 51.7499 43.5 51.7499V53.2499Z" fill="#242424"/>
<path d="M42.5 38L49.5 36" stroke="#242424" stroke-width="1.5"/>
<circle r="0.75" transform="matrix(-1 0 0 1 47 42)" fill="#242424" stroke="#242424" stroke-width="0.5"/>
<path d="M43 41.5H32" stroke="#242424" stroke-width="1.5"/>
<path d="M43 47H32" stroke="#242424" stroke-width="1.5"/>
</svg>
