<svg width="133" height="48" viewBox="0 0 133 48" fill="none" xmlns="http://www.w3.org/2000/svg">
<g clip-path="url(#clip0_48_4625)">
<path d="M34.1259 33.9582C35.9983 26.2814 31.2356 18.5543 23.4881 16.6991C15.7406 14.844 7.94222 19.5633 6.06985 27.2401C4.19748 34.9169 8.96019 42.644 16.7077 44.4992C24.4551 46.3543 32.2535 41.635 34.1259 33.9582Z" fill="white" stroke="#C5C6C6" stroke-width="0.7087" stroke-miterlimit="22.9256"/>
<path d="M116.806 34.0996C118.678 26.4228 113.915 18.6955 106.168 16.8403C98.4202 14.9851 90.6218 19.7044 88.7495 27.3812C86.8772 35.058 91.64 42.7852 99.3874 44.6404C107.135 46.4957 114.933 41.7763 116.806 34.0996Z" fill="white" stroke="#D9DADA" stroke-width="0.7087" stroke-miterlimit="22.9256"/>
<path fill-rule="evenodd" clip-rule="evenodd" d="M39.8448 9.19066C41.5822 8.52423 45.4214 7.10807 48.7562 5.94182C52.091 4.80333 54.9494 3.91476 57.6957 3.19279C60.442 2.47083 63.0482 1.85994 65.4022 1.41565C67.7562 0.971364 69.8019 0.693682 72.2119 0.471539C74.6219 0.249396 77.3682 0.110558 80.2546 0.0827902C83.1411 0.0550223 86.1396 0.138326 89.1381 0.360469C92.1366 0.582613 95.1631 0.943593 98.3018 1.49895C101.44 2.05431 104.719 2.83181 107.942 3.69262C111.165 4.55342 114.303 5.49753 117.386 6.74709C120.468 7.96888 123.495 9.49611 125.008 10.2458C126.521 10.9956 126.521 11.0233 124.195 10.3014C121.87 9.60718 117.246 8.19102 112.958 7.05253C108.67 5.88628 104.747 4.96994 101.244 4.30351C97.7413 3.63708 94.6587 3.19279 91.7723 2.88735C88.8859 2.5819 86.2236 2.44306 83.1411 2.41529C80.0305 2.38752 76.4995 2.47083 73.2488 2.69297C69.998 2.91511 67.0836 3.24833 63.3004 3.94253C59.5173 4.63672 54.8654 5.69191 51.5025 6.46941C48.1397 7.24691 46.038 7.74673 44.5247 8.10771C43.0394 8.4687 42.1427 8.69084 41.33 8.94075C40.4893 9.19066 39.7327 9.41281 39.1442 9.57941C38.5277 9.77379 38.1353 9.85709 39.8448 9.19066Z" fill="#575656"/>
<path fill-rule="evenodd" clip-rule="evenodd" d="M6.24467 20.2424C8.37446 19.215 11.8213 17.6322 14.3995 16.5215C16.9777 15.4108 18.7151 14.7999 20.0883 14.3833C21.4614 13.9668 22.4983 13.7169 23.4511 13.5503C24.4039 13.3837 25.2726 13.2726 26.3375 13.3282C27.3744 13.3837 28.6074 13.5781 29.9525 13.9668C31.2977 14.3556 32.7829 14.9665 34.2401 15.5774C35.6974 16.1883 37.0985 16.7992 38.4437 17.2712C39.7888 17.771 41.0779 18.1598 42.1708 18.4097C43.2637 18.6874 44.1324 18.8262 45.4495 18.9651C46.7667 19.1039 48.5321 19.215 49.7091 19.2427C50.8861 19.2983 51.5026 19.2705 52.6236 19.2427C53.7445 19.1872 55.3699 19.1039 56.9112 19.0206C58.4524 18.9373 59.8816 18.854 61.6191 18.7151C63.3566 18.5763 65.3742 18.4097 67.1117 18.2153C68.8492 18.0209 70.3064 17.8543 71.8477 17.66C73.389 17.4656 74.9863 17.2712 76.5836 17.0491C78.181 16.8547 79.7783 16.6325 81.2636 16.4104C82.7488 16.1883 84.122 15.9383 85.355 15.6884C86.56 15.4385 87.6249 15.1886 88.3815 14.9942C89.1382 14.7721 89.5585 14.6055 89.8388 14.4667C90.119 14.3278 90.2311 14.2167 90.3152 14.1057C90.3992 13.9946 90.4273 13.8558 90.4273 13.7169C90.4273 13.6058 90.3992 13.4948 90.3152 13.3282C90.2311 13.1893 90.091 12.995 89.7547 12.634C89.4184 12.3008 88.914 11.8009 87.1485 10.1349C85.383 8.46879 82.3565 5.60869 81.5158 4.91449C80.6751 4.2203 81.9922 5.71976 82.7488 6.58057C83.5055 7.44137 83.7016 7.69129 84.122 8.19111C84.5423 8.69093 85.1869 9.44066 85.7193 10.0793C86.2517 10.718 86.6441 11.2456 86.8683 11.6621C87.1205 12.0508 87.2046 12.3285 87.2606 12.4951C87.3166 12.6617 87.3166 12.7728 87.2886 12.8839C87.2606 12.995 87.2046 13.106 87.0644 13.2171C86.9523 13.3282 86.7562 13.4392 86.3358 13.6058C85.9155 13.7725 85.299 13.9668 83.5054 14.3C81.7119 14.6333 78.7695 15.1053 76.3875 15.4663C73.9775 15.8273 72.1279 16.0772 69.802 16.3271C67.476 16.6048 64.6737 16.8825 62.2636 17.1046C59.8536 17.3267 57.8359 17.4656 55.9023 17.5489C53.9687 17.6322 52.0911 17.6877 50.6059 17.66C49.1206 17.6322 47.9717 17.5767 46.7947 17.4378C45.5897 17.299 44.3286 17.1046 43.0956 16.7992C41.8345 16.4937 40.6015 16.105 39.2844 15.5496C37.9673 14.9942 36.5661 14.3 35.305 13.6892C34.072 13.0783 33.0071 12.5784 32.0823 12.2452C31.1576 11.912 30.3449 11.7732 29.7003 11.6621C29.0558 11.5788 28.5794 11.551 27.9909 11.551C27.4024 11.551 26.7018 11.6066 25.8331 11.7454C24.9363 11.8842 23.8715 12.0786 22.4703 12.4951C21.0691 12.8839 19.3316 13.4948 16.5853 14.7443C13.839 15.9939 10.0839 17.9376 7.5898 19.2705C5.09571 20.6034 3.86267 21.3531 3.63848 21.5197C3.3022 21.6863 4.11489 21.242 6.24467 20.2424Z" fill="#575656"/>
<path fill-rule="evenodd" clip-rule="evenodd" d="M38.1074 28.6284H41.106V26.7124H36.3979V40.1798H41.106V38.2638H38.1074V34.3208H40.4895V32.377H38.1074V28.6284Z" fill="#E3090F"/>
<path fill-rule="evenodd" clip-rule="evenodd" d="M45.7018 26.7124H43.1516V40.1798H44.8891V35.1261H45.7018C47.4393 35.1261 48.2801 33.9598 48.2801 31.7939V30.0445C48.2801 27.8787 47.4393 26.7124 45.7018 26.7124ZM45.7018 28.6284C46.2623 28.6284 46.5425 28.9338 46.5425 29.9057V31.9328C46.5425 32.9046 46.2343 33.2101 45.7018 33.2101H44.8891V28.6562H45.7018V28.6284Z" fill="#E3090F"/>
<path fill-rule="evenodd" clip-rule="evenodd" d="M51.7829 34.4041H53.7446V40.1798H55.5101V26.7124H53.7446V32.4881H51.7829V26.7124H50.0453V40.1798H51.7829V34.4041Z" fill="#E3090F"/>
<path fill-rule="evenodd" clip-rule="evenodd" d="M59.3212 29.7942C59.3212 28.8224 59.6575 28.4614 60.218 28.4614C60.7785 28.4614 61.1148 28.8224 61.1148 29.7942V37.0694C61.1148 38.0413 60.7785 38.4023 60.218 38.4023C59.6575 38.4023 59.3212 38.0413 59.3212 37.0694V29.7942ZM57.6117 36.9306C57.6117 39.0965 58.5365 40.3183 60.246 40.3183C61.9555 40.3183 62.8803 39.0965 62.8803 36.9306V29.9331C62.8803 27.7672 61.9555 26.5454 60.246 26.5454C58.5365 26.5454 57.6117 27.7672 57.6117 29.9331V36.9306Z" fill="#E3090F"/>
<path fill-rule="evenodd" clip-rule="evenodd" d="M67.5601 26.7124H64.9539V40.1798H67.6722C69.4098 40.1798 70.3065 39.0691 70.3065 36.9865V35.9036C70.3065 34.4874 69.9422 33.46 69.0174 33.0157C69.7741 32.5714 70.1384 31.6829 70.1384 30.2945V29.8224C70.1104 27.7398 69.3537 26.7124 67.5601 26.7124ZM67.448 34.1264C68.2327 34.1264 68.569 34.5152 68.569 35.7647V36.931C68.569 37.9306 68.2608 38.2638 67.6722 38.2638H66.6914V34.1264H67.448ZM67.5041 28.6284C68.1206 28.6284 68.3728 29.0449 68.3728 30.0168V30.7665C68.3728 31.8495 67.9805 32.1827 67.3359 32.1827H66.6633V28.6284H67.5041Z" fill="#E3090F"/>
<path fill-rule="evenodd" clip-rule="evenodd" d="M76.1354 26.7124H73.6132L71.8477 40.1798H73.4451L73.7533 37.7362H75.8832L76.1915 40.1798H77.929L76.1354 26.7124ZM74.7902 29.1004L75.631 35.9036H73.9775L74.7902 29.1004Z" fill="#E3090F"/>
<path fill-rule="evenodd" clip-rule="evenodd" d="M81.1235 40.1798C81.2075 39.8466 81.2916 39.6244 81.2916 38.5137V36.4033C81.2916 35.1538 81.6279 34.6817 82.4126 34.6817H83.0011V40.152H84.7386V26.6846H82.1323C80.3388 26.6846 79.5821 27.712 79.5821 29.7946V30.8498C79.5821 32.2381 79.9464 33.1267 80.7031 33.571C79.8343 34.0153 79.5541 35.0427 79.5541 36.4311V38.5137C79.5541 39.1801 79.5261 39.6522 79.3579 40.152H81.1235V40.1798ZM83.0011 28.6283V32.7657H82.3285C81.684 32.7657 81.2916 32.4325 81.2916 31.3496V30.0167C81.2916 29.0448 81.5719 28.6283 82.1604 28.6283H83.0011Z" fill="#E3090F"/>
<path fill-rule="evenodd" clip-rule="evenodd" d="M18.5038 18.6984C17.9221 18.6734 17.2138 18.6999 16.4691 18.8903C15.7041 19.0859 14.8309 19.4643 14.1251 19.8529C13.4315 20.2347 12.9487 20.5872 12.5086 20.9463L12.4843 20.9661L12.4587 20.9844C12.0082 21.3068 11.6112 21.6508 11.2388 22.043C10.8429 22.4884 10.443 22.99 10.0225 23.5177L8.46381 22.2984L8.47295 22.2869C8.88693 21.7673 9.32129 21.2221 9.75967 20.7298L9.76958 20.7187L9.77982 20.7079C10.238 20.2236 10.7264 19.7991 11.2703 19.4076C11.7772 18.9956 12.3538 18.5768 13.1606 18.1327C13.9681 17.6882 15.0005 17.2336 15.9729 16.9849C16.9657 16.731 17.8827 16.702 18.5901 16.7325C19.3176 16.7638 19.989 16.8911 20.5642 17.1571C21.1329 17.42 21.5977 17.8014 21.9475 18.2636C22.3203 18.7561 22.5665 19.3774 22.5665 20.1313C22.5665 20.3152 22.5518 20.5042 22.523 20.6946C23.7305 20.2428 24.9379 19.8884 25.994 19.7654C27.8075 19.5416 29.1833 19.9848 30.2296 20.7482C31.2383 21.4843 31.8761 22.4739 32.3187 23.2095C33.2272 24.7195 33.6639 25.8111 33.9432 27.004C34.2432 28.1394 34.3904 29.3486 34.42 30.4343L34.4201 30.435C34.4505 31.5804 34.328 32.633 34.0885 33.7011C33.8459 34.7827 33.4535 35.886 32.8864 37.0099L32.884 37.0146L32.8815 37.0193C32.3139 38.1146 31.5621 39.2492 30.5629 40.2993L30.5578 40.3046L30.5527 40.3099C29.5377 41.3452 28.2823 42.3243 26.9531 43.0427C25.6158 43.7655 24.231 44.2097 22.845 44.5019C21.4419 44.7978 19.9872 44.92 18.4051 44.7391L18.3958 44.7381L18.3865 44.7368C16.8288 44.5291 15.1923 44.029 13.9253 43.4324C12.6512 42.8602 11.7697 42.2259 11.0649 41.6731L11.0551 41.6654L11.0455 41.6575C10.3479 41.0814 9.7753 40.5464 9.31129 40.0254C8.98071 39.6541 8.69063 39.2885 8.43428 38.9654C8.34834 38.8571 8.26618 38.7536 8.18756 38.6562L9.7383 37.4269C9.83657 37.5486 9.93066 37.6672 10.0237 37.7844C10.2708 38.0958 10.5103 38.3976 10.8004 38.7234C11.1752 39.1444 11.6646 39.6066 12.3073 40.1379C12.9438 40.6366 13.6831 41.1641 14.7527 41.6435L14.7616 41.6475L14.7703 41.6516C15.8536 42.1628 17.2916 42.6041 18.6422 42.7854C19.9709 42.9362 21.2036 42.8362 22.4318 42.5772C23.68 42.3141 24.8733 41.9253 26.0021 41.3152C27.137 40.7018 28.2338 39.8501 29.1236 38.9434C29.9698 38.0528 30.6166 37.0811 31.1125 36.1252C31.609 35.1404 31.9444 34.1904 32.1499 33.2742C32.3587 32.3429 32.4605 31.4518 32.4348 30.4868C32.4085 29.5225 32.2766 28.4608 32.0188 27.4902L32.0149 27.4757L32.0115 27.4611C31.7863 26.4938 31.4382 25.5888 30.6129 24.2171C30.1867 23.5088 29.7177 22.8185 29.052 22.3327C28.4245 21.8749 27.5597 21.5546 26.2365 21.7184L26.2326 21.7189L26.2288 21.7194C24.8407 21.8805 22.9593 22.5777 21.1047 23.4206C20.6214 23.6402 20.1474 23.8662 19.6931 24.0899C19.2972 24.303 18.8704 24.5179 18.4886 24.7102C18.2792 24.8157 18.0832 24.9143 17.9134 25.0021C17.3787 25.2785 17.01 25.4922 16.4803 25.7991C16.3969 25.8474 16.3096 25.898 16.2169 25.9516L16.2033 25.9594L16.1895 25.9668C15.8817 26.1321 15.4239 26.3732 15.2997 26.425C15.2892 26.4294 15.2705 26.4371 15.2473 26.4454L15.2461 26.4458C15.2325 26.4507 15.1709 26.4729 15.0907 26.488L15.0887 26.4884C15.0592 26.4939 14.9294 26.5185 14.7658 26.4955C14.6803 26.4835 14.4951 26.4468 14.3084 26.3079C14.085 26.1415 13.9398 25.887 13.9154 25.6048C13.8951 25.3688 13.9655 25.19 14.0026 25.1099C14.0441 25.0206 14.0904 24.9564 14.1166 24.9225C14.1689 24.8548 14.2186 24.8092 14.237 24.7925C14.2796 24.7541 14.3166 24.7276 14.3276 24.7197C14.3441 24.7079 14.3583 24.6985 14.3673 24.6925C14.3856 24.6806 14.4027 24.6701 14.415 24.6626C14.4622 24.634 14.5337 24.5931 14.6246 24.5422C14.813 24.4365 15.1329 24.2605 15.6309 23.9894C16.3568 23.5943 17.486 22.98 18.7817 22.3413C18.9051 22.2744 19.0249 22.2077 19.1396 22.1415C19.8005 21.7594 20.0814 21.5296 20.2498 21.2565C20.4645 20.9084 20.5805 20.4746 20.5805 20.1313C20.5805 19.8299 20.4904 19.6182 20.3588 19.4443C20.2042 19.2401 19.9964 19.066 19.7244 18.9403C19.4589 18.8175 19.0654 18.7226 18.5038 18.6984Z" fill="#E3090F"/>
<path fill-rule="evenodd" clip-rule="evenodd" d="M99.5922 10.5931C100.248 10.986 100.92 11.3881 101.617 11.7189C103.424 12.5764 105.334 12.872 107.774 12.872C110.217 12.872 113.109 12.5774 116.101 12.2726L116.163 12.2662L116.366 14.2237L116.236 14.237C113.296 14.5366 110.32 14.8398 107.774 14.8398C105.169 14.8398 102.932 14.5244 100.759 13.4937C99.9667 13.1176 99.1714 12.6412 98.4972 12.2373C98.2823 12.1086 98.0798 11.9873 97.8935 11.8789C97.5266 11.6654 97.2296 11.5051 96.9924 11.4019C96.9792 11.5124 96.9683 11.6493 96.9608 11.8171C96.9483 12.0948 96.9463 12.3995 96.9441 12.7456C96.9434 12.8552 96.9427 12.969 96.9416 13.0874C96.9371 13.5649 96.9264 14.0944 96.8813 14.6318L96.8812 14.6329C96.7734 15.8967 96.4629 17.1523 96.1609 18.1652C96.7278 17.8577 97.2592 17.6283 97.785 17.433C98.4802 17.1747 99.1976 16.9259 100.245 16.772C101.276 16.5931 102.611 16.5069 103.944 16.595C105.326 16.6863 106.629 17.02 107.875 17.4903C109.134 17.9657 110.339 18.6207 111.344 19.3749C112.335 20.1192 113.14 20.918 113.814 21.6732L113.821 21.6813L113.828 21.6895C114.489 22.4632 115.002 23.2115 115.481 24.0712L115.487 24.0827L115.493 24.0945C115.944 24.9575 116.365 25.9984 116.638 27.1064C116.941 28.2198 117.088 29.4327 117.117 30.5178L117.117 30.5185C117.148 31.6638 117.025 32.7164 116.786 33.7845C116.543 34.8661 116.151 35.9694 115.584 37.0933L115.581 37.098L115.579 37.1027C115.011 38.198 114.259 39.3327 113.26 40.3827L113.255 40.3881L113.25 40.3933C112.235 41.4287 110.98 42.4078 109.65 43.1262C108.313 43.8489 106.928 44.2932 105.542 44.5854C104.139 44.8812 102.684 45.0035 101.102 44.8226L101.093 44.8215L101.084 44.8203C99.5261 44.6125 97.8896 44.1124 96.6226 43.5158C95.3412 42.9403 94.4829 42.3009 93.8021 41.7436L93.7924 41.7357L93.783 41.7275C93.124 41.1598 92.5546 40.6276 92.0926 40.1088C91.762 39.7376 91.472 39.372 91.2156 39.0489C91.1297 38.9406 91.0475 38.837 90.9689 38.7396L92.5196 37.5104C92.6179 37.6321 92.712 37.7507 92.805 37.8679C93.0521 38.1793 93.2916 38.4811 93.5817 38.8069C93.9585 39.2301 94.4509 39.695 95.0765 40.2344C95.6811 40.7287 96.3879 41.2509 97.45 41.727L97.4588 41.7309L97.4676 41.7351C98.5509 42.2462 99.9889 42.6876 101.339 42.8688C102.668 43.0196 103.901 42.9196 105.129 42.6607C106.377 42.3975 107.571 42.0087 108.699 41.3987C109.834 40.7853 110.931 39.9335 111.821 39.0269C112.667 38.1363 113.314 37.1645 113.81 36.2086C114.306 35.2238 114.642 34.2738 114.847 33.3576C115.056 32.4264 115.158 31.5353 115.132 30.5702C115.106 29.6046 114.974 28.5457 114.718 27.6078L114.715 27.5957L114.712 27.5836C114.481 26.6463 114.122 25.7522 113.736 25.0101C113.321 24.2674 112.885 23.6326 112.319 22.9688C111.706 22.2826 110.999 21.585 110.145 20.9434C109.3 20.3092 108.263 19.7424 107.168 19.3292C106.06 18.911 104.953 18.6338 103.812 18.5585C102.63 18.4804 101.449 18.5596 100.576 18.7123L100.562 18.7147L100.548 18.7168C99.6974 18.8407 99.129 19.0352 98.4823 19.2755C97.8633 19.5055 97.2553 19.7818 96.5681 20.2098C95.886 20.6525 95.11 21.2614 94.8111 21.5038L94.7892 21.5215L94.7663 21.538C94.6949 21.5895 94.6361 21.6317 94.5997 21.6562C94.5925 21.6611 94.5669 21.6784 94.5358 21.6967L94.5348 21.6972C94.5255 21.7028 94.4716 21.7347 94.4 21.7635C94.3996 21.7636 94.399 21.7638 94.3982 21.7642C94.3788 21.7723 94.2324 21.8332 94.0387 21.8356C93.9383 21.8369 93.6535 21.8259 93.3885 21.6059C93.0753 21.3459 93.0221 20.9974 93.0351 20.7907C93.0464 20.6107 93.1052 20.4798 93.1279 20.4321C93.1568 20.3713 93.1861 20.326 93.2028 20.3015C93.2363 20.2523 93.267 20.2169 93.2792 20.2031C93.3066 20.172 93.3303 20.1491 93.3376 20.1421C93.3563 20.1241 93.373 20.1094 93.379 20.1041C93.3863 20.0976 93.4216 20.0674 93.4434 20.0486C93.4447 20.0475 93.446 20.0464 93.4472 20.0453C93.4987 19.9118 93.5795 19.6729 93.7447 19.1816C93.7648 19.1219 93.7859 19.0594 93.808 18.9942C94.1646 17.9394 94.755 16.1935 94.9022 14.4677C94.9411 14.0057 94.9514 13.5357 94.9557 13.0693C94.9567 12.9674 94.9573 12.8642 94.958 12.7608C94.9602 12.4059 94.9624 12.0484 94.9768 11.7294C94.9949 11.328 95.0347 10.8825 95.1596 10.499C95.2845 10.1158 95.5739 9.57057 96.2355 9.38329C96.78 9.22913 97.3247 9.40986 97.6656 9.54752C98.0569 9.70559 98.4835 9.94017 98.8991 10.182C99.1285 10.3155 99.3594 10.4537 99.5922 10.5931Z" fill="#E3090F"/>
<path fill-rule="evenodd" clip-rule="evenodd" d="M132.463 40.2073V38.319H121.029L128.82 30.0164C130.025 28.7114 130.922 27.323 131.566 25.879C132.155 24.4073 132.463 22.7135 132.463 20.8808C132.463 19.659 132.295 18.4928 131.959 17.4376C131.65 16.3824 131.174 15.4661 130.585 14.6608C129.969 13.9111 129.268 13.3002 128.427 12.8559C127.587 12.4116 126.634 12.1895 125.597 12.1895C124.28 12.1895 122.991 12.4671 121.814 12.9947C120.609 13.5223 119.516 14.4664 118.507 15.7715L119.404 17.1599C120.3 16.1047 121.225 15.3272 122.262 14.8274C123.243 14.3276 124.336 14.0777 125.457 14.0777C127.25 14.0777 128.596 14.6886 129.52 15.9937C130.473 17.2154 130.95 18.9093 130.95 20.9086C130.95 22.3525 130.697 23.6576 130.165 24.9349C129.604 26.2122 128.792 27.4618 127.587 28.7391L118.619 38.3746V40.1795H132.463V40.2073Z" fill="#E3090F"/>
<path d="M2.37748 22.2139C2.15329 22.436 1.90107 22.6582 1.81699 22.8525C1.70489 23.0469 1.73292 23.1857 2.23736 25.5738C2.71378 27.9341 3.63859 32.5435 3.58254 35.2648C3.52649 38.0138 2.51761 38.8746 2.29341 39.4022C2.06922 39.902 2.68575 40.0409 3.63859 40.1242C4.59143 40.1797 5.88056 40.1797 7.16969 40.1797" stroke="#575656" stroke-width="0.2835" stroke-miterlimit="22.9256"/>
<path d="M33.7357 40.124C52.035 40.1517 70.3063 40.1794 88.6057 40.207" stroke="#575656" stroke-width="0.5669" stroke-miterlimit="22.9256"/>
<path d="M116.405 40.1797C121.87 40.2074 127.335 40.235 132.799 40.2627" stroke="#575656" stroke-width="0.5669" stroke-miterlimit="22.9256"/>
</g>
<defs>
<clipPath id="clip0_48_4625">
<rect width="133" height="48" fill="white"/>
</clipPath>
</defs>
</svg>
