<svg width="193" height="88" viewBox="0 0 193 88" fill="none" xmlns="http://www.w3.org/2000/svg">
<g clip-path="url(#clip0_136_5408)">
<path d="M47.689 50.4733C50.4313 39.0631 43.4558 27.578 32.1089 24.8206C20.762 22.0632 9.3404 29.0777 6.59813 40.4879C3.85586 51.8981 10.8313 63.3832 22.1783 66.1406C33.5252 68.898 44.9467 61.8835 47.689 50.4733Z" fill="white" stroke="#C5C6C6" stroke-width="0.7087" stroke-miterlimit="22.9256"/>
<path d="M168.782 50.6837C171.524 39.2735 164.548 27.7883 153.201 25.0308C141.854 22.2733 130.433 29.2878 127.691 40.698C124.949 52.1082 131.924 63.5934 143.271 66.3509C154.618 69.1083 166.039 62.0939 168.782 50.6837Z" fill="white" stroke="#D9DADA" stroke-width="0.7087" stroke-miterlimit="22.9256"/>
<path fill-rule="evenodd" clip-rule="evenodd" d="M56.065 13.6607C58.6097 12.6701 64.2326 10.5652 69.1167 8.83181C74.0009 7.13965 78.1873 5.81895 82.2095 4.74587C86.2317 3.67279 90.0488 2.7648 93.4964 2.10445C96.944 1.44409 99.9402 1.03137 103.47 0.701191C107 0.371013 111.022 0.164655 115.249 0.123382C119.477 0.0821102 123.868 0.205927 128.26 0.536105C132.652 0.866282 137.084 1.40282 141.681 2.22826C146.278 3.05371 151.08 4.20933 155.8 5.48877C160.52 6.76821 165.117 8.17146 169.631 10.0287C174.146 11.8447 178.579 14.1147 180.795 15.229C183.012 16.3434 183.012 16.3846 179.605 15.3116C176.198 14.2798 169.426 12.1749 163.147 10.4827C156.867 8.74927 151.121 7.38729 145.991 6.39676C140.86 5.40622 136.345 4.74587 132.118 4.29187C127.891 3.83788 123.991 3.63152 119.477 3.59025C114.921 3.54897 109.749 3.67279 104.988 4.00297C100.227 4.33315 95.959 4.82841 90.4181 5.86022C84.8773 6.89202 78.0642 8.46037 73.139 9.61599C68.2138 10.7716 65.1356 11.5145 62.9192 12.051C60.7439 12.5876 59.4306 12.9178 58.2403 13.2892C57.009 13.6607 55.9008 13.9908 55.0389 14.2385C54.136 14.5274 53.5614 14.6512 56.065 13.6607Z" fill="#575656"/>
<path fill-rule="evenodd" clip-rule="evenodd" d="M6.85418 30.087C9.97346 28.5599 15.0218 26.2074 18.7977 24.5565C22.5737 22.9056 25.1184 21.9976 27.1295 21.3786C29.1406 20.7595 30.6592 20.388 32.0547 20.1404C33.4502 19.8928 34.7225 19.7277 36.2821 19.8102C37.8007 19.8928 39.6066 20.1817 41.5767 20.7595C43.5468 21.3373 45.7221 22.2453 47.8563 23.1533C49.9906 24.0613 52.0427 24.9692 54.0128 25.6709C55.9829 26.4138 57.8709 26.9916 59.4715 27.363C61.0722 27.7757 62.3446 27.9821 64.2736 28.1885C66.2026 28.3948 68.7883 28.5599 70.5122 28.6012C72.236 28.6837 73.1389 28.6425 74.7807 28.6012C76.4224 28.5186 78.8029 28.3948 81.0603 28.271C83.3176 28.1472 85.4108 28.0234 87.9555 27.817C90.5002 27.6107 93.4553 27.363 96 27.0741C98.5447 26.7852 100.679 26.5376 102.936 26.2487C105.194 25.9598 107.533 25.6709 109.873 25.3407C112.212 25.0518 114.551 24.7216 116.727 24.3914C118.902 24.0613 120.913 23.6898 122.719 23.3183C124.484 22.9469 126.044 22.5754 127.152 22.2865C128.26 21.9564 128.876 21.7087 129.286 21.5024C129.696 21.296 129.861 21.1309 129.984 20.9658C130.107 20.8007 130.148 20.5944 130.148 20.388C130.148 20.2229 130.107 20.0578 129.984 19.8102C129.861 19.6038 129.655 19.3149 129.163 18.7784C128.67 18.2831 127.932 17.5402 125.346 15.0639C122.76 12.5876 118.327 8.33654 117.096 7.30473C115.865 6.27293 117.794 8.50163 118.902 9.78106C120.01 11.0605 120.298 11.432 120.913 12.1749C121.529 12.9178 122.473 14.0321 123.253 14.9814C124.032 15.9306 124.607 16.7148 124.935 17.3339C125.305 17.9117 125.428 18.3244 125.51 18.572C125.592 18.8197 125.592 18.9848 125.551 19.1499C125.51 19.3149 125.428 19.48 125.223 19.6451C125.059 19.8102 124.771 19.9753 124.156 20.2229C123.54 20.4706 122.637 20.7595 120.01 21.2547C117.383 21.75 113.074 22.4516 109.585 22.9882C106.056 23.5247 103.347 23.8962 99.9401 24.2676C96.5335 24.6803 92.4292 25.0931 88.8995 25.4232C85.3698 25.7534 82.4147 25.9598 79.5827 26.0836C76.7507 26.2074 74.0008 26.2899 71.8255 26.2487C69.6503 26.2074 67.9675 26.1249 66.2437 25.9185C64.4788 25.7121 62.6319 25.4232 60.826 24.9692C58.979 24.5152 57.1731 23.9374 55.2441 23.112C53.3151 22.2865 51.2629 21.2547 49.416 20.3468C47.6101 19.4388 46.0504 18.6959 44.696 18.2006C43.3416 17.7053 42.1513 17.499 41.2073 17.3339C40.2633 17.2101 39.5656 17.1688 38.7037 17.1688C37.8418 17.1688 36.8157 17.2513 35.5434 17.4577C34.23 17.6641 32.6703 17.953 30.6182 18.572C28.566 19.1499 26.0214 20.0578 21.9991 21.9151C17.9769 23.7723 12.4771 26.6614 8.82425 28.6425C5.17141 30.6235 3.36551 31.7379 3.03716 31.9855C2.54465 32.2331 3.7349 31.5728 6.85418 30.087Z" fill="#575656"/>
<path fill-rule="evenodd" clip-rule="evenodd" d="M53.5203 42.5511H57.9121V39.7034H51.0166V59.7204H57.9121V56.8726H53.5203V51.012H57.0091V48.1229H53.5203V42.5511Z" fill="#E3090F"/>
<path fill-rule="evenodd" clip-rule="evenodd" d="M64.6432 39.7034H60.9081V59.7204H63.4529V52.2088H64.6432C67.1879 52.2088 68.4193 50.4754 68.4193 47.2562V44.656C68.4193 41.4368 67.1879 39.7034 64.6432 39.7034ZM64.6432 42.5511C65.4641 42.5511 65.8745 43.0051 65.8745 44.4497V47.4625C65.8745 48.9071 65.423 49.3611 64.6432 49.3611H63.4529V42.5924H64.6432V42.5511Z" fill="#E3090F"/>
<path fill-rule="evenodd" clip-rule="evenodd" d="M73.5494 51.1358H76.4226V59.7204H79.0084V39.7034H76.4226V48.288H73.5494V39.7034H71.0046V59.7204H73.5494V51.1358Z" fill="#E3090F"/>
<path fill-rule="evenodd" clip-rule="evenodd" d="M84.59 44.2846C84.59 42.8401 85.0826 42.3036 85.9035 42.3036C86.7244 42.3036 87.2169 42.8401 87.2169 44.2846V55.098C87.2169 56.5425 86.7244 57.079 85.9035 57.079C85.0826 57.079 84.59 56.5425 84.59 55.098V44.2846ZM82.0863 54.8916C82.0863 58.1108 83.4408 59.9268 85.9445 59.9268C88.4482 59.9268 89.8027 58.1108 89.8027 54.8916V44.491C89.8027 41.2718 88.4482 39.4558 85.9445 39.4558C83.4408 39.4558 82.0863 41.2718 82.0863 44.491V54.8916Z" fill="#E3090F"/>
<path fill-rule="evenodd" clip-rule="evenodd" d="M96.6568 39.7034H92.8396V59.7204H96.8209C99.3657 59.7204 100.679 58.0695 100.679 54.9741V53.3645C100.679 51.2596 100.146 49.7325 98.7911 49.0722C99.8993 48.4118 100.433 47.0911 100.433 45.0275V44.3258C100.392 41.2304 99.2836 39.7034 96.6568 39.7034ZM96.4926 50.723C97.6418 50.723 98.1344 51.3008 98.1344 53.1581V54.8915C98.1344 56.3773 97.6829 56.8726 96.8209 56.8726H95.3844V50.723H96.4926ZM96.5747 42.5511C97.4776 42.5511 97.847 43.1702 97.847 44.6148V45.7291C97.847 47.3387 97.2724 47.834 96.3284 47.834H95.3433V42.5511H96.5747Z" fill="#E3090F"/>
<path fill-rule="evenodd" clip-rule="evenodd" d="M109.216 39.7034H105.522L102.936 59.7204H105.276L105.727 56.0884H108.847L109.298 59.7204H111.843L109.216 39.7034ZM107.246 43.2528L108.477 53.3645H106.056L107.246 43.2528Z" fill="#E3090F"/>
<path fill-rule="evenodd" clip-rule="evenodd" d="M116.522 59.7204C116.645 59.2251 116.768 58.895 116.768 57.2441V54.1074C116.768 52.2501 117.26 51.5485 118.41 51.5485H119.272V59.6791H121.816V39.6621H117.999C115.372 39.6621 114.264 41.1892 114.264 44.2846V45.8529C114.264 47.9165 114.798 49.2373 115.906 49.8976C114.634 50.558 114.223 52.085 114.223 54.1487V57.2441C114.223 58.2346 114.182 58.9362 113.936 59.6791H116.522V59.7204ZM119.272 42.5512V48.7007H118.287C117.343 48.7007 116.768 48.2055 116.768 46.5958V44.6148C116.768 43.1702 117.178 42.5512 118.04 42.5512H119.272Z" fill="#E3090F"/>
<path d="M191.877 66.6541H0.2052V88.1156H191.877V66.6541Z" fill="#575656"/>
<path fill-rule="evenodd" clip-rule="evenodd" d="M9.56299 73.299H16.3764V74.5371H10.9585V83.9472H9.56299V73.299Z" fill="white"/>
<path fill-rule="evenodd" clip-rule="evenodd" d="M19.5776 83.9472V73.299H23.559C24.2567 73.299 24.7903 73.3402 25.1597 73.3815C25.6933 73.464 26.1038 73.6291 26.4732 73.8768C26.8426 74.1244 27.0888 74.4546 27.3351 74.9086C27.5403 75.3626 27.6635 75.8166 27.6635 76.3531C27.6635 77.2611 27.3761 78.004 26.8015 78.6231C26.2269 79.2421 25.2008 79.5723 23.6821 79.5723H20.9732V83.9059H19.5776V83.9472ZM20.9732 78.3754H23.7232C24.6261 78.3754 25.2829 78.2103 25.6523 77.8802C26.0217 77.55 26.2269 77.0547 26.2269 76.4356C26.2269 75.9816 26.1038 75.6102 25.8985 75.28C25.6933 74.9498 25.3649 74.7435 24.9955 74.6609C24.7493 74.5784 24.3388 74.5784 23.6821 74.5784H20.9732V78.3754Z" fill="white"/>
<path fill-rule="evenodd" clip-rule="evenodd" d="M30.0846 73.299H31.4801L34.9279 79.82L37.9242 73.299H39.3197L35.3383 81.5947C34.8458 82.6265 34.4353 83.3281 34.107 83.617C33.7786 83.9472 33.3271 84.1123 32.7525 84.1123C32.3831 84.1123 31.9727 84.0297 31.4391 83.8646V82.6677C31.8085 82.8741 32.2189 82.9979 32.6294 82.9979C32.9577 82.9979 33.2451 82.8741 33.4913 82.6677C33.7376 82.4614 34.0249 81.9248 34.3122 81.1407L30.0846 73.299Z" fill="white"/>
<path fill-rule="evenodd" clip-rule="evenodd" d="M42.6028 73.299H50.8938V83.9472H49.4983V74.5371H43.9983V83.9472H42.6028V73.299Z" fill="white"/>
<path fill-rule="evenodd" clip-rule="evenodd" d="M55.2852 73.299H63.5762V83.9472H62.1807V74.5371H56.6807V83.9472H55.2852V73.299Z" fill="white"/>
<path fill-rule="evenodd" clip-rule="evenodd" d="M66.7772 83.9472L70.8407 73.299H72.3593L76.669 83.9472H75.1093L73.878 80.7279H69.4041L68.2548 83.9472H66.7772ZM69.8145 79.5723H73.4265L72.3183 76.642C71.9899 75.734 71.7436 74.9911 71.5795 74.4133C71.4153 75.1149 71.2511 75.7753 71.0048 76.4769L69.8145 79.5723Z" fill="white"/>
<path fill-rule="evenodd" clip-rule="evenodd" d="M86.0265 73.299H87.422V77.9627C88.0787 77.9627 88.5302 77.8389 88.7765 77.5913C89.0228 77.3436 89.3511 76.7246 89.7616 75.7753C90.0489 75.0737 90.2951 74.5784 90.5004 74.2895C90.7056 74.0006 90.9519 73.753 91.3213 73.5466C91.6907 73.3402 92.0601 73.2577 92.4705 73.2577C93.0041 73.2577 93.2914 73.2577 93.3325 73.2577V74.4959C93.2914 74.4959 93.2093 74.4959 93.0451 74.4959C92.881 74.4959 92.7989 74.4959 92.7578 74.4959C92.3063 74.4959 91.978 74.6197 91.7728 74.826C91.5675 75.0324 91.2802 75.5277 91.0339 76.2293C90.6645 77.1373 90.3772 77.7151 90.131 77.9214C89.8847 78.1691 89.5974 78.3342 89.269 78.4993C89.9668 78.7056 90.6235 79.3247 91.2802 80.3978L93.4556 83.9472H91.7317L89.9668 81.0581C89.4743 80.274 89.0638 79.6961 88.7354 79.4072C88.4071 79.1183 87.9966 78.9532 87.4631 78.9532V83.9472H86.0675V73.299H86.0265Z" fill="white"/>
<path fill-rule="evenodd" clip-rule="evenodd" d="M96.082 78.7469C96.082 76.9722 96.5746 75.6102 97.5186 74.6197C98.4626 73.6292 99.694 73.1339 101.172 73.1339C102.157 73.1339 103.019 73.3815 103.798 73.8355C104.578 74.2895 105.194 74.9499 105.604 75.8166C106.015 76.6421 106.22 77.5913 106.22 78.6644C106.22 79.7375 106.015 80.728 105.563 81.5534C105.112 82.4202 104.496 83.0392 103.716 83.4932C102.937 83.9472 102.075 84.1536 101.131 84.1536C100.145 84.1536 99.2425 83.906 98.4626 83.4107C97.6828 82.9154 97.0671 82.2551 96.6977 81.4296C96.2873 80.5629 96.082 79.6962 96.082 78.7469ZM97.5186 78.7882C97.5186 80.0676 97.847 81.0582 98.5447 81.8011C99.2425 82.544 100.104 82.9154 101.131 82.9154C102.198 82.9154 103.06 82.544 103.716 81.8011C104.414 81.0582 104.742 79.9851 104.742 78.6231C104.742 77.7564 104.578 77.0135 104.291 76.3531C104.004 75.6928 103.593 75.1975 103.019 74.8673C102.444 74.4959 101.828 74.3308 101.131 74.3308C100.145 74.3308 99.2835 74.661 98.5858 75.3626C97.888 76.0642 97.5186 77.1786 97.5186 78.7882Z" fill="white"/>
<path fill-rule="evenodd" clip-rule="evenodd" d="M109.996 83.9472V73.299H112.089L114.593 80.8105C114.839 81.5121 115.003 82.0487 115.085 82.3788C115.208 82.0074 115.414 81.4296 115.66 80.6867L118.205 73.299H120.093V83.9472H118.738V75.0324L115.66 83.9472H114.388L111.35 74.8673V83.9472H109.996Z" fill="white"/>
<path fill-rule="evenodd" clip-rule="evenodd" d="M124.402 73.299H132.734V83.9472H131.338V74.5371H125.838V83.9472H124.402V73.299Z" fill="white"/>
<path fill-rule="evenodd" clip-rule="evenodd" d="M135.935 83.9472L139.998 73.299H141.517L145.827 83.9472H144.226L142.995 80.7279H138.521L137.372 83.9472H135.935ZM138.972 79.5723H142.584L141.476 76.642C141.148 75.734 140.901 74.9911 140.737 74.4133C140.573 75.1149 140.409 75.7753 140.163 76.4769L138.972 79.5723Z" fill="white"/>
<path fill-rule="evenodd" clip-rule="evenodd" d="M149.028 83.9472V73.299H150.464V77.6738H155.923V73.299H157.319V83.9472H155.923V78.9532H150.464V83.9472H149.028Z" fill="white"/>
<path fill-rule="evenodd" clip-rule="evenodd" d="M161.751 73.299H163.023V81.7185L168.647 73.299H170.042V83.9472H168.77V75.5276L163.147 83.9472H161.751V73.299Z" fill="white"/>
<path fill-rule="evenodd" clip-rule="evenodd" d="M174.392 73.299H175.665V81.7185L181.288 73.299H182.683V83.9472H181.411V75.5277L175.788 83.9472H174.392V73.299ZM179.687 70.7401H180.59C180.508 71.3592 180.303 71.8132 179.934 72.1434C179.564 72.4735 179.072 72.6386 178.456 72.6386C177.84 72.6386 177.348 72.4735 176.978 72.1434C176.609 71.8132 176.404 71.3592 176.322 70.7401H177.225C177.307 71.0703 177.43 71.3179 177.635 71.483C177.84 71.6481 178.086 71.7306 178.456 71.7306C178.866 71.7306 179.154 71.6481 179.359 71.483C179.482 71.3592 179.605 71.1116 179.687 70.7401Z" fill="white"/>
<path fill-rule="evenodd" clip-rule="evenodd" d="M24.8089 27.7922C23.9569 27.755 22.9196 27.7944 21.8289 28.0774C20.7084 28.3682 19.4295 28.9306 18.3958 29.5081C17.38 30.0756 16.6729 30.5995 16.0283 31.1333L15.9927 31.1628L15.9553 31.19C15.2954 31.6692 14.7139 32.1804 14.1685 32.7634C13.5887 33.4254 13.003 34.1709 12.3872 34.9553L10.1043 33.1429L10.1177 33.1259C10.724 32.3536 11.3602 31.5433 12.0022 30.8116L12.0167 30.795L12.0317 30.7789C12.7028 30.0592 13.4181 29.4282 14.2147 28.8463C14.957 28.2339 15.8016 27.6115 16.9833 26.9514C18.1659 26.2907 19.6779 25.615 21.1021 25.2454C22.5561 24.8681 23.8993 24.8249 24.9353 24.8702C26.0008 24.9168 26.9841 25.1059 27.8265 25.5013C28.6594 25.8921 29.3401 26.4589 29.8525 27.1459C30.3985 27.878 30.759 28.8014 30.759 29.9219C30.759 30.1953 30.7375 30.4762 30.6954 30.7592C32.4639 30.0877 34.2323 29.561 35.779 29.3781C38.4351 29.0455 40.4501 29.7042 41.9824 30.8389C43.4598 31.9329 44.394 33.4038 45.0421 34.4972C46.3727 36.7415 47.0123 38.3639 47.4214 40.137C47.8608 41.8246 48.0764 43.6219 48.1198 45.2356L48.1198 45.2367C48.1643 46.939 47.985 48.5036 47.6342 50.0911C47.2789 51.6987 46.7042 53.3386 45.8736 55.009L45.8701 55.0161L45.8665 55.0231C45.0352 56.651 43.934 58.3375 42.4706 59.8982L42.4632 59.9061L42.4556 59.914C40.969 61.4528 39.1304 62.9081 37.1837 63.9758C35.2251 65.0501 33.1969 65.7104 31.167 66.1447C29.112 66.5844 26.9815 66.7662 24.6643 66.4973L24.6507 66.4957L24.637 66.4939C22.3557 66.185 19.9589 65.4418 18.1032 64.555C16.2371 63.7045 14.9461 62.7618 13.9138 61.9401L13.8995 61.9287L13.8855 61.9169C12.8637 61.0607 12.0251 60.2656 11.3455 59.4911C10.8614 58.9393 10.4365 58.3959 10.0611 57.9157C9.93518 57.7546 9.81485 57.6007 9.69971 57.456L11.9709 55.6289C12.1148 55.8098 12.2526 55.986 12.3888 56.1602C12.7508 56.6231 13.1016 57.0717 13.5265 57.556C14.0755 58.1816 14.7921 58.8686 15.7335 59.6583C16.6657 60.3996 17.7485 61.1835 19.315 61.8962L19.328 61.9021L19.3409 61.9082C20.9274 62.6679 23.0335 63.3239 25.0115 63.5934C26.9576 63.8175 28.7629 63.6688 30.5617 63.284C32.3899 62.8928 34.1377 62.315 35.7909 61.4082C37.4531 60.4965 39.0594 59.2306 40.3626 57.8829C41.602 56.5592 42.5493 55.1149 43.2755 53.6941C44.0027 52.2303 44.4939 50.8183 44.7949 49.4566C45.1008 48.0724 45.2498 46.7479 45.2122 45.3136C45.1736 43.8804 44.9804 42.3023 44.6029 40.8597L44.5973 40.8382L44.5923 40.8164C44.2623 39.3787 43.7525 38.0336 42.5438 35.9948C41.9197 34.942 41.2327 33.916 40.2577 33.194C39.3388 32.5135 38.0721 32.0374 36.1341 32.281L36.1285 32.2817L36.1229 32.2823C34.0899 32.5218 31.3344 33.5581 28.6182 34.8109C27.9103 35.1373 27.216 35.4732 26.5507 35.8057C25.9709 36.1225 25.3458 36.4419 24.7866 36.7277C24.4799 36.8844 24.1929 37.0311 23.9441 37.1616C23.161 37.5724 22.621 37.89 21.8453 38.3461C21.7231 38.418 21.5952 38.4932 21.4595 38.5728L21.4396 38.5845L21.4194 38.5955C20.9685 38.841 20.2981 39.1995 20.1162 39.2765C20.1008 39.283 20.0734 39.2944 20.0394 39.3067L20.0376 39.3074C20.0177 39.3147 19.9274 39.3477 19.81 39.3701L19.8072 39.3706C19.7639 39.3789 19.5738 39.4154 19.3342 39.3812C19.2089 39.3634 18.9378 39.3089 18.6644 39.1024C18.337 38.8551 18.1244 38.4769 18.0888 38.0574C18.059 37.7065 18.1621 37.4409 18.2165 37.3219C18.2772 37.189 18.345 37.0937 18.3833 37.0433C18.46 36.9426 18.5328 36.8748 18.5597 36.8501C18.6221 36.793 18.6763 36.7535 18.6924 36.7418C18.7166 36.7243 18.7373 36.7102 18.7506 36.7014C18.7773 36.6837 18.8023 36.6681 18.8204 36.6569C18.8895 36.6144 18.9943 36.5537 19.1274 36.478C19.4033 36.321 19.8718 36.0593 20.6012 35.6564C21.6644 35.0691 23.3182 34.1561 25.2159 33.2067C25.3966 33.1073 25.5721 33.0082 25.74 32.9097C26.708 32.3419 27.1194 32.0003 27.3661 31.5944C27.6806 31.0769 27.8505 30.4321 27.8505 29.9219C27.8505 29.474 27.7185 29.1593 27.5257 28.9008C27.2993 28.5973 26.9949 28.3386 26.5965 28.1517C26.2077 27.9692 25.6314 27.8282 24.8089 27.7922Z" fill="#E3090F"/>
<path fill-rule="evenodd" clip-rule="evenodd" d="M143.571 15.7449C144.532 16.3288 145.516 16.9265 146.537 17.4182C149.183 18.6927 151.981 19.132 155.554 19.132C159.132 19.132 163.367 18.6942 167.749 18.2411L167.841 18.2317L168.138 21.1411L167.948 21.1609C163.641 21.6061 159.283 22.0568 155.554 22.0568C151.738 22.0568 148.462 21.5881 145.28 20.0561C144.119 19.4971 142.955 18.789 141.967 18.1887C141.653 17.9974 141.356 17.8171 141.083 17.656C140.546 17.3386 140.111 17.1003 139.763 16.947C139.744 17.1112 139.728 17.3148 139.717 17.5642C139.699 17.9769 139.696 18.4298 139.693 18.9441C139.692 19.1071 139.69 19.2762 139.689 19.4522C139.682 20.1619 139.667 20.9489 139.601 21.7476L139.6 21.7493C139.443 23.6278 138.988 25.494 138.546 26.9995C139.376 26.5424 140.154 26.2015 140.924 25.9112C141.942 25.5272 142.993 25.1575 144.527 24.9287C146.037 24.6628 147.992 24.5348 149.945 24.6657C151.968 24.8013 153.877 25.2973 155.702 25.9964C157.546 26.703 159.311 27.6765 160.782 28.7975C162.235 29.9038 163.413 31.0911 164.4 32.2135L164.411 32.2255L164.421 32.2378C165.389 33.3878 166.14 34.4999 166.841 35.7777L166.851 35.7949L166.86 35.8123C167.52 37.0951 168.136 38.6421 168.537 40.2891C168.979 41.9439 169.195 43.7467 169.238 45.3595L169.238 45.3605C169.283 47.0629 169.103 48.6274 168.753 50.2149C168.397 51.8226 167.823 53.4624 166.992 55.1329L166.989 55.1399L166.985 55.1469C166.154 56.7748 165.052 58.4613 163.589 60.022L163.582 60.03L163.574 60.0378C162.087 61.5766 160.249 63.0319 158.302 64.0997C156.344 65.174 154.315 65.8343 152.285 66.2686C150.23 66.7082 148.1 66.89 145.783 66.6211L145.769 66.6195L145.755 66.6177C143.474 66.3089 141.077 65.5656 139.222 64.6789C137.345 63.8234 136.088 62.8731 135.091 62.0448L135.077 62.033L135.063 62.0209C134.098 61.177 133.264 60.386 132.587 59.6149C132.103 59.0631 131.678 58.5197 131.303 58.0395C131.177 57.8785 131.056 57.7246 130.941 57.5798L133.212 55.7527C133.356 55.9337 133.494 56.1099 133.63 56.2841C133.992 56.747 134.343 57.1956 134.768 57.6798C135.32 58.3088 136.041 58.9998 136.957 59.8016C137.843 60.5362 138.878 61.3124 140.433 62.02L140.446 62.0259L140.459 62.032C142.046 62.7918 144.152 63.4478 146.13 63.7172C148.076 63.9413 149.881 63.7927 151.68 63.4078C153.508 63.0167 155.256 62.4388 156.909 61.532C158.572 60.6203 160.178 59.3544 161.481 58.0068C162.72 56.683 163.668 55.2387 164.394 53.8179C165.121 52.3542 165.612 50.9422 165.913 49.5804C166.219 48.1963 166.368 46.8718 166.331 45.4375C166.292 44.0022 166.099 42.4283 165.724 41.0342L165.719 41.0163L165.715 40.9983C165.378 39.6051 164.851 38.2763 164.285 37.1733C163.678 36.0693 163.04 35.1258 162.211 34.1392C161.313 33.1193 160.278 32.0824 159.026 31.1288C157.789 30.1862 156.27 29.3438 154.666 28.7296C153.044 28.108 151.423 27.696 149.752 27.584C148.02 27.4679 146.291 27.5858 145.012 27.8126L144.991 27.8163L144.971 27.8193C143.725 28.0036 142.893 28.2926 141.945 28.6498C141.039 28.9916 140.148 29.4023 139.142 30.0384C138.143 30.6964 137.006 31.6015 136.569 31.9617L136.537 31.9881L136.503 32.0126C136.398 32.0891 136.312 32.1518 136.259 32.1883C136.248 32.1956 136.211 32.2213 136.165 32.2484L136.164 32.2493C136.15 32.2575 136.071 32.3049 135.966 32.3477C135.966 32.3479 135.965 32.3483 135.964 32.3488C135.935 32.3608 135.721 32.4514 135.437 32.4549C135.29 32.4568 134.873 32.4406 134.485 32.1135C134.026 31.7271 133.948 31.209 133.967 30.9018C133.984 30.6343 134.07 30.4398 134.103 30.3688C134.146 30.2785 134.189 30.2112 134.213 30.1748C134.262 30.1016 134.307 30.049 134.325 30.0284C134.365 29.9822 134.4 29.9482 134.411 29.9378C134.438 29.9111 134.462 29.8892 134.471 29.8814C134.482 29.8717 134.533 29.8267 134.565 29.7989C134.567 29.7972 134.569 29.7955 134.571 29.7939C134.646 29.5955 134.765 29.2404 135.007 28.5102C135.036 28.4214 135.067 28.3285 135.099 28.2316C135.622 26.6639 136.486 24.0688 136.702 21.5039C136.759 20.8171 136.774 20.1186 136.78 19.4253C136.782 19.2738 136.783 19.1205 136.784 18.9668C136.787 18.4392 136.79 17.9079 136.811 17.4337C136.838 16.8371 136.896 16.175 137.079 15.6051C137.262 15.0355 137.686 14.225 138.655 13.9467C139.452 13.7176 140.25 13.9862 140.749 14.1908C141.322 14.4257 141.947 14.7744 142.556 15.1339C142.892 15.3323 143.23 15.5377 143.571 15.7449Z" fill="#E3090F"/>
<path fill-rule="evenodd" clip-rule="evenodd" d="M191.713 59.7618V56.9553H174.967L186.378 44.6149C188.143 42.6751 189.456 40.6115 190.4 38.4654C191.262 36.2779 191.713 33.7603 191.713 31.0364C191.713 29.2204 191.467 27.487 190.975 25.9186C190.523 24.3503 189.825 22.9883 188.964 21.7914C188.061 20.677 187.034 19.7691 185.803 19.1087C184.572 18.4483 183.176 18.1182 181.658 18.1182C179.728 18.1182 177.84 18.5309 176.116 19.3151C174.352 20.0992 172.751 21.5025 171.273 23.4423L172.587 25.5059C173.9 23.9375 175.255 22.7819 176.773 22.039C178.21 21.2961 179.811 20.9247 181.452 20.9247C184.079 20.9247 186.049 21.8327 187.404 23.7725C188.799 25.5884 189.497 28.106 189.497 31.0776C189.497 33.2238 189.128 35.1636 188.348 37.0621C187.527 38.9606 186.337 40.8179 184.572 42.7164L171.437 57.0379V59.7206H191.713V59.7618Z" fill="#E3090F"/>
<path d="M1.19025 33.0173C0.861896 33.3475 0.492493 33.6777 0.369358 33.9666C0.205179 34.2555 0.246224 34.4619 0.98503 38.0113C1.68279 41.5194 3.03727 48.3706 2.95518 52.4153C2.87309 56.5012 1.39548 57.7807 1.06712 58.5648C0.738766 59.3077 1.64175 59.5141 3.03727 59.6379C4.43279 59.7204 6.32085 59.7205 8.20891 59.7205" stroke="#575656" stroke-width="0.2835" stroke-miterlimit="22.9256"/>
<path d="M47.1176 59.6379C73.9187 59.6791 100.679 59.7202 127.48 59.7613" stroke="#575656" stroke-width="0.5669" stroke-miterlimit="22.9256"/>
<path d="M168.195 59.7205C176.199 59.7616 184.202 59.8027 192.206 59.8438" stroke="#575656" stroke-width="0.5669" stroke-miterlimit="22.9256"/>
</g>
<defs>
<clipPath id="clip0_136_5408">
<rect width="192.5" height="88" fill="white"/>
</clipPath>
</defs>
</svg>
