<svg width="64" height="64" viewBox="0 0 64 64" fill="none" xmlns="http://www.w3.org/2000/svg">
<circle cx="32" cy="32" r="32" fill="white"/>
<path d="M10.2225 44V22.94H11.6265V42.882H17.9965V44H10.2225ZM18.8037 44L23.2237 22.94H24.8617L29.3077 44H27.8777L26.7857 38.176H21.3257L20.2077 44H18.8037ZM21.5337 37.136H26.6037L24.0557 24.656L21.5337 37.136ZM32.0838 44V22.94H36.6858C38.0898 22.94 39.1818 23.2087 39.9618 23.746C40.7418 24.2833 41.2878 25.0113 41.5998 25.93C41.9118 26.8487 42.0678 27.8713 42.0678 28.998V37.734C42.0678 38.93 41.9118 40.0047 41.5998 40.958C41.2878 41.894 40.7505 42.6393 39.9878 43.194C39.2425 43.7313 38.1851 44 36.8158 44H32.0838ZM33.4878 42.882H36.7378C37.8818 42.882 38.7311 42.6393 39.2858 42.154C39.8405 41.6687 40.2045 41.0273 40.3778 40.23C40.5511 39.4153 40.6378 38.5313 40.6378 37.578V29.102C40.6378 28.0793 40.5338 27.1953 40.3258 26.45C40.1178 25.6873 39.7278 25.1067 39.1558 24.708C38.5838 24.292 37.7605 24.084 36.6858 24.084H33.4878V42.882ZM44.3974 44L48.8174 22.94H50.4554L54.9014 44H53.4714L52.3794 38.176H46.9194L45.8014 44H44.3974ZM47.1274 37.136H52.1974L49.6494 24.656L47.1274 37.136Z" fill="#242424"/>
</svg>
