<svg width="49" height="48" viewBox="0 0 49 48" fill="none" xmlns="http://www.w3.org/2000/svg">
<path d="M17.0801 38V24.2792C17.0801 23.8642 17.2092 23.4596 17.4494 23.1212L27.4743 9.0044C27.7291 8.6456 28.0945 8.3788 28.5235 8.2808C29.5623 8.0432 31.5781 7.7188 32.6615 8.4512C34.6775 9.814 33.5605 11.8314 32.6615 14.2936C31.9601 16.2146 30.7685 18.9786 30.3863 19.857C30.3287 19.9894 30.4247 20.136 30.5691 20.136H38.6543C40.1447 20.136 41.0555 21.075 41.5875 21.981C42.1859 23.0002 42.1045 24.2368 41.8237 25.3848L38.6229 38.475C38.4041 39.3703 37.6019 40 36.6803 40H19.0801C17.9755 40 17.0801 39.1046 17.0801 38Z" stroke="#242424" stroke-width="1.5" stroke-linecap="round"/>
<path d="M10.4569 23.6414H8.25C7.14544 23.6414 6.25 24.5368 6.25 25.6414V31.5286V38C6.25 39.1046 7.14542 40 8.25 40H10.4569C11.5615 40 12.4569 39.1046 12.4569 38V31.5286V25.6414C12.4569 24.5368 11.5615 23.6414 10.4569 23.6414Z" stroke="#FF1E26" stroke-width="1.5" stroke-linecap="round"/>
</svg>
