<svg width="120" height="30" viewBox="0 0 120 30" fill="none" xmlns="http://www.w3.org/2000/svg">
<g clip-path="url(#clip0_959_43385)">
<path d="M36.5703 21.0116H44.9493V18.4878H39.5484V8.98145H36.5703V21.0116Z" fill="#2F234F"/>
<path d="M49.9136 19.3297C48.719 19.3297 48.0965 18.2865 48.0965 16.7218C48.0965 15.157 48.719 14.097 49.9136 14.097C51.1082 14.097 51.7476 15.157 51.7476 16.7218C51.7476 18.2865 51.1082 19.3297 49.9136 19.3297ZM49.9305 21.2815C52.7066 21.2815 54.5238 19.3129 54.5238 16.7218C54.5238 14.1307 52.7066 12.1621 49.9305 12.1621C47.1711 12.1621 45.3203 14.1307 45.3203 16.7218C45.3203 19.3129 47.1711 21.2815 49.9305 21.2815Z" fill="#2F234F"/>
<path d="M59.3289 23.9896C60.6076 23.9896 61.7349 23.7036 62.4921 23.0305C63.1819 22.408 63.6362 21.4658 63.6362 20.1702V12.3969H61.0115V13.3223H60.9778C60.473 12.5988 59.6991 12.1445 58.555 12.1445C56.4181 12.1445 54.9375 13.928 54.9375 16.4518C54.9375 19.0934 56.7378 20.5404 58.6727 20.5404C59.7159 20.5404 60.3721 20.1198 60.8769 19.5477H60.9442V20.4058C60.9442 21.449 60.4562 22.0547 59.2953 22.0547C58.3867 22.0547 57.9324 21.6677 57.781 21.2134H55.1226C55.3918 23.0137 56.9565 23.9896 59.3289 23.9896ZM59.3121 18.5045C58.2857 18.5045 57.6127 17.6632 57.6127 16.3677C57.6127 15.0553 58.2857 14.214 59.3121 14.214C60.4562 14.214 61.0619 15.1899 61.0619 16.3509C61.0619 17.5623 60.5067 18.5045 59.3121 18.5045Z" fill="#2F234F"/>
<path d="M69.0308 19.3297C67.8362 19.3297 67.2137 18.2865 67.2137 16.7218C67.2137 15.157 67.8362 14.097 69.0308 14.097C70.2254 14.097 70.8645 15.157 70.8645 16.7218C70.8645 18.2865 70.2254 19.3297 69.0308 19.3297ZM69.0476 21.2815C71.8235 21.2815 73.6407 19.3129 73.6407 16.7218C73.6407 14.1307 71.8235 12.1621 69.0476 12.1621C66.2883 12.1621 64.4375 14.1307 64.4375 16.7218C64.4375 19.3129 66.2883 21.2815 69.0476 21.2815Z" fill="#2F234F"/>
<path d="M74.4453 21.0116H77.1878V12.397H74.4453V21.0116ZM74.4453 11.2024H77.1878V8.98145H74.4453V11.2024Z" fill="#2F234F"/>
<path d="M78.3828 23.855H81.1253V20.1198H81.159C81.6974 20.8432 82.4882 21.2807 83.5987 21.2807C85.8533 21.2807 87.3507 19.4972 87.3507 16.7042C87.3507 14.1131 85.9542 12.1445 83.666 12.1445C82.4882 12.1445 81.6469 12.6661 81.058 13.4401H81.0076V12.3969H78.3828V23.855ZM82.892 19.1607C81.7142 19.1607 81.0412 18.2017 81.0412 16.8052C81.0412 15.4087 81.6469 14.3487 82.8415 14.3487C84.0193 14.3487 84.5745 15.3245 84.5745 16.8052C84.5745 18.269 83.9352 19.1607 82.892 19.1607Z" fill="#2F234F"/>
<path d="M91.8145 21.2807C94.0691 21.2807 95.7348 20.3048 95.7348 18.4204C95.7348 16.2163 93.9513 15.8293 92.4371 15.5769C91.3434 15.375 90.3675 15.2909 90.3675 14.6852C90.3675 14.1467 90.8891 13.8944 91.5621 13.8944C92.3193 13.8944 92.8409 14.1299 92.9418 14.9039H95.4656C95.331 13.2045 94.0186 12.1445 91.579 12.1445C89.5431 12.1445 87.8606 13.0868 87.8606 14.9039C87.8606 16.9229 89.459 17.3267 90.9564 17.5791C92.1005 17.781 93.1437 17.8652 93.1437 18.6391C93.1437 19.1944 92.6221 19.4972 91.7977 19.4972C90.8891 19.4972 90.3171 19.0766 90.2161 18.2185H87.625C87.7091 20.1197 89.2907 21.2807 91.8145 21.2807Z" fill="#2F234F"/>
<path d="M99.4661 21.2644C100.661 21.2644 101.418 20.7933 102.04 19.952H102.091V21.012H104.716V12.3975H101.973V17.2095C101.973 18.2359 101.401 18.9425 100.459 18.9425C99.5838 18.9425 99.1632 18.4209 99.1632 17.4787V12.3975H96.4375V18.0508C96.4375 19.9689 97.4807 21.2644 99.4661 21.2644Z" fill="#2F234F"/>
<path d="M105.898 21.0115H108.641V16.1826C108.641 15.1563 109.146 14.4328 110.004 14.4328C110.828 14.4328 111.215 14.9712 111.215 15.8966V21.0115H113.958V16.1826C113.958 15.1563 114.446 14.4328 115.321 14.4328C116.145 14.4328 116.532 14.9712 116.532 15.8966V21.0115H119.275V15.4087C119.275 13.4737 118.299 12.1445 116.347 12.1445C115.237 12.1445 114.311 12.6156 113.638 13.6588H113.604C113.167 12.7334 112.309 12.1445 111.182 12.1445C109.937 12.1445 109.112 12.7334 108.574 13.6252H108.523V12.3969H105.898V21.0115Z" fill="#2F234F"/>
<path fill-rule="evenodd" clip-rule="evenodd" d="M14.7242 28.7229C22.468 28.7229 28.7454 22.4454 28.7454 14.7018C28.7454 6.95813 22.468 0.680664 14.7242 0.680664C6.98059 0.680664 0.703125 6.95813 0.703125 14.7018C0.703125 22.4454 6.98059 28.7229 14.7242 28.7229ZM16.8884 11.5138C18.0835 10.3185 18.0835 8.38076 16.8884 7.18553C15.6932 5.99031 13.7554 5.99031 12.5601 7.18553C11.365 8.38076 11.365 10.3185 12.5601 11.5138L14.7242 13.6779L16.8884 11.5138ZM17.9123 16.8659C19.1075 18.0612 21.0453 18.0612 22.2405 16.8659C23.4357 15.6707 23.4357 13.7329 22.2405 12.5377C21.0453 11.3425 19.1075 11.3425 17.9123 12.5377L15.7482 14.7018L17.9123 16.8659ZM16.8884 22.2181C18.0835 21.0228 18.0835 19.0851 16.8884 17.8898L14.7242 15.7257L12.5601 17.8898C11.365 19.0851 11.365 21.0228 12.5601 22.2181C13.7554 23.4133 15.6932 23.4133 16.8884 22.2181ZM7.20797 16.8659C6.01278 15.6707 6.01278 13.7329 7.20797 12.5377C8.40322 11.3425 10.341 11.3425 11.5362 12.5377L13.7003 14.7018L11.5362 16.8659C10.341 18.0612 8.40322 18.0612 7.20797 16.8659Z" fill="#7F57F1"/>
</g>
<defs>
<clipPath id="clip0_959_43385">
<rect width="119.18" height="28.7433" fill="white" transform="translate(0.625 0.454102)"/>
</clipPath>
</defs>
</svg>
