<svg width="109" height="56" viewBox="0 0 109 56" fill="none" xmlns="http://www.w3.org/2000/svg">
<path d="M27.5312 27.5256L27.7537 27.4785H46.2541L53.2058 34.4302H34.4362L27.5312 27.5256Z" fill="black"/>
<path d="M21.5744 27.4785L2.80469 27.4786L9.75639 34.4304H21.5742L21.5744 27.4785Z" fill="black"/>
<path d="M59.6641 7.50879H62.5471V16.4671H67.4987V18.894H59.6641V7.50879Z" fill="black"/>
<path d="M72.7277 19.1388C71.7613 19.1388 70.9147 18.9651 70.1866 18.6175C69.4591 18.2593 68.8945 17.7707 68.4927 17.1517C68.1017 16.5219 67.9062 15.7998 67.9062 14.9854C67.9062 14.171 68.1017 13.4543 68.4927 12.8354C68.8945 12.2057 69.4591 11.717 70.1866 11.3696C70.9147 11.0112 71.7613 10.832 72.7277 10.832C73.6942 10.832 74.5415 11.0112 75.2689 11.3696C75.9962 11.717 76.5554 12.2057 76.9463 12.8354C77.3482 13.4543 77.5491 14.171 77.5491 14.9854C77.5491 15.7998 77.3482 16.5219 76.9463 17.1517C76.5554 17.7707 75.9962 18.2593 75.2689 18.6175C74.5415 18.9651 73.6942 19.1388 72.7277 19.1388ZM72.7277 16.9074C73.3032 16.9074 73.7596 16.7391 74.096 16.4025C74.4434 16.055 74.6171 15.5827 74.6171 14.9854C74.6171 14.3882 74.4434 13.9213 74.096 13.5846C73.7596 13.2372 73.3032 13.0635 72.7277 13.0635C72.1522 13.0635 71.6912 13.2372 71.3431 13.5846C71.0066 13.9213 70.8384 14.3882 70.8384 14.9854C70.8384 15.5827 71.0066 16.055 71.3431 16.4025C71.6912 16.7391 72.1522 16.9074 72.7277 16.9074Z" fill="black"/>
<path d="M82.9363 22.6407C82.4152 22.6407 81.8887 22.5919 81.356 22.4941C80.835 22.3964 80.3849 22.2661 80.0049 22.1032V20.1161C80.8624 20.4853 81.8397 20.6699 82.9363 20.6699C83.729 20.6699 84.2991 20.507 84.6464 20.1812C85.0047 19.8555 85.1838 19.3778 85.1838 18.7479V18.2755C84.8692 18.547 84.4783 18.7588 84.0117 18.9108C83.5554 19.0629 83.0663 19.1388 82.5453 19.1388C81.7205 19.1388 80.9924 18.9651 80.3632 18.6175C79.7331 18.2702 79.2394 17.7815 78.8803 17.1517C78.533 16.5219 78.3594 15.7998 78.3594 14.9854C78.3594 14.1602 78.533 13.4326 78.8803 12.8028C79.2285 12.1731 79.7167 11.6899 80.3468 11.3532C80.976 11.0058 81.6988 10.832 82.5126 10.832C83.6317 10.832 84.5545 11.1741 85.2819 11.8581V11.0763H88.0505V18.357C88.0505 19.7144 87.6331 20.7676 86.7967 21.5169C85.9711 22.2661 84.6846 22.6407 82.9363 22.6407ZM83.2617 16.9237C83.7073 16.9237 84.1036 16.8096 84.4509 16.5816C84.7983 16.3536 85.0429 16.0496 85.1838 15.6695V14.3014C85.0319 13.9213 84.7819 13.6227 84.4346 13.4055C84.0873 13.1775 83.6963 13.0635 83.2617 13.0635C82.6761 13.0635 82.2034 13.2372 81.8452 13.5846C81.4869 13.9213 81.3078 14.3828 81.3078 14.9691C81.3078 15.5663 81.4869 16.0441 81.8452 16.4025C82.2034 16.7499 82.6761 16.9237 83.2617 16.9237Z" fill="black"/>
<path d="M93.6026 19.1388C92.6362 19.1388 91.7889 18.9651 91.0615 18.6175C90.3341 18.2593 89.7695 17.7707 89.3677 17.1517C88.9767 16.5219 88.7812 15.7998 88.7812 14.9854C88.7812 14.171 88.9767 13.4543 89.3677 12.8354C89.7695 12.2057 90.3341 11.717 91.0615 11.3696C91.7889 11.0112 92.6362 10.832 93.6026 10.832C94.5691 10.832 95.4157 11.0112 96.1438 11.3696C96.8712 11.717 97.4303 12.2057 97.8213 12.8354C98.2232 13.4543 98.4241 14.171 98.4241 14.9854C98.4241 15.7998 98.2232 16.5219 97.8213 17.1517C97.4303 17.7707 96.8712 18.2593 96.1438 18.6175C95.4157 18.9651 94.5691 19.1388 93.6026 19.1388ZM93.6026 16.9074C94.1782 16.9074 94.6338 16.7391 94.9709 16.4025C95.3184 16.055 95.492 15.5827 95.492 14.9854C95.492 14.3882 95.3184 13.9213 94.9709 13.5846C94.6338 13.2372 94.1782 13.0635 93.6026 13.0635C93.0272 13.0635 92.5653 13.2372 92.218 13.5846C91.8815 13.9213 91.7133 14.3882 91.7133 14.9854C91.7133 15.5827 91.8815 16.055 92.218 16.4025C92.5653 16.7391 93.0272 16.9074 93.6026 16.9074Z" fill="black"/>
<path d="M59.6641 23.085H62.5471V34.4702H59.6641V23.085Z" fill="black"/>
<path d="M64.0078 26.6515H66.7765V27.4333C67.5039 26.7493 68.4276 26.4072 69.5459 26.4072C70.3597 26.4072 71.0824 26.5809 71.7116 26.9285C72.3416 27.265 72.8299 27.7482 73.178 28.378C73.5255 28.9969 73.6991 29.7191 73.6991 30.5443C73.6991 31.3586 73.5255 32.0862 73.178 32.7268C72.8299 33.3566 72.3416 33.8454 71.7116 34.1927C71.0933 34.5402 70.3705 34.7139 69.5459 34.7139C69.0241 34.7139 68.5249 34.6325 68.0474 34.4697C67.5802 34.3177 67.1893 34.1059 66.8747 33.8344V38.0367H64.0078V26.6515ZM68.7967 32.4826C69.383 32.4826 69.855 32.3088 70.2133 31.9613C70.5715 31.6139 70.7507 31.1415 70.7507 30.5443C70.7507 29.9471 70.5715 29.4802 70.2133 29.1435C69.855 28.7961 69.383 28.6224 68.7967 28.6224C68.3621 28.6224 67.9712 28.7364 67.6238 28.9644C67.2764 29.1815 67.0264 29.4802 66.8747 29.8602V31.2446C67.0264 31.6247 67.2764 31.9287 67.6238 32.1567C67.9712 32.374 68.3621 32.4826 68.7967 32.4826Z" fill="black"/>
<path d="M77.9711 34.7139C77.341 34.7139 76.6838 34.6487 76 34.5185C75.3163 34.3991 74.7726 34.2254 74.3716 33.9974V31.8962C74.8162 32.1567 75.3482 32.374 75.9673 32.5477C76.5973 32.7106 77.1728 32.792 77.6938 32.792C78.0739 32.792 78.3511 32.7648 78.5249 32.7106C78.6985 32.6563 78.7849 32.5477 78.7849 32.3848C78.7849 32.2545 78.7258 32.1514 78.6058 32.0754C78.4975 31.9885 78.2912 31.9016 77.9875 31.8147C77.6938 31.717 77.352 31.6139 76.961 31.5052C76.2983 31.3098 75.7773 31.1089 75.3972 30.9026C75.0171 30.6963 74.7352 30.4358 74.5506 30.1208C74.3661 29.806 74.2734 29.4095 74.2734 28.9317C74.2734 28.0849 74.6044 27.455 75.2671 27.0425C75.94 26.6189 76.8582 26.4072 78.0194 26.4072C78.584 26.4072 79.1759 26.4669 79.795 26.5863C80.425 26.7058 80.897 26.8633 81.2124 27.0587V29.1273C80.886 28.9101 80.4523 28.7309 79.9095 28.5898C79.3768 28.4487 78.8775 28.378 78.4103 28.378C78.0412 28.378 77.7538 28.4159 77.5474 28.492C77.341 28.5572 77.2383 28.6767 77.2383 28.8504C77.2383 29.0132 77.341 29.1381 77.5474 29.2249C77.7538 29.3118 78.123 29.4205 78.6549 29.5507C79.0022 29.6375 79.1494 29.6756 79.0948 29.6647C79.7896 29.8493 80.3269 30.0556 80.7069 30.2837C81.087 30.5118 81.3533 30.7832 81.5052 31.0981C81.668 31.4021 81.7498 31.793 81.7498 32.2708C81.7498 33.02 81.4242 33.6173 80.7724 34.0624C80.1314 34.4968 79.1976 34.7139 77.9711 34.7139Z" fill="black"/>
<path d="M86.0296 34.7148C84.9549 34.7148 84.1458 34.4162 83.6029 33.819C83.071 33.2217 82.8047 32.4346 82.8047 31.4573V26.6523H85.6714V31.1314C85.6714 32.0327 86.0787 32.4834 86.8926 32.4834C87.2624 32.4834 87.5989 32.3965 87.9026 32.2228C88.2071 32.0491 88.4563 31.7938 88.6518 31.4573V26.6523H91.5185V34.4705H88.7499V33.6234C88.4134 33.9818 88.0062 34.2533 87.528 34.4379C87.0506 34.6225 86.5506 34.7148 86.0296 34.7148Z" fill="black"/>
<path d="M92.9844 26.6515H95.6392V27.4984C95.9647 27.151 96.3393 26.885 96.763 26.7003C97.1866 26.5049 97.6375 26.4072 98.115 26.4072C98.7013 26.4072 99.1687 26.494 99.516 26.6677C99.8742 26.8416 100.162 27.1021 100.379 27.4496C100.704 27.1238 101.101 26.8687 101.568 26.6841C102.035 26.4995 102.507 26.4072 102.985 26.4072C104.017 26.4072 104.749 26.6732 105.184 27.2052C105.619 27.7265 105.836 28.4811 105.836 29.4693V34.4697H103.099V29.8765C103.099 29.4422 103.017 29.1273 102.855 28.9317C102.692 28.7364 102.42 28.6386 102.04 28.6386C101.552 28.6386 101.155 28.8124 100.852 29.1597C100.862 29.3444 100.868 29.6268 100.868 30.0068V34.4697H98.1313V29.7625C98.1313 29.3607 98.0604 29.0729 97.9194 28.8992C97.7785 28.7255 97.5285 28.6386 97.1703 28.6386C96.6165 28.6386 96.1384 28.9481 95.7373 29.567V34.4697H92.9844V26.6515Z" fill="black"/>
<path d="M27.749 27.4784L27.5265 27.5256L34.431 34.4302V53.1998H28.522L21.5703 46.2481H27.4793V27.4783H21.5703V21.5695H27.4793V2.7998L34.431 9.75152V21.5694L27.4793 21.5695V27.4783L27.749 27.4784Z" fill="#555555"/>
<path d="M46.25 27.4783L53.2017 34.4301V28.5211L46.25 21.5693V27.4783Z" fill="#555555"/>
<path d="M60.0703 39.8145H64.2888C65.483 39.8145 66.4113 40.0968 67.0741 40.6615C67.7469 41.2261 68.0841 42.0622 68.0841 43.1697C68.0841 44.2882 67.7524 45.1244 67.0905 45.6782C66.4277 46.2319 65.4939 46.5088 64.2888 46.5088H61.3407V51.1997H60.0703V39.8145ZM64.1911 45.4338C65.0056 45.4338 65.6466 45.271 66.1131 44.9452C66.5803 44.6086 66.8132 44.0168 66.8132 43.1697C66.8132 42.3119 66.5803 41.7201 66.1131 41.3944C65.6466 41.0578 65.0056 40.8895 64.1911 40.8895H61.3407V45.4338H64.1911Z" fill="#555555"/>
<path d="M69.7109 39.1631H70.9648V51.1998H69.7109V39.1631Z" fill="#555555"/>
<path d="M76.3975 51.4444C75.3548 51.4444 74.5511 51.162 73.9864 50.5973C73.4327 50.0327 73.1562 49.2781 73.1562 48.3334V43.3818H74.4101V48.3985C74.4101 49.7667 75.1211 50.4508 76.5439 50.4508C77.1413 50.4508 77.6622 50.3205 78.1078 50.0599C78.5634 49.7992 78.9706 49.3866 79.3289 48.822V43.3818H80.5835V51.2H79.3616V50.0272C78.656 50.972 77.6677 51.4444 76.3975 51.4444Z" fill="#555555"/>
<path d="M85.5848 51.4435C85.074 51.4435 84.5257 51.3675 83.9393 51.2155C83.3529 51.0743 82.8972 50.8952 82.571 50.6779V49.6193C82.9837 49.869 83.4565 50.0699 83.9883 50.2218C84.5311 50.3739 85.0521 50.4499 85.5521 50.4499C86.225 50.4499 86.7086 50.3576 87.0015 50.173C87.3059 49.9776 87.4578 49.6898 87.4578 49.3098C87.4578 49.0166 87.3924 48.7886 87.2623 48.6257C87.1315 48.4519 86.915 48.2999 86.6105 48.1697C86.3067 48.0393 85.8341 47.8873 85.1939 47.7136C84.5639 47.5399 84.0592 47.3607 83.6791 47.1761C83.3101 46.9806 83.0273 46.7363 82.8318 46.4431C82.6364 46.15 82.5391 45.7753 82.5391 45.3193C82.5391 44.6134 82.821 44.0759 83.3856 43.7068C83.9611 43.3267 84.7212 43.1367 85.6659 43.1367C86.1759 43.1367 86.6541 43.1855 87.0996 43.2832C87.5552 43.3701 87.9352 43.495 88.2397 43.658V44.7166C87.9242 44.5429 87.5442 44.4071 87.0996 44.3094C86.6541 44.2008 86.1923 44.1465 85.7149 44.1465C85.0848 44.1465 84.6075 44.2388 84.2811 44.4234C83.9556 44.6081 83.7929 44.9067 83.7929 45.3193C83.7929 45.6016 83.8473 45.8188 83.9556 45.9708C84.0756 46.1228 84.2866 46.264 84.5911 46.3942C84.9057 46.5137 85.4057 46.6657 86.0895 46.8503C87.0669 47.1218 87.7452 47.4421 88.1252 47.8114C88.5162 48.1697 88.7116 48.6692 88.7116 49.3098C88.7116 49.9721 88.4515 50.4933 87.9297 50.8735C87.4197 51.2535 86.6377 51.4435 85.5848 51.4435Z" fill="#555555"/>
</svg>
