<svg width="127" height="48" viewBox="0 0 127 48" fill="none" xmlns="http://www.w3.org/2000/svg">
<path d="M25.7422 24.3402C25.7422 22.5879 26.7884 21.3672 28.3873 21.3672C29.9862 21.3672 31.0324 22.5879 31.0324 24.3402C31.0324 26.073 29.9862 27.3133 28.3873 27.3133C26.7884 27.3133 25.7422 26.073 25.7422 24.3402Z" fill="#152C4F"/>
<path d="M39.2651 21.2891C37.7452 21.2891 36.7188 22.4704 36.7188 24.0849C36.7188 25.7191 37.7649 26.9398 39.2651 26.9398C40.9232 26.9398 42.0286 25.6994 42.0286 24.0849C42.0286 22.4901 40.9232 21.2891 39.2651 21.2891Z" fill="#152C4F"/>
<path d="M48.0781 24.3402C48.0781 22.5879 49.1244 21.3672 50.7233 21.3672C52.3222 21.3672 53.3683 22.5879 53.3683 24.3402C53.3683 26.073 52.3222 27.3133 50.7233 27.3133C49.1244 27.3133 48.0781 26.073 48.0781 24.3402Z" fill="#152C4F"/>
<path d="M64.1641 24.3607C64.1641 22.6084 65.23 21.3877 66.9078 21.3877C68.5857 21.3877 69.5924 22.6281 69.5924 24.3607C69.5924 26.0934 68.5857 27.3141 66.9078 27.3141C65.23 27.3141 64.1641 26.1131 64.1641 24.3607Z" fill="#152C4F"/>
<path fill-rule="evenodd" clip-rule="evenodd" d="M63.1584 44.9388C96.6978 44.9388 123.887 35.4226 123.887 23.6838C123.887 11.9449 96.6978 2.42871 63.1584 2.42871C29.6189 2.42871 2.42969 11.9449 2.42969 23.6838C2.42969 35.4226 29.6189 44.9388 63.1584 44.9388ZM21.842 29.2232V14.5744H19.4337V29.2232H21.842ZM23.3159 24.3403C23.3159 27.333 25.3294 29.4595 28.389 29.4595C31.4486 29.4595 33.462 27.333 33.462 24.3403C33.462 21.3475 31.4486 19.2211 28.389 19.2211C25.3294 19.2211 23.3159 21.3475 23.3159 24.3403ZM38.8516 29.0263C36.1077 29.0263 34.2719 26.9787 34.2719 24.1434C34.2719 21.2885 36.1472 19.1817 38.9305 19.1817C40.3715 19.1817 41.5953 19.7921 42.1875 20.816L42.3257 19.4967H44.4575V28.731C44.4575 31.9403 42.4441 34.0076 39.2858 34.0076C36.6012 34.0076 34.647 32.3538 34.3312 29.8139H36.7592C36.8973 31.0937 37.9238 31.8222 39.4239 31.8222C41.1018 31.8222 42.1086 30.759 42.1086 29.1641V27.5103C41.4966 28.4553 40.2728 29.0263 38.8516 29.0263ZM45.6493 24.3403C45.6493 27.333 47.6628 29.4595 50.7224 29.4595C53.782 29.4595 55.7954 27.333 55.7954 24.3403C55.7954 21.3475 53.782 19.2211 50.7224 19.2211C47.6628 19.2211 45.6493 21.3475 45.6493 24.3403ZM59.8426 16.0709C59.8426 16.8781 59.1913 17.5082 58.4016 17.5082C57.5924 17.5082 56.9804 16.8781 56.9804 16.0709C56.9804 15.2832 57.5924 14.6532 58.4016 14.6532C59.1913 14.6532 59.8426 15.2832 59.8426 16.0709ZM59.6057 19.4967V29.2232H57.1976V19.4967H59.6057ZM61.7156 33.732H64.0646V27.8843C64.6765 28.8885 65.999 29.4791 67.4598 29.4791C70.3418 29.4791 72.0591 27.274 72.0196 24.2418C71.9604 21.19 70.2036 19.2014 67.44 19.2014C65.9596 19.2014 64.6173 19.8512 64.0251 20.9734L63.8869 19.4967H61.7156V33.732ZM76.5395 29.4791C74.2102 29.4791 72.71 28.2387 72.6311 26.3092H74.8222C74.8222 27.1558 75.434 27.648 76.5 27.648C77.3883 27.648 78.1187 27.2937 78.1187 26.5258C78.1187 25.9744 77.7238 25.6791 77.0922 25.5019L75.3946 25.0688C73.5193 24.5766 72.789 23.533 72.789 22.2729C72.789 20.4221 74.3484 19.2014 76.4408 19.2014C78.5529 19.2014 79.9939 20.4221 80.0729 22.3517H77.8818C77.8818 21.5051 77.2895 20.9931 76.3816 20.9931C75.513 20.9931 74.9801 21.4656 74.9801 22.1351C74.9801 22.7652 75.4735 23.0211 76.2039 23.218L77.9213 23.6315C79.5202 24.0252 80.3887 24.9703 80.3887 26.3683C80.3887 28.2584 78.8292 29.4791 76.5395 29.4791ZM85.3841 29.4791C86.7062 29.4791 87.9694 28.8688 88.542 27.9631L88.7003 29.2232H90.9504V19.4967H88.542V24.5963C88.542 26.3486 87.8708 27.333 86.2919 27.333C85.0683 27.333 84.2195 26.7424 84.2195 24.7341V19.4967H81.811V25.5807C81.811 27.904 83.0743 29.4791 85.3841 29.4791ZM95.4843 23.6315V29.2232H93.0759V19.4967H95.2864L95.4052 20.5994C95.9778 19.733 97.0043 19.2014 98.1487 19.2014C99.7673 19.2014 100.833 19.9102 101.366 21.0522C101.841 19.9102 103.005 19.2014 104.486 19.2014C106.854 19.2014 108.097 20.6191 108.097 22.8636V29.2232H105.768V23.4149C105.768 22.0367 105.019 21.3082 103.854 21.3082C102.709 21.3082 101.801 22.0564 101.801 23.6512V29.2232H99.4515V23.4149C99.4515 22.0367 98.702 21.3082 97.5567 21.3082C96.4123 21.3082 95.4843 22.0564 95.4843 23.6315Z" fill="#152C4F"/>
</svg>
