<svg width="127" height="31" viewBox="0 0 127 31" fill="none" xmlns="http://www.w3.org/2000/svg">
<path d="M38.3047 22.1709H47.2335V19.449H41.4782V9.19629H38.3047V22.1709Z" fill="#2F234F"/>
<path d="M52.5275 20.3563C51.2546 20.3563 50.5912 19.2312 50.5912 17.5436C50.5912 15.856 51.2546 14.7128 52.5275 14.7128C53.8005 14.7128 54.4818 15.856 54.4818 17.5436C54.4818 19.2312 53.8005 20.3563 52.5275 20.3563ZM52.5455 22.4613C55.5038 22.4613 57.4402 20.3382 57.4402 17.5436C57.4402 14.7491 55.5038 12.626 52.5455 12.626C49.6051 12.626 47.6328 14.7491 47.6328 17.5436C47.6328 20.3382 49.6051 22.4613 52.5455 22.4613Z" fill="#2F234F"/>
<path d="M62.5624 25.3834C63.925 25.3834 65.1263 25.0749 65.9331 24.3491C66.6682 23.6777 67.1523 22.6615 67.1523 21.2642V12.8806H64.3553V13.8786H64.3195C63.7816 13.0983 62.9568 12.6084 61.7376 12.6084C59.4606 12.6084 57.8828 14.5319 57.8828 17.2539C57.8828 20.1028 59.8013 21.6634 61.8631 21.6634C62.9748 21.6634 63.674 21.2098 64.2119 20.5928H64.2836V21.5183C64.2836 22.6433 63.7637 23.2966 62.5265 23.2966C61.5583 23.2966 61.0742 22.8792 60.9129 22.3893H58.08C58.3669 24.3309 60.0343 25.3834 62.5624 25.3834ZM62.5445 19.4677C61.4508 19.4677 60.7336 18.5604 60.7336 17.1631C60.7336 15.7477 61.4508 14.8404 62.5445 14.8404C63.7637 14.8404 64.4091 15.8929 64.4091 17.145C64.4091 18.4515 63.8175 19.4677 62.5445 19.4677Z" fill="#2F234F"/>
<path d="M72.9025 20.3563C71.6295 20.3563 70.9662 19.2312 70.9662 17.5436C70.9662 15.856 71.6295 14.7128 72.9025 14.7128C74.1755 14.7128 74.8565 15.856 74.8565 17.5436C74.8565 19.2312 74.1755 20.3563 72.9025 20.3563ZM72.9205 22.4613C75.8785 22.4613 77.8149 20.3382 77.8149 17.5436C77.8149 14.7491 75.8785 12.626 72.9205 12.626C69.98 12.626 68.0078 14.7491 68.0078 17.5436C68.0078 20.3382 69.98 22.4613 72.9205 22.4613Z" fill="#2F234F"/>
<path d="M78.6641 22.1709H81.5866V12.88H78.6641V22.1709ZM78.6641 11.5916H81.5866V9.19629H78.6641V11.5916Z" fill="#2F234F"/>
<path d="M82.8594 25.2383H85.7819V21.2098H85.8177C86.3915 21.9901 87.2341 22.4619 88.4175 22.4619C90.82 22.4619 92.4158 20.5383 92.4158 17.5261C92.4158 14.7315 90.9276 12.6084 88.4892 12.6084C87.2341 12.6084 86.3377 13.1709 85.7101 14.0057H85.6564V12.8806H82.8594V25.2383ZM87.6645 20.1754C86.4094 20.1754 85.6922 19.1411 85.6922 17.6349C85.6922 16.1288 86.3377 14.9856 87.6107 14.9856C88.8657 14.9856 89.4574 16.0381 89.4574 17.6349C89.4574 19.2137 88.7761 20.1754 87.6645 20.1754Z" fill="#2F234F"/>
<path d="M97.1676 22.4619C99.5701 22.4619 101.345 21.4094 101.345 19.377C101.345 16.9998 99.4446 16.5824 97.8309 16.3103C96.6655 16.0925 95.6256 16.0018 95.6256 15.3485C95.6256 14.7678 96.1814 14.4956 96.8986 14.4956C97.7054 14.4956 98.2612 14.7497 98.3688 15.5844H101.058C100.915 13.7516 99.5163 12.6084 96.9165 12.6084C94.7471 12.6084 92.9541 13.6246 92.9541 15.5844C92.9541 17.762 94.6574 18.1975 96.2532 18.4697C97.4724 18.6874 98.584 18.7782 98.584 19.6129C98.584 20.2117 98.0282 20.5384 97.1496 20.5384C96.1814 20.5384 95.5718 20.0847 95.4643 19.1592H92.7031C92.7928 21.2098 94.4781 22.4619 97.1676 22.4619Z" fill="#2F234F"/>
<path d="M105.321 22.443C106.594 22.443 107.401 21.9349 108.064 21.0276H108.118V22.1708H110.915V12.8799H107.993V18.0697C107.993 19.1767 107.383 19.9388 106.379 19.9388C105.447 19.9388 104.998 19.3763 104.998 18.3601V12.8799H102.094V18.9771C102.094 21.0457 103.205 22.443 105.321 22.443Z" fill="#2F234F"/>
<path d="M112.188 22.1715H115.11V16.9635C115.11 15.8566 115.648 15.0763 116.562 15.0763C117.441 15.0763 117.853 15.657 117.853 16.655V22.1715H120.776V16.9635C120.776 15.8566 121.296 15.0763 122.228 15.0763C123.107 15.0763 123.519 15.657 123.519 16.655V22.1715H126.441V16.1288C126.441 14.042 125.401 12.6084 123.322 12.6084C122.138 12.6084 121.152 13.1165 120.435 14.2416H120.399C119.933 13.2435 119.019 12.6084 117.817 12.6084C116.491 12.6084 115.612 13.2435 115.038 14.2053H114.984V12.8806H112.188V22.1715Z" fill="#2F234F"/>
<path fill-rule="evenodd" clip-rule="evenodd" d="M15.0193 30.488C23.2711 30.488 29.9604 23.7177 29.9604 15.3661C29.9604 7.01446 23.2711 0.244141 15.0193 0.244141C6.76751 0.244141 0.078125 7.01446 0.078125 15.3661C0.078125 23.7177 6.76751 30.488 15.0193 30.488ZM17.3254 11.9278C18.599 10.6387 18.599 8.54878 17.3254 7.25971C16.0518 5.97066 13.9868 5.97066 12.7132 7.25971C11.4396 8.54878 11.4396 10.6387 12.7132 11.9278L15.0193 14.2618L17.3254 11.9278ZM18.4165 17.7001C19.6902 18.9892 21.7551 18.9892 23.0288 17.7001C24.3024 16.4111 24.3024 14.3211 23.0288 13.0321C21.7551 11.7431 19.6902 11.7431 18.4165 13.0321L16.1104 15.3661L18.4165 17.7001ZM17.3254 23.4725C18.599 22.1834 18.599 20.0935 17.3254 18.8044L15.0193 16.4704L12.7132 18.8044C11.4396 20.0935 11.4396 22.1834 12.7132 23.4725C13.9868 24.7616 16.0518 24.7616 17.3254 23.4725ZM7.00981 17.7001C5.73619 16.4111 5.73619 14.3211 7.00981 13.0321C8.28349 11.7431 10.3484 11.7431 11.6221 13.0321L13.9282 15.3661L11.6221 17.7001C10.3484 18.9892 8.28349 18.9892 7.00981 17.7001Z" fill="#7F57F1"/>
</svg>
