<svg width="89" height="46" viewBox="0 0 89 46" fill="none" xmlns="http://www.w3.org/2000/svg">
<path d="M22.5547 22.6099L22.7369 22.5713H37.8928L43.5878 28.2816H28.2113L22.5547 22.6099Z" fill="black"/>
<path d="M17.6734 22.5713L2.29688 22.5714L7.99185 28.2817H17.6732L17.6734 22.5713Z" fill="black"/>
<path d="M48.875 6.16797H51.2368V13.5266H55.2933V15.5201H48.875V6.16797Z" fill="black"/>
<path d="M59.5827 15.7209C58.7909 15.7209 58.0974 15.5782 57.5009 15.2927C56.905 14.9984 56.4424 14.5971 56.1132 14.0886C55.7929 13.5713 55.6328 12.9782 55.6328 12.3091C55.6328 11.6402 55.7929 11.0515 56.1132 10.5431C56.4424 10.0258 56.905 9.6244 57.5009 9.33901C58.0974 9.0446 58.7909 8.89746 59.5827 8.89746C60.3744 8.89746 61.0685 9.0446 61.6644 9.33901C62.2603 9.6244 62.7184 10.0258 63.0386 10.5431C63.3678 11.0515 63.5324 11.6402 63.5324 12.3091C63.5324 12.9782 63.3678 13.5713 63.0386 14.0886C62.7184 14.5971 62.2603 14.9984 61.6644 15.2927C61.0685 15.5782 60.3744 15.7209 59.5827 15.7209ZM59.5827 13.888C60.0541 13.888 60.428 13.7497 60.7036 13.4732C60.9881 13.1877 61.1304 12.7998 61.1304 12.3091C61.1304 11.8186 60.9881 11.4351 60.7036 11.1585C60.428 10.8731 60.0541 10.7304 59.5827 10.7304C59.1112 10.7304 58.7335 10.8731 58.4483 11.1585C58.1727 11.4351 58.0349 11.8186 58.0349 12.3091C58.0349 12.7998 58.1727 13.1877 58.4483 13.4732C58.7335 13.7497 59.1112 13.888 59.5827 13.888Z" fill="black"/>
<path d="M67.9448 18.5974C67.518 18.5974 67.0866 18.5573 66.6502 18.477C66.2234 18.3968 65.8547 18.2897 65.5433 18.1559V16.5237C66.2458 16.8269 67.0464 16.9786 67.9448 16.9786C68.5942 16.9786 69.0612 16.8447 69.3458 16.5771C69.6393 16.3096 69.786 15.9172 69.786 15.3998V15.0117C69.5282 15.2347 69.208 15.4087 68.8258 15.5336C68.452 15.6585 68.0513 15.7209 67.6245 15.7209C66.9488 15.7209 66.3523 15.5782 65.8369 15.2927C65.3207 15.0074 64.9162 14.6059 64.6221 14.0886C64.3375 13.5713 64.1953 12.9782 64.1953 12.3091C64.1953 11.6313 64.3375 11.0337 64.6221 10.5163C64.9073 9.99902 65.3073 9.60214 65.8235 9.32558C66.3389 9.04018 66.931 8.89746 67.5977 8.89746C68.5145 8.89746 69.2705 9.17843 69.8664 9.74032V9.09814H72.1345V15.0787C72.1345 16.1937 71.7925 17.0588 71.1073 17.6743C70.431 18.2897 69.377 18.5974 67.9448 18.5974ZM68.2114 13.9013C68.5764 13.9013 68.9011 13.8076 69.1856 13.6203C69.4702 13.433 69.6706 13.1833 69.786 12.8711V11.7473C69.6616 11.4351 69.4568 11.1898 69.1722 11.0114C68.8877 10.8241 68.5674 10.7304 68.2114 10.7304C67.7316 10.7304 67.3444 10.8731 67.0509 11.1585C66.7574 11.4351 66.6107 11.8142 66.6107 12.2958C66.6107 12.7863 66.7574 13.1788 67.0509 13.4732C67.3444 13.7586 67.7316 13.9013 68.2114 13.9013Z" fill="black"/>
<path d="M76.6763 15.7209C75.8846 15.7209 75.1905 15.5782 74.5946 15.2927C73.9987 14.9984 73.5362 14.5971 73.207 14.0886C72.8867 13.5713 72.7266 12.9782 72.7266 12.3091C72.7266 11.6402 72.8867 11.0515 73.207 10.5431C73.5362 10.0258 73.9987 9.6244 74.5946 9.33901C75.1905 9.0446 75.8846 8.89746 76.6763 8.89746C77.4681 8.89746 78.1616 9.0446 78.7581 9.33901C79.354 9.6244 79.8121 10.0258 80.1324 10.5431C80.4616 11.0515 80.6262 11.6402 80.6262 12.3091C80.6262 12.9782 80.4616 13.5713 80.1324 14.0886C79.8121 14.5971 79.354 14.9984 78.7581 15.2927C78.1616 15.5782 77.4681 15.7209 76.6763 15.7209ZM76.6763 13.888C77.1478 13.888 77.5211 13.7497 77.7973 13.4732C78.0819 13.1877 78.2241 12.7998 78.2241 12.3091C78.2241 11.8186 78.0819 11.4351 77.7973 11.1585C77.5211 10.8731 77.1478 10.7304 76.6763 10.7304C76.2049 10.7304 75.8265 10.8731 75.542 11.1585C75.2664 11.4351 75.1286 11.8186 75.1286 12.3091C75.1286 12.7998 75.2664 13.1877 75.542 13.4732C75.8265 13.7497 76.2049 13.888 76.6763 13.888Z" fill="black"/>
<path d="M48.875 18.9629H51.2368V28.3151H48.875V18.9629Z" fill="black"/>
<path d="M52.4375 21.893H54.7056V22.5352C55.3016 21.9734 56.0582 21.6924 56.9744 21.6924C57.6411 21.6924 58.2331 21.8351 58.7486 22.1205C59.2647 22.397 59.6648 22.7939 59.9499 23.3112C60.2345 23.8196 60.3768 24.4128 60.3768 25.0907C60.3768 25.7596 60.2345 26.3572 59.9499 26.8835C59.6648 27.4008 59.2647 27.8023 58.7486 28.0876C58.242 28.3731 57.65 28.5157 56.9744 28.5157C56.5469 28.5157 56.138 28.4489 55.7468 28.3151C55.364 28.1902 55.0438 28.0163 54.7861 27.7933V31.2452H52.4375V21.893ZM56.3607 26.6828C56.841 26.6828 57.2276 26.5401 57.5211 26.2547C57.8146 25.9693 57.9614 25.5812 57.9614 25.0907C57.9614 24.6001 57.8146 24.2166 57.5211 23.94C57.2276 23.6547 56.841 23.512 56.3607 23.512C56.0047 23.512 55.6843 23.6056 55.3998 23.7929C55.1152 23.9712 54.9104 24.2166 54.7861 24.5287V25.666C54.9104 25.9782 55.1152 26.2279 55.3998 26.4152C55.6843 26.5937 56.0047 26.6828 56.3607 26.6828Z" fill="black"/>
<path d="M63.873 28.5157C63.3568 28.5157 62.8184 28.4622 62.2582 28.3552C61.6981 28.2571 61.2527 28.1144 60.9241 27.9271V26.2012C61.2884 26.4152 61.7242 26.5937 62.2314 26.7364C62.7475 26.8701 63.219 26.937 63.6458 26.937C63.9572 26.937 64.1843 26.9147 64.3266 26.8701C64.4688 26.8255 64.5396 26.7364 64.5396 26.6025C64.5396 26.4955 64.4912 26.4108 64.3929 26.3484C64.3042 26.277 64.1352 26.2056 63.8864 26.1342C63.6458 26.054 63.3658 25.9693 63.0454 25.88C62.5025 25.7195 62.0757 25.5544 61.7644 25.385C61.453 25.2155 61.2221 25.0015 61.0708 24.7428C60.9196 24.4842 60.8438 24.1585 60.8438 23.7661C60.8438 23.0705 61.1149 22.553 61.6578 22.2142C62.209 21.8663 62.9612 21.6924 63.9125 21.6924C64.375 21.6924 64.8599 21.7414 65.3672 21.8395C65.8833 21.9377 66.2699 22.067 66.5283 22.2275V23.9267C66.2609 23.7483 65.9056 23.6011 65.4609 23.4852C65.0246 23.3693 64.6155 23.3112 64.2327 23.3112C63.9304 23.3112 63.695 23.3424 63.5259 23.4049C63.3568 23.4584 63.2726 23.5566 63.2726 23.6993C63.2726 23.833 63.3568 23.9356 63.5259 24.0069C63.695 24.0783 63.9974 24.1676 64.4331 24.2745C64.7176 24.3458 64.8382 24.3771 64.7935 24.3682C65.3627 24.5198 65.8029 24.6893 66.1142 24.8766C66.4255 25.064 66.6437 25.2869 66.7681 25.5456C66.9015 25.7953 66.9685 26.1164 66.9685 26.5089C66.9685 27.1243 66.7018 27.615 66.1678 27.9806C65.6427 28.3374 64.8777 28.5157 63.873 28.5157Z" fill="black"/>
<path d="M70.4779 28.5153C69.5974 28.5153 68.9346 28.27 68.4899 27.7795C68.0541 27.2888 67.8359 26.6423 67.8359 25.8395V21.8926H70.1844V25.5718C70.1844 26.3122 70.5181 26.6824 71.1848 26.6824C71.4878 26.6824 71.7634 26.611 72.0122 26.4683C72.2617 26.3256 72.4659 26.1159 72.626 25.8395V21.8926H74.9745V28.3146H72.7064V27.6188C72.4307 27.9132 72.0971 28.1363 71.7053 28.2879C71.3143 28.4395 70.9047 28.5153 70.4779 28.5153Z" fill="black"/>
<path d="M76.1797 21.893H78.3546V22.5887C78.6212 22.3034 78.9281 22.0849 79.2752 21.9331C79.6222 21.7726 79.9916 21.6924 80.3828 21.6924C80.8631 21.6924 81.246 21.7637 81.5305 21.9064C81.8239 22.0492 82.0594 22.2632 82.2374 22.5486C82.5041 22.281 82.8288 22.0714 83.2116 21.9198C83.5938 21.7682 83.981 21.6924 84.3721 21.6924C85.2175 21.6924 85.8178 21.9109 86.1738 22.3479C86.5298 22.7761 86.7078 23.3959 86.7078 24.2077V28.3151H84.4659V24.5422C84.4659 24.1854 84.3989 23.9267 84.2656 23.7661C84.1322 23.6056 83.9096 23.5253 83.5982 23.5253C83.1982 23.5253 82.8735 23.6681 82.6247 23.9534C82.6336 24.1051 82.6381 24.337 82.6381 24.6492V28.3151H80.3962V24.4485C80.3962 24.1184 80.3381 23.8821 80.2226 23.7394C80.1072 23.5967 79.9024 23.5253 79.6088 23.5253C79.1552 23.5253 78.7635 23.7795 78.435 24.2879V28.3151H76.1797V21.893Z" fill="black"/>
<path d="M22.7336 22.5715L22.5513 22.6103L28.2076 28.2819V43.6998H23.3669L17.6719 37.9895H22.5126V22.5715H17.6719V17.7178H22.5126V2.2998L28.2076 8.01014V17.7177L22.5126 17.7178V22.5715L22.7336 22.5715Z" fill="#555555"/>
<path d="M37.8906 22.5716L43.5856 28.2819V23.4281L37.8906 17.7178V22.5716Z" fill="#555555"/>
<path d="M49.2109 32.7051H52.6668C53.6452 32.7051 54.4056 32.937 54.9486 33.4009C55.4998 33.8646 55.776 34.5514 55.776 35.4612C55.776 36.3799 55.5042 37.0668 54.962 37.5217C54.419 37.9766 53.6541 38.204 52.6668 38.204H50.2517V42.0572H49.2109V32.7051ZM52.5868 37.321C53.254 37.321 53.7791 37.1872 54.1613 36.9196C54.5441 36.6431 54.7348 36.157 54.7348 35.4612C54.7348 34.7566 54.5441 34.2705 54.1613 34.0029C53.7791 33.7264 53.254 33.5882 52.5868 33.5882H50.2517V37.321H52.5868Z" fill="#555555"/>
<path d="M57.1094 32.1699H58.1365V42.0573H57.1094V32.1699Z" fill="#555555"/>
<path d="M62.585 42.2576C61.7308 42.2576 61.0724 42.0256 60.6098 41.5618C60.1561 41.098 59.9297 40.4781 59.9297 39.7021V35.6348H60.9569V39.7556C60.9569 40.8795 61.5393 41.4414 62.7049 41.4414C63.1943 41.4414 63.6211 41.3344 63.9861 41.1204C64.3593 40.9062 64.6929 40.5673 64.9864 40.1035V35.6348H66.0143V42.0568H65.0132V41.0935C64.4352 41.8695 63.6256 42.2576 62.585 42.2576Z" fill="#555555"/>
<path d="M70.1123 42.257C69.6938 42.257 69.2447 42.1946 68.7643 42.0697C68.2839 41.9537 67.9106 41.8066 67.6433 41.6281V40.7586C67.9814 40.9637 68.3687 41.1287 68.8045 41.2535C69.2491 41.3784 69.6759 41.4408 70.0855 41.4408C70.6368 41.4408 71.033 41.365 71.2729 41.2134C71.5223 41.0529 71.6467 40.8165 71.6467 40.5044C71.6467 40.2635 71.5931 40.0762 71.4866 39.9424C71.3794 39.7996 71.2021 39.6748 70.9526 39.5678C70.7037 39.4607 70.3165 39.3359 69.7921 39.1932C69.276 39.0505 68.8625 38.9033 68.5511 38.7517C68.2488 38.591 68.0171 38.3904 67.857 38.1495C67.6969 37.9088 67.6172 37.601 67.6172 37.2264C67.6172 36.6466 67.8481 36.2051 68.3107 35.9019C68.7822 35.5896 69.4048 35.4336 70.1787 35.4336C70.5966 35.4336 70.9883 35.4737 71.3533 35.5539C71.7265 35.6253 72.0378 35.7279 72.2873 35.8618V36.7313C72.0288 36.5887 71.7175 36.4772 71.3533 36.3968C70.9883 36.3077 70.61 36.2631 70.2189 36.2631C69.7027 36.2631 69.3117 36.3389 69.0443 36.4905C68.7777 36.6422 68.6444 36.8875 68.6444 37.2264C68.6444 37.4583 68.6889 37.6367 68.7777 37.7616C68.8759 37.8864 69.0488 38.0024 69.2983 38.1094C69.556 38.2076 69.9656 38.3324 70.5257 38.484C71.3265 38.707 71.8821 38.9702 72.1934 39.2735C72.5137 39.5678 72.6739 39.9781 72.6739 40.5044C72.6739 41.0484 72.4608 41.4765 72.0333 41.7888C71.6155 42.1009 70.9749 42.257 70.1123 42.257Z" fill="#555555"/>
</svg>
