<svg width="168" height="40" viewBox="0 0 168 40" fill="none" xmlns="http://www.w3.org/2000/svg">
<g clip-path="url(#clip0_603_27647)">
<path d="M47.8984 29.0002H58.9871V25.7675H51.2797V10.6729H47.8984V29.0002Z" fill="#23216E"/>
<path d="M65.6469 29.3821C66.9895 29.3821 68.1705 29.0766 69.1898 28.4657C70.2174 27.8463 71.0172 26.9936 71.5891 25.9076C72.1692 24.813 72.4593 23.553 72.4593 22.1276C72.4593 20.7106 72.1733 19.4591 71.6015 18.373C71.0296 17.2785 70.2299 16.4215 69.2022 15.8021C68.1829 15.1827 66.9978 14.873 65.6469 14.873C64.3208 14.873 63.1482 15.1785 62.1288 15.7894C61.1095 16.4003 60.3097 17.253 59.7296 18.3476C59.1495 19.4336 58.8594 20.6936 58.8594 22.1276C58.8594 23.5445 59.1412 24.8003 59.7047 25.8948C60.2765 26.9809 61.0722 27.8336 62.0915 28.453C63.1109 29.0724 64.296 29.3821 65.6469 29.3821ZM65.6469 26.1494C64.5943 26.1494 63.7947 25.7888 63.2477 25.0676C62.7089 24.3379 62.4396 23.3579 62.4396 22.1276C62.4396 20.9312 62.6965 19.9639 63.2104 19.2257C63.7324 18.4791 64.5446 18.1057 65.6469 18.1057C66.716 18.1057 67.5199 18.4706 68.0585 19.2003C68.6055 19.93 68.879 20.9057 68.879 22.1276C68.879 23.307 68.6097 24.2742 68.071 25.0294C67.5406 25.776 66.7325 26.1494 65.6469 26.1494Z" fill="#23216E"/>
<path d="M79.1438 29.3821C79.7737 29.3821 80.3538 29.3057 80.8843 29.153C81.423 29.0003 81.9119 28.7839 82.3512 28.5039V29.8912C82.3678 30.4003 82.2392 30.8245 81.9657 31.1639C81.7005 31.5118 81.3442 31.7706 80.8967 31.9403C80.4491 32.1185 79.9726 32.2076 79.4671 32.2076C78.9947 32.2076 78.5554 32.1015 78.1494 31.8894C77.7516 31.6773 77.4449 31.3676 77.2294 30.9603L74.0968 32.513C74.6106 33.4039 75.344 34.1209 76.2971 34.6639C77.2502 35.2154 78.2986 35.4912 79.4422 35.4912C80.4284 35.4912 81.3442 35.3554 82.1895 35.0839C83.0349 34.8209 83.7476 34.4179 84.3277 33.8748C84.9161 33.3318 85.3181 32.6403 85.5336 31.8003C85.6081 31.5033 85.6578 31.2021 85.6827 30.8966C85.7158 30.5997 85.7325 30.2815 85.7325 29.9421V15.2548H82.7738V16.0185C82.3179 15.6536 81.8 15.3736 81.2199 15.1785C80.648 14.9748 80.0141 14.873 79.3179 14.873C78.0334 14.873 76.9145 15.187 75.9615 15.8148C75.0084 16.4427 74.2666 17.3039 73.7363 18.3985C73.2141 19.4845 72.9531 20.7276 72.9531 22.1276C72.9531 23.5021 73.21 24.7366 73.7239 25.8312C74.2459 26.9257 74.9711 27.7912 75.8993 28.4276C76.8275 29.0639 77.909 29.3821 79.1438 29.3821ZM79.6908 26.3021C78.9616 26.3021 78.3649 26.1154 77.9007 25.7421C77.4367 25.3688 77.0927 24.8682 76.869 24.2403C76.6452 23.6039 76.5333 22.8997 76.5333 22.1276C76.5333 21.3639 76.6493 20.6682 76.8814 20.0403C77.1135 19.4039 77.4698 18.8991 77.9504 18.5257C78.4394 18.1439 79.061 17.953 79.8151 17.953C80.876 17.953 81.6342 18.3391 82.0901 19.1112C82.5459 19.8748 82.7738 20.8803 82.7738 22.1276C82.7738 23.3748 82.5417 24.3845 82.0777 25.1566C81.6218 25.9203 80.8263 26.3021 79.6908 26.3021Z" fill="#23216E"/>
<path d="M93.7641 29.3821C95.1067 29.3821 96.2877 29.0766 97.307 28.4657C98.3344 27.8463 99.1344 26.9936 99.7058 25.9076C100.286 24.813 100.576 23.553 100.576 22.1276C100.576 20.7106 100.291 19.4591 99.7185 18.373C99.1471 17.2785 98.3471 16.4215 97.3194 15.8021C96.3001 15.1827 95.1149 14.873 93.7641 14.873C92.438 14.873 91.2654 15.1785 90.246 15.7894C89.2267 16.4003 88.4269 17.253 87.8467 18.3476C87.2667 19.4336 86.9766 20.6936 86.9766 22.1276C86.9766 23.5445 87.2584 24.8003 87.8219 25.8948C88.3937 26.9809 89.1894 27.8336 90.2087 28.453C91.2281 29.0724 92.4132 29.3821 93.7641 29.3821ZM93.7641 26.1494C92.7115 26.1494 91.9118 25.7888 91.3648 25.0676C90.8261 24.3379 90.5568 23.3579 90.5568 22.1276C90.5568 20.9312 90.8137 19.9639 91.3276 19.2257C91.8496 18.4791 92.6618 18.1057 93.7641 18.1057C94.8332 18.1057 95.6371 18.4706 96.1757 19.2003C96.7227 19.93 96.9962 20.9057 96.9962 22.1276C96.9962 23.307 96.7268 24.2742 96.1881 25.0294C95.6578 25.776 94.8497 26.1494 93.7641 26.1494Z" fill="#23216E"/>
<path d="M102.07 13.3455H105.452V10.291H102.07V13.3455ZM102.07 29.0001H105.452V15.2546H102.07V29.0001Z" fill="#23216E"/>
<path d="M107.664 35.1094H111.07V28.5039C111.51 28.7839 111.994 29.0003 112.524 29.153C113.064 29.3057 113.648 29.3821 114.278 29.3821C115.512 29.3821 116.594 29.0639 117.522 28.4276C118.45 27.7912 119.171 26.9257 119.685 25.8312C120.207 24.7366 120.468 23.5021 120.468 22.1276C120.468 20.7276 120.204 19.4845 119.673 18.3985C119.151 17.3039 118.413 16.4427 117.46 15.8148C116.507 15.187 115.388 14.873 114.104 14.873C113.407 14.873 112.77 14.9748 112.189 15.1785C111.617 15.3736 111.103 15.6536 110.648 16.0185V15.2548H107.664V35.1094ZM113.731 26.3021C112.603 26.3021 111.808 25.9203 111.343 25.1566C110.88 24.3845 110.648 23.3748 110.648 22.1276C110.648 20.8803 110.876 19.8748 111.332 19.1112C111.796 18.3391 112.554 17.953 113.607 17.953C114.361 17.953 114.978 18.1439 115.458 18.5257C115.948 18.8991 116.308 19.4039 116.54 20.0403C116.772 20.6682 116.888 21.3639 116.888 22.1276C116.888 22.8997 116.776 23.6039 116.552 24.2403C116.329 24.8682 115.985 25.3688 115.521 25.7421C115.057 26.1154 114.46 26.3021 113.731 26.3021Z" fill="#23216E"/>
<path d="M126.594 29.3821C128.35 29.3821 129.726 28.9791 130.721 28.173C131.715 27.3669 132.212 26.2597 132.212 24.8512C132.212 23.7821 131.889 22.9379 131.243 22.3185C130.604 21.6991 129.519 21.1857 127.986 20.7785C126.942 20.5069 126.162 20.2863 125.648 20.1166C125.143 19.947 124.807 19.7815 124.641 19.6203C124.484 19.4591 124.406 19.2597 124.406 19.0221C124.406 18.6233 124.592 18.3179 124.965 18.1057C125.347 17.8936 125.848 17.8088 126.469 17.8512C127.786 17.953 128.508 18.53 128.632 19.5821L132.088 18.9457C131.914 17.6985 131.317 16.71 130.298 15.9803C129.279 15.2421 127.978 14.873 126.395 14.873C124.77 14.873 123.473 15.2633 122.503 16.0439C121.534 16.8245 121.049 17.8766 121.049 19.2003C121.049 20.2524 121.385 21.0839 122.056 21.6948C122.727 22.2973 123.883 22.8148 125.524 23.2476C126.494 23.5106 127.206 23.7227 127.662 23.8839C128.126 24.0451 128.425 24.2106 128.557 24.3803C128.69 24.5415 128.756 24.7579 128.756 25.0294C128.756 25.4621 128.59 25.8015 128.259 26.0476C127.928 26.2851 127.455 26.4039 126.842 26.4039C126.096 26.4039 125.478 26.2215 124.99 25.8566C124.51 25.4918 124.198 24.987 124.057 24.3421L120.602 24.8766C120.825 26.3106 121.455 27.4221 122.492 28.2112C123.536 28.9918 124.903 29.3821 126.594 29.3821Z" fill="#23216E"/>
<path d="M138.449 29.4077C139.419 29.4077 140.264 29.2422 140.986 28.9113C141.707 28.5804 142.311 28.1392 142.801 27.5877V29.0004H145.784V15.2549H142.378V22.2295C142.378 23.078 142.282 23.7652 142.092 24.2913C141.91 24.8089 141.673 25.2034 141.383 25.4749C141.093 25.738 140.783 25.9161 140.451 26.0095C140.119 26.1028 139.809 26.1495 139.519 26.1495C138.798 26.1495 138.238 25.984 137.841 25.6531C137.451 25.3222 137.169 24.9107 136.995 24.4186C136.821 23.9264 136.717 23.4386 136.684 22.9549C136.651 22.4628 136.634 22.0598 136.634 21.7458V15.2549H133.203V22.9677C133.203 23.1967 133.22 23.5616 133.253 24.0622C133.286 24.5628 133.382 25.1186 133.539 25.7295C133.696 26.3319 133.957 26.9131 134.322 27.4731C134.696 28.0331 135.213 28.4955 135.876 28.8604C136.539 29.2252 137.397 29.4077 138.449 29.4077Z" fill="#23216E"/>
<path d="M147.742 29.0002H151.148V20.6765C151.148 19.8875 151.359 19.2469 151.782 18.7547C152.213 18.2541 152.78 18.0038 153.485 18.0038C154.223 18.0038 154.799 18.2584 155.213 18.7675C155.635 19.2681 155.847 19.9723 155.847 20.8802V29.0002H159.229V20.6765C159.229 19.8875 159.44 19.2469 159.863 18.7547C160.293 18.2541 160.861 18.0038 161.565 18.0038C162.303 18.0038 162.879 18.2584 163.293 18.7675C163.716 19.2681 163.928 19.9723 163.928 20.8802V29.0002H167.308V19.9638C167.308 18.462 166.915 17.2487 166.127 16.3238C165.349 15.3905 164.193 14.9238 162.659 14.9238C161.798 14.9238 161.006 15.1147 160.285 15.4965C159.564 15.8784 158.988 16.4002 158.557 17.062C158.209 16.4172 157.712 15.8996 157.065 15.5093C156.419 15.119 155.615 14.9238 154.654 14.9238C153.841 14.9238 153.096 15.0893 152.416 15.4202C151.736 15.7426 151.173 16.1881 150.725 16.7565V15.2547H147.742V29.0002Z" fill="#23216E"/>
<path d="M19.5349 0C8.74606 0 0 8.9543 0 20C10.7888 20 19.5349 11.0457 19.5349 0Z" fill="#45D2B0"/>
<path d="M19.5312 40C30.3201 40 39.0661 31.0457 39.0661 20C28.2773 20 19.5312 28.9543 19.5312 40Z" fill="#45D2B0"/>
<path d="M19.5312 0C30.3201 0 39.0661 8.9543 39.0661 20C28.2773 20 19.5312 11.0457 19.5312 0Z" fill="#23216E"/>
<path d="M19.5349 40C8.74606 40 -9.43188e-07 31.0457 0 20C10.7888 20 19.5349 28.9543 19.5349 40Z" fill="#23216E"/>
</g>
<defs>
<clipPath id="clip0_603_27647">
<rect width="168" height="40" fill="white"/>
</clipPath>
</defs>
</svg>
