<svg width="122" height="30" viewBox="0 0 122 30" fill="none" xmlns="http://www.w3.org/2000/svg">
<g clip-path="url(#clip0_959_43356)">
<path d="M35.3359 21.7497H43.3058V19.4262H37.7662V8.57715H35.3359V21.7497Z" fill="#23216E"/>
<path d="M48.0894 22.024C49.0544 22.024 49.9032 21.8044 50.6358 21.3653C51.3744 20.9201 51.9493 20.3073 52.3603 19.5267C52.7772 18.74 52.9857 17.8344 52.9857 16.8099C52.9857 15.7914 52.7802 14.8919 52.3692 14.1113C51.9582 13.3246 51.3834 12.7087 50.6448 12.2635C49.9121 11.8183 49.0604 11.5957 48.0894 11.5957C47.1363 11.5957 46.2935 11.8153 45.5608 12.2544C44.8282 12.6934 44.2534 13.3063 43.8364 14.093C43.4194 14.8736 43.2109 15.7792 43.2109 16.8099C43.2109 17.8283 43.4135 18.7309 43.8185 19.5175C44.2295 20.2981 44.8014 20.911 45.534 21.3562C46.2667 21.8014 47.1185 22.024 48.0894 22.024ZM48.0894 19.7005C47.3329 19.7005 46.7581 19.4413 46.365 18.923C45.9778 18.3985 45.7842 17.6941 45.7842 16.8099C45.7842 15.95 45.9688 15.2547 46.3382 14.7242C46.7134 14.1876 47.2971 13.9192 48.0894 13.9192C48.8578 13.9192 49.4356 14.1814 49.8227 14.7059C50.2159 15.2304 50.4125 15.9316 50.4125 16.8099C50.4125 17.6576 50.2189 18.3527 49.8317 18.8955C49.4505 19.4321 48.8697 19.7005 48.0894 19.7005Z" fill="#23216E"/>
<path d="M57.7933 22.024C58.246 22.024 58.6629 21.9691 59.0442 21.8593C59.4314 21.7496 59.7828 21.594 60.0985 21.3928V22.3899C60.1104 22.7558 60.018 23.0607 59.8215 23.3046C59.6309 23.5547 59.3748 23.7407 59.0531 23.8627C58.7314 23.9907 58.3889 24.0548 58.0256 24.0548C57.6861 24.0548 57.3704 23.9785 57.0785 23.8261C56.7926 23.6736 56.5722 23.451 56.4173 23.1583L54.1658 24.2743C54.535 24.9146 55.0622 25.4299 55.7472 25.8202C56.4322 26.2166 57.1857 26.4148 58.0077 26.4148C58.7166 26.4148 59.3748 26.3172 59.9823 26.1221C60.5899 25.9331 61.1022 25.6434 61.5191 25.2531C61.942 24.8628 62.231 24.3658 62.3858 23.762C62.4394 23.5486 62.4751 23.3321 62.493 23.1125C62.5168 22.8991 62.5288 22.6704 62.5288 22.4265V11.8701H60.4023V12.419C60.0746 12.1568 59.7023 11.9555 59.2854 11.8153C58.8744 11.6689 58.4188 11.5957 57.9184 11.5957C56.9951 11.5957 56.191 11.8214 55.506 12.2726C54.821 12.7239 54.2878 13.3429 53.9066 14.1296C53.5313 14.9102 53.3438 15.8036 53.3438 16.8099C53.3438 17.7978 53.5284 18.6851 53.8977 19.4718C54.273 20.2585 54.7941 20.8805 55.4613 21.3379C56.1284 21.7953 56.9058 22.024 57.7933 22.024ZM58.1864 19.8103C57.6623 19.8103 57.2334 19.6761 56.8998 19.4078C56.5663 19.1395 56.319 18.7797 56.1582 18.3284C55.9974 17.871 55.917 17.3648 55.917 16.8099C55.917 16.261 56.0004 15.7609 56.1672 15.3096C56.334 14.8522 56.5901 14.4894 56.9355 14.221C57.287 13.9466 57.7337 13.8094 58.2758 13.8094C59.0382 13.8094 59.5832 14.0869 59.9108 14.6419C60.2385 15.1907 60.4023 15.9134 60.4023 16.8099C60.4023 17.7063 60.2355 18.432 59.9019 18.9869C59.5743 19.5358 59.0025 19.8103 58.1864 19.8103Z" fill="#23216E"/>
<path d="M68.2925 22.024C69.2575 22.024 70.1063 21.8044 70.839 21.3653C71.5774 20.9201 72.1524 20.3073 72.5631 19.5267C72.9801 18.74 73.1886 17.8344 73.1886 16.8099C73.1886 15.7914 72.9836 14.8919 72.5722 14.1113C72.1615 13.3246 71.5865 12.7087 70.8479 12.2635C70.1152 11.8183 69.2634 11.5957 68.2925 11.5957C67.3394 11.5957 66.4966 11.8153 65.764 12.2544C65.0313 12.6934 64.4565 13.3063 64.0395 14.093C63.6226 14.8736 63.4141 15.7792 63.4141 16.8099C63.4141 17.8283 63.6166 18.7309 64.0217 19.5175C64.4326 20.2981 65.0045 20.911 65.7371 21.3562C66.4698 21.8014 67.3216 22.024 68.2925 22.024ZM68.2925 19.7005C67.536 19.7005 66.9612 19.4413 66.5681 18.923C66.1809 18.3985 65.9873 17.6941 65.9873 16.8099C65.9873 15.95 66.172 15.2547 66.5413 14.7242C66.9165 14.1876 67.5003 13.9192 68.2925 13.9192C69.0609 13.9192 69.6387 14.1814 70.0259 14.7059C70.419 15.2304 70.6156 15.9316 70.6156 16.8099C70.6156 17.6576 70.422 18.3527 70.0348 18.8955C69.6536 19.4321 69.0728 19.7005 68.2925 19.7005Z" fill="#23216E"/>
<path d="M74.2656 10.4971H76.696V8.30176H74.2656V10.4971ZM74.2656 21.7487H76.696V11.8693H74.2656V21.7487Z" fill="#23216E"/>
<path d="M78.2891 26.1404H80.737V21.3928C81.0529 21.594 81.4011 21.7496 81.7823 21.8593C82.1699 21.9691 82.5897 22.024 83.0425 22.024C83.9298 22.024 84.7077 21.7953 85.3746 21.3379C86.0415 20.8805 86.5596 20.2585 86.9289 19.4718C87.3045 18.6851 87.4919 17.7978 87.4919 16.8099C87.4919 15.8036 87.3017 14.9102 86.9205 14.1296C86.5449 13.3429 86.0148 12.7239 85.3297 12.2726C84.6445 11.8214 83.8407 11.5957 82.9175 11.5957C82.417 11.5957 81.9585 11.6689 81.5415 11.8153C81.1302 11.9555 80.7609 12.1568 80.4337 12.419V11.8701H78.2891V26.1404ZM82.6493 19.8103C81.8392 19.8103 81.2678 19.5358 80.9336 18.9869C80.6001 18.432 80.4337 17.7063 80.4337 16.8099C80.4337 15.9134 80.5973 15.1907 80.9252 14.6419C81.2586 14.0869 81.8034 13.8094 82.5602 13.8094C83.1021 13.8094 83.5458 13.9466 83.8912 14.221C84.2429 14.4894 84.502 14.8522 84.6684 15.3096C84.8354 15.7609 84.919 16.261 84.919 16.8099C84.919 17.3648 84.8383 17.871 84.6775 18.3284C84.5167 18.7797 84.2696 19.1395 83.9362 19.4078C83.6027 19.6761 83.1738 19.8103 82.6493 19.8103Z" fill="#23216E"/>
<path d="M91.8929 22.024C93.1551 22.024 94.1443 21.7343 94.8589 21.1549C95.5736 20.5756 95.9309 19.7798 95.9309 18.7674C95.9309 17.999 95.6985 17.3923 95.2345 16.9471C94.7754 16.5019 93.9954 16.1329 92.8933 15.8402C92.1428 15.645 91.5826 15.4865 91.2133 15.3645C90.8504 15.2426 90.6089 15.1236 90.4895 15.0078C90.3765 14.8919 90.3203 14.7486 90.3203 14.5778C90.3203 14.2912 90.4537 14.0717 90.7219 13.9192C90.9964 13.7667 91.3565 13.7058 91.803 13.7363C92.75 13.8094 93.2688 14.2241 93.358 14.9803L95.8418 14.5229C95.7168 13.6265 95.2879 12.916 94.5549 12.3916C93.8227 11.861 92.8876 11.5957 91.7496 11.5957C90.5822 11.5957 89.6499 11.8762 88.9528 12.4373C88.2564 12.9983 87.9075 13.7545 87.9075 14.7059C87.9075 15.4621 88.149 16.0597 88.6313 16.4988C89.1135 16.9318 89.9447 17.3038 91.1241 17.6149C91.8213 17.8039 92.333 17.9563 92.6609 18.0722C92.9943 18.1881 93.2092 18.307 93.3039 18.429C93.3994 18.5448 93.4471 18.7004 93.4471 18.8955C93.4471 19.2065 93.3278 19.4505 93.0898 19.6273C92.8518 19.798 92.512 19.8834 92.0712 19.8834C91.5348 19.8834 91.0911 19.7523 90.7401 19.4901C90.3947 19.2279 90.1708 18.865 90.0697 18.4015L87.5859 18.7857C87.7467 19.8164 88.1995 20.6152 88.9444 21.1824C89.6948 21.7435 90.6777 22.024 91.8929 22.024Z" fill="#23216E"/>
<path d="M100.411 22.0423C101.108 22.0423 101.716 21.9233 102.234 21.6855C102.752 21.4477 103.187 21.1306 103.539 20.7342V21.7496H105.683V11.8701H103.235V16.883C103.235 17.4929 103.166 17.9868 103.029 18.3649C102.898 18.737 102.729 19.0205 102.52 19.2156C102.312 19.4047 102.088 19.5327 101.85 19.5999C101.612 19.6669 101.388 19.7005 101.18 19.7005C100.662 19.7005 100.26 19.5816 99.9738 19.3437C99.6937 19.1059 99.4908 18.8101 99.3659 18.4564C99.2409 18.1027 99.1665 17.7521 99.1426 17.4044C99.1188 17.0507 99.1068 16.7611 99.1068 16.5354V11.8701H96.6406V17.4136C96.6406 17.5782 96.6526 17.8405 96.6764 18.2003C96.7003 18.5601 96.7691 18.9596 96.8821 19.3986C96.9951 19.8316 97.1826 20.2493 97.4451 20.6518C97.7133 21.0543 98.0854 21.3867 98.5621 21.6489C99.038 21.9111 99.6551 22.0423 100.411 22.0423Z" fill="#23216E"/>
<path d="M107.086 21.7491H109.534V15.7665C109.534 15.1994 109.686 14.739 109.99 14.3853C110.299 14.0255 110.707 13.8456 111.214 13.8456C111.744 13.8456 112.158 14.0285 112.456 14.3945C112.759 14.7543 112.911 15.2604 112.911 15.9129V21.7491H115.342V15.7665C115.342 15.1994 115.493 14.739 115.797 14.3853C116.107 14.0255 116.515 13.8456 117.021 13.8456C117.552 13.8456 117.965 14.0285 118.263 14.3945C118.567 14.7543 118.719 15.2604 118.719 15.9129V21.7491H121.149V15.2543C121.149 14.1749 120.866 13.3028 120.3 12.6381C119.741 11.9673 118.909 11.6318 117.807 11.6318C117.188 11.6318 116.619 11.769 116.101 12.0435C115.583 12.3179 115.169 12.693 114.859 13.1686C114.609 12.7052 114.252 12.3332 113.787 12.0527C113.322 11.7721 112.744 11.6318 112.053 11.6318C111.469 11.6318 110.934 11.7508 110.445 11.9886C109.957 12.2203 109.551 12.5405 109.23 12.9491V11.8697H107.086V21.7491Z" fill="#23216E"/>
<path d="M14.9468 0.905273C7.19239 0.905273 0.90625 7.34109 0.90625 15.2801C8.66061 15.2801 14.9468 8.84426 14.9468 0.905273Z" fill="#45D2B0"/>
<path d="M14.9531 29.6561C22.7075 29.6561 28.9936 23.2202 28.9936 15.2812C21.2393 15.2812 14.9531 21.7171 14.9531 29.6561Z" fill="#45D2B0"/>
<path d="M14.9531 0.905273C22.7075 0.905273 28.9936 7.34109 28.9936 15.2801C21.2393 15.2801 14.9531 8.84426 14.9531 0.905273Z" fill="#23216E"/>
<path d="M14.9468 29.6561C7.19239 29.6561 0.906249 23.2202 0.90625 15.2812C8.66061 15.2812 14.9468 21.7171 14.9468 29.6561Z" fill="#23216E"/>
</g>
<defs>
<clipPath id="clip0_959_43356">
<rect width="120.748" height="28.7496" fill="white" transform="translate(0.90625 0.905273)"/>
</clipPath>
</defs>
</svg>
