<svg width="106" height="38" viewBox="0 0 106 38" fill="none" xmlns="http://www.w3.org/2000/svg">
<path fill-rule="evenodd" clip-rule="evenodd" d="M53.0018 37.3223C82.209 37.3223 105.886 28.9956 105.886 18.7241C105.886 8.45263 82.209 0.125977 53.0018 0.125977C23.7944 0.125977 0.117188 8.45263 0.117188 18.7241C0.117188 28.9956 23.7944 37.3223 53.0018 37.3223ZM17.022 23.5712V10.7535H14.9249V23.5712H17.022ZM18.3056 19.2986C18.3056 21.9172 20.059 23.7779 22.7234 23.7779C25.3878 23.7779 27.1412 21.9172 27.1412 19.2986C27.1412 16.6799 25.3878 14.8193 22.7234 14.8193C20.059 14.8193 18.3056 16.6799 18.3056 19.2986ZM31.8346 23.3989C29.4451 23.3989 27.8465 21.6072 27.8465 19.1263C27.8465 16.6283 29.4795 14.7848 31.9033 14.7848C33.1582 14.7848 34.2239 15.319 34.7396 16.2148L34.8599 15.0605H36.7164V23.1405C36.7164 25.9487 34.9631 27.7575 32.2127 27.7575C29.8749 27.7575 28.1731 26.3104 27.8981 24.088H30.0125C30.1327 25.2078 31.0267 25.8453 32.333 25.8453C33.7942 25.8453 34.6709 24.9149 34.6709 23.5194V22.0723C34.138 22.8992 33.0722 23.3989 31.8346 23.3989ZM37.7543 19.2986C37.7543 21.9172 39.5077 23.7779 42.1721 23.7779C44.8365 23.7779 46.5898 21.9172 46.5898 19.2986C46.5898 16.6799 44.8365 14.8193 42.1721 14.8193C39.5077 14.8193 37.7543 16.6799 37.7543 19.2986ZM50.1143 12.0629C50.1143 12.7692 49.5471 13.3205 48.8594 13.3205C48.1547 13.3205 47.6218 12.7692 47.6218 12.0629C47.6218 11.3737 48.1547 10.8224 48.8594 10.8224C49.5471 10.8224 50.1143 11.3737 50.1143 12.0629ZM49.908 15.0605V23.5712H47.8109V15.0605H49.908ZM51.7453 27.5164H53.7909V22.3997C54.3238 23.2783 55.4755 23.7951 56.7476 23.7951C59.2573 23.7951 60.7528 21.8656 60.7184 19.2124C60.6668 16.5421 59.1369 14.8021 56.7303 14.8021C55.4411 14.8021 54.2722 15.3706 53.7565 16.3526L53.6362 15.0605H51.7453V27.5164ZM64.6545 23.7951C62.6261 23.7951 61.3196 22.7097 61.2509 21.0214H63.159C63.159 21.7622 63.6918 22.1929 64.6201 22.1929C65.3937 22.1929 66.0297 21.8828 66.0297 21.2109C66.0297 20.7285 65.6858 20.4701 65.1357 20.3151L63.6575 19.936C62.0244 19.5053 61.3884 18.5922 61.3884 17.4896C61.3884 15.8702 62.7464 14.8021 64.5685 14.8021C66.4078 14.8021 67.6627 15.8702 67.7314 17.5586H65.8234C65.8234 16.8178 65.3076 16.3699 64.517 16.3699C63.7606 16.3699 63.2965 16.7833 63.2965 17.3691C63.2965 17.9204 63.7262 18.1443 64.3622 18.3166L65.8578 18.6784C67.2502 19.0229 68.0064 19.8499 68.0064 21.0731C68.0064 22.727 66.6485 23.7951 64.6545 23.7951ZM72.3567 23.7951C73.508 23.7951 74.608 23.261 75.1067 22.4685L75.2445 23.5712H77.204V15.0605H75.1067V19.5226C75.1067 21.0559 74.5222 21.9172 73.1472 21.9172C72.0817 21.9172 71.3425 21.4004 71.3425 19.6432V15.0605H69.245V20.3839C69.245 22.4169 70.3452 23.7951 72.3567 23.7951ZM81.1523 18.6784V23.5712H79.0549V15.0605H80.9799L81.0833 16.0253C81.582 15.2672 82.4759 14.8021 83.4725 14.8021C84.882 14.8021 85.8104 15.4223 86.2746 16.4215C86.6875 15.4223 87.7017 14.8021 88.9909 14.8021C91.0537 14.8021 92.1361 16.0425 92.1361 18.0065V23.5712H90.1077V18.4889C90.1077 17.2829 89.455 16.6455 88.4408 16.6455C87.4435 16.6455 86.653 17.3002 86.653 18.6956V23.5712H84.607V18.4889C84.607 17.2829 83.9543 16.6455 82.957 16.6455C81.9604 16.6455 81.1523 17.3002 81.1523 18.6784Z" fill="#152C4F"/>
</svg>
