<svg width="166" height="40" viewBox="0 0 166 40" fill="none" xmlns="http://www.w3.org/2000/svg">
<g clip-path="url(#clip0_603_27538)">
<path d="M50.0234 28.6077H61.6839V25.0955H54.1678V11.8662H50.0234V28.6077Z" fill="#2F234F"/>
<path d="M68.5953 26.2666C66.9329 26.2666 66.0665 24.8149 66.0665 22.6374C66.0665 20.4598 66.9329 18.9847 68.5953 18.9847C70.2578 18.9847 71.1475 20.4598 71.1475 22.6374C71.1475 24.8149 70.2578 26.2666 68.5953 26.2666ZM68.6187 28.9827C72.4822 28.9827 75.0109 26.2432 75.0109 22.6374C75.0109 19.0315 72.4822 16.292 68.6187 16.292C64.7787 16.292 62.2031 19.0315 62.2031 22.6374C62.2031 26.2432 64.7787 28.9827 68.6187 28.9827Z" fill="#2F234F"/>
<path d="M81.6972 32.7525C83.4767 32.7525 85.0455 32.3544 86.0991 31.4178C87.0591 30.5515 87.6913 29.2403 87.6913 27.4373V16.6198H84.0386V17.9076H83.9918C83.2894 16.9008 82.2123 16.2686 80.6201 16.2686C77.6464 16.2686 75.5859 18.7505 75.5859 22.2627C75.5859 25.9388 78.0913 27.9525 80.784 27.9525C82.2357 27.9525 83.1489 27.3671 83.8513 26.571H83.945V27.7651C83.945 29.2168 83.2659 30.0598 81.6503 30.0598C80.3859 30.0598 79.7537 29.5212 79.543 28.889H75.8435C76.2181 31.3944 78.3957 32.7525 81.6972 32.7525ZM81.6737 25.1193C80.2455 25.1193 79.3089 23.9486 79.3089 22.1456C79.3089 20.3193 80.2455 19.1486 81.6737 19.1486C83.2659 19.1486 84.1089 20.5066 84.1089 22.1222C84.1089 23.8081 83.3362 25.1193 81.6737 25.1193Z" fill="#2F234F"/>
<path d="M95.2047 26.2666C93.5423 26.2666 92.6759 24.8149 92.6759 22.6374C92.6759 20.4598 93.5423 18.9847 95.2047 18.9847C96.8671 18.9847 97.7565 20.4598 97.7565 22.6374C97.7565 24.8149 96.8671 26.2666 95.2047 26.2666ZM95.2281 28.9827C99.0911 28.9827 101.62 26.2432 101.62 22.6374C101.62 19.0315 99.0911 16.292 95.2281 16.292C91.3881 16.292 88.8125 19.0315 88.8125 22.6374C88.8125 26.2432 91.3881 28.9827 95.2281 28.9827Z" fill="#2F234F"/>
<path d="M102.734 28.6077H106.551V16.6194H102.734V28.6077ZM102.734 14.9569H106.551V11.8662H102.734V14.9569Z" fill="#2F234F"/>
<path d="M108.203 32.5651H112.02V27.3671H112.067C112.816 28.3739 113.916 28.9827 115.462 28.9827C118.599 28.9827 120.683 26.5007 120.683 22.6139C120.683 19.0081 118.74 16.2686 115.555 16.2686C113.916 16.2686 112.746 16.9944 111.926 18.0715H111.856V16.6198H108.203V32.5651ZM114.478 26.0325C112.839 26.0325 111.903 24.6978 111.903 22.7544C111.903 20.811 112.746 19.3359 114.408 19.3359C116.047 19.3359 116.82 20.6939 116.82 22.7544C116.82 24.7915 115.93 26.0325 114.478 26.0325Z" fill="#2F234F"/>
<path d="M126.901 28.9827C130.038 28.9827 132.356 27.6247 132.356 25.0022C132.356 21.9349 129.874 21.3964 127.767 21.0451C126.245 20.7642 124.887 20.6471 124.887 19.8042C124.887 19.0549 125.613 18.7037 126.549 18.7037C127.603 18.7037 128.329 19.0315 128.469 20.1086H131.982C131.794 17.7437 129.968 16.2686 126.573 16.2686C123.74 16.2686 121.398 17.5798 121.398 20.1086C121.398 22.9183 123.623 23.4803 125.706 23.8315C127.299 24.1125 128.75 24.2295 128.75 25.3066C128.75 26.0793 128.024 26.5008 126.877 26.5008C125.613 26.5008 124.817 25.9154 124.676 24.7212H121.07C121.187 27.3671 123.388 28.9827 126.901 28.9827Z" fill="#2F234F"/>
<path d="M137.543 28.9596C139.205 28.9596 140.259 28.304 141.125 27.1333H141.195V28.6084H144.848V16.6201H141.032V23.3167C141.032 24.745 140.235 25.7284 138.924 25.7284C137.707 25.7284 137.121 25.0026 137.121 23.6913V16.6201H133.328V24.4874C133.328 27.1567 134.78 28.9596 137.543 28.9596Z" fill="#2F234F"/>
<path d="M146.508 28.6081H150.324V21.8881C150.324 20.4598 151.027 19.4529 152.221 19.4529C153.368 19.4529 153.907 20.2022 153.907 21.49V28.6081H157.723V21.8881C157.723 20.4598 158.402 19.4529 159.62 19.4529C160.767 19.4529 161.306 20.2022 161.306 21.49V28.6081H165.122V20.811C165.122 18.1183 163.764 16.2686 161.048 16.2686C159.503 16.2686 158.215 16.9242 157.279 18.3759H157.232C156.623 17.0881 155.429 16.2686 153.86 16.2686C152.127 16.2686 150.98 17.0881 150.231 18.329H150.16V16.6198H146.508V28.6081Z" fill="#2F234F"/>
<path fill-rule="evenodd" clip-rule="evenodd" d="M19.6137 39.3398C30.3901 39.3398 39.1259 30.6039 39.1259 19.8276C39.1259 9.05133 30.3901 0.31543 19.6137 0.31543C8.83745 0.31543 0.101562 9.05133 0.101562 19.8276C0.101562 30.6039 8.83745 39.3398 19.6137 39.3398ZM22.6254 15.3911C24.2886 13.7278 24.2886 11.0311 22.6254 9.36778C20.9621 7.70448 18.2654 7.70448 16.6021 9.36778C14.9389 11.0311 14.9389 13.7278 16.6021 15.3911L19.6137 18.4027L22.6254 15.3911ZM24.0503 22.8393C25.7136 24.5026 28.4103 24.5026 30.0736 22.8393C31.7368 21.176 31.7368 18.4793 30.0736 16.816C28.4103 15.1528 25.7136 15.1528 24.0503 16.816L21.0387 19.8277L24.0503 22.8393ZM22.6254 30.2875C24.2886 28.6242 24.2886 25.9275 22.6254 24.2642L19.6137 21.2526L16.6021 24.2642C14.9389 25.9275 14.9389 28.6242 16.6021 30.2875C18.2654 31.9508 20.9621 31.9508 22.6254 30.2875ZM9.15388 22.8393C7.49062 21.176 7.49062 18.4793 9.15388 16.816C10.8172 15.1528 13.5139 15.1528 15.1772 16.816L18.1888 19.8277L15.1772 22.8393C13.5139 24.5026 10.8172 24.5026 9.15388 22.8393Z" fill="#7F57F1"/>
</g>
<defs>
<clipPath id="clip0_603_27538">
<rect width="165.854" height="40" fill="white"/>
</clipPath>
</defs>
</svg>
