<svg width="91" height="35" viewBox="0 0 91 35" fill="none" xmlns="http://www.w3.org/2000/svg">
<path d="M18.5156 17.6405C18.5156 16.3806 19.2679 15.5029 20.4174 15.5029C21.567 15.5029 22.3192 16.3806 22.3192 17.6405C22.3192 18.8863 21.567 19.7781 20.4174 19.7781C19.2679 19.7781 18.5156 18.8863 18.5156 17.6405Z" fill="#152C4F"/>
<path d="M28.237 15.4463C27.1442 15.4463 26.4062 16.2956 26.4062 17.4565C26.4062 18.6314 27.1584 19.5091 28.237 19.5091C29.4292 19.5091 30.224 18.6173 30.224 17.4565C30.224 16.3098 29.4292 15.4463 28.237 15.4463Z" fill="#152C4F"/>
<path d="M34.5781 17.6405C34.5781 16.3806 35.3304 15.5029 36.4799 15.5029C37.6295 15.5029 38.3817 16.3806 38.3817 17.6405C38.3817 18.8863 37.6295 19.7781 36.4799 19.7781C35.3304 19.7781 34.5781 18.8863 34.5781 17.6405Z" fill="#152C4F"/>
<path d="M46.1406 17.6552C46.1406 16.3953 46.907 15.5176 48.1133 15.5176C49.3197 15.5176 50.0435 16.4094 50.0435 17.6552C50.0435 18.9009 49.3197 19.7786 48.1133 19.7786C46.907 19.7786 46.1406 18.9151 46.1406 17.6552Z" fill="#152C4F"/>
<path fill-rule="evenodd" clip-rule="evenodd" d="M45.421 32.45C69.5354 32.45 89.084 25.6079 89.084 17.1678C89.084 8.72775 69.5354 1.88574 45.421 1.88574C21.3065 1.88574 1.75781 8.72775 1.75781 17.1678C1.75781 25.6079 21.3065 32.45 45.421 32.45ZM15.715 21.1506V10.6184H13.9835V21.1506H15.715ZM16.7747 17.6399C16.7747 19.7916 18.2224 21.3205 20.4222 21.3205C22.6221 21.3205 24.0697 19.7916 24.0697 17.6399C24.0697 15.4881 22.6221 13.9593 20.4222 13.9593C18.2224 13.9593 16.7747 15.4881 16.7747 17.6399ZM27.9447 21.0091C25.9719 21.0091 24.652 19.5368 24.652 17.4983C24.652 15.4457 26.0003 13.9309 28.0014 13.9309C29.0375 13.9309 29.9174 14.3698 30.3432 15.1059L30.4425 14.1574H31.9753V20.7967C31.9753 23.1042 30.5277 24.5906 28.2569 24.5906C26.3267 24.5906 24.9217 23.4015 24.6946 21.5753H26.4403C26.5396 22.4955 27.2776 23.0193 28.3562 23.0193C29.5626 23.0193 30.2864 22.2548 30.2864 21.1081V19.9191C29.8464 20.5985 28.9665 21.0091 27.9447 21.0091ZM32.8322 17.6399C32.8322 19.7916 34.2798 21.3205 36.4796 21.3205C38.6795 21.3205 40.1271 19.7916 40.1271 17.6399C40.1271 15.4881 38.6795 13.9593 36.4796 13.9593C34.2798 13.9593 32.8322 15.4881 32.8322 17.6399ZM43.037 11.6943C43.037 12.2747 42.5687 12.7277 42.0009 12.7277C41.4191 12.7277 40.9791 12.2747 40.9791 11.6943C40.9791 11.128 41.4191 10.675 42.0009 10.675C42.5687 10.675 43.037 11.128 43.037 11.6943ZM42.8667 14.1574V21.1506H41.1352V14.1574H42.8667ZM44.3836 24.3924H46.0725V20.188C46.5125 20.91 47.4634 21.3346 48.5136 21.3346C50.5857 21.3346 51.8204 19.7492 51.792 17.5691C51.7495 15.3749 50.4864 13.9451 48.4994 13.9451C47.435 13.9451 46.4699 14.4123 46.0441 15.2192L45.9448 14.1574H44.3836V24.3924ZM55.0418 21.3346C53.3671 21.3346 52.2885 20.4428 52.2317 19.0555H53.8071C53.8071 19.6642 54.247 20.0181 55.0134 20.0181C55.6521 20.0181 56.1772 19.7633 56.1772 19.2112C56.1772 18.8148 55.8933 18.6025 55.4392 18.4751L54.2187 18.1637C52.8704 17.8098 52.3453 17.0595 52.3453 16.1535C52.3453 14.8228 53.4665 13.9451 54.9708 13.9451C56.4894 13.9451 57.5255 14.8228 57.5823 16.2101H56.0069C56.0069 15.6014 55.5811 15.2333 54.9283 15.2333C54.3038 15.2333 53.9206 15.5731 53.9206 16.0544C53.9206 16.5074 54.2754 16.6914 54.8005 16.833L56.0353 17.1302C57.1849 17.4134 57.8093 18.0929 57.8093 19.098C57.8093 20.457 56.6881 21.3346 55.0418 21.3346ZM61.401 21.3346C62.3516 21.3346 63.2598 20.8958 63.6715 20.2446L63.7853 21.1506H65.4031V14.1574H63.6715V17.8239C63.6715 19.0838 63.1889 19.7916 62.0537 19.7916C61.1739 19.7916 60.5636 19.3669 60.5636 17.923V14.1574H58.832V18.5317C58.832 20.2022 59.7403 21.3346 61.401 21.3346ZM68.6629 17.1302V21.1506H66.9313V14.1574H68.5206L68.606 14.9502C69.0177 14.3273 69.7558 13.9451 70.5786 13.9451C71.7423 13.9451 72.5088 14.4547 72.8921 15.2758C73.2329 14.4547 74.0703 13.9451 75.1347 13.9451C76.8379 13.9451 77.7315 14.9644 77.7315 16.5782V21.1506H76.0568V16.9745C76.0568 15.9836 75.518 15.4598 74.6806 15.4598C73.8572 15.4598 73.2045 15.9978 73.2045 17.1444V21.1506H71.5152V16.9745C71.5152 15.9836 70.9764 15.4598 70.153 15.4598C69.3301 15.4598 68.6629 15.9978 68.6629 17.1302Z" fill="#152C4F"/>
</svg>
