<svg width="132" height="31" viewBox="0 0 132 31" fill="none" xmlns="http://www.w3.org/2000/svg">
<g clip-path="url(#clip0_959_43032)">
<path d="M37.6328 22.4751H46.3453V19.9698H40.2895V8.27148H37.6328V22.4751Z" fill="#23216E"/>
<path d="M51.583 22.7709C52.638 22.7709 53.5659 22.5342 54.3668 22.0607C55.1742 21.5807 55.8026 20.9198 56.2519 20.0782C56.7077 19.2299 56.9356 18.2534 56.9356 17.1487C56.9356 16.0505 56.7109 15.0806 56.2617 14.2389C55.8123 13.3906 55.1839 12.7265 54.3765 12.2464C53.5756 11.7664 52.6445 11.5264 51.583 11.5264C50.5412 11.5264 49.6198 11.7631 48.8189 12.2366C48.018 12.71 47.3896 13.3709 46.9337 14.2192C46.4779 15.0608 46.25 16.0373 46.25 17.1487C46.25 18.2468 46.4714 19.22 46.9142 20.0683C47.3635 20.91 47.9886 21.5708 48.7895 22.0509C49.5905 22.5309 50.5217 22.7709 51.583 22.7709ZM51.583 20.2656C50.756 20.2656 50.1277 19.9861 49.698 19.4272C49.2746 18.8617 49.0631 18.1022 49.0631 17.1487C49.0631 16.2215 49.2649 15.4718 49.6686 14.8997C50.0788 14.3211 50.717 14.0317 51.583 14.0317C52.4231 14.0317 53.0547 14.3145 53.4779 14.88C53.9077 15.4455 54.1226 16.2017 54.1226 17.1487C54.1226 18.0627 53.911 18.8123 53.4877 19.3976C53.0709 19.9762 52.436 20.2656 51.583 20.2656Z" fill="#23216E"/>
<path d="M62.1844 22.7709C62.6794 22.7709 63.1351 22.7117 63.5519 22.5934C63.9752 22.475 64.3594 22.3073 64.7045 22.0903V23.1655C64.7175 23.56 64.6165 23.8888 64.4016 24.1518C64.1933 24.4214 63.9133 24.622 63.5617 24.7535C63.21 24.8916 62.8356 24.9607 62.4385 24.9607C62.0672 24.9607 61.7221 24.8785 61.4031 24.7141C61.0905 24.5497 60.8495 24.3097 60.6802 23.994L58.2189 25.1974C58.6226 25.8878 59.1989 26.4435 59.9477 26.8643C60.6966 27.2917 61.5203 27.5055 62.4189 27.5055C63.1938 27.5055 63.9133 27.4002 64.5775 27.1898C65.2417 26.986 65.8017 26.6737 66.2575 26.2528C66.7198 25.8319 67.0357 25.296 67.205 24.645C67.2635 24.4149 67.3026 24.1814 67.3222 23.9447C67.3482 23.7146 67.3612 23.468 67.3612 23.2049V11.8223H65.0366V12.4141C64.6784 12.1313 64.2714 11.9143 63.8156 11.7631C63.3663 11.6053 62.8682 11.5264 62.3212 11.5264C61.3119 11.5264 60.4328 11.7697 59.684 12.2563C58.9352 12.7429 58.3524 13.4103 57.9356 14.2586C57.5254 15.1003 57.3203 16.0637 57.3203 17.1487C57.3203 18.2139 57.5222 19.1707 57.9259 20.019C58.3361 20.8672 58.9058 21.538 59.6351 22.0312C60.3644 22.5243 61.2142 22.7709 62.1844 22.7709ZM62.6142 20.3839C62.0412 20.3839 61.5724 20.2392 61.2077 19.9499C60.8431 19.6606 60.5728 19.2726 60.3971 18.786C60.2212 18.2928 60.1333 17.7471 60.1333 17.1487C60.1333 16.5568 60.2245 16.0176 60.4068 15.531C60.5892 15.0378 60.8691 14.6466 61.2468 14.3572C61.631 14.0613 62.1194 13.9134 62.7119 13.9134C63.5454 13.9134 64.1412 14.2126 64.4993 14.811C64.8575 15.4028 65.0366 16.182 65.0366 17.1487C65.0366 18.1153 64.8542 18.8978 64.4896 19.4962C64.1314 20.088 63.5064 20.3839 62.6142 20.3839Z" fill="#23216E"/>
<path d="M73.6768 22.7709C74.7317 22.7709 75.6596 22.5342 76.4605 22.0607C77.2678 21.5807 77.8963 20.9198 78.3453 20.0782C78.8011 19.2299 79.0291 18.2534 79.0291 17.1487C79.0291 16.0505 78.805 15.0806 78.3553 14.2389C77.9063 13.3906 77.2778 12.7265 76.4703 12.2464C75.6694 11.7664 74.7382 11.5264 73.6768 11.5264C72.6349 11.5264 71.7135 11.7631 70.9126 12.2366C70.1117 12.71 69.4833 13.3709 69.0275 14.2192C68.5717 15.0608 68.3438 16.0373 68.3438 17.1487C68.3438 18.2468 68.5652 19.22 69.008 20.0683C69.4572 20.91 70.0824 21.5708 70.8833 22.0509C71.6843 22.5309 72.6154 22.7709 73.6768 22.7709ZM73.6768 20.2656C72.8498 20.2656 72.2214 19.9861 71.7916 19.4272C71.3684 18.8617 71.1568 18.1022 71.1568 17.1487C71.1568 16.2215 71.3586 15.4718 71.7624 14.8997C72.1726 14.3211 72.8107 14.0317 73.6768 14.0317C74.5168 14.0317 75.1484 14.3145 75.5717 14.88C76.0014 15.4455 76.2163 16.2017 76.2163 17.1487C76.2163 18.0627 76.0047 18.8123 75.5814 19.3976C75.1647 19.9762 74.5298 20.2656 73.6768 20.2656Z" fill="#23216E"/>
<path d="M80.1953 10.3428H82.8522V7.97559H80.1953V10.3428ZM80.1953 22.4751H82.8522V11.8224H80.1953V22.4751Z" fill="#23216E"/>
<path d="M84.5938 27.2096H87.2698V22.0903C87.6152 22.3073 87.9958 22.475 88.4125 22.5934C88.8362 22.7117 89.2951 22.7709 89.7901 22.7709C90.7601 22.7709 91.6105 22.5243 92.3395 22.0312C93.0686 21.538 93.635 20.8672 94.0387 20.019C94.4492 19.1707 94.6541 18.2139 94.6541 17.1487C94.6541 16.0637 94.4462 15.1003 94.0294 14.2586C93.6189 13.4103 93.0394 12.7429 92.2904 12.2563C91.5414 11.7697 90.6627 11.5264 89.6535 11.5264C89.1063 11.5264 88.6052 11.6053 88.1493 11.7631C87.6996 11.9143 87.2959 12.1313 86.9383 12.4141V11.8223H84.5938V27.2096ZM89.3603 20.3839C88.4747 20.3839 87.85 20.088 87.4847 19.4962C87.1202 18.8978 86.9383 18.1153 86.9383 17.1487C86.9383 16.182 87.1171 15.4028 87.4755 14.811C87.84 14.2126 88.4356 13.9134 89.2629 13.9134C89.8553 13.9134 90.3404 14.0613 90.7179 14.3572C91.1024 14.6466 91.3856 15.0378 91.5675 15.531C91.7501 16.0176 91.8415 16.5568 91.8415 17.1487C91.8415 17.7471 91.7532 18.2928 91.5775 18.786C91.4017 19.2726 91.1316 19.6606 90.7671 19.9499C90.4025 20.2392 89.9336 20.3839 89.3603 20.3839Z" fill="#23216E"/>
<path d="M99.4661 22.7709C100.846 22.7709 101.927 22.4586 102.709 21.8339C103.49 21.2091 103.88 20.3511 103.88 19.2595C103.88 18.4309 103.626 17.7767 103.119 17.2966C102.617 16.8166 101.765 16.4187 100.56 16.1031C99.7393 15.8926 99.1269 15.7217 98.7232 15.5902C98.3264 15.4587 98.0624 15.3305 97.932 15.2055C97.8084 15.0806 97.747 14.9261 97.747 14.7419C97.747 14.4328 97.8928 14.1962 98.186 14.0317C98.486 13.8673 98.8797 13.8016 99.3678 13.8345C100.403 13.9134 100.97 14.3605 101.068 15.1759L103.783 14.6827C103.646 13.7161 103.177 12.95 102.376 12.3845C101.576 11.8124 100.554 11.5264 99.3095 11.5264C98.0332 11.5264 97.0141 11.8288 96.252 12.4338C95.4907 13.0388 95.1093 13.8542 95.1093 14.88C95.1093 15.6954 95.3733 16.3398 95.9005 16.8133C96.4278 17.2802 97.3364 17.6813 98.6257 18.0167C99.3878 18.2205 99.9473 18.3849 100.306 18.5098C100.67 18.6347 100.905 18.763 101.009 18.8945C101.113 19.0195 101.165 19.1872 101.165 19.3976C101.165 19.7329 101.035 19.996 100.775 20.1867C100.514 20.3707 100.143 20.4628 99.661 20.4628C99.0747 20.4628 98.5896 20.3215 98.2059 20.0387C97.8283 19.7559 97.5835 19.3647 97.473 18.8649L94.7578 19.2792C94.9336 20.3905 95.4286 21.2519 96.2428 21.8635C97.0632 22.4684 98.1376 22.7709 99.4661 22.7709Z" fill="#23216E"/>
<path d="M108.778 22.7907C109.54 22.7907 110.204 22.6624 110.771 22.406C111.338 22.1495 111.813 21.8076 112.197 21.3802V22.475H114.541V11.8223H111.865V17.2276C111.865 17.8852 111.79 18.4177 111.64 18.8255C111.497 19.2266 111.312 19.5324 111.084 19.7428C110.856 19.9467 110.612 20.0847 110.351 20.1571C110.091 20.2294 109.846 20.2656 109.619 20.2656C109.052 20.2656 108.612 20.1373 108.3 19.8809C107.994 19.6244 107.772 19.3055 107.635 18.9241C107.499 18.5427 107.418 18.1646 107.391 17.7898C107.365 17.4084 107.352 17.0961 107.352 16.8527V11.8223H104.656V17.7997C104.656 17.9772 104.669 18.26 104.695 18.6479C104.721 19.0359 104.797 19.4666 104.92 19.9401C105.044 20.4069 105.249 20.8574 105.536 21.2914C105.829 21.7254 106.236 22.0837 106.757 22.3665C107.277 22.6492 107.952 22.7907 108.778 22.7907Z" fill="#23216E"/>
<path d="M116.078 22.4746H118.754V16.0238C118.754 15.4123 118.92 14.9158 119.252 14.5344C119.591 14.1464 120.037 13.9524 120.591 13.9524C121.17 13.9524 121.623 14.1497 121.948 14.5443C122.28 14.9323 122.446 15.478 122.446 16.1816V22.4746H125.103V16.0238C125.103 15.4123 125.269 14.9158 125.601 14.5344C125.94 14.1464 126.386 13.9524 126.939 13.9524C127.519 13.9524 127.971 14.1497 128.297 14.5443C128.629 14.9323 128.795 15.478 128.795 16.1816V22.4746H131.452V15.4714C131.452 14.3075 131.142 13.3672 130.524 12.6504C129.912 11.9271 129.003 11.5654 127.798 11.5654C127.122 11.5654 126.5 11.7134 125.933 12.0093C125.366 12.3052 124.914 12.7096 124.575 13.2225C124.302 12.7228 123.911 12.3217 123.403 12.0192C122.895 11.7167 122.264 11.5654 121.509 11.5654C120.87 11.5654 120.284 11.6937 119.75 11.9501C119.216 12.2 118.773 12.5453 118.422 12.9858V11.8219H116.078V22.4746Z" fill="#23216E"/>
<path d="M15.3488 0C6.8719 0 0 6.93958 0 15.5C8.47693 15.5 15.3488 8.56042 15.3488 0Z" fill="#45D2B0"/>
<path d="M15.3516 31C23.8285 31 30.7004 24.0604 30.7004 15.5C22.2235 15.5 15.3516 22.4396 15.3516 31Z" fill="#45D2B0"/>
<path d="M15.3516 0C23.8285 0 30.7004 6.93958 30.7004 15.5C22.2235 15.5 15.3516 8.56042 15.3516 0Z" fill="#23216E"/>
<path d="M15.3488 31C6.8719 31 -7.41076e-07 24.0604 0 15.5C8.47693 15.5 15.3488 22.4396 15.3488 31Z" fill="#23216E"/>
</g>
<defs>
<clipPath id="clip0_959_43032">
<rect width="132" height="31" fill="white"/>
</clipPath>
</defs>
</svg>
