<svg width="80" height="41" viewBox="0 0 80 41" fill="none" xmlns="http://www.w3.org/2000/svg">
<path d="M20.7812 20.486L20.9411 20.4521H34.2351L39.2305 25.4475H25.743L20.7812 20.486Z" fill="black"/>
<path d="M16.4954 20.4521L3.00781 20.4522L8.00319 25.4476H16.4953L16.4954 20.4521Z" fill="black"/>
<path d="M43.8672 6.10156H45.9389V12.5389H49.497V14.2828H43.8672V6.10156Z" fill="black"/>
<path d="M53.2537 14.4584C52.5592 14.4584 51.9509 14.3335 51.4277 14.0838C50.9049 13.8263 50.4992 13.4753 50.2105 13.0305C49.9295 12.5779 49.7891 12.059 49.7891 11.4738C49.7891 10.8886 49.9295 10.3736 50.2105 9.92887C50.4992 9.47632 50.9049 9.12518 51.4277 8.87553C51.9509 8.61797 52.5592 8.48926 53.2537 8.48926C53.9482 8.48926 54.557 8.61797 55.0797 8.87553C55.6024 9.12518 56.0042 9.47632 56.2851 9.92887C56.5739 10.3736 56.7183 10.8886 56.7183 11.4738C56.7183 12.059 56.5739 12.5779 56.2851 13.0305C56.0042 13.4753 55.6024 13.8263 55.0797 14.0838C54.557 14.3335 53.9482 14.4584 53.2537 14.4584ZM53.2537 12.8549C53.6672 12.8549 53.9952 12.734 54.2369 12.4921C54.4865 12.2424 54.6113 11.903 54.6113 11.4738C54.6113 11.0447 54.4865 10.7091 54.2369 10.4672C53.9952 10.2176 53.6672 10.0927 53.2537 10.0927C52.8401 10.0927 52.5088 10.2176 52.2587 10.4672C52.0169 10.7091 51.8961 11.0447 51.8961 11.4738C51.8961 11.903 52.0169 12.2424 52.2587 12.4921C52.5088 12.734 52.8401 12.8549 53.2537 12.8549Z" fill="black"/>
<path d="M60.5857 16.9748C60.2113 16.9748 59.833 16.9397 59.4502 16.8694C59.0758 16.7992 58.7524 16.7056 58.4793 16.5885V15.1606C59.0955 15.4259 59.7978 15.5586 60.5857 15.5586C61.1554 15.5586 61.565 15.4415 61.8146 15.2074C62.0721 14.9734 62.2008 14.6301 62.2008 14.1775V13.838C61.9747 14.0331 61.6938 14.1853 61.3585 14.2945C61.0306 14.4038 60.6792 14.4584 60.3048 14.4584C59.7121 14.4584 59.1889 14.3335 58.7368 14.0838C58.284 13.8342 57.9292 13.483 57.6712 13.0305C57.4216 12.5779 57.2969 12.059 57.2969 11.4738C57.2969 10.8808 57.4216 10.358 57.6712 9.90545C57.9214 9.4529 58.2722 9.1057 58.725 8.86378C59.1772 8.61411 59.6965 8.48926 60.2813 8.48926C61.0854 8.48926 61.7486 8.73505 62.2713 9.22659V8.66481H64.2608V13.8966C64.2608 14.8719 63.9608 15.6288 63.3598 16.1672C62.7665 16.7056 61.8421 16.9748 60.5857 16.9748ZM60.8196 12.8666C61.1398 12.8666 61.4246 12.7847 61.6742 12.6208C61.9237 12.4569 62.0995 12.2385 62.2008 11.9654V10.9823C62.0916 10.7091 61.912 10.4946 61.6624 10.3385C61.4128 10.1747 61.1319 10.0927 60.8196 10.0927C60.3988 10.0927 60.0592 10.2176 59.8017 10.4672C59.5442 10.7091 59.4155 11.0408 59.4155 11.4621C59.4155 11.8912 59.5442 12.2346 59.8017 12.4921C60.0592 12.7418 60.3988 12.8666 60.8196 12.8666Z" fill="black"/>
<path d="M68.2536 14.4584C67.5591 14.4584 66.9503 14.3335 66.4276 14.0838C65.9049 13.8263 65.4992 13.4753 65.2105 13.0305C64.9295 12.5779 64.7891 12.059 64.7891 11.4738C64.7891 10.8886 64.9295 10.3736 65.2105 9.92887C65.4992 9.47632 65.9049 9.12518 66.4276 8.87553C66.9503 8.61797 67.5591 8.48926 68.2536 8.48926C68.9481 8.48926 69.5565 8.61797 70.0797 8.87553C70.6024 9.12518 71.0042 9.47632 71.2851 9.92887C71.5739 10.3736 71.7183 10.8886 71.7183 11.4738C71.7183 12.059 71.5739 12.5779 71.2851 13.0305C71.0042 13.4753 70.6024 13.8263 70.0797 14.0838C69.5565 14.3335 68.9481 14.4584 68.2536 14.4584ZM68.2536 12.8549C68.6672 12.8549 68.9946 12.734 69.2369 12.4921C69.4865 12.2424 69.6113 11.903 69.6113 11.4738C69.6113 11.0447 69.4865 10.7091 69.2369 10.4672C68.9946 10.2176 68.6672 10.0927 68.2536 10.0927C67.8401 10.0927 67.5082 10.2176 67.2586 10.4672C67.0169 10.7091 66.896 11.0447 66.896 11.4738C66.896 11.903 67.0169 12.2424 67.2586 12.4921C67.5082 12.734 67.8401 12.8549 68.2536 12.8549Z" fill="black"/>
<path d="M43.8672 17.2939H45.9389V25.4752H43.8672V17.2939Z" fill="black"/>
<path d="M46.9844 19.8562H48.9739V20.418C49.4966 19.9265 50.1603 19.6807 50.9639 19.6807C51.5487 19.6807 52.0681 19.8055 52.5202 20.0552C52.9729 20.2971 53.3238 20.6443 53.5739 21.0968C53.8236 21.5416 53.9483 22.0605 53.9483 22.6535C53.9483 23.2387 53.8236 23.7615 53.5739 24.2218C53.3238 24.6744 52.9729 25.0256 52.5202 25.2752C52.0759 25.5249 51.5565 25.6497 50.9639 25.6497C50.589 25.6497 50.2303 25.5912 49.8872 25.4742C49.5514 25.365 49.2705 25.2128 49.0445 25.0177V28.0374H46.9844V19.8562ZM50.4256 24.0463C50.8469 24.0463 51.1861 23.9215 51.4435 23.6717C51.7009 23.4221 51.8297 23.0826 51.8297 22.6535C51.8297 22.2244 51.7009 21.8888 51.4435 21.6469C51.1861 21.3972 50.8469 21.2724 50.4256 21.2724C50.1133 21.2724 49.8324 21.3544 49.5828 21.5182C49.3331 21.6742 49.1535 21.8888 49.0445 22.1619V23.1567C49.1535 23.4299 49.3331 23.6483 49.5828 23.8122C49.8324 23.9683 50.1133 24.0463 50.4256 24.0463Z" fill="black"/>
<path d="M57.0243 25.6497C56.5715 25.6497 56.0992 25.6029 55.6079 25.5093C55.1166 25.4235 54.7259 25.2987 54.4377 25.1348V23.625C54.7572 23.8122 55.1395 23.9683 55.5844 24.0931C56.0371 24.2102 56.4506 24.2687 56.825 24.2687C57.0982 24.2687 57.2974 24.2491 57.4222 24.2102C57.5469 24.1711 57.6091 24.0931 57.6091 23.976C57.6091 23.8824 57.5666 23.8083 57.4804 23.7537C57.4025 23.6913 57.2543 23.6288 57.036 23.5664C56.825 23.4962 56.5794 23.4221 56.2984 23.344C55.8222 23.2036 55.4478 23.0592 55.1747 22.9109C54.9016 22.7627 54.699 22.5755 54.5664 22.3492C54.4337 22.1229 54.3672 21.838 54.3672 21.4947C54.3672 20.8862 54.605 20.4336 55.0812 20.1372C55.5648 19.8328 56.2245 19.6807 57.059 19.6807C57.4647 19.6807 57.89 19.7236 58.3349 19.8094C58.7876 19.8952 59.1268 20.0084 59.3534 20.1488V21.6352C59.1189 21.4792 58.8072 21.3504 58.4172 21.249C58.0344 21.1476 57.6756 21.0968 57.3398 21.0968C57.0747 21.0968 56.8681 21.1241 56.7198 21.1787C56.5715 21.2256 56.4977 21.3115 56.4977 21.4363C56.4977 21.5533 56.5715 21.643 56.7198 21.7054C56.8681 21.7679 57.1334 21.8459 57.5156 21.9395C57.7652 22.0019 57.8709 22.0293 57.8317 22.0215C58.331 22.1541 58.7171 22.3023 58.9902 22.4662C59.2633 22.6301 59.4547 22.8251 59.5638 23.0515C59.6808 23.2699 59.7396 23.5508 59.7396 23.8941C59.7396 24.4325 59.5056 24.8617 59.0372 25.1816C58.5766 25.4937 57.9056 25.6497 57.0243 25.6497Z" fill="black"/>
<path d="M62.8174 25.6509C62.0451 25.6509 61.4637 25.4364 61.0736 25.0073C60.6914 24.5781 60.5 24.0124 60.5 23.3101V19.8574H62.56V23.076C62.56 23.7237 62.8526 24.0475 63.4375 24.0475C63.7032 24.0475 63.945 23.9851 64.1633 23.8602C64.3821 23.7354 64.5612 23.552 64.7016 23.3101V19.8574H66.7616V25.4754H64.7721V24.8667C64.5303 25.1243 64.2377 25.3194 63.8941 25.452C63.551 25.5846 63.1918 25.6509 62.8174 25.6509Z" fill="black"/>
<path d="M67.8125 19.8562H69.7202V20.4648C69.9541 20.2151 70.2233 20.024 70.5278 19.8913C70.8322 19.7508 71.1562 19.6807 71.4993 19.6807C71.9206 19.6807 72.2564 19.743 72.506 19.8679C72.7634 19.9928 72.9699 20.18 73.126 20.4297C73.36 20.1956 73.6448 20.0122 73.9806 19.8796C74.3158 19.747 74.6555 19.6807 74.9985 19.6807C75.7401 19.6807 76.2667 19.8718 76.5789 20.2541C76.8912 20.6287 77.0473 21.1709 77.0473 21.881V25.4742H75.0808V22.1737C75.0808 21.8615 75.022 21.6352 74.9051 21.4947C74.7881 21.3544 74.5928 21.2841 74.3197 21.2841C73.9688 21.2841 73.684 21.409 73.4657 21.6586C73.4736 21.7913 73.4775 21.9942 73.4775 22.2673V25.4742H71.511V22.0917C71.511 21.803 71.4601 21.5962 71.3587 21.4714C71.2575 21.3465 71.0779 21.2841 70.8204 21.2841C70.4225 21.2841 70.0789 21.5065 69.7907 21.9512V25.4742H67.8125V19.8562Z" fill="black"/>
<path d="M20.9321 20.4514L20.7722 20.4853L25.7337 25.4468V38.9344H21.4876L16.4922 33.939H20.7383V20.4513H16.4922V16.2054H20.7383V2.71777L25.7337 7.71316V16.2053L20.7383 16.2054V20.4513L20.9321 20.4514Z" fill="#555555"/>
<path d="M34.2266 20.4512L39.222 25.4466V21.2005L34.2266 16.2051V20.4512Z" fill="#555555"/>
<path d="M44.1641 29.3154H47.1954C48.0536 29.3154 48.7206 29.5183 49.1969 29.9241C49.6803 30.3298 49.9227 30.9306 49.9227 31.7265C49.9227 32.5302 49.6843 33.131 49.2086 33.529C48.7323 33.9269 48.0614 34.1259 47.1954 34.1259H45.077V37.4967H44.1641V29.3154ZM47.1252 33.3534C47.7105 33.3534 48.1711 33.2364 48.5063 33.0023C48.842 32.7604 49.0094 32.3352 49.0094 31.7265C49.0094 31.1101 48.842 30.6848 48.5063 30.4508C48.1711 30.2089 47.7105 30.088 47.1252 30.088H45.077V33.3534H47.1252Z" fill="#555555"/>
<path d="M51.0859 28.8477H51.9869V37.4971H51.0859V28.8477Z" fill="#555555"/>
<path d="M55.8916 37.6735C55.1423 37.6735 54.5648 37.4706 54.159 37.0648C53.7611 36.6591 53.5625 36.1168 53.5625 35.438V31.8799H54.4635V35.4848C54.4635 36.468 54.9744 36.9595 55.9968 36.9595C56.4261 36.9595 56.8004 36.8659 57.1206 36.6787C57.448 36.4913 57.7406 36.1948 57.9981 35.7891V31.8799H58.8996V37.4979H58.0216V36.6552C57.5145 37.334 56.8044 37.6735 55.8916 37.6735Z" fill="#555555"/>
<path d="M62.5011 37.6723C62.134 37.6723 61.7401 37.6176 61.3187 37.5084C60.8973 37.4069 60.5699 37.2782 60.3354 37.1221V36.3614C60.632 36.5409 60.9717 36.6852 61.3539 36.7944C61.7439 36.9037 62.1183 36.9582 62.4776 36.9582C62.9611 36.9582 63.3087 36.8919 63.5191 36.7593C63.7379 36.6188 63.847 36.4121 63.847 36.139C63.847 35.9283 63.8 35.7645 63.7066 35.6474C63.6125 35.5225 63.457 35.4133 63.2382 35.3197C63.0199 35.226 62.6803 35.1168 62.2202 34.992C61.7675 34.8672 61.4049 34.7384 61.1317 34.6058C60.8665 34.4652 60.6633 34.2897 60.5229 34.079C60.3824 33.8684 60.3125 33.5992 60.3125 33.2715C60.3125 32.7643 60.5151 32.378 60.9208 32.1128C61.3344 31.8396 61.8805 31.7031 62.5594 31.7031C62.9259 31.7031 63.2695 31.7382 63.5896 31.8084C63.917 31.8708 64.1901 31.9606 64.4089 32.0777V32.8384C64.1822 32.7136 63.9091 32.616 63.5896 32.5458C63.2695 32.4678 62.9376 32.4287 62.5946 32.4287C62.1418 32.4287 61.7988 32.4951 61.5643 32.6277C61.3304 32.7604 61.2135 32.975 61.2135 33.2715C61.2135 33.4744 61.2526 33.6304 61.3304 33.7396C61.4166 33.8488 61.5682 33.9503 61.7871 34.0439C62.0131 34.1298 62.3724 34.239 62.8638 34.3716C63.5661 34.5667 64.0535 34.7969 64.3266 35.0623C64.6075 35.3197 64.748 35.6787 64.748 36.139C64.748 36.6149 64.5611 36.9895 64.1861 37.2626C63.8196 37.5357 63.2577 37.6723 62.5011 37.6723Z" fill="#555555"/>
</svg>
