<svg width="21" height="20" viewBox="0 0 21 20" fill="none" xmlns="http://www.w3.org/2000/svg">
<path d="M17.8437 8.33301C17.8437 14.1663 10.3437 19.1663 10.3437 19.1663C10.3437 19.1663 2.84375 14.1663 2.84375 8.33301C2.84375 6.34388 3.63393 4.43623 5.04045 3.02971C6.44697 1.62318 8.35463 0.833008 10.3437 0.833008C12.3329 0.833008 14.2405 1.62318 15.647 3.02971C17.0536 4.43623 17.8437 6.34388 17.8437 8.33301Z" stroke="#CCCCCC" stroke-width="1.5" stroke-linecap="round" stroke-linejoin="round"/>
<path d="M10.3438 10.833C11.7245 10.833 12.8438 9.71372 12.8438 8.33301C12.8438 6.9523 11.7245 5.83301 10.3438 5.83301C8.96304 5.83301 7.84375 6.9523 7.84375 8.33301C7.84375 9.71372 8.96304 10.833 10.3438 10.833Z" stroke="#CCCCCC" stroke-width="1.5" stroke-linecap="round" stroke-linejoin="round"/>
</svg>
