<svg width="64" height="64" viewBox="0 0 64 64" fill="none" xmlns="http://www.w3.org/2000/svg">
<circle cx="32" cy="32" r="32" fill="white"/>
<path d="M20.0698 34.0438L19.8074 34.7464L19.8552 34.7643L19.905 34.7755L20.0698 34.0438ZM32.6154 48.3009L31.9854 47.8941L31.9809 47.9009L31.9767 47.9079L32.6154 48.3009ZM32.1171 47.1092L32.2135 46.3655L32.1171 47.1092ZM37.4039 41.5407L38.0416 41.9355L37.4039 41.5407ZM39.2023 32.5705L38.672 33.1008L39.2023 32.5705ZM37.785 31.0319L38.0294 30.3229L37.785 31.0319ZM37.3216 31.105L36.8709 30.5056L37.3216 31.105ZM39.2643 32.0984L39.9817 32.3171L39.2643 32.0984ZM38.9429 31.431L38.6986 32.1401L38.9429 31.431ZM40.0759 34.9562L39.8387 35.6677L40.0759 34.9562ZM39.7459 34.5934L39.0154 34.7632L39.7459 34.5934ZM41.1717 35.7632L40.4312 35.6443L41.1717 35.7632ZM40.8362 35.2096L40.599 35.9211L40.8362 35.2096ZM40.6487 37.185L40.85 37.9074L40.6487 37.185ZM41.0081 36.7825L41.7486 36.9014L41.0081 36.7825ZM39.538 37.6742L40.2164 37.9942L39.538 37.6742ZM39.856 37.4059L39.6547 36.6834L39.856 37.4059ZM39.3373 38.8642L38.8014 39.3889L39.3373 38.8642ZM39.2423 38.3011L39.9207 38.621L39.2423 38.3011ZM39.9994 39.9542L39.2979 39.689L39.9994 39.9542ZM39.889 39.4276L40.4249 38.9029L39.889 39.4276ZM39.0113 41.3283L38.8346 42.0572L39.0113 41.3283ZM39.5968 41.0192L38.8953 40.754L39.5968 41.0192ZM37.9514 41.0925L37.8005 40.3578L37.9514 41.0925ZM38.0686 41.0998L38.2453 40.3709L38.0686 41.0998ZM35.9019 42.2807L36.5674 42.6267L35.9019 42.2807ZM36.3346 41.9958L36.246 41.2511L36.3346 41.9958ZM35.0501 42.9206L34.7576 43.6112L35.0501 42.9206ZM35.6887 42.6909L35.0232 42.3449L35.6887 42.6909ZM33.7714 41.8868L33.0565 41.6601L33.7714 41.8868ZM34.053 42.4983L33.7605 43.1889L34.053 42.4983ZM28.3991 44.9781L29.1382 45.1055L28.3991 44.9781ZM28.3924 45.0802L29.1416 45.0441L28.3924 45.0802ZM28.7519 40.4896L28.5006 41.1963L28.7519 40.4896ZM29.0771 41.0457L28.338 40.9183L29.0771 41.0457ZM27.0175 40.3782L27.7113 40.6631L27.0175 40.3782ZM27.6476 40.097L27.3963 40.8037L27.6476 40.097ZM25.112 45.8717L25.6228 45.3225L25.112 45.8717ZM24.99 45.3156L25.6838 45.6005L24.99 45.3156ZM25.6439 46.8292L24.9594 46.5227L25.6439 46.8292ZM25.5281 46.2588L25.0173 46.8079L25.5281 46.2588ZM25.0295 48.2009L25.7139 48.5075L25.0295 48.2009ZM23.9166 48.6459L24.5788 48.9981L23.9166 48.6459ZM22.4212 51.4094L22.9492 51.9421L22.4212 51.4094ZM22.5107 51.2891L23.1728 51.6413L22.5107 51.2891ZM19.722 53.6609L20.0006 52.9646L19.722 53.6609ZM20.2597 53.5518L19.7317 53.0191L20.2597 53.5518ZM18.0733 53.4506L17.4327 53.0604L18.0733 53.4506ZM18.686 53.2465L18.9645 52.5502L18.686 53.2465ZM16.7112 54.6841L17.1286 54.0609L16.7112 54.6841ZM17.4165 54.5287L16.776 54.1385L17.4165 54.5287ZM15.0249 52.9856L14.38 52.6027L15.0249 52.9856ZM15.1766 53.6563L14.7593 54.2795L15.1766 53.6563ZM15.357 52.4263L14.7121 52.0434L15.357 52.4263ZM14.8199 50.9348L14.1773 50.548L14.8199 50.9348ZM14.9834 51.6166L14.5859 52.2526L14.9834 51.6166ZM21.081 39.4297L21.3765 38.7404L21.081 39.4297ZM21.3125 40.1471L20.6699 39.7604L21.3125 40.1471ZM19.1162 38.3871L18.3951 38.5931L19.1162 38.3871ZM19.4 38.7093L19.1046 39.3986L19.4 38.7093ZM18.0025 37.7965L17.6626 38.4651L18.0025 37.7965ZM16.9055 37.0816L16.1967 37.3269L16.9055 37.0816ZM17.1513 37.3637L16.8114 38.0323L17.1513 37.3637ZM16.6057 36.0154L15.8684 35.878L16.6057 36.0154ZM16.6248 36.2707L17.3335 36.0253L16.6248 36.2707ZM16.9011 34.768L17.4812 35.2434L16.9011 34.768ZM16.7963 34.9933L16.059 34.8558L16.7963 34.9933ZM21.7578 33.975L22.4635 34.2291L21.7578 33.975ZM21.1774 34.2934L21.3423 33.5618L21.1774 34.2934ZM21.5544 33.126L21.8378 32.4316L21.5544 33.126ZM21.8359 33.7582L22.5415 34.0123L21.8359 33.7582ZM21.0451 32.4514L21.7715 32.6379L21.0451 32.4514ZM21.8489 31.4239L21.6291 32.1409L21.8489 31.4239ZM22.0372 31.4816L22.257 30.7645L22.0372 31.4816ZM23.1856 30.9779L22.9318 31.6836L23.1856 30.9779ZM24.7637 31.5452L24.5099 32.251L24.7637 31.5452ZM25.5818 31.8811L25.0225 31.3815L25.5818 31.8811ZM28.3434 29.191L28.5253 28.4633L28.3434 29.191ZM27.8493 29.3429L27.2899 28.8433L27.8493 29.3429ZM30.171 29.6479L30.3529 28.9203L30.171 29.6479ZM30.6316 27.941L31.1405 27.3901L30.6316 27.941ZM25.1557 22.728L25.8987 22.6261L25.1557 22.728ZM25.3118 23.0273L25.8207 22.4764L25.3118 23.0273ZM24.0463 15.2932L24.5991 14.7864L24.0463 15.2932ZM24.1731 15.5631L24.9161 15.4612L24.1731 15.5631ZM23.1869 14.2285L22.445 14.3382L23.1869 14.2285ZM23.3129 14.4932L22.7601 15L23.3129 14.4932ZM38.0616 9.49246L37.315 9.56394L38.0616 9.49246ZM37.4827 9.04674L37.361 8.30668L37.4827 9.04674ZM38.2783 11.9957L37.5445 11.8409L38.2783 11.9957ZM38.2868 11.8449L39.0334 11.7734L38.2868 11.8449ZM37.9648 13.6632L38.7024 13.5277L37.9648 13.6632ZM37.9673 13.4696L38.7012 13.6245L37.9673 13.4696ZM33.7657 41.2277L34.371 40.7849L33.7657 41.2277ZM33.8388 41.6741L34.5537 41.9008L33.8388 41.6741ZM39.0981 20.5626L38.4638 20.1624L39.0981 20.5626ZM39.167 20.2054L38.4293 20.341L39.167 20.2054ZM32.343 40.6585L33.0668 40.8551L32.343 40.6585ZM33.229 40.4943L32.6238 40.9372L33.229 40.4943ZM34.426 27.9673L35.0603 28.3675L34.426 27.9673ZM31.1167 45.2011L31.8644 45.26L31.1167 45.2011ZM31.1315 45.1183L31.8552 45.3149L31.1315 45.1183ZM34.4399 29.9326L33.8265 30.3641L34.4399 29.9326ZM18.4332 33.4323L18.6957 32.7298L18.4332 33.4323ZM17.8714 33.5838L18.4516 34.0592L17.8714 33.5838ZM36.3888 31.8065L35.938 31.207L36.3888 31.8065ZM36.2928 31.263L35.0534 29.5011L33.8265 30.3641L35.0659 32.126L36.2928 31.263ZM35.0989 29.6449V28.2341H33.5989V29.6449H35.0989ZM35.0603 28.3675L39.7324 20.9628L38.4638 20.1624L33.7917 27.567L35.0603 28.3675ZM39.9046 20.0699L38.7024 13.5277L37.2271 13.7988L38.4293 20.341L39.9046 20.0699ZM38.7012 13.6245L39.0122 12.1506L37.5445 11.8409L37.2335 13.3148L38.7012 13.6245ZM39.0334 11.7734L38.8082 9.42098L37.315 9.56394L37.5402 11.9163L39.0334 11.7734ZM37.361 8.30668L23.142 10.645L23.3854 12.1251L37.6044 9.7868L37.361 8.30668ZM22.1083 12.0613L22.445 14.3382L23.9288 14.1188L23.5922 11.8419L22.1083 12.0613ZM22.7601 15L23.4934 15.8L24.5991 14.7864L23.8658 13.9864L22.7601 15ZM23.43 15.665L24.4126 22.8299L25.8987 22.6261L24.9161 15.4612L23.43 15.665ZM24.8029 23.5783L30.1227 28.492L31.1405 27.3901L25.8207 22.4764L24.8029 23.5783ZM30.0423 28.3083V29.1628H31.5423V28.3083H30.0423ZM30.3529 28.9203L28.5253 28.4633L28.1615 29.9186L29.9891 30.3755L30.3529 28.9203ZM27.2899 28.8433L25.0225 31.3815L26.1411 32.3808L28.4086 29.8426L27.2899 28.8433ZM25.0174 30.8395L23.4393 30.2721L22.9318 31.6836L24.5099 32.251L25.0174 30.8395ZM22.257 30.7645L22.0688 30.7068L21.6291 32.1409L21.8174 32.1987L22.257 30.7645ZM20.4917 31.5911L20.3187 32.2648L21.7715 32.6379L21.9445 31.9641L20.4917 31.5911ZM21.057 33.733L21.2709 33.8203L21.8378 32.4316L21.6239 32.3442L21.057 33.733ZM21.1302 33.5042L21.0521 33.721L22.4635 34.2291L22.5415 34.0123L21.1302 33.5042ZM21.3423 33.5618L20.2347 33.3122L19.905 34.7755L21.0126 35.0251L21.3423 33.5618ZM20.3323 33.3413L18.6957 32.7298L18.1707 34.1349L19.8074 34.7464L20.3323 33.3413ZM17.2913 33.1085L16.321 34.2927L17.4812 35.2434L18.4516 34.0592L17.2913 33.1085ZM16.059 34.8558L15.8684 35.878L17.343 36.1529L17.5336 35.1307L16.059 34.8558ZM15.916 36.516L16.1967 37.3269L17.6142 36.8363L17.3335 36.0253L15.916 36.516ZM16.8114 38.0323L17.6626 38.4651L18.3425 37.128L17.4913 36.6952L16.8114 38.0323ZM18.2152 37.9636L18.3951 38.5931L19.8374 38.181L19.6575 37.5515L18.2152 37.9636ZM19.1046 39.3986L20.7856 40.1191L21.3765 38.7404L19.6955 38.0199L19.1046 39.3986ZM20.6699 39.7604L14.1773 50.548L15.4625 51.3215L21.9551 40.5339L20.6699 39.7604ZM14.5859 52.2526L14.7946 52.3831L15.5895 51.111L15.3808 50.9806L14.5859 52.2526ZM14.7121 52.0434L14.38 52.6027L15.6698 53.3685L16.0019 52.8092L14.7121 52.0434ZM14.7593 54.2795L16.2939 55.3072L17.1286 54.0609L15.594 53.0331L14.7593 54.2795ZM18.057 54.9189L18.7138 53.8408L17.4327 53.0604L16.776 54.1385L18.057 54.9189ZM18.4074 53.9429L19.4435 54.3573L20.0006 52.9646L18.9645 52.5502L18.4074 53.9429ZM20.7877 54.0845L22.9492 51.9421L21.8933 50.8767L19.7317 53.0191L20.7877 54.0845ZM23.1728 51.6413L24.5788 48.9981L23.2545 48.2937L21.8485 50.9369L23.1728 51.6413ZM25.7139 48.5075L26.3283 47.1358L24.9594 46.5227L24.345 47.8943L25.7139 48.5075ZM26.0389 45.7096L25.6228 45.3225L24.6011 46.4208L25.0173 46.8079L26.0389 45.7096ZM25.6838 45.6005L27.7113 40.6631L26.3238 40.0933L24.2962 45.0307L25.6838 45.6005ZM27.3963 40.8037L28.5006 41.1963L29.0031 39.783L27.8988 39.3903L27.3963 40.8037ZM28.338 40.9183L27.66 44.8506L29.1382 45.1055L29.8162 41.1731L28.338 40.9183ZM27.6433 45.1163C27.6712 45.6955 27.8124 46.5558 28.1674 47.3382C28.5187 48.1121 29.1494 48.9507 30.2236 49.1854L30.5437 47.7199C30.135 47.6306 29.7947 47.2941 29.5334 46.7183C29.2759 46.1509 29.1629 45.487 29.1416 45.0441L27.6433 45.1163ZM30.2236 49.1854C31.0376 49.3631 31.6644 49.3858 32.1378 49.3117C32.375 49.2745 32.5868 49.2109 32.7673 49.1201C32.9361 49.0351 33.1269 48.9009 33.2542 48.694L31.9767 47.9079C32.0462 47.7949 32.1175 47.7678 32.0927 47.7803C32.0796 47.7869 32.0234 47.8113 31.9056 47.8297C31.6691 47.8668 31.2378 47.8715 30.5437 47.7199L30.2236 49.1854ZM33.2454 48.7078C33.3987 48.4706 33.6177 48.0128 33.5431 47.5104C33.5012 47.2284 33.3658 46.9427 33.1022 46.7224C32.8515 46.5128 32.5391 46.4077 32.2135 46.3655L32.0206 47.853C32.0897 47.862 32.129 47.8741 32.1469 47.881C32.1639 47.8875 32.1576 47.8878 32.1404 47.8734C32.1319 47.8663 32.122 47.8567 32.1118 47.8442C32.1016 47.8317 32.0923 47.8179 32.0844 47.8032C32.0683 47.7732 32.0617 47.7469 32.0593 47.7308C32.0571 47.7158 32.0586 47.7109 32.0577 47.7186C32.0569 47.7262 32.0542 47.741 32.0475 47.7625C32.0409 47.7838 32.0316 47.8074 32.0201 47.8316C32.0085 47.8558 31.9963 47.8772 31.9854 47.8941L33.2454 48.7078ZM32.2135 46.3655C32.1371 46.3556 32.0476 46.3209 31.9597 46.0817C31.8669 45.8295 31.8456 45.4985 31.8644 45.26L30.369 45.1422C30.3395 45.5166 30.361 46.0805 30.5518 46.5994C30.7475 47.1314 31.1823 47.7443 32.0206 47.853L32.2135 46.3655ZM31.8552 45.3149L33.0668 40.8551L31.6192 40.4619L30.4077 44.9217L31.8552 45.3149ZM32.6238 40.9372L33.1604 41.6706L34.371 40.7849L33.8343 40.0514L32.6238 40.9372ZM33.1239 41.4474L33.0565 41.6601L34.4863 42.1135L34.5537 41.9008L33.1239 41.4474ZM33.7605 43.1889L34.7576 43.6112L35.3425 42.23L34.3455 41.8077L33.7605 43.1889ZM36.3541 43.0369L36.5674 42.6267L35.2365 41.9347L35.0232 42.3449L36.3541 43.0369ZM36.4233 42.7406C36.6515 42.7134 36.9377 42.6605 37.2087 42.5604C37.455 42.4695 37.8205 42.2926 38.0416 41.9355L36.7662 41.146C36.7941 41.101 36.8172 41.0899 36.8006 41.101C36.7847 41.1116 36.7497 41.1309 36.6893 41.1532C36.5662 41.1987 36.4052 41.2321 36.246 41.2511L36.4233 42.7406ZM38.0416 41.9355C38.0885 41.8598 38.127 41.8279 38.1408 41.8179C38.158 41.8055 38.1495 41.8175 38.1023 41.8272L37.8005 40.3578C37.4501 40.4298 37.0561 40.6777 36.7662 41.146L38.0416 41.9355ZM37.8919 41.8287L38.8346 42.0572L39.188 40.5994L38.2453 40.3709L37.8919 41.8287ZM40.2984 41.2844L40.701 40.2195L39.2979 39.689L38.8953 40.754L40.2984 41.2844ZM40.4249 38.9029L39.8732 38.3395L38.8014 39.3889L39.3531 39.9523L40.4249 38.9029ZM39.9207 38.621L40.2164 37.9942L38.8597 37.3542L38.564 37.9811L39.9207 38.621ZM40.0574 38.1283L40.85 37.9074L40.4473 36.4625L39.6547 36.6834L40.0574 38.1283ZM41.7486 36.9014L41.9122 35.882L40.4312 35.6443L40.2676 36.6637L41.7486 36.9014ZM41.0733 34.4981L40.3131 34.2447L39.8387 35.6677L40.599 35.9211L41.0733 34.4981ZM40.4764 34.4235C40.3859 34.034 40.2675 33.5405 40.1614 33.1321C40.1086 32.9291 40.0568 32.7392 40.0117 32.5914C39.9896 32.5188 39.9657 32.4453 39.9414 32.3813C39.9296 32.3501 39.9132 32.3095 39.8926 32.2675C39.8833 32.2485 39.8325 32.14 39.7326 32.0401L38.672 33.1008C38.6175 33.0463 38.5854 32.9965 38.5736 32.9775C38.5588 32.9538 38.5495 32.9354 38.5455 32.9272C38.5377 32.9112 38.5355 32.9044 38.5392 32.9141C38.546 32.932 38.5586 32.9688 38.577 33.029C38.6129 33.1468 38.6585 33.3129 38.7096 33.5094C38.8111 33.8999 38.9261 34.3794 39.0154 34.7632L40.4764 34.4235ZM39.7326 32.0401C39.8389 32.1464 39.8848 32.2589 39.9046 32.3228C39.925 32.3884 39.9296 32.4401 39.931 32.4642C39.9337 32.5106 39.9283 32.5328 39.9312 32.5141C39.9362 32.4819 39.9517 32.4155 39.9817 32.3171L38.5468 31.8798C38.5096 32.0021 38.4701 32.1477 38.4489 32.2844C38.4387 32.3501 38.4275 32.4459 38.4335 32.5508C38.4373 32.6155 38.4536 32.8824 38.672 33.1008L39.7326 32.0401ZM39.1873 30.7219L38.0294 30.3229L37.5406 31.741L38.6986 32.1401L39.1873 30.7219ZM36.8709 30.5056L35.938 31.207L36.8395 32.4059L37.7724 31.7045L36.8709 30.5056ZM38.0294 30.3229C37.6368 30.1876 37.2027 30.2561 36.8709 30.5056L37.7724 31.7045C37.706 31.7544 37.6192 31.7681 37.5406 31.741L38.0294 30.3229ZM39.9817 32.3171C40.1698 31.6998 39.8805 30.9608 39.1873 30.7219L38.6986 32.1401C38.6282 32.1158 38.5804 32.0644 38.5578 32.0164C38.5365 31.9712 38.5336 31.9231 38.5468 31.8798L39.9817 32.3171ZM40.3131 34.2447C40.3959 34.2723 40.4572 34.3408 40.4764 34.4235L39.0154 34.7632C39.1138 35.1863 39.4244 35.5296 39.8387 35.6677L40.3131 34.2447ZM41.9122 35.882C42.0093 35.2775 41.6542 34.6917 41.0733 34.4981L40.599 35.9211C40.4828 35.8824 40.4118 35.7652 40.4312 35.6443L41.9122 35.882ZM40.85 37.9074C41.3203 37.7764 41.6713 37.3835 41.7486 36.9014L40.2676 36.6637C40.2831 36.5673 40.3533 36.4887 40.4473 36.4625L40.85 37.9074ZM40.2164 37.9942C40.1854 38.0599 40.1273 38.1088 40.0574 38.1283L39.6547 36.6834C39.3048 36.7809 39.0147 37.0257 38.8597 37.3542L40.2164 37.9942ZM39.8732 38.3395C39.9463 38.4142 39.9653 38.5265 39.9207 38.621L38.564 37.9811C38.341 38.4538 38.4357 39.0154 38.8014 39.3889L39.8732 38.3395ZM40.701 40.2195C40.8731 39.7643 40.7653 39.2506 40.4249 38.9029L39.3531 39.9523C39.285 39.8828 39.2635 39.7801 39.2979 39.689L40.701 40.2195ZM38.8346 42.0572C39.4476 42.2058 40.0753 41.8744 40.2984 41.2844L38.8953 40.754C38.9399 40.636 39.0654 40.5697 39.188 40.5994L38.8346 42.0572ZM38.1023 41.8272C38.036 41.8408 37.9815 41.8399 37.9471 41.837C37.914 41.8342 37.8927 41.8289 37.8919 41.8287L38.2453 40.3709C38.1754 40.354 38.0045 40.3159 37.8005 40.3578L38.1023 41.8272ZM36.5674 42.6267C36.5207 42.7165 36.4499 42.7374 36.4233 42.7406L36.246 41.2511C35.856 41.2975 35.452 41.5203 35.2365 41.9347L36.5674 42.6267ZM34.7576 43.6112C35.3581 43.8655 36.0532 43.6155 36.3541 43.0369L35.0232 42.3449C35.0834 42.2291 35.2224 42.1791 35.3425 42.23L34.7576 43.6112ZM33.0565 41.6601C32.8615 42.275 33.1665 42.9373 33.7605 43.1889L34.3455 41.8077C34.4643 41.858 34.5253 41.9905 34.4863 42.1135L33.0565 41.6601ZM27.66 44.8506C27.6458 44.9328 27.6387 45.0216 27.6433 45.1163L29.1416 45.0441C29.1428 45.07 29.1406 45.0913 29.1382 45.1055L27.66 44.8506ZM28.5006 41.1963C28.386 41.1555 28.3173 41.0382 28.338 40.9183L29.8162 41.1731C29.9195 40.5736 29.5763 39.9868 29.0031 39.783L28.5006 41.1963ZM27.7113 40.6631C27.6607 40.7865 27.522 40.8484 27.3963 40.8037L27.8988 39.3903C27.2704 39.1669 26.5771 39.4763 26.3238 40.0933L27.7113 40.6631ZM25.6228 45.3225C25.699 45.3934 25.7233 45.5042 25.6838 45.6005L24.2962 45.0307C24.0984 45.5124 24.2199 46.0662 24.6011 46.4208L25.6228 45.3225ZM26.3283 47.1358C26.5471 46.6475 26.4307 46.0741 26.0389 45.7096L25.0173 46.8079C24.9389 46.735 24.9156 46.6203 24.9594 46.5227L26.3283 47.1358ZM24.2053 49.1401C24.7963 49.3596 25.4562 49.0829 25.7139 48.5075L24.345 47.8943C24.4103 47.7484 24.5777 47.6783 24.7276 47.7339L24.2053 49.1401ZM24.5788 48.9981C24.5074 49.1323 24.3478 49.193 24.2053 49.1401L24.7276 47.7339C24.1656 47.5252 23.536 47.7645 23.2545 48.2937L24.5788 48.9981ZM22.9492 51.9421C23.0384 51.8537 23.1138 51.7523 23.1728 51.6413L21.8485 50.9369C21.8603 50.9147 21.8754 50.8944 21.8933 50.8767L22.9492 51.9421ZM19.4435 54.3573C19.9059 54.5423 20.434 54.4351 20.7877 54.0845L19.7317 53.0191C19.8025 52.949 19.9081 52.9276 20.0006 52.9646L19.4435 54.3573ZM18.7138 53.8408C18.6503 53.9451 18.5208 53.9882 18.4074 53.9429L18.9645 52.5502C18.3978 52.3235 17.7503 52.5392 17.4327 53.0604L18.7138 53.8408ZM16.2939 55.3072C16.885 55.7031 17.6868 55.5265 18.057 54.9189L16.776 54.1385C16.85 54.017 17.0104 53.9817 17.1286 54.0609L16.2939 55.3072ZM14.38 52.6027C14.0411 53.1736 14.2076 53.91 14.7593 54.2795L15.594 53.0331C15.7043 53.107 15.7376 53.2543 15.6698 53.3685L14.38 52.6027ZM14.7946 52.3831C14.6794 52.3111 14.6428 52.1602 14.7121 52.0434L16.0019 52.8092C16.3487 52.2252 16.1656 51.471 15.5895 51.111L14.7946 52.3831ZM14.1773 50.548C13.8256 51.1325 14.0074 51.8911 14.5859 52.2526L15.3808 50.9806C15.4965 51.0529 15.5329 51.2046 15.4625 51.3215L14.1773 50.548ZM20.7856 40.1191C20.6462 40.0594 20.5917 39.8903 20.6699 39.7604L21.9551 40.5339C22.346 39.8843 22.0733 39.039 21.3765 38.7404L20.7856 40.1191ZM18.3951 38.5931C18.4984 38.9547 18.759 39.2505 19.1046 39.3986L19.6955 38.0199C19.7646 38.0496 19.8167 38.1087 19.8374 38.181L18.3951 38.5931ZM19.0352 38.0733C18.8312 38.4103 18.3235 38.3424 18.2152 37.9636L19.6575 37.5515C19.406 36.6711 18.226 36.5132 17.7519 37.2966L19.0352 38.0733ZM17.6626 38.4651C18.1521 38.714 18.7508 38.5431 19.0352 38.0733L17.7519 37.2966C17.8743 37.0944 18.1318 37.0209 18.3425 37.128L17.6626 38.4651ZM16.1967 37.3269C16.3026 37.6327 16.5229 37.8856 16.8114 38.0323L17.4913 36.6952C17.549 36.7245 17.593 36.7751 17.6142 36.8363L16.1967 37.3269ZM15.8684 35.878C15.8287 36.0912 15.8451 36.311 15.916 36.516L17.3335 36.0253C17.3477 36.0663 17.351 36.1103 17.343 36.1529L15.8684 35.878ZM16.321 34.2927C16.1877 34.4553 16.0976 34.649 16.059 34.8558L17.5336 35.1307C17.5259 35.1721 17.5079 35.2108 17.4812 35.2434L16.321 34.2927ZM21.0521 33.721C21.0949 33.6023 21.2193 33.5341 21.3423 33.5618L21.0126 35.0251C21.6278 35.1637 22.2499 34.8224 22.4635 34.2291L21.0521 33.721ZM21.2709 33.8203C21.1469 33.7697 21.0848 33.6303 21.1302 33.5042L22.5415 34.0123C22.7684 33.3819 22.4581 32.6848 21.8378 32.4316L21.2709 33.8203ZM20.3187 32.2648C20.1633 32.87 20.4786 33.4969 21.057 33.733L21.6239 32.3442C21.7396 32.3915 21.8026 32.5169 21.7715 32.6379L20.3187 32.2648ZM22.0688 30.7068C21.3871 30.4978 20.669 30.9005 20.4917 31.5911L21.9445 31.9641C21.9091 32.1022 21.7655 32.1827 21.6291 32.1409L22.0688 30.7068ZM21.9167 30.9187C21.9751 30.7889 22.121 30.7228 22.257 30.7645L21.8174 32.1987C22.4043 32.3786 23.0333 32.0935 23.2849 31.5337L21.9167 30.9187ZM23.4393 30.2721C22.8408 30.0569 22.1775 30.3386 21.9167 30.9187L23.2849 31.5337C23.2244 31.6682 23.0706 31.7335 22.9318 31.6836L23.4393 30.2721ZM25.6866 31.5126C25.5759 31.1991 25.3302 30.952 25.0174 30.8395L24.5099 32.251C24.3987 32.211 24.3114 32.1232 24.2721 32.0118L25.6866 31.5126ZM25.0225 31.3815C25.2217 31.1585 25.5871 31.2306 25.6866 31.5126L24.2721 32.0118C24.5522 32.8054 25.5804 33.0084 26.1411 32.3808L25.0225 31.3815ZM28.5253 28.4633C28.0749 28.3508 27.5992 28.497 27.2899 28.8433L28.4086 29.8426C28.3467 29.9118 28.2516 29.9411 28.1615 29.9186L28.5253 28.4633ZM30.0423 29.1628C30.0423 29.0002 30.1952 28.8808 30.3529 28.9203L29.9891 30.3755C30.7781 30.5727 31.5423 29.976 31.5423 29.1628H30.0423ZM30.1227 28.492C30.0714 28.4447 30.0423 28.3781 30.0423 28.3083H31.5423C31.5423 27.9596 31.3966 27.6267 31.1405 27.3901L30.1227 28.492ZM24.4126 22.8299C24.452 23.1171 24.59 23.3816 24.8029 23.5783L25.8207 22.4764C25.8633 22.5157 25.8908 22.5687 25.8987 22.6261L24.4126 22.8299ZM23.4934 15.8C23.4591 15.7625 23.4369 15.7154 23.43 15.665L24.9161 15.4612C24.8816 15.2093 24.771 14.9739 24.5991 14.7864L23.4934 15.8ZM22.445 14.3382C22.4815 14.5853 22.5913 14.8158 22.7601 15L23.8658 13.9864C23.8996 14.0232 23.9215 14.0693 23.9288 14.1188L22.445 14.3382ZM23.142 10.645C22.4686 10.7557 22.0085 11.3861 22.1083 12.0613L23.5922 11.8419C23.6121 11.9769 23.5201 12.103 23.3854 12.1251L23.142 10.645ZM38.8082 9.42098C38.7392 8.70071 38.075 8.18927 37.361 8.30668L37.6044 9.7868C37.4616 9.81028 37.3288 9.708 37.315 9.56394L38.8082 9.42098ZM39.0122 12.1506C39.0383 12.0266 39.0455 11.8995 39.0334 11.7734L37.5402 11.9163C37.5378 11.8911 37.5392 11.8657 37.5445 11.8409L39.0122 12.1506ZM38.7024 13.5277C38.7083 13.5597 38.7079 13.5926 38.7012 13.6245L37.2335 13.3148C37.1998 13.4742 37.1977 13.6386 37.2271 13.7988L38.7024 13.5277ZM33.1604 41.6706C33.1134 41.6063 33.0998 41.5234 33.1239 41.4474L34.5537 41.9008C34.6742 41.521 34.6063 41.1065 34.371 40.7849L33.1604 41.6706ZM39.7324 20.9628C39.8999 20.6973 39.9614 20.3786 39.9046 20.0699L38.4293 20.341C38.418 20.2792 38.4303 20.2155 38.4638 20.1624L39.7324 20.9628ZM33.0668 40.8551C33.0118 41.0573 32.7475 41.1063 32.6238 40.9372L33.8343 40.0514C33.2157 39.2059 31.8939 39.4509 31.6192 40.4619L33.0668 40.8551ZM35.0989 28.2341C35.0989 28.2813 35.0855 28.3275 35.0603 28.3675L33.7917 27.567C33.6657 27.7667 33.5989 27.998 33.5989 28.2341H35.0989ZM31.8644 45.26C31.8624 45.2852 31.8582 45.3041 31.8552 45.3149L30.4077 44.9217C30.39 44.9869 30.3754 45.0608 30.369 45.1422L31.8644 45.26ZM35.0534 29.5011C35.083 29.5432 35.0989 29.5934 35.0989 29.6449H33.5989C33.5989 29.9024 33.6784 30.1536 33.8265 30.3641L35.0534 29.5011ZM18.6957 32.7298C18.1947 32.5426 17.6302 32.6948 17.2913 33.1085L18.4516 34.0592C18.3838 34.1419 18.2709 34.1723 18.1707 34.1349L18.6957 32.7298ZM35.0659 32.126C35.472 32.7034 36.2753 32.8301 36.8395 32.4059L35.938 31.207C36.0509 31.1222 36.2115 31.1475 36.2928 31.263L35.0659 32.126Z" fill="#242424"/>
<path d="M47.2494 34.4155L51.4087 32.4215" stroke="#FF1E26" stroke-width="1.5" stroke-linecap="round"/>
<path d="M43.8209 44.1578L45.8149 48.317" stroke="#FF1E26" stroke-width="1.5" stroke-linecap="round"/>
<path d="M45.625 39.0303L50.2399 40.6542" stroke="#FF1E26" stroke-width="1.5" stroke-linecap="round"/>
</svg>
