<svg width="49" height="48" viewBox="0 0 49 48" fill="none" xmlns="http://www.w3.org/2000/svg">
<path d="M34.625 42H14.625C6.625 42 4.625 40 4.625 32V16C4.625 8 6.625 6 14.625 6H34.625C42.625 6 44.625 8 44.625 16V32C44.625 40 42.625 42 34.625 42Z" stroke="#242424" stroke-width="1.5" stroke-linecap="round" stroke-linejoin="round"/>
<path d="M28.625 19H38.625" stroke="#242424" stroke-width="1.5" stroke-linecap="round" stroke-linejoin="round"/>
<path d="M30.625 24H38.625" stroke="#242424" stroke-width="1.5" stroke-linecap="round" stroke-linejoin="round"/>
<path d="M34.625 29H38.625" stroke="#242424" stroke-width="1.5" stroke-linecap="round" stroke-linejoin="round"/>
<path d="M17.625 23C19.2819 23 20.625 21.6569 20.625 20C20.625 18.3431 19.2819 17 17.625 17C15.9681 17 14.625 18.3431 14.625 20C14.625 21.6569 15.9681 23 17.625 23Z" stroke="#FF1E26" stroke-width="1.5" stroke-linecap="round" stroke-linejoin="round"/>
<path d="M23.625 31C23.385 28.8966 21.4136 27.243 18.9279 27.0544C18.0707 26.9819 17.1964 26.9819 16.3221 27.0544C13.8364 27.2575 11.865 28.8966 11.625 31" stroke="#FF1E26" stroke-width="1.5" stroke-linecap="round" stroke-linejoin="round"/>
</svg>
