<svg width="64" height="64" viewBox="0 0 64 64" fill="none" xmlns="http://www.w3.org/2000/svg">
<circle cx="32" cy="32" r="32" fill="white"/>
<path d="M47.1859 20.3015L46.5064 20.619V20.619L47.1859 20.3015ZM48.2123 22.4986L47.5328 22.816L48.2123 22.4986ZM28.6249 27.4416C28.2107 27.4416 27.8749 27.7774 27.8749 28.1916C27.8749 28.6058 28.2107 28.9416 28.6249 28.9416V27.4416ZM23.5678 21.3404C23.3911 21.715 23.5515 22.1619 23.9261 22.3387C24.3007 22.5154 24.7476 22.355 24.9244 21.9804L23.5678 21.3404ZM24.8921 20.2912L25.5704 20.6112L24.8921 20.2912ZM27.6053 19.3213H44.4679V17.8213H27.6053V19.3213ZM46.5064 20.619L47.5328 22.816L48.8918 22.1811L47.8654 19.9841L46.5064 20.619ZM44.5883 27.4416H36.0406V28.9416H44.5883V27.4416ZM36.0406 27.4416H28.6249V28.9416H36.0406V27.4416ZM24.9244 21.9804L25.5704 20.6112L24.2138 19.9711L23.5678 21.3404L24.9244 21.9804ZM47.5328 22.816C48.5394 24.9708 46.9666 27.4416 44.5883 27.4416V28.9416C48.0643 28.9416 50.3631 25.3304 48.8918 22.1811L47.5328 22.816ZM44.4679 19.3213C45.3417 19.3213 46.1365 19.8272 46.5064 20.619L47.8654 19.9841C47.2489 18.6645 45.9243 17.8213 44.4679 17.8213V19.3213ZM27.6053 17.8213C26.1541 17.8213 24.8331 18.6586 24.2138 19.9711L25.5704 20.6112C25.942 19.8237 26.7346 19.3213 27.6053 19.3213V17.8213Z" fill="#242424"/>
<path d="M25.2179 45.428V44.678V45.428ZM20.0586 42.6221C20.0586 43.2873 20.1668 44.1049 20.4766 44.7863C20.788 45.4716 21.3936 46.178 22.412 46.178V44.678C22.2278 44.678 22.0317 44.5827 21.8421 44.1656C21.6508 43.7447 21.5586 43.1593 21.5586 42.6221H20.0586ZM22.412 46.178C24.4188 46.178 23.6119 46.178 25.2179 46.178V44.678C23.6119 44.678 24.4188 44.678 22.412 44.678V46.178ZM25.2179 46.178H27.2221V44.678H25.2179V46.178ZM27.2221 46.178C28.5219 46.178 29.5755 45.1244 29.5755 43.8246H28.0755C28.0755 44.2959 27.6935 44.678 27.2221 44.678V46.178Z" fill="#242424"/>
<path d="M28.0247 33.8036L25.2188 33.002" stroke="#242424" stroke-width="1.5"/>
<circle cx="24.415" cy="37.0107" r="0.801693" fill="#242424"/>
<path d="M27.6211 36.6094H36.4397" stroke="#242424" stroke-width="1.5"/>
<path d="M27.6211 41.0186H36.4397" stroke="#242424" stroke-width="1.5"/>
<path d="M51.2713 28.1916L50.6201 28.5637L49.9789 27.4416L51.2713 27.4416L51.2713 28.1916ZM51.6721 40.217L50.9606 40.4542L50.814 40.0145L51.1418 39.6867L51.6721 40.217ZM47.6637 45.428V44.678V45.428ZM50.9928 24.2885C51.5061 24.0832 52.0152 23.8998 52.4912 23.7757C52.9596 23.6535 53.4448 23.5751 53.8956 23.6168C54.3632 23.6599 54.8408 23.8392 55.1837 24.2695C55.5117 24.6812 55.6289 25.215 55.6289 25.7866H54.1289C54.1289 25.3961 54.0457 25.2484 54.0105 25.2042C53.9901 25.1786 53.9415 25.1274 53.7578 25.1104C53.5572 25.0919 53.2658 25.1238 52.8698 25.2271C52.4815 25.3284 52.0386 25.4857 51.5498 25.6812L50.9928 24.2885ZM55.6289 25.7866C55.6289 27.1026 54.8648 27.9278 53.9629 28.3808C53.0991 28.8148 52.066 28.9416 51.2713 28.9416L51.2713 27.4416C51.9463 27.4416 52.7171 27.328 53.2896 27.0404C53.8241 26.7719 54.1289 26.3946 54.1289 25.7866H55.6289ZM51.9225 27.8195C52.5138 28.8543 53.6247 31.6536 53.6247 35.006H52.1247C52.1247 31.9449 51.0977 29.3996 50.6201 28.5637L51.9225 27.8195ZM53.6247 35.006C53.6247 36.6708 53.4167 37.9457 53.1432 38.8754C52.8777 39.7783 52.5315 40.4183 52.2025 40.7474L51.1418 39.6867C51.2136 39.6149 51.4687 39.2528 51.7042 38.4521C51.9318 37.6782 52.1247 36.548 52.1247 35.006H53.6247ZM52.3836 39.9799C52.532 40.4251 52.823 41.5514 52.823 42.6221H51.323C51.323 41.7687 51.0795 40.8107 50.9606 40.4542L52.3836 39.9799ZM52.823 42.6221C52.823 43.2874 52.7147 44.105 52.405 44.7864C52.0935 45.4717 51.4879 46.178 50.4696 46.178V44.678C50.6538 44.678 50.8499 44.5827 51.0395 44.1657C51.2308 43.7447 51.323 43.1594 51.323 42.6221H52.823ZM50.4696 46.178C48.4242 46.178 49.3082 46.178 47.6637 46.178V44.678C49.3082 44.678 48.4242 44.678 50.4696 44.678V46.178ZM47.6637 46.178H45.6594V44.678H47.6637V46.178ZM45.6594 46.178C44.3597 46.178 43.306 45.1244 43.306 43.8246H44.806C44.806 44.296 45.1881 44.678 45.6594 44.678V46.178Z" fill="#242424"/>
<path d="M44.8569 33.8036L50.4688 32.2002" stroke="#242424" stroke-width="1.5"/>
<circle r="0.801693" transform="matrix(-1 0 0 1 48.4639 37.0107)" fill="#242424"/>
<path d="M45.2578 36.6094H36.4392" stroke="#242424" stroke-width="1.5"/>
<path d="M45.2578 41.0186H36.4392" stroke="#242424" stroke-width="1.5"/>
<path d="M10.5816 38.5482L9.4029 36.811C9.21902 36.54 9.17947 36.1962 9.29703 35.8905L10.9103 31.6961C10.9981 31.4678 10.9992 31.2151 10.9132 30.986L10.7306 30.499C10.6354 30.2452 10.6474 29.9635 10.7637 29.7186L13.8812 23.1589C14.1146 22.6679 14.6976 22.4532 15.1937 22.6758L17.808 23.8484C18.2842 24.062 18.516 24.6061 18.3403 25.0976L17.9432 26.208C17.7103 26.8593 18.1931 27.5447 18.8848 27.5447H19.2337C19.4989 27.5447 19.7533 27.4393 19.9408 27.2518L22.7753 24.4173C23.082 24.1105 23.5516 24.0365 23.9379 24.2341L25.8024 25.1881C26.2655 25.425 26.4701 25.9765 26.2717 26.4575C24.6026 30.5044 21.8552 37.0998 20.8005 39.4051C20.5942 39.8559 20.0853 40.0307 19.6296 39.8354L17.232 38.8079C16.8643 38.6503 16.6259 38.2888 16.6259 37.8888V36.3785L16.4985 34.2747C16.4371 33.2603 15.0774 32.9736 14.6116 33.8767L13.6361 35.768L12.4464 38.2667C12.2241 38.7334 11.6828 38.9538 11.1978 38.7751L10.5816 38.5482ZM10.5816 38.5482V41.4548C10.5816 41.6801 10.5056 41.8988 10.3657 42.0755L9.10938 43.6625" stroke="#FF1E26" stroke-width="1.5" stroke-linecap="round"/>
<path d="M24.4341 24.4873L18.0547 39.0013" stroke="#FF1E26" stroke-width="1.5"/>
</svg>
