<svg width="49" height="48" viewBox="0 0 49 48" fill="none" xmlns="http://www.w3.org/2000/svg">
<path d="M5.69961 37V14.32H16.7596V37H15.2476V15.496H7.21161V37H5.69961ZM23.9534 37V15.552H19.4174V14.32H29.8894V15.552H25.4654V37H23.9534ZM37.5912 37.308C36.0978 37.308 34.9498 37 34.1472 36.384C33.3632 35.768 32.8218 34.9467 32.5232 33.92C32.2245 32.8747 32.0752 31.7267 32.0752 30.476V20.844C32.0752 19.5373 32.2338 18.38 32.5512 17.372C32.8685 16.3453 33.4285 15.5427 34.2312 14.964C35.0338 14.3667 36.1538 14.068 37.5912 14.068C38.9165 14.068 39.9525 14.3293 40.6992 14.852C41.4458 15.3747 41.9778 16.1213 42.2952 17.092C42.6125 18.044 42.7712 19.164 42.7712 20.452V21.6H41.3152V20.452C41.3152 19.3693 41.2125 18.4547 41.0072 17.708C40.8018 16.9427 40.4285 16.3547 39.8872 15.944C39.3458 15.5333 38.5805 15.328 37.5912 15.328C36.5085 15.328 35.6778 15.552 35.0992 16C34.5205 16.448 34.1285 17.0733 33.9232 17.876C33.7178 18.6787 33.6152 19.612 33.6152 20.676V30.7C33.6152 31.82 33.7272 32.7813 33.9512 33.584C34.1752 34.368 34.5765 34.9747 35.1552 35.404C35.7338 35.8333 36.5458 36.048 37.5912 36.048C38.5992 36.048 39.3738 35.8333 39.9152 35.404C40.4565 34.9747 40.8205 34.3773 41.0072 33.612C41.2125 32.828 41.3152 31.9227 41.3152 30.896V29.524H42.7712V30.644C42.7712 31.932 42.6218 33.08 42.3232 34.088C42.0245 35.096 41.5018 35.8893 40.7552 36.468C40.0085 37.028 38.9538 37.308 37.5912 37.308Z" fill="#242424"/>
</svg>
