<svg width="64" height="64" viewBox="0 0 64 64" fill="none" xmlns="http://www.w3.org/2000/svg">
<circle cx="32" cy="32" r="32" fill="white"/>
<path d="M28.5 10.9727L17.2632 31.5186C17.0993 31.8184 17.0997 32.1811 17.2645 32.4805L27.9239 51.853C28.3038 52.5436 29.2962 52.5436 29.6761 51.853L40.3417 32.4692C40.5031 32.176 40.507 31.8216 40.3523 31.5249L34.1636 19.6544" stroke="#242424" stroke-width="1.5" stroke-linecap="round"/>
<path d="M35.5 52.4727L46.246 32.4637C46.4046 32.1683 46.4047 31.8131 46.2462 31.5177L35.5812 11.642C35.204 10.9391 34.196 10.9391 33.8188 11.642L23.1558 31.514C22.9962 31.8115 22.9974 32.1694 23.1591 32.4657L29.3364 43.7908" stroke="#242424" stroke-width="1.5" stroke-linecap="round"/>
</svg>
