<svg width="48" height="48" viewBox="0 0 48 48" fill="none" xmlns="http://www.w3.org/2000/svg">
<mask id="path-1-outside-1_136_1190" maskUnits="userSpaceOnUse" x="3.01501" y="2" width="43" height="43" fill="black">
<rect fill="white" x="3.01501" y="2" width="43" height="43"/>
<path fill-rule="evenodd" clip-rule="evenodd" d="M36.6096 4C37.3198 4 37.5799 4.83487 37.0777 5.33704L33.9036 8.51114C33.651 8.76376 33.5524 9.13197 33.6448 9.47706L34.4407 12.4471C34.5331 12.7922 34.8027 13.0618 35.1478 13.1542L38.1178 13.9501C38.4629 14.0425 38.8311 13.9439 39.0838 13.6912L42.5929 10.1821C43.115 9.65996 43.992 9.87325 44.0793 10.6065C44.1142 10.8995 44.1321 11.1976 44.1321 11.5C44.1321 15.6421 40.7642 19 36.6096 19C35.7995 19 35.0193 18.8723 34.2882 18.6361C33.9004 18.5108 33.4679 18.5885 33.1792 18.8762L19.0377 32.9754C18.7553 33.257 18.6736 33.6778 18.7842 34.061C18.9619 34.6767 19.0571 35.3273 19.0571 36C19.0571 39.866 15.9136 43 12.036 43C11.9294 43 11.8234 42.9976 11.7179 42.9929C10.9589 42.9592 10.713 42.0619 11.2502 41.5247L13.6911 39.0838C13.9437 38.8311 14.0424 38.4629 13.9499 38.1178L13.1541 35.1478C13.0616 34.8027 12.7921 34.5331 12.447 34.4407L9.47694 33.6448C9.13185 33.5524 8.76363 33.651 8.51101 33.9037L6.04425 36.3705C5.65798 36.7567 5.01501 36.5463 5.01501 36C5.01501 32.134 8.15843 29 12.036 29C12.7107 29 13.3631 29.0949 13.9805 29.2719C14.3618 29.3813 14.7801 29.3001 15.061 29.02L29.2066 14.9168C29.4963 14.6279 29.5747 14.1935 29.4488 13.8042C29.2139 13.0782 29.0871 12.3039 29.0871 11.5C29.0871 7.35786 32.455 4 36.6096 4Z"/>
</mask>
<path d="M29.4488 13.8042L28.0216 14.2659L29.4488 13.8042ZM13.9805 29.2719L14.394 27.83L13.9805 29.2719ZM15.061 29.02L14.0019 27.9578L15.061 29.02ZM6.04425 36.3705L4.98359 35.3098L6.04425 36.3705ZM11.7179 42.9929L11.6513 44.4915L11.7179 42.9929ZM11.2502 41.5247L12.3109 42.5853L11.2502 41.5247ZM19.0377 32.9754L20.0968 34.0377L19.0377 32.9754ZM18.7842 34.061L17.343 34.4768L18.7842 34.061ZM34.2882 18.6361L33.827 20.0634L34.2882 18.6361ZM33.1792 18.8762L32.1202 17.814L33.1792 18.8762ZM9.47694 33.6448L9.08871 35.0937L9.47694 33.6448ZM38.1178 13.9501L37.7296 15.399L38.1178 13.9501ZM39.0838 13.6912L40.1444 14.7519L39.0838 13.6912ZM13.1541 35.1478L11.7052 35.536L13.1541 35.1478ZM12.447 34.4407L12.8352 32.9918L12.447 34.4407ZM34.4407 12.4471L32.9918 12.8354L34.4407 12.4471ZM35.1478 13.1542L35.536 11.7053L35.1478 13.1542ZM13.6911 39.0838L12.6305 38.0231L13.6911 39.0838ZM13.9499 38.1178L12.501 38.5061L13.9499 38.1178ZM33.6448 9.47706L35.0937 9.08883L33.6448 9.47706ZM44.0793 10.6065L45.5688 10.4291L44.0793 10.6065ZM37.0777 5.33704L36.017 4.27639L37.0777 5.33704ZM34.9643 9.57179L38.1384 6.39769L36.017 4.27639L32.843 7.45049L34.9643 9.57179ZM35.8896 12.0589L35.0937 9.08883L32.1959 9.86529L32.9918 12.8354L35.8896 12.0589ZM38.5061 12.5012L35.536 11.7053L34.7595 14.6031L37.7296 15.399L38.5061 12.5012ZM41.5322 9.12143L38.0231 12.6306L40.1444 14.7519L43.6535 11.2427L41.5322 9.12143ZM45.6321 11.5C45.6321 11.1382 45.6107 10.7808 45.5688 10.4291L42.5898 10.7838C42.6177 11.0181 42.6321 11.257 42.6321 11.5H45.6321ZM36.6096 20.5C41.5884 20.5 45.6321 16.4748 45.6321 11.5H42.6321C42.6321 14.8095 39.94 17.5 36.6096 17.5V20.5ZM33.827 20.0634C34.7054 20.3472 35.6411 20.5 36.6096 20.5V17.5C35.958 17.5 35.3333 17.3974 34.7494 17.2087L33.827 20.0634ZM20.0968 34.0377L34.2383 19.9385L32.1202 17.814L17.9786 31.9132L20.0968 34.0377ZM20.5571 36C20.5571 35.1851 20.4417 34.3947 20.2254 33.6451L17.343 34.4768C17.4821 34.9588 17.5571 35.4694 17.5571 36H20.5571ZM12.036 44.5C16.7378 44.5 20.5571 40.6987 20.5571 36H17.5571C17.5571 39.0333 15.0895 41.5 12.036 41.5V44.5ZM11.6513 44.4915C11.7789 44.4971 11.9072 44.5 12.036 44.5V41.5C11.9516 41.5 11.8678 41.4981 11.7845 41.4944L11.6513 44.4915ZM12.6305 38.0231L10.1896 40.464L12.3109 42.5853L14.7518 40.1444L12.6305 38.0231ZM11.7052 35.536L12.501 38.5061L15.3988 37.7296L14.603 34.7595L11.7052 35.536ZM9.08871 35.0937L12.0588 35.8896L12.8352 32.9918L9.86517 32.196L9.08871 35.0937ZM7.10492 37.4311L9.57168 34.9643L7.45034 32.843L4.98359 35.3098L7.10492 37.4311ZM12.036 27.5C7.33425 27.5 3.51501 31.3013 3.51501 36H6.51501C6.51501 32.9667 8.98262 30.5 12.036 30.5V27.5ZM14.394 27.83C13.6434 27.6148 12.8519 27.5 12.036 27.5V30.5C12.5694 30.5 13.0827 30.5749 13.5671 30.7138L14.394 27.83ZM28.1475 13.8545L14.0019 27.9578L16.1201 30.0823L30.2657 15.979L28.1475 13.8545ZM27.5871 11.5C27.5871 12.4626 27.7391 13.3926 28.0216 14.2659L30.876 13.3426C30.6888 12.7639 30.5871 12.1452 30.5871 11.5H27.5871ZM36.6096 2.5C31.6309 2.5 27.5871 6.5252 27.5871 11.5H30.5871C30.5871 8.19053 33.2792 5.5 36.6096 5.5V2.5ZM30.2657 15.979C31.0078 15.2391 31.1513 14.1937 30.876 13.3426L28.0216 14.2659C27.9981 14.1933 27.9849 14.0167 28.1475 13.8545L30.2657 15.979ZM13.5671 30.7138C14.3946 30.9511 15.3999 30.8003 16.1201 30.0823L14.0019 27.9578C14.1602 27.7999 14.3291 27.8114 14.394 27.83L13.5671 30.7138ZM4.98359 35.3098C5.2003 35.0931 5.54731 35.0035 5.87702 35.118C6.23839 35.2435 6.51501 35.6003 6.51501 36H3.51501C3.51501 36.946 4.11312 37.6811 4.89254 37.9519C5.6403 38.2116 6.50193 38.0341 7.10492 37.4311L4.98359 35.3098ZM11.7845 41.4944C11.8969 41.4994 12.048 41.5429 12.1869 41.6542C12.3196 41.7605 12.3976 41.8936 12.4341 42.0144C12.506 42.2528 12.4294 42.4669 12.3109 42.5853L10.1896 40.464C9.53385 41.1198 9.3116 42.0511 9.56188 42.8808C9.82479 43.7524 10.6006 44.4447 11.6513 44.4915L11.7845 41.4944ZM17.9786 31.9132C17.2544 32.6352 17.1034 33.6464 17.343 34.4768L20.2254 33.6451C20.2439 33.7092 20.2561 33.8788 20.0968 34.0377L17.9786 31.9132ZM34.7494 17.2087C33.9005 16.9344 32.8593 17.0771 32.1202 17.814L34.2383 19.9385C34.0764 20.0999 33.9003 20.0871 33.827 20.0634L34.7494 17.2087ZM9.86517 32.196C9.00243 31.9648 8.0819 32.2114 7.45034 32.843L9.57168 34.9643C9.44537 35.0906 9.26126 35.14 9.08871 35.0937L9.86517 32.196ZM37.7296 15.399C38.5923 15.6301 39.5129 15.3835 40.1444 14.7519L38.0231 12.6306C38.1494 12.5043 38.3335 12.4549 38.5061 12.5012L37.7296 15.399ZM14.603 34.7595C14.3718 33.8968 13.698 33.2229 12.8352 32.9918L12.0588 35.8896C11.8862 35.8433 11.7515 35.7085 11.7052 35.536L14.603 34.7595ZM32.9918 12.8354C33.2229 13.6981 33.8968 14.372 34.7595 14.6031L35.536 11.7053C35.7085 11.7516 35.8433 11.8864 35.8896 12.0589L32.9918 12.8354ZM14.7518 40.1444C15.3833 39.5129 15.63 38.5923 15.3988 37.7296L12.501 38.5061C12.4548 38.3335 12.5041 38.1494 12.6305 38.0231L14.7518 40.1444ZM32.843 7.45049C32.2114 8.08205 31.9648 9.00256 32.1959 9.86529L35.0937 9.08883C35.14 9.26138 35.0906 9.44548 34.9643 9.57179L32.843 7.45049ZM43.6535 11.2427C43.5354 11.3608 43.3319 11.432 43.1084 11.3717C42.9949 11.3411 42.8694 11.2737 42.7649 11.1566C42.6554 11.034 42.6031 10.8951 42.5898 10.7838L45.5688 10.4291C45.4482 9.41617 44.7387 8.70433 43.8899 8.47531C43.0755 8.2556 42.1724 8.48122 41.5322 9.12143L43.6535 11.2427ZM36.6096 5.5C36.4821 5.5 36.3153 5.45845 36.1609 5.34418C36.013 5.2348 35.9214 5.0922 35.8761 4.95702C35.7856 4.68712 35.8671 4.42636 36.017 4.27639L38.1384 6.39769C38.7905 5.74555 38.993 4.81627 38.7205 4.00339C38.435 3.15197 37.6418 2.5 36.6096 2.5V5.5Z" fill="#242424" mask="url(#path-1-outside-1_136_1190)"/>
<path d="M27.3425 30.1946C27.0496 29.9017 26.5747 29.9017 26.2818 30.1946C25.9889 30.4875 25.9889 30.9623 26.2818 31.2552L27.3425 30.1946ZM31.2553 26.2818C30.9624 25.9889 30.4875 25.9889 30.1946 26.2818C29.9017 26.5747 29.9017 27.0495 30.1946 27.3424L31.2553 26.2818ZM41.7328 40.6484L40.6484 41.7328L41.7091 42.7934L42.7935 41.7091L41.7328 40.6484ZM38.8807 41.7328L27.3425 30.1946L26.2818 31.2552L37.82 42.7934L38.8807 41.7328ZM30.1946 27.3424L41.7328 38.8806L42.7935 37.82L31.2553 26.2818L30.1946 27.3424ZM40.6484 41.7328C40.1603 42.2209 39.3688 42.2209 38.8807 41.7328L37.82 42.7934C38.894 43.8674 40.6352 43.8674 41.7091 42.7934L40.6484 41.7328ZM42.7935 41.7091C43.8674 40.6351 43.8674 38.8939 42.7935 37.82L41.7328 38.8806C42.221 39.3688 42.221 40.1603 41.7328 40.6484L42.7935 41.7091Z" fill="#242424"/>
<path d="M18.4697 19.5303C18.7626 19.8232 19.2374 19.8232 19.5303 19.5303C19.8232 19.2374 19.8232 18.7626 19.5303 18.4697L18.4697 19.5303ZM10.5303 9.46967C10.2374 9.17678 9.76256 9.17678 9.46967 9.46967C9.17678 9.76256 9.17678 10.2374 9.46967 10.5303L10.5303 9.46967ZM19.5303 18.4697L10.5303 9.46967L9.46967 10.5303L18.4697 19.5303L19.5303 18.4697Z" fill="#242424"/>
<mask id="path-5-inside-2_136_1190" fill="white">
<rect x="3.70764" y="7.12073" width="4.8269" height="6.76522" rx="1" transform="rotate(-45 3.70764 7.12073)"/>
</mask>
<rect x="3.70764" y="7.12073" width="4.8269" height="6.76522" rx="1" transform="rotate(-45 3.70764 7.12073)" stroke="#242424" stroke-width="3" mask="url(#path-5-inside-2_136_1190)"/>
<path d="M30.5303 18.5303C30.8232 18.2374 30.8232 17.7626 30.5303 17.4697C30.2374 17.1768 29.7626 17.1768 29.4697 17.4697L30.5303 18.5303ZM17.4697 29.4697C17.1768 29.7626 17.1768 30.2374 17.4697 30.5303C17.7626 30.8232 18.2374 30.8232 18.5303 30.5303L17.4697 29.4697ZM29.4697 17.4697L17.4697 29.4697L18.5303 30.5303L30.5303 18.5303L29.4697 17.4697Z" fill="#FF1E26"/>
</svg>
