<svg width="65" height="64" viewBox="0 0 65 64" fill="none" xmlns="http://www.w3.org/2000/svg">
<circle cx="32.75" cy="32" r="32" fill="white"/>
<mask id="path-2-outside-1_199_14412" maskUnits="userSpaceOnUse" x="11.765" y="10" width="43" height="43" fill="black">
<rect fill="white" x="11.765" y="10" width="43" height="43"/>
<path fill-rule="evenodd" clip-rule="evenodd" d="M45.3596 12C46.0698 12 46.3299 12.8349 45.8277 13.337L42.6536 16.5111C42.401 16.7638 42.3024 17.132 42.3948 17.4771L43.1907 20.4471C43.2831 20.7922 43.5527 21.0618 43.8978 21.1542L46.8678 21.9501C47.2129 22.0425 47.5811 21.9439 47.8338 21.6912L51.3429 18.1821C51.865 17.66 52.742 17.8733 52.8293 18.6065C52.8642 18.8995 52.8821 19.1976 52.8821 19.5C52.8821 23.6421 49.5142 27 45.3596 27C44.5495 27 43.7693 26.8723 43.0382 26.6361C42.6504 26.5108 42.2179 26.5885 41.9292 26.8762L27.7877 40.9754C27.5053 41.257 27.4236 41.6778 27.5342 42.061C27.7119 42.6767 27.8071 43.3273 27.8071 44C27.8071 47.866 24.6636 51 20.786 51C20.6794 51 20.5734 50.9976 20.4679 50.9929C19.7089 50.9592 19.463 50.0619 20.0002 49.5247L22.4411 47.0838C22.6937 46.8311 22.7924 46.4629 22.6999 46.1178L21.9041 43.1478C21.8116 42.8027 21.5421 42.5331 21.197 42.4407L18.2269 41.6448C17.8818 41.5524 17.5136 41.651 17.261 41.9037L14.7943 44.3705C14.408 44.7567 13.765 44.5463 13.765 44C13.765 40.134 16.9084 37 20.786 37C21.4607 37 22.1131 37.0949 22.7305 37.2719C23.1118 37.3813 23.5301 37.3001 23.811 37.02L37.9566 22.9168C38.2463 22.6279 38.3247 22.1935 38.1988 21.8042C37.9639 21.0782 37.8371 20.3039 37.8371 19.5C37.8371 15.3579 41.205 12 45.3596 12Z"/>
</mask>
<path d="M38.1988 21.8042L36.7716 22.2659L38.1988 21.8042ZM22.7305 37.2719L23.144 35.83L22.7305 37.2719ZM23.811 37.02L22.7519 35.9578L23.811 37.02ZM14.7943 44.3705L13.7336 43.3098L14.7943 44.3705ZM20.4679 50.9929L20.4013 52.4915L20.4679 50.9929ZM20.0002 49.5247L21.0609 50.5853L20.0002 49.5247ZM27.7877 40.9754L28.8468 42.0377L27.7877 40.9754ZM27.5342 42.061L26.093 42.4768L27.5342 42.061ZM43.0382 26.6361L42.577 28.0634L43.0382 26.6361ZM41.9292 26.8762L40.8702 25.814L41.9292 26.8762ZM18.2269 41.6448L17.8387 43.0937L18.2269 41.6448ZM46.8678 21.9501L46.4796 23.399L46.8678 21.9501ZM47.8338 21.6912L48.8944 22.7519L47.8338 21.6912ZM21.9041 43.1478L20.4552 43.536L21.9041 43.1478ZM21.197 42.4407L21.5852 40.9918L21.197 42.4407ZM43.1907 20.4471L41.7418 20.8354L43.1907 20.4471ZM43.8978 21.1542L44.286 19.7053L43.8978 21.1542ZM22.4411 47.0838L21.3805 46.0231L22.4411 47.0838ZM22.6999 46.1178L21.251 46.5061L22.6999 46.1178ZM42.3948 17.4771L43.8437 17.0888L42.3948 17.4771ZM52.8293 18.6065L54.3188 18.4291L52.8293 18.6065ZM45.8277 13.337L44.767 12.2764L45.8277 13.337ZM43.7143 17.5718L46.8884 14.3977L44.767 12.2764L41.593 15.4505L43.7143 17.5718ZM44.6396 20.0589L43.8437 17.0888L40.9459 17.8653L41.7418 20.8354L44.6396 20.0589ZM47.2561 20.5012L44.286 19.7053L43.5095 22.6031L46.4796 23.399L47.2561 20.5012ZM50.2822 17.1214L46.7731 20.6306L48.8944 22.7519L52.4035 19.2427L50.2822 17.1214ZM54.3821 19.5C54.3821 19.1382 54.3607 18.7808 54.3188 18.4291L51.3398 18.7838C51.3677 19.0181 51.3821 19.257 51.3821 19.5H54.3821ZM45.3596 28.5C50.3384 28.5 54.3821 24.4748 54.3821 19.5H51.3821C51.3821 22.8095 48.69 25.5 45.3596 25.5V28.5ZM42.577 28.0634C43.4554 28.3472 44.3911 28.5 45.3596 28.5V25.5C44.708 25.5 44.0833 25.3974 43.4994 25.2087L42.577 28.0634ZM28.8468 42.0377L42.9883 27.9385L40.8702 25.814L26.7286 39.9132L28.8468 42.0377ZM29.3071 44C29.3071 43.1851 29.1917 42.3947 28.9754 41.6451L26.093 42.4768C26.2321 42.9588 26.3071 43.4694 26.3071 44H29.3071ZM20.786 52.5C25.4878 52.5 29.3071 48.6987 29.3071 44H26.3071C26.3071 47.0333 23.8395 49.5 20.786 49.5V52.5ZM20.4013 52.4915C20.5289 52.4971 20.6572 52.5 20.786 52.5V49.5C20.7016 49.5 20.6178 49.4981 20.5345 49.4944L20.4013 52.4915ZM21.3805 46.0231L18.9396 48.464L21.0609 50.5853L23.5018 48.1444L21.3805 46.0231ZM20.4552 43.536L21.251 46.5061L24.1488 45.7296L23.353 42.7595L20.4552 43.536ZM17.8387 43.0937L20.8088 43.8896L21.5852 40.9918L18.6152 40.196L17.8387 43.0937ZM15.8549 45.4311L18.3217 42.9643L16.2003 40.843L13.7336 43.3098L15.8549 45.4311ZM20.786 35.5C16.0842 35.5 12.265 39.3013 12.265 44H15.265C15.265 40.9667 17.7326 38.5 20.786 38.5V35.5ZM23.144 35.83C22.3934 35.6148 21.6019 35.5 20.786 35.5V38.5C21.3194 38.5 21.8327 38.5749 22.3171 38.7138L23.144 35.83ZM36.8975 21.8545L22.7519 35.9578L24.8701 38.0823L39.0157 23.979L36.8975 21.8545ZM36.3371 19.5C36.3371 20.4626 36.4891 21.3926 36.7716 22.2659L39.626 21.3426C39.4388 20.7639 39.3371 20.1452 39.3371 19.5H36.3371ZM45.3596 10.5C40.3809 10.5 36.3371 14.5252 36.3371 19.5H39.3371C39.3371 16.1905 42.0292 13.5 45.3596 13.5V10.5ZM39.0157 23.979C39.7578 23.2391 39.9013 22.1937 39.626 21.3426L36.7716 22.2659C36.7481 22.1933 36.7349 22.0167 36.8975 21.8545L39.0157 23.979ZM22.3171 38.7138C23.1446 38.9511 24.1499 38.8003 24.8701 38.0823L22.7519 35.9578C22.9102 35.7999 23.0791 35.8114 23.144 35.83L22.3171 38.7138ZM13.7336 43.3098C13.9503 43.0931 14.2973 43.0035 14.627 43.118C14.9884 43.2435 15.265 43.6003 15.265 44H12.265C12.265 44.946 12.8631 45.6811 13.6425 45.9519C14.3903 46.2116 15.2519 46.0341 15.8549 45.4311L13.7336 43.3098ZM20.5345 49.4944C20.6469 49.4994 20.798 49.5429 20.9369 49.6542C21.0696 49.7605 21.1476 49.8936 21.1841 50.0144C21.256 50.2528 21.1794 50.4669 21.0609 50.5853L18.9396 48.464C18.2839 49.1198 18.0616 50.0511 18.3119 50.8808C18.5748 51.7524 19.3506 52.4447 20.4013 52.4915L20.5345 49.4944ZM26.7286 39.9132C26.0044 40.6352 25.8534 41.6464 26.093 42.4768L28.9754 41.6451C28.9939 41.7092 29.0061 41.8788 28.8468 42.0377L26.7286 39.9132ZM43.4994 25.2087C42.6505 24.9344 41.6093 25.0771 40.8702 25.814L42.9883 27.9385C42.8264 28.0999 42.6503 28.0871 42.577 28.0634L43.4994 25.2087ZM18.6152 40.196C17.7524 39.9648 16.8319 40.2114 16.2003 40.843L18.3217 42.9643C18.1954 43.0906 18.0113 43.14 17.8387 43.0937L18.6152 40.196ZM46.4796 23.399C47.3423 23.6301 48.2629 23.3835 48.8944 22.7519L46.7731 20.6306C46.8994 20.5043 47.0835 20.4549 47.2561 20.5012L46.4796 23.399ZM23.353 42.7595C23.1218 41.8968 22.448 41.2229 21.5852 40.9918L20.8088 43.8896C20.6362 43.8433 20.5015 43.7085 20.4552 43.536L23.353 42.7595ZM41.7418 20.8354C41.9729 21.6981 42.6468 22.372 43.5095 22.6031L44.286 19.7053C44.4585 19.7516 44.5933 19.8864 44.6396 20.0589L41.7418 20.8354ZM23.5018 48.1444C24.1333 47.5129 24.38 46.5923 24.1488 45.7296L21.251 46.5061C21.2048 46.3335 21.2541 46.1494 21.3805 46.0231L23.5018 48.1444ZM41.593 15.4505C40.9614 16.082 40.7148 17.0026 40.9459 17.8653L43.8437 17.0888C43.89 17.2614 43.8406 17.4455 43.7143 17.5718L41.593 15.4505ZM52.4035 19.2427C52.2854 19.3608 52.0819 19.432 51.8584 19.3717C51.7449 19.3411 51.6194 19.2737 51.5149 19.1566C51.4054 19.034 51.3531 18.8951 51.3398 18.7838L54.3188 18.4291C54.1982 17.4162 53.4887 16.7043 52.6399 16.4753C51.8255 16.2556 50.9224 16.4812 50.2822 17.1214L52.4035 19.2427ZM45.3596 13.5C45.2321 13.5 45.0653 13.4584 44.9109 13.3442C44.763 13.2348 44.6714 13.0922 44.6261 12.957C44.5356 12.6871 44.6171 12.4264 44.767 12.2764L46.8884 14.3977C47.5405 13.7455 47.743 12.8163 47.4705 12.0034C47.185 11.152 46.3918 10.5 45.3596 10.5V13.5Z" fill="#242424" mask="url(#path-2-outside-1_199_14412)"/>
<path d="M36.0925 38.1947C35.7996 37.9018 35.3247 37.9018 35.0318 38.1947C34.7389 38.4876 34.7389 38.9625 35.0318 39.2554L36.0925 38.1947ZM40.0053 34.2819C39.7124 33.989 39.2375 33.989 38.9446 34.2819C38.6517 34.5748 38.6517 35.0497 38.9446 35.3425L40.0053 34.2819ZM50.4828 48.6485L49.3984 49.7329L50.4591 50.7936L51.5435 49.7092L50.4828 48.6485ZM47.6307 49.7329L36.0925 38.1947L35.0318 39.2554L46.57 50.7936L47.6307 49.7329ZM38.9446 35.3425L50.4828 46.8808L51.5435 45.8201L40.0053 34.2819L38.9446 35.3425ZM49.3984 49.7329C48.9103 50.2211 48.1188 50.2211 47.6307 49.7329L46.57 50.7936C47.644 51.8675 49.3852 51.8675 50.4591 50.7936L49.3984 49.7329ZM51.5435 49.7092C52.6174 48.6353 52.6174 46.894 51.5435 45.8201L50.4828 46.8808C50.971 47.3689 50.971 48.1604 50.4828 48.6485L51.5435 49.7092Z" fill="#242424"/>
<path d="M27.2197 27.5303C27.5126 27.8232 27.9874 27.8232 28.2803 27.5303C28.5732 27.2374 28.5732 26.7626 28.2803 26.4697L27.2197 27.5303ZM19.2803 17.4697C18.9874 17.1768 18.5126 17.1768 18.2197 17.4697C17.9268 17.7626 17.9268 18.2374 18.2197 18.5303L19.2803 17.4697ZM28.2803 26.4697L19.2803 17.4697L18.2197 18.5303L27.2197 27.5303L28.2803 26.4697Z" fill="#242424"/>
<mask id="path-6-inside-2_199_14412" fill="white">
<rect x="12.4576" y="15.1206" width="4.8269" height="6.76522" rx="1" transform="rotate(-45 12.4576 15.1206)"/>
</mask>
<rect x="12.4576" y="15.1206" width="4.8269" height="6.76522" rx="1" transform="rotate(-45 12.4576 15.1206)" stroke="#242424" stroke-width="3" mask="url(#path-6-inside-2_199_14412)"/>
<path d="M39.2803 26.5303C39.5732 26.2374 39.5732 25.7626 39.2803 25.4697C38.9874 25.1768 38.5126 25.1768 38.2197 25.4697L39.2803 26.5303ZM26.2197 37.4697C25.9268 37.7626 25.9268 38.2374 26.2197 38.5303C26.5126 38.8232 26.9874 38.8232 27.2803 38.5303L26.2197 37.4697ZM38.2197 25.4697L26.2197 37.4697L27.2803 38.5303L39.2803 26.5303L38.2197 25.4697Z" fill="#FF1E26"/>
</svg>
