<svg width="24" height="24" viewBox="0 0 24 24" fill="none" xmlns="http://www.w3.org/2000/svg">
<path d="M23.25 12C23.25 18.2132 18.2132 23.25 12 23.25C5.7868 23.25 0.75 18.2132 0.75 12C0.75 5.7868 5.7868 0.75 12 0.75C18.2132 0.75 23.25 5.7868 23.25 12Z" stroke="#242424" stroke-width="1.5"/>
<path fill-rule="evenodd" clip-rule="evenodd" d="M1.5105 11.527C1.76875 11.3414 2.04419 11.1616 2.33645 10.9884C4.64497 9.62035 7.88305 8.75 11.5 8.75C15.117 8.75 18.3551 9.62035 20.6636 10.9884C21.3753 11.4101 21.9873 11.871 22.494 12.3604C22.498 12.2407 22.5 12.1206 22.5 12C22.5 11.4246 22.4537 10.8599 22.3647 10.3097C22.0668 10.0951 21.7541 9.89095 21.4283 9.69793C18.8508 8.17051 15.3389 7.25 11.5 7.25C7.76414 7.25 4.33787 8.1218 1.78114 9.57634C1.63224 10.2065 1.54013 10.8587 1.5105 11.527Z" fill="#242424"/>
<path d="M23 13.5263L18.8367 13.0637C18.4818 13.0243 18.1327 13.1771 17.921 13.4647L14.1948 18.525C14.0682 18.6968 14 18.9046 14 19.1179V23" stroke="#242424" stroke-width="1.5"/>
<path d="M1 13.5263L5.16333 13.0637C5.51824 13.0243 5.86726 13.1771 6.079 13.4647L9.80524 18.525C9.93175 18.6968 10 18.9046 10 19.1179V23" stroke="#242424" stroke-width="1.5"/>
</svg>
