<svg width="64" height="64" viewBox="0 0 64 64" fill="none" xmlns="http://www.w3.org/2000/svg">
<circle cx="32" cy="32" r="32" fill="white"/>
<path d="M28.7222 26.6111C28.7222 25.7213 28.0009 25 27.1111 25H23.8889C22.9991 25 22.2778 25.7213 22.2778 26.6111V27.8313C22.2778 29.2666 20.5424 29.9855 19.5274 28.9705L18.6647 28.1077C18.0355 27.4785 17.0154 27.4785 16.3862 28.1077L14.1077 30.3862C13.4785 31.0154 13.4785 32.0355 14.1077 32.6646L14.9705 33.5274C15.9855 34.5424 15.2667 36.2778 13.8313 36.2778H12.6111C11.7213 36.2778 11 36.9991 11 37.8889V41.1111C11 42.0009 11.7213 42.7222 12.6111 42.7222H13.8313C15.2666 42.7222 15.9855 44.4576 14.9705 45.4726L14.1077 46.3353C13.4785 46.9646 13.4785 47.9846 14.1077 48.6139L16.3862 50.8923C17.0153 51.5215 18.0354 51.5215 18.6646 50.8923L19.5274 50.0294C20.5424 49.0146 22.2778 49.7333 22.2778 51.1686V52.3889C22.2778 53.2787 22.9991 54 23.8889 54H27.1111C28.0009 54 28.7222 53.2787 28.7222 52.3889V51.1686C28.7222 49.7333 30.4576 49.0146 31.4726 50.0294L32.3353 50.8923C32.9646 51.5215 33.9846 51.5215 34.6139 50.8923L36.8923 48.6139C37.5215 47.9846 37.5215 46.9646 36.8923 46.3353L36.0294 45.4726C35.0146 44.4576 35.7333 42.7222 37.1686 42.7222H38.3889C39.2787 42.7222 40 42.0009 40 41.1111V37.8889C40 36.9991 39.2787 36.2778 38.3889 36.2778H37.1686C35.7333 36.2778 35.0146 34.5424 36.0294 33.5274L36.8923 32.6646C37.5215 32.0355 37.5215 31.0154 36.8923 30.3862L34.6137 28.1077C33.9846 27.4785 32.9646 27.4785 32.3353 28.1077L31.4726 28.9705C30.4576 29.9855 28.7222 29.2666 28.7222 27.8313V26.6111Z" stroke="#242424" stroke-width="1.5"/>
<path d="M25.4991 42.3196C27.0563 42.3196 28.3186 41.0572 28.3186 39.5001C28.3186 37.943 27.0563 36.6807 25.4991 36.6807C23.942 36.6807 22.6797 37.943 22.6797 39.5001C22.6797 41.0572 23.942 42.3196 25.4991 42.3196Z" stroke="#242424" stroke-width="1.5"/>
<path d="M29.8536 21.836L28.9401 21.5912C28.2739 21.4127 27.8786 20.728 28.0571 20.0618L28.7035 17.6494C28.882 16.9833 29.5667 16.588 30.2329 16.7665L31.1464 17.0112C32.221 17.2992 33.1073 16.1441 32.551 15.1807L32.0782 14.3617C31.7333 13.7644 31.938 13.0007 32.5352 12.6559L34.6981 11.4071C35.2953 11.0623 36.0591 11.2669 36.4039 11.8642L36.8767 12.6832C37.433 13.6467 38.8764 13.4566 39.1644 12.382L39.4091 11.4685C39.5876 10.8024 40.2723 10.4071 40.9385 10.5856L43.3509 11.232C44.017 11.4105 44.4123 12.0952 44.2339 12.7613L43.9891 13.6748C43.7011 14.7494 44.8561 15.6357 45.8196 15.0795L46.6386 14.6066C47.236 14.2618 47.9996 14.4664 48.3444 15.0636L49.5932 17.2265C49.938 17.8238 49.7334 18.5875 49.1362 18.9323L48.317 19.4052C47.3537 19.9615 47.5436 21.4049 48.6182 21.6928L49.5318 21.9376C50.1979 22.1161 50.5932 22.8008 50.4147 23.467L49.7684 25.8793C49.5899 26.5455 48.9052 26.9408 48.239 26.7623L47.3254 26.5175C46.2508 26.2296 45.3646 27.3846 45.9208 28.3481L46.3938 29.1671C46.7385 29.7644 46.5339 30.528 45.9367 30.873L43.7738 32.1217C43.1765 32.4665 42.4129 32.2618 42.0679 31.6646L41.5951 30.8455" stroke="#FF1E26" stroke-width="1.5" stroke-linecap="round"/>
<path d="M38.671 23.8751C39.8368 24.1875 41.0351 23.4957 41.3474 22.3299C41.6598 21.1641 40.968 19.9658 39.8022 19.6535C38.6365 19.3411 37.4382 20.0329 37.1258 21.1987C36.8134 22.3645 37.5053 23.5627 38.671 23.8751Z" stroke="#FF1E26" stroke-width="1.5"/>
</svg>
