<svg width="49" height="48" viewBox="0 0 49 48" fill="none" xmlns="http://www.w3.org/2000/svg">
<path d="M40.25 12H8.25C7.14543 12 6.25 12.8954 6.25 14V40C6.25 41.1046 7.14543 42 8.25 42H40.25C41.3546 42 42.25 41.1046 42.25 40V14C42.25 12.8954 41.3546 12 40.25 12Z" stroke="#242424" stroke-width="1.5"/>
<path d="M20.25 12V6.2C20.25 6.08954 20.3396 6 20.45 6H28.05C28.1604 6 28.25 6.08954 28.25 6.2V12" stroke="#242424" stroke-width="1.5" stroke-linecap="round"/>
<path d="M6.25 21H21.25M21.25 21V18.2C21.25 18.0895 21.3396 18 21.45 18H27.05C27.1604 18 27.25 18.0895 27.25 18.2V21M21.25 21V23.8C21.25 23.9104 21.3396 24 21.45 24H27.05C27.1604 24 27.25 23.9104 27.25 23.8V21M27.25 21H42.25" stroke="#FF1E26" stroke-width="1.5" stroke-linecap="round"/>
</svg>
