<svg width="64" height="64" viewBox="0 0 64 64" fill="none" xmlns="http://www.w3.org/2000/svg">
<circle cx="32" cy="32" r="32" fill="white"/>
<path d="M9.49609 13H11.605V36.7711M54.6945 13H52.502V36.7711M50.1401 36.7711H52.502M52.502 36.7711V48M11.605 36.7711H13.9669M11.605 36.7711V48M11.605 48V49.2651H52.502V48M11.605 48H9.50195M52.502 48H55.002" stroke="#FF1E26" stroke-width="1.5" stroke-linecap="round"/>
<mask id="path-3-inside-1_1208_32492" fill="white">
<path d="M21.1912 16.2732C21.6843 15.2176 22.7441 14.543 23.9092 14.543H38.8826C40.0477 14.543 41.1075 15.2176 41.6006 16.2732L42.883 19.0182C43.8122 21.0072 42.3604 23.2879 40.165 23.2879H31.3959H22.6268C20.4314 23.2879 18.9796 21.0072 19.9088 19.0182L21.1912 16.2732Z"/>
</mask>
<path d="M42.883 19.0182L41.524 19.6531L42.883 19.0182ZM21.1912 16.2732L19.8321 15.6383L21.1912 16.2732ZM23.9092 16.043H38.8826V13.043H23.9092V16.043ZM40.2416 16.9081L41.524 19.6531L44.242 18.3833L42.9597 15.6383L40.2416 16.9081ZM21.2678 19.6531L22.5502 16.9081L19.8321 15.6383L18.5498 18.3833L21.2678 19.6531ZM40.165 21.7879H31.3959V24.7879H40.165V21.7879ZM31.3959 21.7879H22.6268V24.7879H31.3959V21.7879ZM18.5498 18.3833C17.1559 21.3668 19.3337 24.7879 22.6268 24.7879V21.7879C21.5291 21.7879 20.8032 20.6476 21.2678 19.6531L18.5498 18.3833ZM41.524 19.6531C41.9886 20.6476 41.2627 21.7879 40.165 21.7879V24.7879C43.4581 24.7879 45.6359 21.3668 44.242 18.3833L41.524 19.6531ZM38.8826 16.043C39.4652 16.043 39.9951 16.3803 40.2416 16.9081L42.9597 15.6383C42.2199 14.0549 40.6303 13.043 38.8826 13.043V16.043ZM23.9092 13.043C22.1615 13.043 20.5719 14.0549 19.8321 15.6383L22.5502 16.9081C22.7967 16.3803 23.3266 16.043 23.9092 16.043V13.043Z" fill="#242424" mask="url(#path-3-inside-1_1208_32492)"/>
<path d="M18.2794 23.2879L18.9305 23.66L19.5718 22.5379L18.2794 22.5379L18.2794 23.2879ZM17.915 34.2191L18.6265 34.4563L18.7731 34.0165L18.4453 33.6888L17.915 34.2191ZM21.5587 38.956V38.206V38.956ZM18.5579 19.6766C18.0901 19.4895 17.6244 19.3216 17.1877 19.2077C16.7586 19.0958 16.3088 19.0225 15.8876 19.0613C15.4496 19.1018 14.9959 19.2705 14.6696 19.6801C14.3581 20.0711 14.25 20.5739 14.25 21.1017H15.75C15.75 20.755 15.8241 20.6383 15.8428 20.6148C15.8467 20.6099 15.8713 20.5692 16.0254 20.555C16.1963 20.5392 16.4524 20.5661 16.8091 20.6591C17.158 20.7502 17.5577 20.892 18.0008 21.0693L18.5579 19.6766ZM14.25 21.1017C14.25 22.3302 14.9655 23.1007 15.802 23.5209C16.6005 23.922 17.5515 24.0379 18.2794 24.0379L18.2794 22.5379C17.6712 22.5379 16.9825 22.4352 16.4753 22.1805C16.0062 21.9448 15.75 21.6222 15.75 21.1017H14.25ZM17.6282 22.9158C17.0855 23.8655 16.0719 26.4217 16.0719 29.4822H17.5719C17.5719 26.7129 18.5016 24.4107 18.9305 23.66L17.6282 22.9158ZM16.0719 29.4822C16.0719 31.0011 16.2616 32.1666 16.5123 33.0188C16.755 33.8442 17.0738 34.4386 17.3847 34.7494L18.4453 33.6888C18.3918 33.6352 18.164 33.3187 17.9513 32.5955C17.7465 31.8991 17.5719 30.8783 17.5719 29.4822H16.0719ZM17.2035 33.9819C17.0672 34.3907 16.8006 35.4222 16.8006 36.4054H18.3006C18.3006 35.6395 18.5198 34.7763 18.6265 34.4563L17.2035 33.9819ZM16.8006 36.4054C16.8006 37.0159 16.8997 37.7697 17.1867 38.4009C17.4754 39.0361 18.0445 39.706 19.0081 39.706V38.206C18.8786 38.206 18.719 38.1471 18.5522 37.7802C18.3837 37.4095 18.3006 36.8879 18.3006 36.4054H16.8006ZM19.0081 39.706C19.2883 39.706 19.3713 39.706 19.581 39.706C19.6859 39.706 19.7044 39.706 19.7951 39.706C19.876 39.706 19.8094 39.706 19.8871 39.706C19.889 39.706 19.8908 39.706 19.8926 39.706C19.8944 39.706 19.8962 39.706 19.898 39.706C19.8998 39.706 19.9016 39.706 19.9034 39.706C19.9052 39.706 19.907 39.706 19.9087 39.706C19.9105 39.706 19.9123 39.706 19.914 39.706C19.9158 39.706 19.9176 39.706 19.9193 39.706C19.9211 39.706 19.9228 39.706 19.9246 39.706C19.9263 39.706 19.928 39.706 19.9298 39.706C19.9315 39.706 19.9332 39.706 19.9349 39.706C19.9367 39.706 19.9384 39.706 19.9401 39.706C19.9418 39.706 19.9435 39.706 19.9452 39.706C19.9469 39.706 19.9486 39.706 19.9503 39.706C19.952 39.706 19.9537 39.706 19.9553 39.706C19.957 39.706 19.9587 39.706 19.9604 39.706C19.962 39.706 19.9637 39.706 19.9653 39.706C19.967 39.706 19.9686 39.706 19.9703 39.706C19.9719 39.706 19.9736 39.706 19.9752 39.706C19.9768 39.706 19.9785 39.706 19.9801 39.706C19.9817 39.706 19.9833 39.706 19.985 39.706C19.9866 39.706 19.9882 39.706 19.9898 39.706C19.9914 39.706 19.993 39.706 19.9946 39.706C19.9962 39.706 19.9978 39.706 19.9994 39.706C20.0009 39.706 20.0025 39.706 20.0041 39.706C20.0057 39.706 20.0072 39.706 20.0088 39.706C20.0104 39.706 20.0119 39.706 20.0135 39.706C20.015 39.706 20.0166 39.706 20.0181 39.706C20.0197 39.706 20.0212 39.706 20.0228 39.706C20.0243 39.706 20.0258 39.706 20.0273 39.706C20.0289 39.706 20.0304 39.706 20.0319 39.706C20.0334 39.706 20.0349 39.706 20.0364 39.706C20.0379 39.706 20.0394 39.706 20.0409 39.706C20.0424 39.706 20.0439 39.706 20.0454 39.706C20.1089 39.706 20.0522 39.706 20.1134 39.706C20.1685 39.706 20.1836 39.706 20.2315 39.706C20.3033 39.706 20.3631 39.706 20.4201 39.706C20.6365 39.706 20.8412 39.706 21.5587 39.706V38.206C20.8412 38.206 20.6365 38.206 20.4201 38.206C20.3631 38.206 20.3033 38.206 20.2315 38.206C20.1836 38.206 20.1685 38.206 20.1134 38.206C20.0522 38.206 20.1089 38.206 20.0454 38.206C20.0439 38.206 20.0424 38.206 20.0409 38.206C20.0394 38.206 20.0379 38.206 20.0364 38.206C20.0349 38.206 20.0334 38.206 20.0319 38.206C20.0304 38.206 20.0289 38.206 20.0273 38.206C20.0258 38.206 20.0243 38.206 20.0228 38.206C20.0212 38.206 20.0197 38.206 20.0181 38.206C20.0166 38.206 20.015 38.206 20.0135 38.206C20.0119 38.206 20.0104 38.206 20.0088 38.206C20.0072 38.206 20.0057 38.206 20.0041 38.206C20.0025 38.206 20.0009 38.206 19.9994 38.206C19.9978 38.206 19.9962 38.206 19.9946 38.206C19.993 38.206 19.9914 38.206 19.9898 38.206C19.9882 38.206 19.9866 38.206 19.985 38.206C19.9833 38.206 19.9817 38.206 19.9801 38.206C19.9785 38.206 19.9768 38.206 19.9752 38.206C19.9736 38.206 19.9719 38.206 19.9703 38.206C19.9686 38.206 19.967 38.206 19.9653 38.206C19.9637 38.206 19.962 38.206 19.9604 38.206C19.9587 38.206 19.957 38.206 19.9553 38.206C19.9537 38.206 19.952 38.206 19.9503 38.206C19.9486 38.206 19.9469 38.206 19.9452 38.206C19.9435 38.206 19.9418 38.206 19.9401 38.206C19.9384 38.206 19.9367 38.206 19.9349 38.206C19.9332 38.206 19.9315 38.206 19.9298 38.206C19.928 38.206 19.9263 38.206 19.9246 38.206C19.9228 38.206 19.9211 38.206 19.9193 38.206C19.9176 38.206 19.9158 38.206 19.914 38.206C19.9123 38.206 19.9105 38.206 19.9087 38.206C19.907 38.206 19.9052 38.206 19.9034 38.206C19.9016 38.206 19.8998 38.206 19.898 38.206C19.8962 38.206 19.8944 38.206 19.8926 38.206C19.8908 38.206 19.889 38.206 19.8871 38.206C19.8094 38.206 19.876 38.206 19.7951 38.206C19.7044 38.206 19.6859 38.206 19.581 38.206C19.3713 38.206 19.2883 38.206 19.0081 38.206V39.706ZM21.5587 39.706H23.3806V38.206H21.5587V39.706ZM23.3806 39.706C24.5998 39.706 25.5881 38.7176 25.5881 37.4985H24.0881C24.0881 37.8892 23.7713 38.206 23.3806 38.206V39.706Z" fill="#242424"/>
<path d="M24.109 28.3891L19.0078 26.9316" stroke="#242424" stroke-width="1.5"/>
<circle cx="20.8303" cy="31.3039" r="0.728748" fill="#242424"/>
<path d="M23.7461 30.9395H31.7623" stroke="#242424" stroke-width="1.5"/>
<path d="M23.7461 34.9482H31.7623" stroke="#242424" stroke-width="1.5"/>
<path d="M45.2441 23.2879L44.5929 23.66L43.9517 22.5379L45.2441 22.5379L45.2441 23.2879ZM45.6084 34.2191L44.8969 34.4563L44.7504 34.0165L45.0781 33.6888L45.6084 34.2191ZM41.9647 38.956V38.206V38.956ZM44.9655 19.6766C45.4333 19.4895 45.8991 19.3216 46.3358 19.2077C46.7648 19.0958 47.2147 19.0225 47.6359 19.0613C48.0739 19.1018 48.5275 19.2705 48.8538 19.6801C49.1653 20.0711 49.2734 20.5739 49.2734 21.1017H47.7734C47.7734 20.755 47.6994 20.6383 47.6806 20.6148C47.6768 20.6099 47.6521 20.5692 47.498 20.555C47.3271 20.5392 47.071 20.5661 46.7144 20.6591C46.3654 20.7502 45.9658 20.892 45.5226 21.0693L44.9655 19.6766ZM49.2734 21.1017C49.2734 22.3302 48.5579 23.1007 47.7214 23.5209C46.9229 23.922 45.972 24.0379 45.2441 24.0379L45.2441 22.5379C45.8522 22.5379 46.5409 22.4352 47.0481 22.1805C47.5173 21.9448 47.7734 21.6222 47.7734 21.1017H49.2734ZM45.8953 22.9158C46.4379 23.8655 47.4516 26.4217 47.4516 29.4822H45.9516C45.9516 26.7129 45.0219 24.4107 44.5929 23.66L45.8953 22.9158ZM47.4516 29.4822C47.4516 31.0011 47.2618 32.1666 47.0112 33.0188C46.7684 33.8442 46.4496 34.4386 46.1388 34.7494L45.0781 33.6888C45.1316 33.6352 45.3594 33.3187 45.5721 32.5955C45.7769 31.8991 45.9516 30.8783 45.9516 29.4822H47.4516ZM46.32 33.9819C46.4562 34.3907 46.7228 35.4222 46.7228 36.4054H45.2228C45.2228 35.6395 45.0036 34.7763 44.8969 34.4563L46.32 33.9819ZM46.7228 36.4054C46.7228 37.0159 46.6237 37.7697 46.3368 38.4009C46.0481 39.0361 45.479 39.706 44.5153 39.706V38.206C44.6448 38.206 44.8044 38.1471 44.9712 37.7802C45.1398 37.4095 45.2228 36.8879 45.2228 36.4054H46.7228ZM44.5153 39.706C44.2352 39.706 44.1521 39.706 43.9424 39.706C43.8376 39.706 43.819 39.706 43.7283 39.706C43.6475 39.706 43.714 39.706 43.6363 39.706C43.6345 39.706 43.6327 39.706 43.6308 39.706C43.629 39.706 43.6272 39.706 43.6254 39.706C43.6236 39.706 43.6218 39.706 43.6201 39.706C43.6183 39.706 43.6165 39.706 43.6147 39.706C43.6129 39.706 43.6112 39.706 43.6094 39.706C43.6076 39.706 43.6059 39.706 43.6041 39.706C43.6024 39.706 43.6006 39.706 43.5989 39.706C43.5971 39.706 43.5954 39.706 43.5937 39.706C43.5919 39.706 43.5902 39.706 43.5885 39.706C43.5868 39.706 43.5851 39.706 43.5833 39.706C43.5816 39.706 43.5799 39.706 43.5782 39.706C43.5765 39.706 43.5748 39.706 43.5732 39.706C43.5715 39.706 43.5698 39.706 43.5681 39.706C43.5664 39.706 43.5648 39.706 43.5631 39.706C43.5614 39.706 43.5598 39.706 43.5581 39.706C43.5564 39.706 43.5548 39.706 43.5531 39.706C43.5515 39.706 43.5499 39.706 43.5482 39.706C43.5466 39.706 43.545 39.706 43.5433 39.706C43.5417 39.706 43.5401 39.706 43.5385 39.706C43.5369 39.706 43.5353 39.706 43.5336 39.706C43.532 39.706 43.5304 39.706 43.5288 39.706C43.5273 39.706 43.5257 39.706 43.5241 39.706C43.5225 39.706 43.5209 39.706 43.5193 39.706C43.5178 39.706 43.5162 39.706 43.5146 39.706C43.5131 39.706 43.5115 39.706 43.51 39.706C43.5084 39.706 43.5069 39.706 43.5053 39.706C43.5038 39.706 43.5022 39.706 43.5007 39.706C43.4991 39.706 43.4976 39.706 43.4961 39.706C43.4946 39.706 43.493 39.706 43.4915 39.706C43.49 39.706 43.4885 39.706 43.487 39.706C43.4855 39.706 43.484 39.706 43.4825 39.706C43.481 39.706 43.4795 39.706 43.478 39.706C43.4145 39.706 43.4713 39.706 43.41 39.706C43.3549 39.706 43.3399 39.706 43.292 39.706C43.2201 39.706 43.1603 39.706 43.1034 39.706C42.8869 39.706 42.6822 39.706 41.9647 39.706V38.206C42.6822 38.206 42.8869 38.206 43.1034 38.206C43.1603 38.206 43.2201 38.206 43.292 38.206C43.3399 38.206 43.3549 38.206 43.41 38.206C43.4713 38.206 43.4145 38.206 43.478 38.206C43.4795 38.206 43.481 38.206 43.4825 38.206C43.484 38.206 43.4855 38.206 43.487 38.206C43.4885 38.206 43.49 38.206 43.4915 38.206C43.493 38.206 43.4946 38.206 43.4961 38.206C43.4976 38.206 43.4991 38.206 43.5007 38.206C43.5022 38.206 43.5038 38.206 43.5053 38.206C43.5069 38.206 43.5084 38.206 43.51 38.206C43.5115 38.206 43.5131 38.206 43.5146 38.206C43.5162 38.206 43.5178 38.206 43.5193 38.206C43.5209 38.206 43.5225 38.206 43.5241 38.206C43.5257 38.206 43.5273 38.206 43.5288 38.206C43.5304 38.206 43.532 38.206 43.5336 38.206C43.5353 38.206 43.5369 38.206 43.5385 38.206C43.5401 38.206 43.5417 38.206 43.5433 38.206C43.545 38.206 43.5466 38.206 43.5482 38.206C43.5499 38.206 43.5515 38.206 43.5531 38.206C43.5548 38.206 43.5564 38.206 43.5581 38.206C43.5598 38.206 43.5614 38.206 43.5631 38.206C43.5648 38.206 43.5664 38.206 43.5681 38.206C43.5698 38.206 43.5715 38.206 43.5732 38.206C43.5748 38.206 43.5765 38.206 43.5782 38.206C43.5799 38.206 43.5816 38.206 43.5833 38.206C43.5851 38.206 43.5868 38.206 43.5885 38.206C43.5902 38.206 43.5919 38.206 43.5937 38.206C43.5954 38.206 43.5971 38.206 43.5989 38.206C43.6006 38.206 43.6024 38.206 43.6041 38.206C43.6059 38.206 43.6076 38.206 43.6094 38.206C43.6112 38.206 43.6129 38.206 43.6147 38.206C43.6165 38.206 43.6183 38.206 43.6201 38.206C43.6218 38.206 43.6236 38.206 43.6254 38.206C43.6272 38.206 43.629 38.206 43.6308 38.206C43.6327 38.206 43.6345 38.206 43.6363 38.206C43.714 38.206 43.6475 38.206 43.7283 38.206C43.819 38.206 43.8376 38.206 43.9424 38.206C44.1521 38.206 44.2352 38.206 44.5153 38.206V39.706ZM41.9647 39.706H40.1428V38.206H41.9647V39.706ZM40.1428 39.706C38.9237 39.706 37.9353 38.7176 37.9353 37.4985H39.4353C39.4353 37.8892 39.7521 38.206 40.1428 38.206V39.706Z" fill="#242424"/>
<path d="M39.4144 28.3891L44.5156 26.9316" stroke="#242424" stroke-width="1.5"/>
<circle r="0.728748" transform="matrix(-1 0 0 1 42.6931 31.3039)" fill="#242424"/>
<path d="M39.7773 30.9395H31.7611" stroke="#242424" stroke-width="1.5"/>
<path d="M39.7773 34.9482H31.7611" stroke="#242424" stroke-width="1.5"/>
</svg>
