<svg width="32" height="32" viewBox="0 0 32 32" fill="none" xmlns="http://www.w3.org/2000/svg">
<path d="M0.769531 26.6666L4.84953 7.22656H6.36153L10.4655 26.6666H9.14553L8.13753 21.2906H3.09753L2.06553 26.6666H0.769531ZM3.28953 20.3306H7.96953L5.61753 8.81056L3.28953 20.3306Z" fill="#242424"/>
<path d="M12.1641 19.0106V17.9546H17.1081V19.0106H12.1641Z" fill="#242424"/>
<path d="M18.577 26.6666L22.441 17.8106C21.465 17.4426 20.761 16.7786 20.329 15.8186C19.897 14.8426 19.681 13.7146 19.681 12.4346C19.681 11.5066 19.825 10.6506 20.113 9.86656C20.417 9.08256 20.929 8.45056 21.649 7.97056C22.369 7.47456 23.369 7.22656 24.649 7.22656H28.897V26.6666H27.553V18.1946H24.577C24.433 18.1946 24.265 18.1946 24.073 18.1946C23.897 18.1786 23.745 18.1626 23.617 18.1466L20.041 26.6666H18.577ZM24.745 17.1866H27.553V8.25856H24.697C23.513 8.25856 22.593 8.57856 21.937 9.21856C21.297 9.85856 20.977 10.9306 20.977 12.4346C20.977 14.0026 21.265 15.1866 21.841 15.9866C22.417 16.7866 23.385 17.1866 24.745 17.1866Z" fill="#242424"/>
</svg>
