<svg width="12" height="12" viewBox="0 0 12 12" fill="none" xmlns="http://www.w3.org/2000/svg">
<path d="M5.55164 0.545033C5.73505 0.173449 6.26493 0.17345 6.44834 0.545034L7.85013 3.3849C7.9229 3.53232 8.06349 3.63455 8.22617 3.65833L11.3617 4.11664C11.7717 4.17656 11.9351 4.68048 11.6383 4.96956L9.3702 7.17868C9.25226 7.29355 9.19843 7.45911 9.22626 7.62138L9.76143 10.7417C9.83149 11.1501 9.40271 11.4616 9.0359 11.2687L6.23271 9.79456C6.08702 9.71794 5.91295 9.71794 5.76726 9.79456L2.96408 11.2687C2.59726 11.4616 2.16849 11.1502 2.23855 10.7417L2.77371 7.62138C2.80154 7.45911 2.74771 7.29355 2.62978 7.17868L0.361692 4.96956C0.0648947 4.68048 0.228287 4.17656 0.638244 4.11664L3.77381 3.65833C3.93649 3.63455 4.07708 3.53232 4.14985 3.3849L5.55164 0.545033Z" fill="#9B9B9B"/>
</svg>
