<svg width="64" height="64" viewBox="0 0 64 64" fill="none" xmlns="http://www.w3.org/2000/svg">
<circle cx="32" cy="32" r="32" fill="white"/>
<path d="M23.5804 45V23.552H19.0444V22.32H29.5164V23.552H25.0924V45H23.5804ZM37.3021 45.308C35.8275 45.308 34.6795 45.0187 33.8581 44.44C33.0555 43.8427 32.4955 43.04 32.1781 42.032C31.8608 41.0053 31.7021 39.848 31.7021 38.56V28.648C31.7021 27.36 31.8701 26.2213 32.2061 25.232C32.5421 24.2427 33.1115 23.468 33.9141 22.908C34.7355 22.348 35.8648 22.068 37.3021 22.068C38.7395 22.068 39.8595 22.348 40.6621 22.908C41.4835 23.468 42.0621 24.2427 42.3981 25.232C42.7341 26.2213 42.9021 27.36 42.9021 28.648V38.588C42.9021 39.876 42.7435 41.024 42.4261 42.032C42.1088 43.04 41.5395 43.8427 40.7181 44.44C39.9155 45.0187 38.7768 45.308 37.3021 45.308ZM37.3021 44.048C38.3848 44.048 39.2155 43.8333 39.7941 43.404C40.3915 42.9747 40.8021 42.3773 41.0261 41.612C41.2501 40.828 41.3621 39.9227 41.3621 38.896V28.424C41.3621 27.3973 41.2501 26.5013 41.0261 25.736C40.8021 24.9707 40.4008 24.3827 39.8221 23.972C39.2435 23.5427 38.4035 23.328 37.3021 23.328C36.2195 23.328 35.3795 23.5427 34.7821 23.972C34.2035 24.3827 33.8021 24.9707 33.5781 25.736C33.3541 26.5013 33.2421 27.3973 33.2421 28.424V38.896C33.2421 39.9227 33.3541 40.828 33.5781 41.612C33.8021 42.3773 34.2035 42.9747 34.7821 43.404C35.3795 43.8333 36.2195 44.048 37.3021 44.048Z" fill="#242424"/>
</svg>
