<svg width="20" height="20" viewBox="0 0 20 20" fill="none" xmlns="http://www.w3.org/2000/svg">
<path d="M10 5.83325V14.1666" stroke="#9B9B9B" stroke-width="1.5" stroke-linecap="round"/>
<path d="M3.33398 5.83325V14.1666" stroke="#9B9B9B" stroke-width="1.5" stroke-linecap="round"/>
<path d="M16.6673 5.83325V7.99992C16.6673 9.10449 15.7719 9.99992 14.6673 9.99992L3.33398 9.99992" stroke="#9B9B9B" stroke-width="1.5" stroke-linecap="round"/>
<circle cx="3.33398" cy="3.33325" r="1.75" stroke="#9B9B9B" stroke-width="1.5"/>
<path d="M5.08398 16.6665C5.08398 17.633 4.30048 18.4165 3.33398 18.4165C2.36749 18.4165 1.58398 17.633 1.58398 16.6665C1.58398 15.7 2.36749 14.9165 3.33398 14.9165C4.30048 14.9165 5.08398 15.7 5.08398 16.6665Z" stroke="#9B9B9B" stroke-width="1.5"/>
<circle cx="10" cy="3.33325" r="1.75" stroke="#9B9B9B" stroke-width="1.5"/>
<path d="M11.75 16.6665C11.75 17.633 10.9665 18.4165 10 18.4165C9.0335 18.4165 8.25 17.633 8.25 16.6665C8.25 15.7 9.0335 14.9165 10 14.9165C10.9665 14.9165 11.75 15.7 11.75 16.6665Z" stroke="#9B9B9B" stroke-width="1.5"/>
<path d="M18.418 3.33325C18.418 4.29975 17.6345 5.08325 16.668 5.08325C15.7015 5.08325 14.918 4.29975 14.918 3.33325C14.918 2.36675 15.7015 1.58325 16.668 1.58325C17.6345 1.58325 18.418 2.36675 18.418 3.33325Z" stroke="#9B9B9B" stroke-width="1.5"/>
</svg>
