<svg width="49" height="48" viewBox="0 0 49 48" fill="none" xmlns="http://www.w3.org/2000/svg">
<path d="M17.9213 9.99994H12.7497C11.6451 9.99994 10.7497 10.8954 10.7497 11.9999V17.1715C10.7497 17.7019 10.539 18.2107 10.1639 18.5857L6.16392 22.5857C5.38286 23.3667 5.38286 24.6331 6.16392 25.4141L10.1639 29.4141C10.539 29.7891 10.7497 30.2979 10.7497 30.8283V35.9999C10.7497 37.1045 11.6451 37.9999 12.7497 37.9999H17.9213C18.4517 37.9999 18.9604 38.2107 19.3355 38.5857L23.3355 42.5857C24.1165 43.3667 25.3829 43.3667 26.1639 42.5857L30.1639 38.5857C30.5389 38.2107 31.0477 37.9999 31.5781 37.9999H36.7497C37.8543 37.9999 38.7497 37.1045 38.7497 35.9999V30.8283C38.7497 30.2979 38.9605 29.7891 39.3355 29.4141L43.3355 25.4141C44.1165 24.6331 44.1165 23.3667 43.3355 22.5857L39.3355 18.5857C38.9605 18.2107 38.7497 17.7019 38.7497 17.1715V11.9999C38.7497 10.8954 37.8543 9.99994 36.7497 9.99994H31.5781C31.0477 9.99994 30.5389 9.78922 30.1639 9.41416L26.1639 5.41416C25.3829 4.6331 24.1165 4.6331 23.3355 5.41416L19.3355 9.41416C18.9604 9.78922 18.4517 9.99994 17.9213 9.99994Z" stroke="#242424" stroke-width="1.5" stroke-linecap="round"/>
<path d="M18.75 24.3636L22.3608 27.865C22.4384 27.9402 22.5616 27.9402 22.6392 27.865L30.75 20" stroke="#FF1E26" stroke-width="1.5" stroke-linecap="round"/>
</svg>
