<svg width="24" height="24" viewBox="0 0 24 24" fill="none" xmlns="http://www.w3.org/2000/svg">
<path fill-rule="evenodd" clip-rule="evenodd" d="M6.44429 22C3.98977 22 2 20.0102 2 17.5557V6.44429C2 3.98977 3.98977 2 6.44429 2H17.5557C20.0102 2 22 3.98977 22 6.44429V17.5557C22 20.0102 20.0102 22 17.5557 22H6.44429Z" stroke="#242424" stroke-width="1.5" stroke-linecap="round" stroke-linejoin="round"/>
<path fill-rule="evenodd" clip-rule="evenodd" d="M6 7.2504V9.7496C6 10.4402 6.44781 11 7.00021 11H16.9998C17.2651 11 17.5195 10.8683 17.707 10.6338C17.8946 10.3993 18 10.0812 18 9.7496V7.2504C18 6.55982 17.5522 6 16.9998 6H7.00021C6.44781 6 6 6.55982 6 7.2504Z" stroke="#242424" stroke-width="1.5" stroke-linecap="round" stroke-linejoin="round"/>
<path d="M15.809 13.4729C15.3948 13.4729 15.059 13.8087 15.059 14.2229C15.059 14.6371 15.3948 14.9729 15.809 14.9729V13.4729ZM17.7143 14.9729C18.1285 14.9729 18.4643 14.6371 18.4643 14.2229C18.4643 13.8087 18.1285 13.4729 17.7143 13.4729V14.9729ZM11.0487 13.4729C10.6344 13.4729 10.2987 13.8087 10.2987 14.2229C10.2987 14.6371 10.6344 14.9729 11.0487 14.9729V13.4729ZM12.9527 14.9729C13.3669 14.9729 13.7027 14.6371 13.7027 14.2229C13.7027 13.8087 13.3669 13.4729 12.9527 13.4729V14.9729ZM6.28666 13.4729C5.87244 13.4729 5.53666 13.8087 5.53666 14.2229C5.53666 14.6371 5.87244 14.9729 6.28666 14.9729V13.4729ZM8.19074 14.9729C8.60495 14.9729 8.94074 14.6371 8.94074 14.2229C8.94074 13.8087 8.60495 13.4729 8.19074 13.4729V14.9729ZM6.2854 16.8058C5.87119 16.8058 5.5354 17.1415 5.5354 17.5558C5.5354 17.97 5.87119 18.3058 6.2854 18.3058V16.8058ZM8.19071 18.3058C8.60492 18.3058 8.94071 17.97 8.94071 17.5558C8.94071 17.1415 8.60492 16.8058 8.19071 16.8058V18.3058ZM11.0474 16.8058C10.6332 16.8058 10.2974 17.1415 10.2974 17.5558C10.2974 17.97 10.6332 18.3058 11.0474 18.3058V16.8058ZM17.7135 18.3058C18.1277 18.3058 18.4635 17.97 18.4635 17.5558C18.4635 17.1415 18.1277 16.8058 17.7135 16.8058V18.3058ZM15.809 14.9729H17.7143V13.4729H15.809V14.9729ZM11.0487 14.9729H12.9527V13.4729H11.0487V14.9729ZM6.28666 14.9729H8.19074V13.4729H6.28666V14.9729ZM6.2854 18.3058H8.19071V16.8058H6.2854V18.3058ZM11.0474 18.3058H17.7135V16.8058H11.0474V18.3058Z" fill="#242424"/>
</svg>
